<?xml version="1.0" encoding="utf-8"?>
<!-- Generator: Adobe Illustrator 25.0.0, SVG Export Plug-In . SVG Version: 6.00 Build 0)  -->
<svg version="1.1" xmlns="http://www.w3.org/2000/svg" xmlns:xlink="http://www.w3.org/1999/xlink" x="0px" y="0px"
	 viewBox="0 0 1920 500" style="enable-background:new 0 0 1920 500;" xml:space="preserve">
<style type="text/css">
	.st0{fill:url(#SVGID_1_);}
	.st1{opacity:0.3;}
	.st2{fill:#E8E8E8;}
	.st3{opacity:0.3;fill:#E8E8E8;}
	.st4{opacity:0.8;}
	.st5{fill:url(#SVGID_2_);}
	.st6{fill:url(#SVGID_3_);}
	.st7{opacity:0.35;fill:#FFFFFF;}
	.st8{opacity:0.5;}
	.st9{fill:#FFFFFF;}
	.st10{fill:url(#SVGID_4_);}
	.st11{opacity:0.5;fill:#CCD7E6;}
	.st12{fill:url(#SVGID_5_);}
	.st13{fill:none;}
	.st14{opacity:0.5;fill:url(#SVGID_6_);}
	.st15{opacity:0.5;fill:url(#SVGID_7_);}
</style>
<g>
	<radialGradient id="SVGID_1_" cx="963.037" cy="250.6771" r="1158.9969" gradientUnits="userSpaceOnUse">
		<stop  offset="0" style="stop-color:#E8E8E8"/>
		<stop  offset="0.122" style="stop-color:#DDDDDD"/>
		<stop  offset="0.4047" style="stop-color:#CACACA"/>
		<stop  offset="0.6945" style="stop-color:#BFBFBF"/>
		<stop  offset="1" style="stop-color:#BBBBBB"/>
	</radialGradient>
	<rect x="3" y="0.7" class="st0" width="1920" height="500"/>
	<g>
		<g class="st1">
			<g>
				<g>
					<g>
						<polygon class="st2" points="1619.7,9.8 1720.6,9.8 1758.5,47.7 1934.6,47.7 1964.5,77.6 2253.2,77.6 2253.2,78.9 1964,78.9 
							1934.1,48.9 1757.9,48.9 1720,11 1619.7,11 						"/>
					</g>
					<g>
						<circle class="st2" cx="2253.1" cy="78.2" r="2.4"/>
					</g>
					<g>
						<circle class="st2" cx="1619.8" cy="10.4" r="2.4"/>
					</g>
				</g>
				<g>
					<g>
						<polygon class="st2" points="2060.6,154.2 2253.2,154.2 2253.2,155.4 2061.1,155.4 2032.9,183.6 1835.6,183.6 1790.8,228.4 
							1692.2,228.4 1665.2,201.5 1666.1,200.6 1692.7,227.2 1790.2,227.2 1835,182.4 2032.4,182.4 						"/>
					</g>
					<g>
						<circle class="st2" cx="2253.1" cy="154.8" r="2.4"/>
					</g>
					<g>
						<path class="st2" d="M1667.4,199.4c-0.9-0.9-2.4-0.9-3.3,0c-0.9,0.9-0.9,2.4,0,3.3c0.9,0.9,2.4,0.9,3.3,0
							C1668.3,201.8,1668.3,200.4,1667.4,199.4z"/>
					</g>
				</g>
				<g>
					<g>
						<polygon class="st2" points="1998,141.6 2253.2,141.6 2253.2,142.9 1998.5,142.9 1972.8,168.6 1816.8,168.6 1785.1,200.2 
							1694.7,200.2 1661.6,167.2 1630.8,167.2 1630.8,165.9 1662.2,165.9 1695.2,199 1784.6,199 1816.3,167.3 1972.3,167.3 						
							"/>
					</g>
					<g>
						<circle class="st2" cx="2253.1" cy="142.3" r="2.4"/>
					</g>
					<g>
						<circle class="st2" cx="1630.9" cy="166.5" r="2.4"/>
					</g>
				</g>
				<g>
					<g>
						<polygon class="st2" points="1609.5,109 1657.6,109 1681.4,132.9 1742.8,132.9 1762.9,152.9 1950.3,152.9 1976.7,126.6 
							2253.2,126.6 2253.2,127.8 1977.2,127.8 1950.9,154.2 1762.4,154.2 1742.3,134.1 1680.9,134.1 1657.1,110.3 1609.5,110.3 
													"/>
					</g>
					<g>
						<circle class="st2" cx="2253.1" cy="127.2" r="2.4"/>
					</g>
					<g>
						<circle class="st2" cx="1609.6" cy="109.7" r="2.4"/>
					</g>
				</g>
				<g>
					<g>
						<polygon class="st2" points="1566.9,37.6 1697.7,37.6 1731.6,71.5 1895.7,71.5 1919.5,95.3 2253.2,95.3 2253.2,96.5 
							1919,96.5 1895.2,72.7 1731,72.7 1697.2,38.9 1566.9,38.9 						"/>
					</g>
					<g>
						<circle class="st2" cx="2253.1" cy="95.9" r="2.4"/>
					</g>
					<g>
						<circle class="st2" cx="1567" cy="38.2" r="2.4"/>
					</g>
				</g>
				<g>
					<g>
						<polygon class="st2" points="2074.4,167.9 2253.2,167.9 2253.2,169.2 2074.9,169.2 2039.2,204.9 1839.3,204.9 1797.7,246.6 
							1634.5,246.6 1634.5,245.3 1797.1,245.3 1838.8,203.7 2038.7,203.7 						"/>
					</g>
					<g>
						<circle class="st2" cx="2253.1" cy="168.6" r="2.4"/>
					</g>
					<g>
						<circle class="st2" cx="1634.6" cy="246" r="2.4"/>
					</g>
				</g>
				<g>
					<g>
						<polygon class="st2" points="1581.9,80.7 1662.2,80.7 1694,112.5 1750.8,112.5 1771.1,92.1 1858.8,92.1 1879.4,112.8 
							2253.2,112.8 2253.2,114.1 1878.9,114.1 1858.2,93.4 1771.7,93.4 1751.3,113.7 1693.4,113.7 1661.6,81.9 1581.9,81.9 						
							"/>
					</g>
					<g>
						<circle class="st2" cx="2253.1" cy="113.4" r="2.4"/>
					</g>
					<g>
						<circle class="st2" cx="1582" cy="81.3" r="2.4"/>
					</g>
				</g>
			</g>
			<g>
				<g>
					<g>
						<polygon class="st2" points="2082.2,156.3 2137.1,156.3 2137.1,157.6 2082.7,157.6 2065,175.3 1980.4,175.3 1957.5,198.2 
							1872.6,198.2 1847.4,223.4 1737.2,223.4 1737.2,222.2 1846.9,222.2 1872.1,197 1957,197 1979.9,174.1 2064.5,174.1 						"/>
					</g>
					<g>
						<circle class="st2" cx="2136.9" cy="157" r="2.4"/>
					</g>
					<g>
						<path class="st2" d="M1737.3,220.5c-1.3,0-2.4,1.1-2.4,2.4c0,1.3,1.1,2.4,2.4,2.4c1.3,0,2.4-1.1,2.4-2.4
							C1739.6,221.5,1738.6,220.5,1737.3,220.5z"/>
					</g>
				</g>
				<g>
					<g>
						<polygon class="st2" points="2062.8,145.5 2137.1,145.5 2137.1,146.7 2063.3,146.7 2045.5,164.5 1966.4,164.5 1950.4,180.5 
							1870.3,180.5 1845.2,205.7 1747.8,205.7 1747.8,204.4 1844.7,204.4 1869.8,179.3 1949.9,179.3 1965.9,163.3 2045,163.3 						
							"/>
					</g>
					<g>
						<path class="st2" d="M2136.9,143.7c1.3,0,2.4,1.1,2.4,2.4c0,1.3-1.1,2.4-2.4,2.4c-1.3,0-2.4-1.1-2.4-2.4
							C2134.6,144.8,2135.6,143.7,2136.9,143.7z"/>
					</g>
					<g>
						<path class="st2" d="M1747.9,202.7c-1.3,0-2.4,1.1-2.4,2.4c0,1.3,1.1,2.4,2.4,2.4c1.3,0,2.4-1.1,2.4-2.4
							C1750.3,203.7,1749.2,202.7,1747.9,202.7z"/>
					</g>
				</g>
				<g>
					<g>
						<polygon class="st2" points="1731.3,17.1 1783.4,17.1 1801.2,34.9 1957.3,34.9 1972.9,50.4 2067.1,50.4 2082.7,66.1 
							2137.1,66.1 2137.1,67.4 2082.2,67.4 2066.6,51.7 1972.4,51.7 1956.8,36.1 1800.7,36.1 1782.9,18.3 1731.3,18.3 						"/>
					</g>
					<g>
						<circle class="st2" cx="2136.9" cy="66.7" r="2.4"/>
					</g>
					<g>
						<path class="st2" d="M1731.4,15.3c-1.3,0-2.4,1.1-2.4,2.4c0,1.3,1.1,2.4,2.4,2.4c1.3,0,2.4-1.1,2.4-2.4
							C1733.8,16.4,1732.7,15.3,1731.4,15.3z"/>
					</g>
				</g>
				<g>
					<g>
						<polygon class="st2" points="2049.4,131 2137.1,131 2137.1,132.2 2050,132.2 2032,150.2 1945.5,150.2 1928.2,167.5 
							1848.6,167.5 1835.3,180.8 1714.1,180.8 1696.7,198.2 1695.8,197.3 1713.6,179.5 1834.8,179.5 1848.1,166.3 1927.7,166.3 
							1945,148.9 2031.5,148.9 						"/>
					</g>
					<g>
						<circle class="st2" cx="2136.9" cy="131.6" r="2.4"/>
					</g>
					<g>
						<path class="st2" d="M1694.7,196c-0.9,0.9-0.9,2.4,0,3.3c0.9,0.9,2.4,0.9,3.3,0c0.9-0.9,0.9-2.4,0-3.3
							C1697.1,195.1,1695.6,195.1,1694.7,196z"/>
					</g>
				</g>
				<g>
					<g>
						<polygon class="st2" points="1699.9,14.2 1714.9,29.2 1782.4,29.2 1798.5,45.3 1957.6,45.3 1976.4,64.1 2061.7,64.1 
							2075,77.5 2137.1,77.5 2137.1,78.7 2074.5,78.7 2061.1,65.4 1975.9,65.4 1957.1,46.6 1798,46.6 1781.9,30.5 1714.4,30.5 
							1699,15.1 						"/>
					</g>
					<g>
						<circle class="st2" cx="2136.9" cy="78.1" r="2.4"/>
					</g>
					<g>
						<path class="st2" d="M1701.2,13.1c-0.9-0.9-2.4-0.9-3.3,0c-0.9,0.9-0.9,2.4,0,3.3c0.9,0.9,2.4,0.9,3.3,0
							C1702.1,15.5,1702.1,14,1701.2,13.1z"/>
					</g>
				</g>
				<g>
					<g>
						<polygon class="st2" points="1725.3,34.6 1775.8,34.6 1801.8,60.6 1953.7,60.6 1965.6,72.5 2047.9,72.5 2064.2,88.8 
							2137.1,88.8 2137.1,90 2063.6,90 2047.3,73.7 1965.1,73.7 1953.2,61.8 1801.3,61.8 1775.3,35.8 1725.8,35.8 1694.9,66.7 
							1670.1,66.7 1670.1,65.4 1694.4,65.4 						"/>
					</g>
					<g>
						<circle class="st2" cx="2136.9" cy="89.4" r="2.4"/>
					</g>
					<g>
						<circle class="st2" cx="1670.2" cy="66.1" r="2.4"/>
					</g>
				</g>
				<g>
					<g>
						<polygon class="st2" points="1915.8,120.1 2137.1,120.1 2137.1,121.4 1916.3,121.4 1902.1,135.6 1815.2,135.6 1791.8,158.9 
							1711.1,158.9 1711.1,157.7 1791.3,157.7 1814.7,134.3 1901.6,134.3 						"/>
					</g>
					<g>
						<circle class="st2" cx="2136.9" cy="120.7" r="2.4"/>
					</g>
					<g>
						<path class="st2" d="M1711.2,156c-1.3,0-2.4,1.1-2.4,2.4c0,1.3,1.1,2.4,2.4,2.4c1.3,0,2.4-1.1,2.4-2.4
							C1713.5,157,1712.5,156,1711.2,156z"/>
					</g>
				</g>
				<g>
					<g>
						<polygon class="st2" points="1724.4,59.1 1761.5,59.1 1793.5,91.1 1817.6,91.1 1838.1,70.6 1938,70.6 1951.4,84 2029.9,84 
							2045.8,99.8 2137.1,99.8 2137.1,101.1 2045.3,101.1 2029.4,85.2 1950.9,85.2 1937.5,71.9 1838.6,71.9 1818.1,92.3 1793,92.3 
							1761,60.4 1725,60.4 1699.7,85.6 1698.8,84.8 						"/>
					</g>
					<g>
						<circle class="st2" cx="2136.9" cy="100.5" r="2.4"/>
					</g>
					<g>
						<path class="st2" d="M1697.7,83.5c-0.9,0.9-0.9,2.4,0,3.3c0.9,0.9,2.4,0.9,3.3,0c0.9-0.9,0.9-2.4,0-3.3
							C1700.1,82.5,1698.6,82.5,1697.7,83.5z"/>
					</g>
				</g>
				<g>
					<g>
						<polygon class="st2" points="1734.3,94.4 1769,94.4 1786.6,112 1902.2,112 1915.6,98.6 2016.3,98.6 2027.2,109.4 
							2137.1,109.4 2137.1,110.7 2026.7,110.7 2015.8,99.8 1916.1,99.8 1902.7,113.2 1786.1,113.2 1768.5,95.7 1734.8,95.7 
							1709,121.5 1708.1,120.6 						"/>
					</g>
					<g>
						<circle class="st2" cx="2136.9" cy="110.1" r="2.4"/>
					</g>
					<g>
						<path class="st2" d="M1706.9,119.3c-0.9,0.9-0.9,2.4,0,3.3c0.9,0.9,2.4,0.9,3.3,0c0.9-0.9,0.9-2.4,0-3.3
							C1709.4,118.4,1707.9,118.4,1706.9,119.3z"/>
					</g>
				</g>
			</g>
		</g>
		<g class="st1">
			<g>
				<g>
					<g>
						<polygon class="st2" points="264.5,466.7 163.7,466.7 125.8,428.8 -50.3,428.8 -80.3,398.9 -369,398.9 -369,397.6 
							-79.8,397.6 -49.8,427.5 126.3,427.5 164.2,465.5 264.5,465.5 						"/>
					</g>
					<g>
						<circle class="st2" cx="-368.9" cy="398.2" r="2.4"/>
					</g>
					<g>
						<circle class="st2" cx="264.4" cy="466.1" r="2.4"/>
					</g>
				</g>
				<g>
					<g>
						<polygon class="st2" points="-176.4,322.3 -369,322.3 -369,321.1 -176.9,321.1 -148.7,292.9 48.7,292.9 93.5,248.1 192,248.1 
							219,275 218.1,275.9 191.5,249.3 94,249.3 49.2,294.1 -148.2,294.1 						"/>
					</g>
					<g>
						<circle class="st2" cx="-368.9" cy="321.7" r="2.4"/>
					</g>
					<g>
						<path class="st2" d="M216.8,277.1c0.9,0.9,2.4,0.9,3.3,0c0.9-0.9,0.9-2.4,0-3.3c-0.9-0.9-2.4-0.9-3.3,0
							S215.9,276.1,216.8,277.1z"/>
					</g>
				</g>
				<g>
					<g>
						<polygon class="st2" points="-113.7,334.9 -369,334.9 -369,333.6 -114.2,333.6 -88.6,307.9 67.5,307.9 99.1,276.3 
							189.5,276.3 222.6,309.3 253.5,309.3 253.5,310.6 222.1,310.6 189,277.5 99.6,277.5 68,309.2 -88,309.2 						"/>
					</g>
					<g>
						<circle class="st2" cx="-368.9" cy="334.2" r="2.4"/>
					</g>
					<g>
						<circle class="st2" cx="253.3" cy="309.9" r="2.4"/>
					</g>
				</g>
				<g>
					<g>
						<polygon class="st2" points="274.8,367.4 226.6,367.4 202.8,343.6 141.4,343.6 121.4,323.6 -66.1,323.6 -92.4,349.9 
							-369,349.9 -369,348.6 -92.9,348.6 -66.6,322.3 121.9,322.3 141.9,342.4 203.3,342.4 227.1,366.2 274.8,366.2 						"/>
					</g>
					<g>
						<circle class="st2" cx="-368.9" cy="349.3" r="2.4"/>
					</g>
					<g>
						<circle class="st2" cx="274.7" cy="366.8" r="2.4"/>
					</g>
				</g>
				<g>
					<g>
						<polygon class="st2" points="317.4,438.9 186.5,438.9 152.7,405 -11.5,405 -35.3,381.2 -369,381.2 -369,380 -34.8,380 
							-11,403.8 153.2,403.8 187,437.6 317.4,437.6 						"/>
					</g>
					<g>
						<circle class="st2" cx="-368.9" cy="380.6" r="2.4"/>
					</g>
					<g>
						<circle class="st2" cx="317.3" cy="438.2" r="2.4"/>
					</g>
				</g>
				<g>
					<g>
						<polygon class="st2" points="-190.2,308.5 -369,308.5 -369,307.3 -190.7,307.3 -155,271.6 44.9,271.6 86.6,229.9 249.7,229.9 
							249.7,231.2 87.1,231.2 45.4,272.8 -154.5,272.8 						"/>
					</g>
					<g>
						<circle class="st2" cx="-368.9" cy="307.9" r="2.4"/>
					</g>
					<g>
						<circle class="st2" cx="249.6" cy="230.5" r="2.4"/>
					</g>
				</g>
				<g>
					<g>
						<polygon class="st2" points="302.3,395.8 222.1,395.8 190.3,364 133.5,364 113.1,384.4 25.5,384.4 4.8,363.7 -369,363.7 
							-369,362.4 5.3,362.4 26,383.1 112.6,383.1 132.9,362.7 190.8,362.7 222.6,394.5 302.3,394.5 						"/>
					</g>
					<g>
						<circle class="st2" cx="-368.9" cy="363.1" r="2.4"/>
					</g>
					<g>
						<circle class="st2" cx="302.2" cy="395.2" r="2.4"/>
					</g>
				</g>
			</g>
			<g>
				<g>
					<g>
						<polygon class="st2" points="-198,320.1 -252.8,320.1 -252.8,318.9 -198.5,318.9 -180.8,301.1 -96.2,301.1 -73.3,278.3 
							11.6,278.3 36.8,253 147.1,253 147.1,254.3 37.3,254.3 12.1,279.5 -72.8,279.5 -95.6,302.4 -180.2,302.4 						"/>
					</g>
					<g>
						<circle class="st2" cx="-252.7" cy="319.5" r="2.4"/>
					</g>
					<g>
						<path class="st2" d="M146.9,256c1.3,0,2.4-1.1,2.4-2.4c0-1.3-1.1-2.4-2.4-2.4c-1.3,0-2.4,1.1-2.4,2.4
							C144.6,255,145.6,256,146.9,256z"/>
					</g>
				</g>
				<g>
					<g>
						<polygon class="st2" points="-178.6,331 -252.8,331 -252.8,329.8 -179.1,329.8 -161.3,311.9 -82.2,311.9 -66.2,295.9 
							13.9,295.9 39,270.8 136.4,270.8 136.4,272.1 39.6,272.1 14.4,297.2 -65.7,297.2 -81.7,313.2 -160.8,313.2 						"/>
					</g>
					<g>
						<path class="st2" d="M-252.7,332.7c-1.3,0-2.4-1.1-2.4-2.4c0-1.3,1.1-2.4,2.4-2.4c1.3,0,2.4,1.1,2.4,2.4
							C-250.4,331.7-251.4,332.7-252.7,332.7z"/>
					</g>
					<g>
						<path class="st2" d="M136.3,273.8c1.3,0,2.4-1.1,2.4-2.4s-1.1-2.4-2.4-2.4c-1.3,0-2.4,1.1-2.4,2.4S135,273.8,136.3,273.8z"/>
					</g>
				</g>
				<g>
					<g>
						<polygon class="st2" points="152.9,459.4 100.8,459.4 83,441.6 -73.1,441.6 -88.6,426 -182.8,426 -198.5,410.4 -252.8,410.4 
							-252.8,409.1 -198,409.1 -182.3,424.8 -88.1,424.8 -72.6,440.3 83.6,440.3 101.4,458.2 152.9,458.2 						"/>
					</g>
					<g>
						<circle class="st2" cx="-252.7" cy="409.7" r="2.4"/>
					</g>
					<g>
						<path class="st2" d="M152.8,461.1c1.3,0,2.4-1.1,2.4-2.4s-1.1-2.4-2.4-2.4c-1.3,0-2.4,1.1-2.4,2.4S151.5,461.1,152.8,461.1z"
							/>
					</g>
				</g>
				<g>
					<g>
						<polygon class="st2" points="-165.2,345.5 -252.8,345.5 -252.8,344.3 -165.7,344.3 -147.8,326.3 -61.3,326.3 -44,309 
							35.6,309 48.9,295.7 170.1,295.7 187.5,278.3 188.4,279.2 170.7,297 49.4,297 36.1,310.2 -43.4,310.2 -60.8,327.6 
							-147.2,327.6 						"/>
					</g>
					<g>
						<circle class="st2" cx="-252.7" cy="344.9" r="2.4"/>
					</g>
					<g>
						<path class="st2" d="M189.6,280.5c0.9-0.9,0.9-2.4,0-3.3c-0.9-0.9-2.4-0.9-3.3,0c-0.9,0.9-0.9,2.4,0,3.3
							C187.1,281.4,188.6,281.4,189.6,280.5z"/>
					</g>
				</g>
				<g>
					<g>
						<polygon class="st2" points="184.3,462.3 169.3,447.2 101.8,447.2 85.8,431.2 -73.4,431.2 -92.2,412.4 -177.4,412.4 
							-190.8,399 -252.8,399 -252.8,397.7 -190.3,397.7 -176.9,411.1 -91.7,411.1 -72.9,429.9 86.3,429.9 102.4,446 169.8,446 
							185.2,461.4 						"/>
					</g>
					<g>
						<circle class="st2" cx="-252.7" cy="398.4" r="2.4"/>
					</g>
					<g>
						<path class="st2" d="M183,463.4c0.9,0.9,2.4,0.9,3.3,0c0.9-0.9,0.9-2.4,0-3.3c-0.9-0.9-2.4-0.9-3.3,0
							C182.1,461,182.1,462.5,183,463.4z"/>
					</g>
				</g>
				<g>
					<g>
						<polygon class="st2" points="159,441.9 108.4,441.9 82.4,415.9 -69.4,415.9 -81.3,404 -163.6,404 -179.9,387.7 -252.8,387.7 
							-252.8,386.5 -179.4,386.5 -163.1,402.8 -80.8,402.8 -68.9,414.7 82.9,414.7 108.9,440.7 158.4,440.7 189.3,409.8 
							214.1,409.8 214.1,411.1 189.8,411.1 						"/>
					</g>
					<g>
						<circle class="st2" cx="-252.7" cy="387.1" r="2.4"/>
					</g>
					<g>
						<circle class="st2" cx="214" cy="410.4" r="2.4"/>
					</g>
				</g>
				<g>
					<g>
						<polygon class="st2" points="-31.5,356.4 -252.8,356.4 -252.8,355.1 -32,355.1 -17.8,340.9 69,340.9 92.4,317.5 173.2,317.5 
							173.2,318.8 93,318.8 69.6,342.2 -17.3,342.2 						"/>
					</g>
					<g>
						<circle class="st2" cx="-252.7" cy="355.8" r="2.4"/>
					</g>
					<g>
						<path class="st2" d="M173.1,320.5c1.3,0,2.4-1.1,2.4-2.4s-1.1-2.4-2.4-2.4c-1.3,0-2.4,1.1-2.4,2.4S171.7,320.5,173.1,320.5z"
							/>
					</g>
				</g>
				<g>
					<g>
						<polygon class="st2" points="159.8,417.4 122.7,417.4 90.8,385.4 66.6,385.4 46.2,405.9 -53.8,405.9 -67.1,392.5 
							-145.7,392.5 -161.5,376.6 -252.8,376.6 -252.8,375.4 -161,375.4 -145.2,391.3 -66.6,391.3 -53.3,404.6 45.7,404.6 
							66.1,384.2 91.3,384.2 123.2,416.1 159.3,416.1 184.6,390.8 185.4,391.7 						"/>
					</g>
					<g>
						<circle class="st2" cx="-252.7" cy="376" r="2.4"/>
					</g>
					<g>
						<path class="st2" d="M186.6,393c0.9-0.9,0.9-2.4,0-3.3c-0.9-0.9-2.4-0.9-3.3,0c-0.9,0.9-0.9,2.4,0,3.3S185.7,393.9,186.6,393z
							"/>
					</g>
				</g>
				<g>
					<g>
						<polygon class="st2" points="150,382.1 115.2,382.1 97.7,364.5 -18,364.5 -31.3,377.9 -132.1,377.9 -143,367 -252.8,367 
							-252.8,365.8 -142.4,365.8 -131.6,376.6 -31.8,376.6 -18.5,363.3 98.2,363.3 115.7,380.8 149.5,380.8 175.3,355 176.1,355.9 
													"/>
					</g>
					<g>
						<circle class="st2" cx="-252.7" cy="366.4" r="2.4"/>
					</g>
					<g>
						<path class="st2" d="M177.3,357.2c0.9-0.9,0.9-2.4,0-3.3c-0.9-0.9-2.4-0.9-3.3,0c-0.9,0.9-0.9,2.4,0,3.3
							C174.9,358.1,176.4,358.1,177.3,357.2z"/>
					</g>
				</g>
			</g>
		</g>
		<g>
			<circle class="st3" cx="1772.9" cy="437.5" r="6.6"/>
			<circle class="st3" cx="1796" cy="437.5" r="6.6"/>
			<circle class="st3" cx="1819.1" cy="437.5" r="6.6"/>
			<circle class="st3" cx="1842.2" cy="437.5" r="6.6"/>
			<circle class="st3" cx="1865.3" cy="437.5" r="6.6"/>
			<circle class="st3" cx="1888.4" cy="437.5" r="6.6"/>
			<circle class="st3" cx="1772.9" cy="458" r="6.6"/>
			<circle class="st3" cx="1796" cy="458" r="6.6"/>
			<circle class="st3" cx="1819.1" cy="458" r="6.6"/>
			<circle class="st3" cx="1842.2" cy="458" r="6.6"/>
			<circle class="st3" cx="1865.3" cy="458" r="6.6"/>
			<circle class="st3" cx="1888.4" cy="458" r="6.6"/>
			<circle class="st3" cx="1772.9" cy="478.5" r="6.6"/>
			<circle class="st3" cx="1796" cy="478.5" r="6.6"/>
			<circle class="st3" cx="1819.1" cy="478.5" r="6.6"/>
			<circle class="st3" cx="1842.2" cy="478.5" r="6.6"/>
			<circle class="st3" cx="1865.3" cy="478.5" r="6.6"/>
			<circle class="st3" cx="1888.4" cy="478.5" r="6.6"/>
		</g>
		<g>
			<circle class="st3" cx="24.9" cy="34" r="6.6"/>
			<circle class="st3" cx="48" cy="34" r="6.6"/>
			<circle class="st3" cx="71.2" cy="34" r="6.6"/>
			<circle class="st3" cx="94.3" cy="34" r="6.6"/>
			<circle class="st3" cx="117.4" cy="34" r="6.6"/>
			<circle class="st3" cx="140.5" cy="34" r="6.6"/>
			<circle class="st3" cx="24.9" cy="54.4" r="6.6"/>
			<circle class="st3" cx="48" cy="54.4" r="6.6"/>
			<circle class="st3" cx="71.2" cy="54.4" r="6.6"/>
			<circle class="st3" cx="94.3" cy="54.4" r="6.6"/>
			<circle class="st3" cx="117.4" cy="54.4" r="6.6"/>
			<circle class="st3" cx="140.5" cy="54.4" r="6.6"/>
			<circle class="st3" cx="24.9" cy="74.9" r="6.6"/>
			<circle class="st3" cx="48" cy="74.9" r="6.6"/>
			<circle class="st3" cx="71.2" cy="74.9" r="6.6"/>
			<circle class="st3" cx="94.3" cy="74.9" r="6.6"/>
			<circle class="st3" cx="117.4" cy="74.9" r="6.6"/>
			<circle class="st3" cx="140.5" cy="74.9" r="6.6"/>
		</g>
	</g>
	<g>
		<g>
			<g>
				<polygon class="st2" points="1128.6,241.5 1084.8,241.5 1084.8,240.5 1128.2,240.5 1142.4,226.3 1209.9,226.3 1228.2,208 
					1296,208 1316.2,187.9 1404.2,187.9 1404.2,188.9 1316.6,188.9 1296.4,209 1228.6,209 1210.4,227.3 1142.8,227.3 				"/>
			</g>
			<g>
				<circle class="st2" cx="1084.9" cy="241" r="1.9"/>
			</g>
			<g>
				<path class="st2" d="M1404.1,190.2c1,0,1.9-0.8,1.9-1.9s-0.8-1.9-1.9-1.9c-1,0-1.9,0.8-1.9,1.9S1403.1,190.2,1404.1,190.2z"/>
			</g>
		</g>
		<g>
			<g>
				<polygon class="st2" points="1144.1,250.1 1084.8,250.1 1084.8,249.1 1143.7,249.1 1157.9,234.9 1221.1,234.9 1233.9,222.1 
					1297.9,222.1 1317.9,202.1 1395.7,202.1 1395.7,203.1 1318.3,203.1 1298.3,223.1 1234.3,223.1 1221.5,235.9 1158.4,235.9 				
					"/>
			</g>
			<g>
				<path class="st2" d="M1084.9,251.5c-1,0-1.9-0.8-1.9-1.9c0-1,0.8-1.9,1.9-1.9s1.9,0.8,1.9,1.9
					C1086.8,250.7,1086,251.5,1084.9,251.5z"/>
			</g>
			<g>
				<path class="st2" d="M1395.6,204.4c1,0,1.9-0.8,1.9-1.9s-0.8-1.9-1.9-1.9c-1,0-1.9,0.8-1.9,1.9S1394.6,204.4,1395.6,204.4z"/>
			</g>
		</g>
		<g>
			<g>
				<polygon class="st2" points="1408.9,352.7 1367.3,352.7 1353.1,338.5 1228.4,338.5 1216,326 1140.7,326 1128.2,313.5 
					1084.8,313.5 1084.8,312.5 1128.6,312.5 1141.1,325 1216.4,325 1228.8,337.5 1353.5,337.5 1367.7,351.7 1408.9,351.7 				"/>
			</g>
			<g>
				<circle class="st2" cx="1084.9" cy="313" r="1.9"/>
			</g>
			<g>
				<path class="st2" d="M1408.8,354.1c1,0,1.9-0.8,1.9-1.9c0-1-0.8-1.9-1.9-1.9c-1,0-1.9,0.8-1.9,1.9
					C1406.9,353.2,1407.8,354.1,1408.8,354.1z"/>
			</g>
		</g>
		<g>
			<g>
				<polygon class="st2" points="1154.8,261.7 1084.8,261.7 1084.8,260.7 1154.4,260.7 1168.7,246.4 1237.8,246.4 1251.7,232.5 
					1315.2,232.5 1325.8,221.9 1422.6,221.9 1436.5,208 1437.2,208.7 1423.1,222.9 1326.2,222.9 1315.6,233.5 1252.1,233.5 
					1238.2,247.4 1169.2,247.4 				"/>
			</g>
			<g>
				<circle class="st2" cx="1084.9" cy="261.2" r="1.9"/>
			</g>
			<g>
				<path class="st2" d="M1438.2,209.8c0.7-0.7,0.7-1.9,0-2.7c-0.7-0.7-1.9-0.7-2.7,0c-0.7,0.7-0.7,1.9,0,2.7
					C1436.2,210.5,1437.4,210.5,1438.2,209.8z"/>
			</g>
		</g>
		<g>
			<g>
				<polygon class="st2" points="1434,355 1422,343 1368.1,343 1355.2,330.1 1228.1,330.1 1213.1,315.1 1145.1,315.1 1134.4,304.4 
					1084.8,304.4 1084.8,303.4 1134.8,303.4 1145.5,314.1 1213.5,314.1 1228.5,329.1 1355.7,329.1 1368.5,342 1422.4,342 
					1434.7,354.3 				"/>
			</g>
			<g>
				<circle class="st2" cx="1084.9" cy="303.9" r="1.9"/>
			</g>
			<g>
				<path class="st2" d="M1433,355.9c0.7,0.7,1.9,0.7,2.7,0c0.7-0.7,0.7-1.9,0-2.7c-0.7-0.7-1.9-0.7-2.7,0
					C1432.2,354,1432.2,355.2,1433,355.9z"/>
			</g>
		</g>
		<g>
			<g>
				<polygon class="st2" points="1413.7,338.7 1373.4,338.7 1352.6,317.9 1231.3,317.9 1221.8,308.4 1156.1,308.4 1143.1,295.4 
					1084.8,295.4 1084.8,294.4 1143.5,294.4 1156.5,307.4 1222.2,307.4 1231.7,316.9 1353,316.9 1373.8,337.7 1413.3,337.7 
					1438,313.1 1457.8,313.1 1457.8,314.1 1438.4,314.1 				"/>
			</g>
			<g>
				<circle class="st2" cx="1084.9" cy="294.9" r="1.9"/>
			</g>
			<g>
				<circle class="st2" cx="1457.7" cy="313.6" r="1.9"/>
			</g>
		</g>
		<g>
			<g>
				<polygon class="st2" points="1261.6,270.4 1084.8,270.4 1084.8,269.4 1261.2,269.4 1272.5,258.1 1341.9,258.1 1360.6,239.4 
					1425.1,239.4 1425.1,240.4 1361,240.4 1342.3,259.1 1272.9,259.1 				"/>
			</g>
			<g>
				<circle class="st2" cx="1084.9" cy="269.9" r="1.9"/>
			</g>
			<g>
				<path class="st2" d="M1425,241.8c1,0,1.9-0.8,1.9-1.9s-0.8-1.9-1.9-1.9c-1,0-1.9,0.8-1.9,1.9S1423.9,241.8,1425,241.8z"/>
			</g>
		</g>
		<g>
			<g>
				<polygon class="st2" points="1414.4,319.1 1384.8,319.1 1359.3,293.6 1340,293.6 1323.6,309.9 1243.8,309.9 1233.1,299.3 
					1170.4,299.3 1157.7,286.6 1084.8,286.6 1084.8,285.6 1158.1,285.6 1170.8,298.3 1233.5,298.3 1244.2,308.9 1323.2,308.9 
					1339.6,292.6 1359.7,292.6 1385.2,318.1 1414,318.1 1434.2,297.9 1434.9,298.6 				"/>
			</g>
			<g>
				<circle class="st2" cx="1084.9" cy="286.1" r="1.9"/>
			</g>
			<g>
				<path class="st2" d="M1435.8,299.7c0.7-0.7,0.7-1.9,0-2.7c-0.7-0.7-1.9-0.7-2.7,0c-0.7,0.7-0.7,1.9,0,2.7
					C1433.9,300.4,1435,300.4,1435.8,299.7z"/>
			</g>
		</g>
		<g>
			<g>
				<polygon class="st2" points="1406.5,290.9 1378.8,290.9 1364.8,276.9 1272.4,276.9 1261.7,287.6 1181.3,287.6 1172.6,278.9 
					1084.8,278.9 1084.8,277.9 1173,277.9 1181.7,286.6 1261.3,286.6 1272,275.9 1365.2,275.9 1379.2,289.9 1406.1,289.9 
					1426.7,269.3 1427.4,270 				"/>
			</g>
			<g>
				<circle class="st2" cx="1084.9" cy="278.4" r="1.9"/>
			</g>
			<g>
				<path class="st2" d="M1428.4,271.1c0.7-0.7,0.7-1.9,0-2.7c-0.7-0.7-1.9-0.7-2.7,0c-0.7,0.7-0.7,1.9,0,2.7
					C1426.4,271.8,1427.6,271.8,1428.4,271.1z"/>
			</g>
		</g>
	</g>
	<g>
		<g id="light" class="st4">
			
				<radialGradient id="SVGID_2_" cx="3219.2361" cy="1415.2848" r="110.9413" gradientTransform="matrix(0.8591 1.2682 -0.8591 1.2682 -899.7972 -5625.687)" gradientUnits="userSpaceOnUse">
				<stop  offset="0" style="stop-color:#FFFFFF"/>
				<stop  offset="0.1455" style="stop-color:#F5F5F5;stop-opacity:0.8545"/>
				<stop  offset="0.3963" style="stop-color:#D9D9D9;stop-opacity:0.6037"/>
				<stop  offset="0.72" style="stop-color:#ACACAC;stop-opacity:0.28"/>
				<stop  offset="1" style="stop-color:#808080;stop-opacity:0"/>
			</radialGradient>
			<path class="st5" d="M650,52.8c-74.4,0-134.8,89.1-134.8,199c0,109.9,60.4,199,134.8,199c74.4,0,134.8-89.1,134.8-199
				C784.8,141.9,724.4,52.8,650,52.8z"/>
			
				<radialGradient id="SVGID_3_" cx="3534.21" cy="1100.311" r="110.9413" gradientTransform="matrix(0.8591 1.2682 -0.8591 1.2682 -899.7972 -5625.687)" gradientUnits="userSpaceOnUse">
				<stop  offset="0" style="stop-color:#FFFFFF"/>
				<stop  offset="0.1455" style="stop-color:#F5F5F5;stop-opacity:0.8545"/>
				<stop  offset="0.3963" style="stop-color:#D9D9D9;stop-opacity:0.6037"/>
				<stop  offset="0.72" style="stop-color:#ACACAC;stop-opacity:0.28"/>
				<stop  offset="1" style="stop-color:#808080;stop-opacity:0"/>
			</radialGradient>
			<path class="st6" d="M1191.2,52.8c-74.4,0-134.8,89.1-134.8,199c0,109.9,60.4,199,134.8,199c74.4,0,134.8-89.1,134.8-199
				C1326,141.9,1265.6,52.8,1191.2,52.8z"/>
		</g>
		<polygon class="st7" points="859.1,151.8 848.3,177.9 848.2,177.9 848.3,178 848.2,178 848.3,178 859.1,204.2 889.4,204.1 
			878.5,178 889.4,151.8 		"/>
		<g class="st8">
			<polygon class="st9" points="693.1,359.8 682.4,353.6 693.1,347.4 			"/>
			<polygon class="st9" points="724.7,359.8 713.9,353.6 724.7,347.4 			"/>
			<polygon class="st9" points="741.6,359.8 730.8,353.6 741.6,347.4 			"/>
			<polygon class="st9" points="758.4,359.8 747.7,353.6 758.4,347.4 			"/>
		</g>
		<g class="st8">
			<g>
				<polygon class="st9" points="1215.1,341.6 1108.3,341.6 1097.9,331.2 1009.2,331.2 940.3,262.4 876.5,262.4 868.1,270.8 
					757.3,270.8 748.8,262.4 711.4,262.4 702,271.8 496.3,271.8 648.1,270.9 701.7,270.9 711,261.5 749.2,261.5 757.6,270 
					867.7,270 876.2,261.5 940.7,261.5 1009.5,330.4 1098.2,330.4 1108.6,340.7 1215.1,340.7 				"/>
				<polygon class="st9" points="1224,364.3 1117.2,364.3 1106.9,354 1018.2,354 934.4,270.2 882.6,270.1 868.1,284.6 757.3,284.6 
					748.8,276.2 711.4,276.2 702,285.5 477.4,285.5 648.1,284.7 701.7,284.7 711,275.3 749.2,275.3 757.6,283.8 867.7,283.8 
					882.2,269.2 882.4,269.2 934.7,269.3 1018.5,353.1 1107.2,353.1 1117.6,363.5 1337.9,363.5 				"/>
				<polygon class="st9" points="1405.7,374.7 1117.2,374.7 1106.9,364.3 1018.2,364.3 940.3,286.5 876.5,286.5 868.1,295 
					757.3,295 748.8,286.5 711.4,286.5 690.5,307.4 464.3,307.4 636.6,306.5 690.2,306.5 711,285.7 749.2,285.7 757.6,294.1 
					867.7,294.1 876.2,285.7 940.7,285.7 1018.5,363.5 1107.2,363.5 1117.6,373.8 1224,373.8 				"/>
				<polygon class="st9" points="1405.7,384.6 1107.6,384.6 1099.8,376.8 1011.1,376.8 940.3,306.1 876.5,306.1 868.1,314.5 
					757.3,314.5 748.8,306.1 711.4,306.1 690,327.5 454.8,327.5 636,326.6 689.6,326.6 711,305.2 749.2,305.2 757.6,313.7 
					867.7,313.7 876.2,305.2 940.7,305.2 1011.4,375.9 1100.1,375.9 1107.9,383.7 1214.4,383.7 				"/>
				<polygon class="st9" points="1214.4,394.1 1107.6,394.1 1097.2,383.7 1008.5,383.7 940.3,315.6 876.5,315.6 868.1,324 
					757.3,324 748.8,315.6 711.4,315.6 690,337 454.8,337 636,336.1 689.6,336.1 711,314.7 749.2,314.7 757.6,323.2 867.7,323.2 
					876.2,314.7 940.7,314.7 1008.9,382.9 1097.6,382.9 1107.9,393.2 1381.4,393.2 				"/>
			</g>
			<g>
				<polygon class="st9" points="902.4,485 838.1,485 838,485 769.3,416.2 680.5,416.2 670.2,405.8 563.7,405.8 563.7,405.4 
					670.4,405.4 680.7,415.8 769.4,415.8 838.3,484.6 902.3,484.6 910.7,476.1 1021.3,476.1 1029.8,484.6 1067.4,484.6 
					1076.8,475.2 1294.4,475.2 1130.6,475.6 1077,475.6 1067.6,485 1029.6,485 1021.2,476.6 910.9,476.6 				"/>
				<polygon class="st9" points="896.4,477.3 896.3,477.3 844.1,477.2 844,477.2 760.3,393.4 671.6,393.4 671.5,393.4 661.2,383.1 
					554.7,383.1 554.7,382.6 661.4,382.6 671.8,393 760.5,393 844.2,476.8 896.2,476.9 910.7,462.3 1021.3,462.3 1029.8,470.8 
					1067.4,470.8 1076.8,461.4 1298.8,461.4 1130.6,461.9 1077,461.9 1067.6,471.2 1029.6,471.2 1021.2,462.8 910.9,462.8 				"/>
				<polygon class="st9" points="902.4,460.9 838.1,460.9 760.3,383.1 671.6,383.1 661.2,372.7 554.7,372.7 554.7,372.3 
					661.4,372.3 671.8,382.6 760.5,382.6 760.5,382.7 838.3,460.5 902.3,460.5 910.7,452 1021.3,452 1029.8,460.5 1067.4,460.5 
					1088.3,439.6 1142.1,439.6 1298.8,440 1088.4,440 1067.6,460.9 1029.6,460.9 1021.2,452.4 910.9,452.4 				"/>
				<polygon class="st9" points="902.4,447.1 838.1,447.1 838,447.1 767.4,376.4 678.7,376.4 678.6,376.3 670.9,368.6 564.3,368.6 
					564.3,368.2 671.1,368.2 678.9,376 767.6,376 838.3,446.7 902.3,446.7 910.7,438.2 1021.3,438.2 1029.8,446.7 1067.4,446.7 
					1088.8,425.3 1236.5,425.3 1142.7,425.7 1089,425.7 1067.6,447.1 1029.6,447.1 1021.2,438.6 910.9,438.6 				"/>
				<polygon class="st9" points="902.4,437.6 838.1,437.6 838,437.6 769.9,369.5 681.2,369.5 681.2,369.4 670.9,359.1 564.3,359.1 
					564.3,358.7 671.1,358.7 681.4,369 770.1,369 838.3,437.2 902.3,437.2 910.7,428.7 1021.3,428.7 1029.8,437.2 1067.4,437.2 
					1088.8,415.8 1222,415.8 1142.7,416.2 1089,416.2 1067.6,437.6 1029.6,437.6 1021.2,429.1 910.9,429.1 				"/>
			</g>
			<g>
				<polygon class="st9" points="940.7,239.3 876.2,239.3 867.7,230.8 757.6,230.8 749.2,239.3 711,239.3 701.7,229.9 488.4,229.9 
					648.1,229.1 702,229.1 711.4,238.5 748.8,238.5 757.3,230 868.1,230 876.5,238.5 940.3,238.5 1009.2,169.6 1097.9,169.6 
					1108.3,159.3 1215.1,159.3 1215.1,160.1 1108.6,160.1 1098.2,170.5 1009.5,170.5 				"/>
				<polygon class="st9" points="882.2,231.6 867.7,217.1 757.6,217.1 749.2,225.5 711,225.5 701.7,216.2 648.1,216.2 477.4,215.3 
					702,215.3 711.4,224.7 748.8,224.7 757.3,216.2 868.1,216.2 882.6,230.7 934.4,230.7 1018.2,146.9 1106.9,146.9 1117.2,136.5 
					1224,136.5 1224,137.4 1117.6,137.4 1107.2,147.7 1018.5,147.7 934.7,231.5 				"/>
				<polygon class="st9" points="940.7,215.2 876.2,215.2 867.7,206.7 757.6,206.7 749.2,215.2 711,215.2 710.9,215.1 690.2,194.3 
					636.6,194.3 464.3,193.5 690.5,193.5 690.7,193.6 711.4,214.3 748.8,214.3 757.3,205.9 868.1,205.9 876.5,214.3 940.3,214.3 
					1018.2,136.5 1106.9,136.5 1117.2,126.1 1224,126.1 1224,127 1117.6,127 1107.2,137.4 1018.5,137.4 				"/>
				<polygon class="st9" points="940.7,194.2 876.2,194.2 867.7,185.7 757.6,185.7 749.2,194.2 711,194.2 710.9,194.1 689.6,172.8 
					636,172.8 464.3,171.9 690,171.9 711.4,193.3 748.8,193.3 757.3,184.9 868.1,184.9 876.5,193.3 940.3,193.3 1011.1,122.6 
					1099.8,122.6 1107.6,114.8 1214.4,114.8 1214.4,115.7 1107.9,115.7 1100.1,123.5 1011.4,123.5 				"/>
				<polygon class="st9" points="940.7,184.7 876.2,184.7 867.7,176.2 757.6,176.2 749.2,184.7 711,184.7 710.9,184.5 689.6,163.3 
					464.3,163.3 636,162.4 690,162.4 711.4,183.8 748.8,183.8 757.3,175.4 868.1,175.4 876.5,183.8 940.3,183.8 1008.5,115.7 
					1097.2,115.7 1107.6,105.3 1214.4,105.3 1214.4,106.2 1107.9,106.2 1097.6,116.5 1008.9,116.5 				"/>
				<polygon class="st9" points="940.7,253.8 876.2,253.8 867.7,245.3 757.6,245.3 749.2,253.8 711,253.8 701.7,244.4 496.3,244.4 
					648.1,243.5 702,243.5 711.4,252.9 748.8,252.9 757.3,244.4 868.1,244.4 876.5,252.9 940.3,252.9 980.4,212.9 1119.3,212.9 
					1129.6,202.5 1381.4,202.5 1236.4,203.4 1130,203.4 1119.6,213.7 980.7,213.7 				"/>
			</g>
			<g>
				<polygon class="st9" points="820.9,141.3 756.6,141.3 748.1,132.9 637.9,132.9 629.4,141.3 591.5,141.3 591.4,141.3 
					582.1,131.9 528.4,131.9 203.2,131.5 582.3,131.5 591.6,140.9 629.3,140.9 637.7,132.4 748.3,132.4 756.8,140.9 820.8,140.9 
					889.6,72.1 978.3,72.1 988.7,61.7 1095.4,61.7 1211.5,62.1 988.9,62.1 978.5,72.5 889.8,72.5 				"/>
				<polygon class="st9" points="762.7,133.6 762.6,133.5 748.1,119.1 637.9,119.1 629.4,127.5 591.5,127.5 582.1,118.2 
					528.4,118.2 242.1,117.7 582.3,117.7 582.3,117.8 591.6,127.1 629.3,127.1 637.7,118.6 748.3,118.6 762.8,133.2 814.8,133.1 
					898.6,49.3 987.3,49.3 997.7,38.9 1104.4,38.9 1104.4,39.4 997.8,39.4 987.5,49.7 898.8,49.7 815,133.5 814.9,133.5 				"/>
				<polygon class="st9" points="820.9,117.2 756.6,117.2 748.1,108.7 637.9,108.7 629.4,117.2 591.5,117.2 570.6,96.3 516.9,96.3 
					264.9,95.9 570.8,95.9 591.6,116.7 629.3,116.7 637.7,108.3 748.3,108.3 748.4,108.4 756.8,116.8 820.8,116.8 898.6,38.9 
					987.3,38.9 997.7,28.6 1104.4,28.6 1142.3,29 997.8,29 987.5,39.4 898.8,39.4 				"/>
				<polygon class="st9" points="820.9,103.4 756.6,103.4 748.1,94.9 637.9,94.9 629.4,103.4 591.5,103.4 570.1,82 229.8,82 
					516.4,81.6 570.2,81.6 570.3,81.6 591.6,103 629.3,103 637.7,94.5 748.3,94.5 748.4,94.6 756.8,103 820.8,103 891.5,32.3 
					980.2,32.3 988,24.5 1094.7,24.5 1094.7,24.9 988.2,24.9 980.4,32.7 891.7,32.7 				"/>
				<polygon class="st9" points="820.9,93.9 756.6,93.9 748.1,85.4 637.9,85.4 629.4,93.9 591.5,93.9 570.1,72.5 196.1,72.5 
					516.4,72.1 570.2,72.1 570.3,72.1 591.6,93.5 629.3,93.5 637.7,85 748.3,85 748.4,85.1 756.8,93.5 820.8,93.5 888.9,25.3 
					977.6,25.3 988,15 1094.7,15 1094.7,15.4 988.2,15.4 977.8,25.8 889.1,25.8 				"/>
			</g>
		</g>
		
			<radialGradient id="SVGID_4_" cx="3416.6963" cy="2417.0061" r="189.2527" gradientTransform="matrix(0.7071 0.7071 -0.7071 0.7071 223.1519 -3874.5896)" gradientUnits="userSpaceOnUse">
			<stop  offset="0.5294" style="stop-color:#FFFFFF"/>
			<stop  offset="1" style="stop-color:#FFFFFF;stop-opacity:0"/>
		</radialGradient>
		<path class="st10" d="M930,61.2c-104.5,0-189.3,84.7-189.3,189.3c0,104.5,84.7,189.3,189.3,189.3c104.5,0,189.3-84.7,189.3-189.3
			C1119.3,145.9,1034.6,61.2,930,61.2z"/>
		<path class="st9" d="M927.8,395.8c-1,0-2,0-3-0.1l3-84.4c0.4,0,0.9,0,1.3,0L927.8,395.8z M934.9,395.8l-2.8-84.4
			c0.4,0,0.9,0,1.3-0.1l4.6,84.3C936.9,395.7,935.9,395.7,934.9,395.8z M917.7,395.3c-1-0.1-2-0.2-3-0.3l8.9-84
			c0.4,0,0.8,0.1,1.3,0.1L917.7,395.3z M945,395.1l-8.6-84c0.4,0,0.8-0.1,1.3-0.1l10.3,83.8C947,394.9,946,395,945,395.1z
			 M907.6,394.1c-1-0.2-2-0.3-3-0.5l14.6-83.1c0.4,0.1,0.9,0.1,1.3,0.2L907.6,394.1z M955,393.7l-14.4-83.2c0.4-0.1,0.8-0.1,1.2-0.2
			l16.2,82.9C957,393.3,956,393.5,955,393.7z M897.6,392.2c-1-0.2-2-0.5-3-0.7l20.5-81.9c0.4,0.1,0.8,0.2,1.2,0.3L897.6,392.2z
			 M965,391.6l-20.2-82c0.4-0.1,0.8-0.2,1.2-0.3l21.9,81.5C966.9,391.1,965.9,391.4,965,391.6z M887.9,389.6c-1-0.3-2-0.6-3-0.9
			l26.2-80.3c0.4,0.1,0.8,0.3,1.2,0.4L887.9,389.6z M974.8,388.8l-26-80.3c0.4-0.1,0.8-0.3,1.2-0.4l27.6,79.8
			C976.7,388.2,975.7,388.5,974.8,388.8z M878.2,386.3c-1-0.4-1.9-0.7-2.9-1.1l31.7-78.2c0.4,0.2,0.8,0.3,1.2,0.5L878.2,386.3z
			 M984.3,385.4L952.8,307c0.4-0.2,0.8-0.3,1.2-0.5l33.2,77.6C986.2,384.6,985.3,385,984.3,385.4z M868.9,382.4
			c-0.9-0.4-1.8-0.9-2.8-1.3l37.1-75.8c0.4,0.2,0.8,0.4,1.1,0.5L868.9,382.4z M993.7,381.2l-37-75.9c0.4-0.2,0.8-0.4,1.1-0.6
			l38.6,75.1C995.5,380.3,994.6,380.8,993.7,381.2z M859.8,377.8c-0.9-0.5-1.7-1-2.6-1.5l42.3-73.1c0.4,0.2,0.8,0.4,1.1,0.6
			L859.8,377.8z M1002.6,376.5l-42.2-73.1c0.4-0.2,0.7-0.4,1.1-0.6l43.7,72.2C1004.4,375.4,1003.5,375.9,1002.6,376.5z M851.1,372.6
			c-0.8-0.5-1.7-1.1-2.5-1.7l47.3-69.9c0.4,0.2,0.7,0.5,1.1,0.7L851.1,372.6z M1011.2,371.1l-47.2-70c0.3-0.2,0.7-0.5,1-0.7l48.7,69
			C1012.9,369.9,1012.1,370.5,1011.2,371.1z M842.8,366.8c-0.8-0.6-1.6-1.2-2.4-1.9l52.1-66.4c0.3,0.3,0.7,0.5,1,0.8L842.8,366.8z
			 M1019.5,365.1l-52-66.5c0.3-0.3,0.7-0.5,1-0.8l53.3,65.5C1021.1,363.8,1020.3,364.5,1019.5,365.1z M834.9,360.4
			c-0.8-0.7-1.5-1.3-2.3-2l56.5-62.7c0.3,0.3,0.6,0.6,1,0.9L834.9,360.4z M1027.3,358.6l-56.5-62.8c0.3-0.3,0.6-0.6,1-0.9l57.7,61.6
			C1028.7,357.2,1028,357.9,1027.3,358.6z M827.5,353.5c-0.7-0.7-1.4-1.4-2.1-2.2l60.8-58.6c0.3,0.3,0.6,0.6,0.9,0.9L827.5,353.5z
			 M1034.5,351.6l-60.6-58.7c0.3-0.3,0.6-0.6,0.9-0.9l61.9,57.4C1035.9,350.1,1035.2,350.8,1034.5,351.6z M820.6,346.2
			c-0.7-0.8-1.3-1.5-2-2.3l64.7-54.2c0.3,0.3,0.5,0.6,0.8,1L820.6,346.2z M1041.3,344.1l-64.6-54.4c0.3-0.3,0.5-0.6,0.8-0.9l65.8,53
			C1042.6,342.5,1042,343.3,1041.3,344.1z M814.2,338.3c-0.6-0.8-1.2-1.6-1.8-2.4l68.3-49.6c0.3,0.4,0.5,0.7,0.8,1L814.2,338.3z
			 M1047.6,336.1l-68.2-49.8c0.3-0.3,0.5-0.7,0.7-1l69.2,48.3C1048.8,334.4,1048.2,335.3,1047.6,336.1z M808.3,330
			c-0.6-0.8-1.1-1.7-1.6-2.6l71.6-44.7c0.2,0.4,0.5,0.7,0.7,1.1L808.3,330z M1053.3,327.7l-71.5-44.9c0.2-0.4,0.5-0.7,0.7-1.1
			l72.4,43.4C1054.3,326,1053.8,326.8,1053.3,327.7z M803,321.3c-0.5-0.9-1-1.8-1.5-2.7l74.5-39.7c0.2,0.4,0.4,0.8,0.6,1.1
			L803,321.3z M1058.3,318.9l-74.5-39.8c0.2-0.4,0.4-0.8,0.6-1.2l75.2,38.3C1059.3,317.1,1058.8,318,1058.3,318.9z M798.4,312.3
			c-0.4-0.9-0.9-1.8-1.3-2.8l77.1-34.3c0.2,0.4,0.4,0.8,0.5,1.2L798.4,312.3z M1062.8,309.8l-77.1-34.5c0.2-0.4,0.3-0.8,0.5-1.2
			L1064,307C1063.6,308,1063.2,308.9,1062.8,309.8z M794.4,302.9c-0.4-0.9-0.7-1.9-1.1-2.9l79.4-28.8c0.1,0.4,0.3,0.8,0.5,1.2
			L794.4,302.9z M1066.6,300.4l-79.3-29c0.1-0.4,0.3-0.8,0.4-1.2l79.9,27.4C1067.3,298.5,1067,299.5,1066.6,300.4z M791,293.3
			c-0.3-1-0.6-2-0.9-3l81.2-23.1c0.1,0.4,0.2,0.8,0.4,1.2L791,293.3z M1069.8,290.8l-81.1-23.4c0.1-0.4,0.2-0.8,0.3-1.2l81.6,21.6
			C1070.3,288.8,1070.1,289.8,1069.8,290.8z M788.4,283.4c-0.2-1-0.4-2-0.7-3l82.6-17.4c0.1,0.4,0.2,0.8,0.3,1.3L788.4,283.4z
			 M1072.3,280.9l-82.6-17.6c0.1-0.4,0.2-0.8,0.2-1.2l82.9,15.8C1072.7,278.9,1072.5,279.9,1072.3,280.9z M786.4,273.5
			c-0.2-1-0.3-2-0.5-3l83.6-11.5c0.1,0.4,0.1,0.8,0.2,1.2L786.4,273.5z M1074,270.9l-83.6-11.8c0.1-0.4,0.1-0.8,0.2-1.3l83.8,10.1
			C1074.3,268.9,1074.2,269.9,1074,270.9z M785.2,263.4c-0.1-1-0.2-2-0.2-3l84.2-5.7c0,0.4,0.1,0.9,0.1,1.3L785.2,263.4z
			 M1075.1,260.8l-84.2-6c0-0.4,0.1-0.9,0.1-1.3l84.3,4.2C1075.2,258.8,1075.2,259.8,1075.1,260.8z M784.6,253.3c0-1,0-1.9,0-2.9
			v-0.1H869v0.1c0,0.4,0,0.8,0,1.2L784.6,253.3z M1075.5,250.6H991v-0.2c0-0.4,0-0.9,0-1.3l84.4-1.7c0,1,0,2,0,3V250.6z
			 M869.1,247.4l-84.3-4.2c0.1-1,0.1-2,0.2-3l84.2,5.9C869.2,246.5,869.1,246.9,869.1,247.4z M990.9,246.1c0-0.4-0.1-0.8-0.1-1.3
			l84.1-7.5c0.1,1,0.2,2,0.2,3L990.9,246.1z M869.5,243.1l-83.8-10c0.1-1,0.2-2,0.4-3l83.6,11.7
			C869.6,242.2,869.5,242.7,869.5,243.1z M990.4,241.9c-0.1-0.4-0.1-0.8-0.2-1.3l83.4-13.4c0.2,1,0.3,2,0.5,3L990.4,241.9z
			 M870.1,238.9l-82.9-15.8c0.2-1,0.4-2,0.6-3l82.6,17.5C870.3,238.1,870.2,238.5,870.1,238.9z M989.7,237.7
			c-0.1-0.4-0.2-0.8-0.3-1.3l82.2-19.2c0.2,1,0.4,2,0.7,3L989.7,237.7z M871.1,234.7l-81.6-21.6c0.3-1,0.5-2,0.8-3l81.1,23.3
			C871.3,233.9,871.2,234.3,871.1,234.7z M988.7,233.6c-0.1-0.4-0.2-0.8-0.4-1.3l80.7-24.9c0.3,1,0.6,1.9,0.9,2.9L988.7,233.6z
			 M872.3,230.7l-79.9-27.3c0.3-1,0.7-1.9,1-2.9l79.3,28.9C872.6,229.9,872.4,230.3,872.3,230.7z M987.4,229.5
			c-0.1-0.4-0.3-0.8-0.4-1.1l78.7-30.6c0.4,1,0.7,1.9,1.1,2.9L987.4,229.5z M873.8,226.8L796,193.9c0.4-0.9,0.8-1.8,1.2-2.8
			l77.1,34.4C874.1,226,873.9,226.4,873.8,226.8z M985.8,225.6c-0.2-0.4-0.3-0.8-0.5-1.1l76.3-36.1c0.4,0.9,0.9,1.9,1.3,2.8
			L985.8,225.6z M875.6,222.9l-75.3-38.1c0.5-0.9,0.9-1.8,1.4-2.7l74.5,39.7C876,222.1,875.8,222.5,875.6,222.9z M983.9,221.8
			c-0.2-0.4-0.4-0.7-0.6-1.1l73.6-41.4c0.5,0.9,1,1.8,1.5,2.7L983.9,221.8z M877.6,219.2l-72.5-43.3c0.5-0.9,1.1-1.7,1.6-2.6
			l71.5,44.8C878.1,218.5,877.8,218.8,877.6,219.2z M981.8,218.1c-0.2-0.4-0.5-0.7-0.7-1.1l70.6-46.4c0.6,0.9,1.1,1.7,1.7,2.6
			L981.8,218.1z M879.9,215.6l-69.3-48.3c0.6-0.8,1.2-1.7,1.8-2.5l68.3,49.7C880.4,214.9,880.2,215.3,879.9,215.6z M979.4,214.6
			c-0.3-0.4-0.5-0.7-0.8-1l67.2-51.1c0.6,0.8,1.2,1.6,1.8,2.4L979.4,214.6z M882.5,212.2l-65.8-53c0.6-0.8,1.3-1.6,1.9-2.3
			l64.6,54.3C883,211.5,882.7,211.9,882.5,212.2z M976.8,211.2c-0.3-0.3-0.5-0.6-0.8-1l63.5-55.7c0.7,0.8,1.3,1.5,2,2.3L976.8,211.2
			z M885.3,209l-61.9-57.4c0.7-0.7,1.4-1.5,2.1-2.2l60.7,58.7C885.9,208.4,885.6,208.7,885.3,209z M973.9,208
			c-0.3-0.3-0.6-0.6-0.9-0.9l59.5-59.9c0.7,0.7,1.4,1.4,2.1,2.2L973.9,208z M888.3,205.9l-57.8-61.5c0.7-0.7,1.5-1.4,2.2-2.1
			l56.5,62.7C888.9,205.4,888.6,205.7,888.3,205.9z M970.8,205.1c-0.3-0.3-0.6-0.6-0.9-0.8l55.1-63.9c0.8,0.7,1.5,1.3,2.3,2
			L970.8,205.1z M891.5,203.1l-53.4-65.4c0.8-0.6,1.6-1.3,2.4-1.9l52,66.5C892.2,202.6,891.8,202.8,891.5,203.1z M967.5,202.3
			c-0.3-0.3-0.7-0.5-1-0.8l50.6-67.6c0.8,0.6,1.6,1.2,2.4,1.9L967.5,202.3z M894.9,200.5l-48.7-69c0.8-0.6,1.7-1.2,2.5-1.7l47.2,70
			C895.6,200.1,895.2,200.3,894.9,200.5z M964.1,199.8c-0.4-0.2-0.7-0.5-1.1-0.7l45.8-70.9c0.9,0.6,1.7,1.1,2.5,1.7L964.1,199.8z
			 M898.5,198.2L854.7,126c0.9-0.5,1.7-1,2.6-1.6l42.3,73.1C899.2,197.8,898.8,198,898.5,198.2z M960.5,197.6
			c-0.4-0.2-0.7-0.4-1.1-0.6l40.7-73.9c0.9,0.5,1.8,1,2.7,1.5L960.5,197.6z M902.2,196.1l-38.6-75.1c0.9-0.5,1.8-0.9,2.7-1.4
			l37,75.9C902.9,195.7,902.6,195.9,902.2,196.1z M956.8,195.6c-0.4-0.2-0.8-0.4-1.1-0.5l35.5-76.6c0.9,0.4,1.8,0.9,2.7,1.3
			L956.8,195.6z M906,194.3l-33.2-77.6c0.9-0.4,1.9-0.8,2.8-1.2l31.6,78.3C906.8,194,906.4,194.1,906,194.3z M952.9,193.8
			c-0.4-0.2-0.8-0.3-1.2-0.5l30-78.9c0.9,0.4,1.9,0.7,2.8,1.1L952.9,193.8z M910,192.8L882.2,113c1-0.3,2-0.7,2.9-1l26,80.3
			C910.8,192.5,910.4,192.6,910,192.8z M948.9,192.4c-0.4-0.1-0.8-0.3-1.2-0.4l24.4-80.8c1,0.3,1.9,0.6,2.9,0.9L948.9,192.4z
			 M914,191.5L892,110c1-0.3,2-0.5,2.9-0.8l20.3,81.9C914.9,191.3,914.4,191.4,914,191.5z M944.9,191.2c-0.4-0.1-0.8-0.2-1.2-0.3
			l18.6-82.3c1,0.2,2,0.5,3,0.7L944.9,191.2z M918.2,190.6l-16.3-82.8c1-0.2,2-0.4,3-0.6l14.5,83.2
			C919,190.4,918.6,190.5,918.2,190.6z M940.7,190.3c-0.4-0.1-0.8-0.1-1.2-0.2l12.8-83.4c1,0.2,2,0.3,3,0.5L940.7,190.3z
			 M922.4,189.9l-10.4-83.8c1-0.1,2-0.2,3-0.3l8.7,84C923.2,189.8,922.8,189.8,922.4,189.9z M936.5,189.8c-0.4,0-0.8-0.1-1.3-0.1
			l7-84.1c1,0.1,2,0.2,3,0.3L936.5,189.8z M926.6,189.5l-4.6-84.3c1-0.1,2-0.1,3.1-0.1l2.8,84.4
			C927.5,189.5,927.1,189.5,926.6,189.5z M932.2,189.5c-0.4,0-0.9,0-1.3,0l1.2-84.4c1,0,2,0,3,0.1L932.2,189.5z"/>
		<path class="st11" d="M930,382h-0.2v-23.8h0.2c26.6,0,52.1-9.8,71.9-27.5l15.9,17.7C993.6,370.1,962.5,382,930,382z M922.8,381.8
			c-32.4-1.8-62.9-15.4-85.9-38.5l16.9-16.8c18.8,18.9,43.8,30.1,70.4,31.5L922.8,381.8z M1022.9,343.6l-16.8-16.9
			c18.9-18.8,30.1-43.8,31.5-70.3l23.8,1.3C1059.6,290.1,1045.9,320.7,1022.9,343.6z M832.1,338.2c-21.7-24.2-33.6-55.3-33.6-87.8
			v-0.1h23.8v0.1c0,26.6,9.8,52.1,27.5,71.9L832.1,338.2z M1061.6,250.7h-23.8l0-0.3c0-26.6-9.8-52.2-27.6-72l17.7-15.9
			c21.7,24.2,33.7,55.4,33.7,87.9L1061.6,250.7z M822.4,244.5l-23.8-1.3c1.7-32.4,15.4-63,38.4-86l16.8,16.9
			C835,193,823.9,218,822.4,244.5z M1006.2,174.2c-18.8-18.9-43.8-30-70.4-31.4l1.3-23.8c32.4,1.7,63,15.4,86,38.4L1006.2,174.2z
			 M858.1,170.2l-15.9-17.7c24.1-21.7,55.3-33.6,87.8-33.6l0.2,0v12.9l0.1,10.9l-0.2,0C903.4,142.7,877.9,152.4,858.1,170.2z
			 M930.1,131.8L930.1,131.8l0-1L930.1,131.8z"/>
		<g>
			<g>
				<rect x="929.7" y="114.2" class="st9" width="0.7" height="136.2"/>
				<g>
					<path class="st9" d="M932.7,114.3c0-1.5-1.2-2.7-2.7-2.7c-1.5,0-2.7,1.2-2.7,2.7c0,1.5,1.2,2.7,2.7,2.7
						C931.5,117.1,932.7,115.8,932.7,114.3z"/>
				</g>
			</g>
			<g>
				
					<rect x="915.8" y="91.5" transform="matrix(0.9848 -0.1736 0.1736 0.9848 -15.8746 161.6906)" class="st9" width="0.7" height="160.1"/>
				<g>
					<path class="st9" d="M904.9,92.4c-0.3-1.5-1.7-2.5-3.1-2.2c-1.5,0.3-2.5,1.7-2.2,3.1c0.3,1.5,1.7,2.5,3.1,2.2
						C904.2,95.3,905.2,93.9,904.9,92.4z"/>
				</g>
			</g>
			<g>
				
					<rect x="905.9" y="115.5" transform="matrix(0.9397 -0.342 0.342 0.9397 -8.6425 321.1142)" class="st9" width="0.7" height="139.1"/>
				<g>
					<path class="st9" d="M885.1,118.9c-0.5-1.4-2.1-2.1-3.5-1.6c-1.4,0.5-2.1,2.1-1.6,3.5c0.5,1.4,2.1,2.1,3.5,1.6
						C884.8,121.9,885.6,120.3,885.1,118.9z"/>
				</g>
			</g>
			<g>
				
					<rect x="873" y="95.3" transform="matrix(0.7643 -0.6449 0.6449 0.7643 87.6995 606.3677)" class="st9" width="0.7" height="175.9"/>
				<g>
					<path class="st9" d="M818.8,114.4c-1-1.1-2.7-1.3-3.8-0.3c-1.1,1-1.3,2.7-0.3,3.8c1,1.1,2.7,1.3,3.8,0.3
						C819.6,117.2,819.8,115.5,818.8,114.4z"/>
				</g>
			</g>
			<g>
				
					<rect x="842.2" y="98.2" transform="matrix(0.5031 -0.8642 0.8642 0.5031 246.234 827.2313)" class="st9" width="0.7" height="202.5"/>
				<g>
					<path class="st9" d="M756.5,146.3c-1.3-0.8-3-0.3-3.7,1c-0.8,1.3-0.3,3,1,3.7c1.3,0.8,3,0.3,3.7-1
						C758.2,148.7,757.8,147,756.5,146.3z"/>
				</g>
			</g>
			<g>
				
					<rect x="861.1" y="152.4" transform="matrix(0.342 -0.9397 0.9397 0.342 354.9451 957.801)" class="st9" width="0.7" height="146.1"/>
				<g>
					
						<ellipse transform="matrix(0.1926 -0.9813 0.9813 0.1926 443.4546 939.9738)" class="st9" cx="792.9" cy="200.5" rx="2.7" ry="2.7"/>
				</g>
			</g>
			<g>
				
					<rect x="838.7" y="141.8" transform="matrix(0.1759 -0.9844 0.9844 0.1759 460.9908 1018.9861)" class="st9" width="0.7" height="184.8"/>
				<g>
					<path class="st9" d="M748.7,215.3c-1.5-0.3-2.9,0.7-3.1,2.2c-0.3,1.5,0.7,2.9,2.2,3.1c1.5,0.3,2.9-0.7,3.1-2.2
						C751.2,216.9,750.2,215.5,748.7,215.3z"/>
				</g>
			</g>
			<g>
				
					<rect x="726.3" y="268.2" transform="matrix(0.9843 -0.1767 0.1767 0.9843 -34.4206 150.7381)" class="st9" width="205.4" height="0.7"/>
				<g>
					<path class="st9" d="M727.6,284.1c-1.5,0.3-2.5,1.7-2.2,3.2s1.7,2.5,3.2,2.2s2.5-1.7,2.2-3.2
						C730.5,284.8,729,283.8,727.6,284.1z"/>
				</g>
			</g>
			<g>
				
					<rect x="788.4" y="275" transform="matrix(0.9397 -0.3419 0.3419 0.9397 -42.2463 311.1128)" class="st9" width="146.1" height="0.7"/>
				<g>
					<path class="st9" d="M792,297.8c-1.4,0.5-2.1,2.1-1.6,3.5c0.5,1.4,2.1,2.1,3.5,1.6c1.4-0.5,2.1-2.1,1.6-3.5
						C795,298,793.4,297.3,792,297.8z"/>
				</g>
			</g>
			<g>
				
					<rect x="799.7" y="297.5" transform="matrix(0.766 -0.6429 0.6429 0.766 12.9264 631.2474)" class="st9" width="147.6" height="0.7"/>
				<g>
					<circle class="st9" cx="817" cy="345.2" r="2.7"/>
				</g>
			</g>
			<g>
				
					<rect x="783.8" y="318.2" transform="matrix(0.6429 -0.766 0.766 0.6429 67.6581 782.3203)" class="st9" width="178" height="0.7"/>
				<g>
					
						<ellipse transform="matrix(0.663 -0.7486 0.7486 0.663 -14.6 740.9329)" class="st9" cx="815.6" cy="386.7" rx="2.7" ry="2.7"/>
				</g>
			</g>
			<g>
				
					<rect x="809.9" y="319.4" transform="matrix(0.4999 -0.8661 0.8661 0.4999 168.1351 930.7086)" class="st9" width="160.1" height="0.7"/>
				<g>
					<path class="st9" d="M847.7,387.6c-0.7,1.3-0.3,3,1,3.7c1.3,0.7,3,0.3,3.7-1c0.7-1.3,0.3-3-1-3.7S848.4,386.3,847.7,387.6z"/>
				</g>
			</g>
			<g>
				<rect x="929.7" y="250.4" class="st9" width="0.7" height="147.7"/>
				<g>
					<path class="st9" d="M927.3,398c0,1.5,1.2,2.7,2.7,2.7c1.5,0,2.7-1.2,2.7-2.7c0-1.5-1.2-2.7-2.7-2.7
						C928.5,395.3,927.3,396.5,927.3,398z"/>
				</g>
			</g>
			<g>
				
					<rect x="940.9" y="249.4" transform="matrix(0.9848 -0.1736 0.1736 0.9848 -40.2886 168.2249)" class="st9" width="0.7" height="129.9"/>
				<g>
					<path class="st9" d="M949.9,378.7c0.3,1.5,1.7,2.5,3.1,2.2c1.5-0.3,2.5-1.7,2.2-3.1s-1.7-2.5-3.1-2.2
						C950.6,375.8,949.6,377.2,949.9,378.7z"/>
				</g>
			</g>
			<g>
				
					<rect x="959.2" y="245.2" transform="matrix(0.9392 -0.3435 0.3435 0.9392 -55.372 349.7241)" class="st9" width="0.7" height="172"/>
				<g>
					<path class="st9" d="M986.5,412.7c0.5,1.4,2.1,2.1,3.5,1.6c1.4-0.5,2.1-2.1,1.6-3.5c-0.5-1.4-2.1-2.1-3.5-1.6
						C986.7,409.8,986,411.3,986.5,412.7z"/>
				</g>
			</g>
			<g>
				
					<rect x="976.6" y="233.4" transform="matrix(0.766 -0.6428 0.6428 0.766 31.6716 699.5981)" class="st9" width="0.7" height="145.9"/>
				<g>
					<path class="st9" d="M1021.6,363.8c1,1.1,2.7,1.3,3.8,0.3c1.1-1,1.3-2.7,0.3-3.8c-1-1.1-2.7-1.3-3.8-0.3
						S1020.7,362.7,1021.6,363.8z"/>
				</g>
			</g>
			<g>
				
					<rect x="1009.1" y="204.5" transform="matrix(0.4992 -0.8665 0.8665 0.4992 248.8982 1023.0518)" class="st9" width="0.7" height="183.4"/>
				<g>
					<path class="st9" d="M1087.5,344.3c1.3,0.7,3,0.3,3.7-1c0.7-1.3,0.3-3-1-3.7c-1.3-0.7-3-0.3-3.7,1
						C1085.7,341.9,1086.2,343.5,1087.5,344.3z"/>
				</g>
			</g>
			<g>
				
					<rect x="998" y="202.6" transform="matrix(0.342 -0.9397 0.9397 0.342 398.2002 1119.2633)" class="st9" width="0.7" height="145.4"/>
				<g>
					<path class="st9" d="M1065.6,302.7c1.4,0.5,3-0.2,3.5-1.6c0.5-1.4-0.2-3-1.6-3.5c-1.4-0.5-3,0.2-3.5,1.6
						C1063.5,300.6,1064.2,302.1,1065.6,302.7z"/>
				</g>
			</g>
			<g>
				<rect x="930" y="250.1" class="st9" width="186.8" height="0.7"/>
				<g>
					<path class="st9" d="M1116.7,253.1c1.5,0,2.7-1.2,2.7-2.7s-1.2-2.7-2.7-2.7c-1.5,0-2.7,1.2-2.7,2.7S1115.2,253.1,1116.7,253.1z
						"/>
				</g>
			</g>
			<g>
				
					<rect x="928.8" y="235.4" transform="matrix(0.9848 -0.1739 0.1739 0.9848 -25.5574 179.8062)" class="st9" width="169.2" height="0.7"/>
				<g>
					<path class="st9" d="M1097,223.8c1.5-0.3,2.5-1.7,2.2-3.1c-0.3-1.5-1.7-2.5-3.1-2.2c-1.5,0.3-2.5,1.7-2.2,3.1
						C1094.1,223.1,1095.5,224,1097,223.8z"/>
				</g>
			</g>
			<g>
				
					<rect x="917.3" y="202.5" transform="matrix(0.8667 -0.4988 0.4988 0.8667 33.7893 532.0894)" class="st9" width="190.7" height="0.7"/>
				<g>
					<path class="st9" d="M1096.5,157.6c1.3-0.7,1.7-2.4,1-3.7c-0.7-1.3-2.4-1.7-3.7-1c-1.3,0.7-1.7,2.4-1,3.7
						C1093.5,157.9,1095.2,158.4,1096.5,157.6z"/>
				</g>
			</g>
			<g>
				
					<rect x="912.6" y="202.2" transform="matrix(0.766 -0.6429 0.6429 0.766 100.7808 681.9643)" class="st9" width="148.9" height="0.7"/>
				<g>
					<path class="st9" d="M1045.8,156.9c1.1-1,1.3-2.7,0.3-3.8c-1-1.1-2.7-1.3-3.8-0.3c-1.1,1-1.3,2.7-0.3,3.8
						C1042.9,157.7,1044.6,157.8,1045.8,156.9z"/>
				</g>
			</g>
			<g>
				
					<rect x="885" y="172.2" transform="matrix(0.4999 -0.8661 0.8661 0.4999 338.1534 930.6826)" class="st9" width="179.9" height="0.7"/>
				<g>
					<path class="st9" d="M1022.2,96.1c0.7-1.3,0.3-3-1-3.7c-1.3-0.7-3-0.3-3.7,1c-0.7,1.3-0.3,3,1,3.7
						C1019.8,97.8,1021.5,97.4,1022.2,96.1z"/>
				</g>
			</g>
			<g>
				
					<rect x="881.5" y="180.8" transform="matrix(0.3419 -0.9397 0.9397 0.3419 458.3829 1016.9017)" class="st9" width="147.4" height="0.7"/>
				<g>
					<path class="st9" d="M982.9,113c0.5-1.4-0.2-3-1.6-3.5c-1.4-0.5-3,0.2-3.5,1.6c-0.5,1.4,0.2,3,1.6,3.5
						C980.9,115.1,982.4,114.4,982.9,113z"/>
				</g>
			</g>
		</g>
		<radialGradient id="SVGID_5_" cx="930.0325" cy="250.4203" r="92.8914" gradientUnits="userSpaceOnUse">
			<stop  offset="0.5478" style="stop-color:#FFFFFF"/>
			<stop  offset="0.7068" style="stop-color:#FCFDFE"/>
			<stop  offset="0.8086" style="stop-color:#F4F6F9"/>
			<stop  offset="0.8943" style="stop-color:#E5EBF1"/>
			<stop  offset="0.9707" style="stop-color:#D0DCE6"/>
			<stop  offset="1" style="stop-color:#C6D4E0"/>
		</radialGradient>
		<circle class="st12" cx="930" cy="250.4" r="92.9"/>
		<polygon class="st9" points="1126.9,380.6 1137.7,386.9 1126.9,393.1 		"/>
		<polygon class="st9" points="1110.1,380.6 1120.8,386.9 1110.1,393.1 		"/>
		<rect x="488.4" y="305.2" class="st13" width="425.3" height="170.1"/>
		<g>
			<polygon class="st9" points="713.9,209.9 703.1,203.7 713.9,197.5 			"/>
			<polygon class="st9" points="730.7,209.9 720,203.7 730.7,197.5 			"/>
		</g>
		<rect x="659.4" y="70" class="st13" width="541.2" height="360.8"/>
		
			<radialGradient id="SVGID_6_" cx="2298.0278" cy="-1863.0409" r="110.9372" gradientTransform="matrix(1.8898 -0.5107 1.8898 0.5107 107.9938 2375.48)" gradientUnits="userSpaceOnUse">
			<stop  offset="0" style="stop-color:#FFFFFF"/>
			<stop  offset="0.1455" style="stop-color:#F5F5F5;stop-opacity:0.8545"/>
			<stop  offset="0.3963" style="stop-color:#D9D9D9;stop-opacity:0.6037"/>
			<stop  offset="0.72" style="stop-color:#ACACAC;stop-opacity:0.28"/>
			<stop  offset="1" style="stop-color:#808080;stop-opacity:0"/>
		</radialGradient>
		<ellipse class="st14" cx="930" cy="250.4" rx="296.5" ry="80.1"/>
		
			<radialGradient id="SVGID_7_" cx="9959.9639" cy="243.6814" r="168.5033" gradientTransform="matrix(-1 0 0 1 10893.2422 0)" gradientUnits="userSpaceOnUse">
			<stop  offset="0" style="stop-color:#FFFFFF;stop-opacity:0"/>
			<stop  offset="7.142591e-02" style="stop-color:#FFFFFF;stop-opacity:7.142591e-02"/>
			<stop  offset="1" style="stop-color:#FFFFFF"/>
		</radialGradient>
		<path class="st15" d="M873.8,403.8l15.4-42c16.2,5.9,33.3,8.2,50.7,6.8c9-0.7,17.8-2.5,26.3-5.2l13.6,42.6
			c-11.7,3.7-23.9,6.1-36.2,7.2C919.7,415.1,896.2,412,873.8,403.8z M991.9,360.6c26.6-16.3,47.5-41.3,58.6-70.4l49.7,19
			c-15.3,40.1-43.9,74.5-80.6,96.8L991.9,360.6z M1048,265.1c1-8.2,1.2-16.6,0.5-24.9c-1.5-18.1-6.9-35.1-16-50.6l38.5-22.8
			c12.6,21.3,20,44.8,22.1,69.6c0.9,11.4,0.7,22.9-0.7,34.2L1048,265.1z M766.9,263.6c-3-36.6,5.9-72.1,25.9-102.8l37.5,24.4
			c-14.5,22.3-21,48.1-18.8,74.7l0,0.3l-44.6,3.7L766.9,263.6z M805.5,124.6c30.9-29.2,69.6-46.8,112-50.9l5,51.7
			c-30.8,3-58.9,15.8-81.3,37L805.5,124.6z"/>
		<g class="st8">
			<polygon class="st9" points="1200.7,179.3 1211.5,185.5 1200.7,191.7 			"/>
			<polygon class="st9" points="1169.2,179.3 1179.9,185.5 1169.2,191.7 			"/>
			<polygon class="st9" points="1152.3,179.3 1163,185.5 1152.3,191.7 			"/>
			<polygon class="st9" points="1135.4,179.3 1146.2,185.5 1135.4,191.7 			"/>
		</g>
		<g class="st8">
			<polygon class="st9" points="1265.9,179.3 1276.7,185.5 1265.9,191.7 			"/>
			<polygon class="st9" points="1234.4,179.3 1245.1,185.5 1234.4,191.7 			"/>
			<polygon class="st9" points="1217.5,179.3 1228.2,185.5 1217.5,191.7 			"/>
			<polygon class="st9" points="1200.6,179.3 1211.4,185.5 1200.6,191.7 			"/>
		</g>
	</g>
</g>
</svg>
