<?xml version="1.0" encoding="utf-8"?>
<!-- Generator: Adobe Illustrator 25.0.1, SVG Export Plug-In . SVG Version: 6.00 Build 0)  -->
<svg version="1.1" id="Layer_1" xmlns="http://www.w3.org/2000/svg" xmlns:xlink="http://www.w3.org/1999/xlink" x="0px" y="0px"
	 viewBox="0 0 1099.8 436.7" style="enable-background:new 0 0 1099.8 436.7;" xml:space="preserve">
<style type="text/css">
	.st0{fill-rule:evenodd;clip-rule:evenodd;fill:#4A4A4D;}
	.st1{fill-rule:evenodd;clip-rule:evenodd;fill:#FEFEFE;}
	.st2{fill:#81BE00;}
	.st3{fill:#1F9CDC;}
	.st4{fill-rule:evenodd;clip-rule:evenodd;fill:#FFFFFF;}
	.st5{fill-rule:evenodd;clip-rule:evenodd;fill:#B7D96F;}
	.st6{fill-rule:evenodd;clip-rule:evenodd;fill:#D2E7A5;}
	.st7{fill:#FFFFFF;}
	.st8{fill-rule:evenodd;clip-rule:evenodd;fill:#E2131A;}
	.st9{fill-rule:evenodd;clip-rule:evenodd;fill:#FCDBCE;}
	.st10{fill-rule:evenodd;clip-rule:evenodd;fill:#DB151A;}
	.st11{fill-rule:evenodd;clip-rule:evenodd;fill:#EBEBEB;}
	.st12{fill-rule:evenodd;clip-rule:evenodd;fill:#008000;}
	.st13{fill:#DB151A;}
</style>
<g id="Layer_x0020_1">
	<g id="_2531301594304">
		<path class="st0" d="M-566.5,278.3c-42.9-60.8-23.7-13.9-31.3,35.3l-24.3-1.2c0-0.6-0.6-1.2-0.6-1.7c0-0.6-0.6-1.2-0.6-1.7
			l-0.6-19.1c0-26.1-4.1-152.3,1.7-166.8v-0.6c5.2-1.2,13.9-2.3,20.3-0.6c6.4,2.3,0-1.7,4.6,2.3c7,23.2,0,68.4,1.7,95
			c0,3.5,0.6,5.2,1.7,8.7c16.2-1.2,14.5-8.1,23.7-19.1c4.6-5.2,19.1-20.9,24.3-23.7c6.4-3.5,24.9-5.2,30.1,0
			c5.2,5.8-4.6,13.9-8.1,18c-9.3,9.3-18.5,18.5-27.2,27.8c-1.2,1.2-2.3,2.3-3.5,3.5c-1.7,1.7-2.3,2.9-3.5,5.2
			c-0.6,4.1,3.5,9.3,5.8,11.6c8.7,13.3,38.2,47.5,37.7,60.8v1.2c-30.7,0.6-26.1,2.3-44.6-24.3C-561.9,285.3-564.2,281.2-566.5,278.3
			L-566.5,278.3L-566.5,278.3z M-476.1,319.4c1.2-26.6,0.6-53.9,0.6-80.5c0-44.6,0-89.2-1.2-133.2c-1-35.9-20.9-41.1-52.1-39.4
			c-74.7,0-149.4-0.6-224.2,0c-5.2,0-5.8,1.2-10.4,3.5c-12.2,7-11.6,9.3-18.5,21.4c-1.7,2.9-0.6,12.2-0.6,15.6
			c-0.6,75.3-0.6,150,0,224.7c0,35,28.1,35.3,55,35.3c74.1,0,148.3,1.2,222.4,0c12.8,0,25.1-12.3,27.8-24.9
			C-476.7,335.1-476.7,326.4-476.1,319.4L-476.1,319.4z"/>
		<path class="st0" d="M-165.7,275.4v-64.3c36.5-19.1,49.2-6.4,49.2,34.2C-117,285.3-132.1,293.9-165.7,275.4L-165.7,275.4z
			 M-140.2,179.8c-9.3,1.2-19.1,7-23.2,3.5c-7-8.7-0.6-49.8-3.5-64.3c-9.8-2.3-21.4-2.9-30.7,0.6c-7.5,2.9-2.9,81.7-2.9,95l0.6,90.9
			c1.7,7.5,9.8,8.1,20.9,7c9.3-1.2,8.1-3.5,13.3-10.4c16.2,1.7,30.1,19.1,56.8,8.7C-77.6,298-56.8,168.8-140.2,179.8L-140.2,179.8
			L-140.2,179.8z"/>
		<path class="st0" d="M-263,277.1c0,4.1,0.6,2.3-4.6,2.3c-8.7,7-19.7,7-29.5,4.1c-2.9-13.3-3.5-29,11-29c2.3-2.3,0.6-1.7,5.2-2.9
			h23.7l0.6,17.4c0,12.7,0,2.9-2.3,6.4C-260.1,278.9-256.6,278.9-263,277.1L-263,277.1L-263,277.1z M-257.2,229.6
			c-28.4,1.7-81.1-12.2-76.5,46.3c4.6,64.9,75.3,26.6,77.6,26.1c6.4,6.4,4.1,9.3,13.3,10.4c28.4,4.6,21.4-5.8,21.4-56.2
			c0-52.7,11-86.3-75.9-76.5c-13.9,1.7-36.5,3.5-30.1,21.4C-319.2,227.3-252.5,178.7-257.2,229.6L-257.2,229.6L-257.2,229.6z"/>
		<path class="st0" d="M-431,314.2h74.1c16.8,0,13.3-5.2,12.7-23.2c-0.6-21.4-5.8-16.8-52.1-16.8c-21.4,0-18.5-1.7-18.5-22.6
			c0-16.8,1.7-122.2-1.7-132.6c-5.8-1.7-22.6-2.3-30.1-1.7c-13.3,1.2-9.8,9.3-9.3,23.2v130.9C-455.9,300.3-462.2,314.2-431,314.2
			L-431,314.2L-431,314.2z"/>
		<path class="st1" d="M-756.5,66.3h-26.1C-782.6,105-788.7,85.1-756.5,66.3z"/>
		<path class="st1" d="M-782.6,367.5h24.3c-18.5-14.5-7.5,1.7-22.6-22l-2.3-2.9v24.9L-782.6,367.5L-782.6,367.5z"/>
		<path class="st0" d="M-267.6,279.5c5.2,0,4.9,4.1,5.5,0.6c6.4,1.7,2.1-1.2,3.8-4.6c2.3-3.5,4.6,9.8,5.2-2.9l0.6-23.7l-29,1.2
			c-4.6,1.2-1.7,2.3-4.1,4.6l27.2-1.2C-258.3,265.8-254.3,276.1-267.6,279.5L-267.6,279.5z"/>
		<g id="Layer_x0020_1_1_">
			<polygon class="st2" points="62.5,366.7 366.5,366.7 366.5,71.9 62.5,71.9 			"/>
			<polygon class="st3" points="377.6,366.7 1036,366.7 1036,71.9 377.6,71.9 			"/>
			<path class="st4" d="M144.9,171.7l0.5,0.5l0.5,0.5l0.6,0.6l0.5,0.5l0.5,0.5l0.6,0.6l0.5,0.5l0.5,0.5l0.6,0.6l0.5,0.5l0.5,0.5
				l0.6,0.6l0.5,0.5l0.5,0.5l0.6,0.6l0.5,0.5l0.5,0.5l0.6,0.6l0.5,0.5l0.5,0.6l0.6,0.5l0.5,0.5l0.5,0.6l0.6,0.5l0.5,0.5l0.6,0.6
				l0.5,0.5l0.5,0.5l0.6,0.6l0.5,0.5l0.5,0.5l0.6,0.6l0.5,0.5l0.5,0.5l0.6,0.6l0.5,0.5l0.5,0.5l0.6,0.6l0.5,0.5l0.5,0.5l0.6,0.6
				l0.5,0.5l0.5,0.6l0.6,0.5l0.5,0.5l0.5,0.6l0.6,0.5l0.5,0.5l0.5,0.6l0.6,0.5l0.5,0.5l0.6,0.6l0.5,0.5l0.5,0.5l0.6,0.6l0.5,0.5
				l0.5,0.5l0.6,0.6l0.5,0.5l0.5,0.5l0.6,0.6l0.5,0.5l0.5,0.5l0.6,0.6l0.5,0.5l0.5,0.5l0.6,0.6l0.5,0.5l0.5,0.6l0.6,0.5l0.5,0.5
				l0.5,0.6l0.6,0.5l0.5,0.5l0.6,0.6l0.5,0.5l0.5,0.5l0.6,0.6l0.5,0.5l0.5,0.5l0.6,0.6l0.5,0.5l0.5,0.5l0.6,0.6l0.5,0.5l0.5,0.5
				l0.6,0.6l0.5,0.5c0.7,0,0.5-0.1,0.5,0.6l0.1,0.3c0.2,0.9,0.4,0.8-0.4,0.8l-0.5,0.5l-0.6,0.5l-0.5,0.6l-0.5,0.5l-0.6,0.5l-0.5,0.6
				l-0.5,0.5l-0.6,0.5l-0.5,0.6l-0.5,0.5l-0.6,0.5l-0.5,0.6l-0.6,0.5l-0.5,0.5l-0.5,0.6l-0.6,0.5l-0.5,0.5l-0.5,0.6l-0.6,0.5
				l-0.5,0.6l-0.5,0.5l-0.6,0.5l-0.5,0.6l-0.5,0.5l-0.6,0.5l-0.5,0.6l-0.5,0.5l-0.6,0.5l-0.5,0.6l-0.5,0.5l-0.6,0.5l-0.5,0.6
				l-0.5,0.5l-0.6,0.5l-0.5,0.6l-0.5,0.5l-0.6,0.5l-0.5,0.6l-0.6,0.5l-0.5,0.5l-0.5,0.6l-0.6,0.5l-0.5,0.5l-0.5,0.6l-0.6,0.5
				l-0.5,0.6l-0.5,0.5l-0.6,0.5l-0.5,0.6l-0.5,0.5l-0.6,0.5l-0.5,0.6l-0.5,0.5l-0.6,0.5l-0.5,0.6l-0.5,0.5l-0.6,0.5l-0.5,0.6
				l-0.5,0.5l-0.6,0.5l-0.5,0.6l-0.6,0.5l-0.5,0.5l-0.5,0.6l-0.6,0.5l-0.5,0.5l-0.5,0.6l-0.6,0.5l-0.5,0.5l-0.5,0.6l-0.6,0.5
				l-0.5,0.6l-0.5,0.5l-0.6,0.5l-0.5,0.6l-0.5,0.5l-0.6,0.5l-0.5,0.6l-0.5,0.5l-0.6,0.5l-0.5,0.6l-0.5,0.5l-0.6,0.5l-0.5,0.6
				l-0.5,0.5l-0.6,0.5l-0.5,0.6l-0.6,0.5l-0.5,0.5l-0.4,0.7l0.2,0.1l37.7,0.1l49.7-49.6l-49.3-49.6H153c-1.8,0-7.6-0.8-8.7,0.7
				L144.9,171.7L144.9,171.7z"/>
			<polygon class="st4" points="220.4,247 220.8,247.6 221.4,248.2 221.9,248.7 222.4,249.3 223,249.8 223.5,250.3 224,250.9 
				224.7,251.4 225.2,251.9 225.8,252.6 226.3,253.1 226.8,253.7 227.3,254.2 227.8,254.8 228.4,255.3 228.9,255.8 229.4,256.4 
				230,256.9 230.5,257.4 231,258 231.6,258.5 232.1,259 232.6,259.6 233.2,260.1 233.7,260.6 234.2,261.2 234.8,261.7 235.3,262.2 
				235.8,262.8 236.4,263.3 237,263.9 237.6,264.4 238.1,265 238.6,265.6 239.2,266.1 239.7,266.6 240.2,267.2 240.8,267.7 
				241.3,268.2 241.8,268.8 242.4,269.3 243,269.7 281.4,269.7 239.8,227.7 			"/>
			<path class="st4" d="M242.1,171.2l-0.5,0.5l-0.6,0.5l-0.5,0.6l-0.5,0.5l-0.6,0.5l-0.5,0.6l-0.6,0.5l-0.5,0.5l-0.5,0.6l-0.6,0.5
				l-0.5,0.5l-0.5,0.6l-0.6,0.5l-0.5,0.6l-0.5,0.5l-0.6,0.5l-0.5,0.6l-0.5,0.5l-0.6,0.5l-0.5,0.6l-0.5,0.5l-0.6,0.5l-0.5,0.6
				l-0.5,0.5l-0.6,0.5l-0.5,0.6l-0.5,0.5l-0.6,0.5l-0.5,0.6l-0.6,0.5l-0.5,0.5l-0.5,0.6l-0.6,0.5l-0.5,0.5l-0.5,0.6l-0.6,0.5
				l-0.5,0.6l-0.5,0.5l-0.6,0.5c0,0.8,0.2,0.6-0.6,0.6c0.8,1.6,17.6,18.4,19.4,19.2l0.5-0.6l0.6-0.5l0.5-0.5l0.5-0.6l0.6-0.5
				l0.5-0.5l0.6-0.6l0.5-0.5l0.5-0.6l0.6-0.5l0.5-0.5l0.5-0.6l0.6-0.5l0.5-0.5l0.5-0.6l0.6-0.5l0.5-0.5l0.5-0.6l0.6-0.5l0.5-0.5
				l0.5-0.6l0.6-0.5l0.5-0.5l0.5-0.6l0.6-0.5l0.5-0.5l0.5-0.6l0.6-0.5l0.5-0.5l0.5-0.6l0.6-0.5l0.5-0.5l0.6-0.6l0.5-0.5l0.5-0.6
				l0.6-0.5l0.5-0.5l0.5-0.6l0.6-0.5l0.5-0.5l0.5-1l-18.9-18.7h-0.2L242.1,171.2L242.1,171.2z"/>
			<path class="st5" d="M242.1,171.2l-0.5,0.5l-0.6,0.5l-0.5,0.6l-0.5,0.5l-0.6,0.5l-0.5,0.6l-0.6,0.5l-0.5,0.5l-0.5,0.6l-0.6,0.5
				l-0.5,0.5l-0.5,0.6l-0.6,0.5l-0.5,0.6l-0.5,0.5l-0.6,0.5l-0.5,0.6l-0.5,0.5l-0.6,0.5l-0.5,0.6l-0.5,0.5l-0.6,0.5l-0.5,0.6
				l-0.5,0.5l-0.6,0.5l-0.5,0.6l-0.5,0.5l-0.6,0.5l-0.5,0.6l-0.6,0.5l-0.5,0.5l-0.5,0.6l-0.6,0.5l-0.5,0.5l-0.5,0.6l-0.6,0.5
				l-0.5,0.6l-0.5,0.5l-0.6,0.5l-0.6,0.6c0.8,0,0.6,0.2,0.6-0.6l0.6-0.5l0.5-0.5l0.5-0.6l0.6-0.5l0.5-0.6l0.5-0.5l0.6-0.5l0.5-0.6
				l0.5-0.5l0.6-0.5l0.5-0.6l0.6-0.5l0.5-0.5l0.5-0.6l0.6-0.5l0.5-0.5l0.5-0.6l0.6-0.5l0.5-0.5l0.5-0.6l0.6-0.5l0.5-0.5l0.5-0.6
				l0.6-0.5l0.5-0.5l0.5-0.6l0.6-0.5l0.5-0.6l0.5-0.5l0.6-0.5l0.5-0.6l0.5-0.5l0.6-0.5l0.5-0.6l0.6-0.5l0.5-0.5l0.5-0.6l0.6-0.5
				L242.1,171.2l0.6-0.5h0.2h-0.2C241.9,170.6,242.1,170.4,242.1,171.2z"/>
			<polygon class="st6" points="261.4,190.5 260.8,191 260.2,191.5 259.7,192.1 259.2,192.6 258.6,193.1 258.1,193.7 257.6,194.2 
				257,194.8 256.5,195.3 255.9,195.8 255.4,196.4 254.9,196.9 254.3,197.4 253.8,198 253.3,198.5 252.7,199 252.2,199.6 
				251.7,200.1 251.1,200.6 250.6,201.2 250.1,201.7 249.5,202.2 249,202.8 248.4,203.4 247.8,203.9 247.3,204.5 246.8,205 
				246.2,205.5 245.7,206.1 245.2,206.6 244.6,207.1 244.1,207.7 243.6,208.2 243,208.8 242.5,209.3 241.9,209.8 241.4,210.4 
				240.9,210.9 240.3,211.4 239.8,212 240.3,211.4 240.9,210.9 241.4,210.4 241.9,209.8 242.5,209.3 243,208.8 243.6,208.2 
				244.1,207.7 244.6,207.1 245.2,206.6 245.7,206.1 246.2,205.5 246.8,205 247.3,204.5 247.8,203.9 248.4,203.4 249,202.8 
				249.5,202.2 250.1,201.7 250.6,201.2 251.1,200.6 251.7,200.1 252.2,199.6 252.7,199 253.3,198.5 253.8,198 254.3,197.4 
				254.9,196.9 255.4,196.4 255.9,195.8 256.5,195.3 257,194.8 257.6,194.2 258.1,193.7 258.6,193.1 259.2,192.6 259.7,192.1 
				260.2,191.5 260.8,191 261.4,190.5 262.3,189.7 261.9,189.4 			"/>
			<polygon class="st5" points="220.8,247.6 221.4,248.2 221.9,248.7 222.4,249.3 223,249.8 223.5,250.3 224,250.9 224.7,251.4 
				225.2,251.9 225.8,252.6 226.3,253.1 226.8,253.7 227.3,254.2 227.8,254.8 228.4,255.3 228.9,255.8 229.4,256.4 230,256.9 
				230.5,257.4 231,258 231.6,258.5 232.1,259 232.6,259.6 233.2,260.1 233.7,260.6 234.2,261.2 234.8,261.7 235.3,262.2 
				235.8,262.8 236.4,263.3 237,263.9 237.6,264.4 238.1,265 238.6,265.6 239.2,266.1 239.7,266.6 240.2,267.2 240.8,267.7 
				241.3,268.2 241.8,268.8 242.4,269.3 243,269.7 242.4,269.3 241.8,268.8 241.3,268.2 240.8,267.7 240.2,267.2 239.7,266.6 
				239.2,266.1 238.6,265.6 238.1,265 237.6,264.4 237,263.9 236.4,263.3 235.8,262.8 235.3,262.2 234.8,261.7 234.2,261.2 
				233.7,260.6 233.2,260.1 232.6,259.6 232.1,259 231.6,258.5 231,258 230.5,257.4 230,256.9 229.4,256.4 228.9,255.8 228.4,255.3 
				227.8,254.8 227.3,254.2 226.8,253.7 226.3,253.1 225.8,252.6 225.2,251.9 224.7,251.4 224,250.9 223.5,250.3 223,249.8 
				222.4,249.3 221.9,248.7 221.4,248.2 220.8,247.6 220.4,247 			"/>
			<path class="st4" d="M597.7,185c3.1-3.3,13.4-11.6,14-15.8c-6.9-1.1-9.5-1.2-13,2.7l-22.5,23.8c-5.2-1.7-11.9-10.4-17.5-15.9
				c-10.5-10.2-8.5-12.2-21.4-10.7c1,6.1,25.5,24.7,28.9,32.2c-2.5,3.3-5.4,5.6-8.3,8.7c-3,3.1-5.2,5.6-8.4,8.8
				c-3.8,3.7-14.5,13.4-15.5,18.2l11.5-0.4c1.5-2.6,25.6-27.5,28.9-29.9c3.7,1.7,28.3,27.6,33.5,32.9l24.7,24.8
				c4.8,4.6,11.7,1.8,11.8,1.7c0.1-0.3,0.4-0.2,0.7-0.3c1.5-2.1-57.9-57.4-62.2-64.4L597.7,185L597.7,185z"/>
			<path class="st4" d="M706.1,216.3l-7.5,0.1c-4,5.8,0.3,10.8-13.1,11.5c-7.7,0.5-16.5,0.2-24.3,0.1c-23.3-0.1-24.4-2.3-24.3-25.7
				c0.1-21,1.8-25,23.3-25.1c7.7,0,16.8-0.4,24.3,0.2c9.7,0.6,11.3,3.4,13.3,11.4l8.2-0.1c0.7-24.6-24.8-20.5-45.8-20.4
				c-26.6,0-32.1,7.5-32,34c0,27.2,2.5,34.7,30.9,34.7C681.8,236.9,706.5,242.2,706.1,216.3L706.1,216.3z"/>
			<path class="st4" d="M879,235.9H933c1.4,0,0.9,0,3.5-0.8c15.5-4.8,17-18.2,16.6-33.9c-0.2-7.7-0.2-16-3.4-21.9
				c-2.6-4.6-9.2-9.3-16.1-9c-2.3,0.4-23-0.7-28-0.7c-7.4,0-20.5,0.9-27,0.2c0.8,10.7,0.2,22.3,0.2,33.4
				C878.7,213.8,879.3,225.8,879,235.9L879,235.9z M931.9,227.8c-3.7,2.4-39.2,1-45.3,0.3c-1.6-4.9-1-42.7-0.6-50.2
				c7.9-1.2,42.4-2.9,47.6,0.6c2.1,0.1,0,0,3.5,1.4c0.3,0.1,1,0.5,1.3,0.7c1.2,0.7,1.1,0.9,1.6,1.4c1.6-0.5,1.3-0.8,0.9,1
				c1.7-0.3,1.1-0.5,0.6,1.3c1.5,0.7,1.1-1,0.9,2.5c1.8,0.4,1.4,2.6,1.6,4.7c0.1,7.6,0.8,16.3,0.1,23.8
				C943.3,223.8,939.4,225.1,931.9,227.8L931.9,227.8z"/>
			<path class="st4" d="M465.6,236.6h56.6l0.1-8.3c-2.4,0.1-47.2,1.4-49.4-1.1l-1.2-3.7c-0.1-1.5,0.1-4.4,0.1-6.2
				c0-3.7-0.3-7.1,0.3-10.7c5.7-1.5,38.8-0.7,46.9-0.5c2.4-3.8,0.9-2.6,0.9-7.7l-47.8-0.8c-0.6-0.9-0.5,0-1.2-2.5
				c-0.3-0.9-0.3-2-0.4-3c0-1.3,0.1-3.6,0.1-5c-0.1-12.1,0.3-8.5,1.9-9.4l49.2-1.2v-6.4l-57.5-0.7
				C464,181.9,461.9,229.3,465.6,236.6L465.6,236.6z"/>
			<path class="st4" d="M803.6,236.7l57.3,0.1l0.6-7.5c-7.9-2.8-39-0.3-50.7-1.1c-1-3-1.9-19.7,0.4-21.5c7.9-2.8,36,0.1,47.5-1
				l0.3-4.8c-1.4-1.2-1.1,1.8-1.3-2.3l-35.9,0.1c-5,0.1-10,1-11.3-1.4c-1.5-2.4-1-7.4-1-10.2c-0.3-11.3-0.7-8.2,1.4-9
				c1.9-1.4,0.9-1.1,5.7-1.1c10.3,0.1,37.1,1,43.8-1l-0.1-5.1c-5.4-2.5-55.6-1.1-57.4-0.7C802.5,181.4,801.3,228.8,803.6,236.7
				L803.6,236.7z"/>
			<path class="st4" d="M784.1,169.3l-57.6,0.3l-0.3,66.7l58.3,0.3l0.1-8.3l-47.4-0.1c-2.9-0.6-0.9,1.2-1.9-1
				c-1.9-2.1-1.9-17.4-0.1-19.8c1.1-1.2-0.8-0.3,2-1.1c1.3-0.3,1.5-0.2,2.7-0.3l41,0.1c1.2-2.3,0.6-0.1,1-3.8c0.1-1,0-2.4,0.1-3.6
				l-48-0.2c-1.9-5.5-1.9-14.9-0.3-20.4c4.4-1.9,42.6-1,50.5-1L784.1,169.3L784.1,169.3z"/>
			<path class="st7" d="M656.2,251.9c-0.4,0-0.8,0.1-1,0.4s-0.4,0.7-0.4,1.3v11c0,0.6,0.1,1,0.4,1.3c0.3,0.3,0.6,0.4,1,0.4
				c0.4,0,0.8-0.1,1-0.4c0.3-0.3,0.4-0.7,0.4-1.3v-11c0-0.6-0.1-1-0.4-1.3C656.9,252,656.6,251.9,656.2,251.9z"/>
			<path class="st7" d="M672.1,252.1h-9c-0.5,0-0.8,0.1-1.1,0.3c-0.3,0.2-0.4,0.5-0.4,0.9c0,0.4,0.1,0.6,0.4,0.8
				c0.2,0.2,0.6,0.3,1.1,0.3h3.1v10.2c0,0.6,0.1,1,0.4,1.3c0.3,0.3,0.6,0.4,1,0.4c0.4,0,0.7-0.1,1-0.4c0.3-0.3,0.4-0.7,0.4-1.3
				v-10.2h3.1c0.5,0,0.8-0.1,1.1-0.3c0.2-0.2,0.4-0.5,0.4-0.8c0-0.3-0.1-0.6-0.4-0.8C673,252.2,672.6,252.1,672.1,252.1L672.1,252.1
				z"/>
			<path class="st7" d="M691.8,258.9c-0.5-0.3-1-0.6-1.6-0.8c-0.6-0.2-1.3-0.4-2.1-0.6c-0.6-0.2-1.1-0.3-1.4-0.4
				c-0.3-0.1-0.5-0.2-0.8-0.3c-0.3-0.1-0.5-0.3-0.6-0.5c-0.1-0.2-0.2-0.4-0.2-0.7c0-0.4,0.2-0.8,0.7-1.2c0.5-0.3,1-0.5,1.8-0.5
				c0.8,0,1.4,0.1,1.7,0.4c0.4,0.3,0.7,0.7,0.9,1.2c0.2,0.4,0.4,0.6,0.6,0.8c0.2,0.2,0.4,0.2,0.7,0.2c0.4,0,0.7-0.1,0.9-0.4
				c0.2-0.3,0.4-0.6,0.4-0.9c0-0.4-0.1-0.8-0.3-1.1c-0.2-0.4-0.5-0.8-0.9-1.1c-0.4-0.4-0.9-0.6-1.6-0.9c-0.6-0.2-1.4-0.3-2.2-0.3
				c-1.1,0-2,0.2-2.8,0.5c-0.8,0.3-1.4,0.8-1.8,1.4c-0.4,0.6-0.6,1.3-0.6,2c0,0.8,0.2,1.5,0.6,2c0.4,0.5,0.9,1,1.6,1.3
				c0.7,0.3,1.5,0.6,2.5,0.8c0.8,0.2,1.4,0.3,1.8,0.5c0.4,0.2,0.8,0.4,1.1,0.7c0.3,0.3,0.4,0.7,0.4,1.1c0,0.6-0.3,1.1-0.8,1.5
				c-0.5,0.4-1.2,0.6-2.1,0.6c-0.6,0-1.1-0.1-1.5-0.3c-0.4-0.2-0.7-0.4-0.9-0.7c-0.2-0.3-0.4-0.7-0.6-1.1c-0.2-0.4-0.3-0.7-0.5-0.8
				c-0.2-0.2-0.5-0.3-0.8-0.3c-0.4,0-0.7,0.1-0.9,0.4c-0.2,0.2-0.4,0.5-0.4,0.9c0,0.6,0.2,1.2,0.6,1.8c0.4,0.6,0.9,1.1,1.5,1.5
				c0.9,0.5,2,0.8,3.4,0.8c1.2,0,2.1-0.2,3-0.6c0.8-0.4,1.5-0.9,1.9-1.6c0.4-0.7,0.7-1.4,0.7-2.3c0-0.7-0.1-1.3-0.4-1.8
				C692.6,259.6,692.2,259.2,691.8,258.9L691.8,258.9z"/>
			<path class="st7" d="M708.8,263.8h-6.6v-4h5.9c0.4,0,0.8-0.1,1-0.3c0.2-0.2,0.3-0.5,0.3-0.8s-0.1-0.6-0.3-0.8
				c-0.2-0.2-0.5-0.3-1-0.3h-5.9v-3.4h6.4c0.4,0,0.8-0.1,1-0.3c0.2-0.2,0.3-0.5,0.3-0.8c0-0.3-0.1-0.6-0.3-0.8
				c-0.2-0.2-0.6-0.3-1-0.3h-7.5c-0.4,0-0.7,0-1,0.2c-0.3,0.1-0.4,0.3-0.6,0.6c-0.1,0.3-0.2,0.6-0.2,1v10.5c0,0.6,0.1,1.1,0.4,1.3
				c0.3,0.3,0.7,0.4,1.3,0.4h7.7c0.5,0,0.8-0.1,1-0.3c0.2-0.2,0.3-0.5,0.3-0.8c0-0.3-0.1-0.6-0.3-0.8
				C709.6,263.9,709.2,263.8,708.8,263.8z"/>
			<path class="st7" d="M723.2,257.9c-0.5,0.1-1,0.2-1.7,0.2h-2.5v-3.8h2.6c1,0,1.6,0.1,1.9,0.2c0.3,0.2,0.6,0.4,0.8,0.7
				c0.2,0.3,0.3,0.6,0.3,1c0,0.5-0.1,0.9-0.4,1.2C724,257.6,723.6,257.8,723.2,257.9z M726.6,262.6c-0.4-0.6-0.8-1.1-1.2-1.7
				c-0.5-0.5-0.9-0.9-1.4-1.2c1.2-0.3,2.1-0.7,2.7-1.3c0.6-0.6,0.9-1.5,0.9-2.5c0-0.5-0.1-1-0.3-1.5c-0.2-0.4-0.4-0.8-0.8-1.2
				c-0.3-0.3-0.7-0.6-1.2-0.8c-0.4-0.2-0.8-0.3-1.2-0.3c-0.4-0.1-1-0.1-1.6-0.1h-4.6c-0.6,0-1.1,0.1-1.3,0.4
				c-0.3,0.3-0.4,0.7-0.4,1.3v10.8c0,0.6,0.1,1,0.4,1.3c0.3,0.3,0.6,0.4,1.1,0.4c0.4,0,0.8-0.1,1-0.4c0.3-0.3,0.4-0.7,0.4-1.3v-4.5
				h1c0.5,0,0.9,0.1,1.2,0.2c0.3,0.1,0.7,0.4,1,0.7c0.3,0.4,0.7,0.9,1.1,1.6l1.1,1.9c0.3,0.5,0.5,0.8,0.6,1c0.2,0.2,0.3,0.4,0.6,0.6
				c0.2,0.1,0.5,0.2,0.8,0.2c0.3,0,0.5,0,0.7-0.1c0.2-0.1,0.4-0.2,0.5-0.4c0.1-0.2,0.2-0.4,0.2-0.5c0-0.2-0.1-0.5-0.3-1
				C727.2,263.7,726.9,263.2,726.6,262.6L726.6,262.6z"/>
			<path class="st7" d="M743.5,252c-0.2-0.1-0.4-0.2-0.7-0.2c-0.3,0-0.6,0.1-0.8,0.2c-0.2,0.1-0.3,0.3-0.4,0.5
				c-0.1,0.2-0.2,0.5-0.4,1l-3.2,9.5l-3.2-9.4c-0.2-0.7-0.4-1.1-0.6-1.4c-0.2-0.3-0.5-0.4-1-0.4c-0.4,0-0.7,0.1-1,0.4
				c-0.3,0.3-0.4,0.6-0.4,0.9c0,0.1,0,0.3,0.1,0.5c0,0.2,0.1,0.4,0.1,0.5c0.1,0.2,0.1,0.3,0.2,0.5l3.3,9.1c0.1,0.3,0.2,0.7,0.4,1
				c0.1,0.3,0.3,0.6,0.4,0.8c0.2,0.2,0.4,0.4,0.6,0.6c0.3,0.2,0.6,0.2,1,0.2c0.4,0,0.7-0.1,1-0.2c0.3-0.1,0.5-0.4,0.6-0.6
				c0.2-0.2,0.3-0.5,0.4-0.8c0.1-0.3,0.2-0.6,0.4-1l3.4-9.1c0.1-0.2,0.1-0.3,0.2-0.5c0-0.2,0.1-0.3,0.1-0.5c0-0.2,0.1-0.3,0.1-0.5
				c0-0.2-0.1-0.4-0.2-0.6C743.9,252.3,743.7,252.2,743.5,252L743.5,252z"/>
			<path class="st7" d="M751.1,251.9c-0.4,0-0.8,0.1-1,0.4c-0.3,0.3-0.4,0.7-0.4,1.3v11c0,0.6,0.1,1,0.4,1.3c0.3,0.3,0.6,0.4,1,0.4
				c0.4,0,0.8-0.1,1-0.4c0.3-0.3,0.4-0.7,0.4-1.3v-11c0-0.6-0.1-1-0.4-1.3C751.9,252,751.5,251.9,751.1,251.9z"/>
			<path class="st7" d="M768.6,260.4c-0.4,0-0.7,0.1-0.9,0.3c-0.2,0.2-0.3,0.5-0.5,0.9c-0.3,0.8-0.7,1.4-1.3,1.8
				c-0.6,0.4-1.3,0.6-2.1,0.6c-0.8,0-1.4-0.2-2-0.5c-0.6-0.4-1-0.9-1.3-1.6c-0.3-0.7-0.5-1.6-0.5-2.7c0-1.6,0.3-2.9,1-3.8
				c0.7-0.9,1.6-1.3,2.8-1.3c0.7,0,1.3,0.2,1.8,0.5c0.5,0.3,0.9,0.9,1.3,1.6c0.2,0.4,0.4,0.7,0.6,0.9c0.2,0.2,0.5,0.3,0.8,0.3
				c0.3,0,0.6-0.1,0.8-0.4c0.2-0.3,0.3-0.5,0.3-0.9c0-0.6-0.2-1.2-0.7-1.9c-0.5-0.7-1.1-1.2-2-1.7c-0.9-0.5-1.9-0.7-3-0.7
				c-0.9,0-1.8,0.2-2.6,0.5c-0.8,0.3-1.5,0.8-2.1,1.4c-0.6,0.6-1.1,1.4-1.4,2.3c-0.3,0.9-0.5,1.9-0.5,3c0,0.7,0.1,1.3,0.2,2
				c0.1,0.6,0.3,1.2,0.6,1.7c0.3,0.5,0.6,1,0.9,1.5c0.4,0.5,0.9,0.9,1.4,1.2c0.5,0.3,1,0.5,1.6,0.7c0.6,0.1,1.3,0.2,2,0.2
				c1,0,1.8-0.1,2.6-0.5c0.7-0.3,1.3-0.7,1.8-1.2c0.5-0.5,0.8-1,1-1.5c0.2-0.5,0.3-1,0.3-1.4c0-0.4-0.1-0.6-0.4-0.9
				C769.3,260.6,769,260.4,768.6,260.4L768.6,260.4z"/>
			<path class="st7" d="M784.1,263.8h-6.6v-4h5.9c0.4,0,0.8-0.1,1-0.3c0.2-0.2,0.3-0.5,0.3-0.8s-0.1-0.6-0.3-0.8
				c-0.2-0.2-0.5-0.3-1-0.3h-5.9v-3.4h6.4c0.4,0,0.8-0.1,1-0.3c0.2-0.2,0.3-0.5,0.3-0.8c0-0.3-0.1-0.6-0.3-0.8
				c-0.2-0.2-0.6-0.3-1-0.3h-7.5c-0.4,0-0.7,0-1,0.2c-0.3,0.1-0.4,0.3-0.6,0.6c-0.1,0.3-0.2,0.6-0.2,1v10.5c0,0.6,0.1,1.1,0.4,1.3
				c0.3,0.3,0.7,0.4,1.3,0.4h7.7c0.4,0,0.8-0.1,1-0.3c0.2-0.2,0.3-0.5,0.3-0.8c0-0.3-0.1-0.6-0.3-0.8
				C784.9,263.9,784.6,263.8,784.1,263.8L784.1,263.8z"/>
			<path class="st7" d="M800.6,258.9c-0.5-0.3-1-0.6-1.6-0.8c-0.6-0.2-1.4-0.4-2.1-0.6c-0.6-0.2-1.1-0.3-1.3-0.4
				c-0.3-0.1-0.6-0.2-0.8-0.3c-0.3-0.1-0.5-0.3-0.6-0.5c-0.2-0.2-0.2-0.4-0.2-0.7c0-0.4,0.2-0.8,0.7-1.2c0.4-0.3,1-0.5,1.8-0.5
				c0.8,0,1.4,0.1,1.7,0.4c0.4,0.3,0.7,0.7,0.9,1.2c0.2,0.4,0.4,0.6,0.6,0.8c0.2,0.2,0.4,0.2,0.7,0.2c0.3,0,0.6-0.1,0.9-0.4
				c0.2-0.3,0.4-0.6,0.4-0.9c0-0.4-0.1-0.8-0.3-1.1c-0.2-0.4-0.5-0.8-0.9-1.1c-0.4-0.4-0.9-0.6-1.6-0.9c-0.6-0.2-1.4-0.3-2.2-0.3
				c-1.1,0-2,0.2-2.8,0.5c-0.8,0.3-1.4,0.8-1.8,1.4c-0.4,0.6-0.6,1.3-0.6,2c0,0.8,0.2,1.5,0.6,2c0.4,0.5,0.9,1,1.6,1.3
				c0.7,0.3,1.5,0.6,2.5,0.8c0.8,0.2,1.3,0.3,1.8,0.5c0.4,0.2,0.8,0.4,1.1,0.7c0.3,0.3,0.4,0.7,0.4,1.1c0,0.6-0.3,1.1-0.8,1.5
				c-0.5,0.4-1.2,0.6-2.1,0.6c-0.6,0-1.1-0.1-1.5-0.3c-0.4-0.2-0.7-0.4-0.9-0.7c-0.2-0.3-0.4-0.7-0.6-1.1c-0.1-0.4-0.3-0.7-0.5-0.8
				c-0.2-0.2-0.5-0.3-0.8-0.3c-0.4,0-0.7,0.1-0.9,0.4c-0.2,0.2-0.4,0.5-0.4,0.9c0,0.6,0.2,1.2,0.6,1.8c0.4,0.6,0.9,1.1,1.5,1.5
				c0.9,0.5,2,0.8,3.4,0.8c1.1,0,2.1-0.2,3-0.6c0.8-0.4,1.5-0.9,1.9-1.6c0.4-0.7,0.7-1.4,0.7-2.3c0-0.7-0.1-1.3-0.4-1.8
				C801.4,259.6,801.1,259.2,800.6,258.9L800.6,258.9z"/>
			<path class="st7" d="M820.2,263.8c-0.3,0.2-0.6,0.3-0.9,0.4c-0.3,0.1-0.6,0.1-0.9,0.1c-0.3,0-0.7-0.1-0.9-0.2
				c-0.3-0.1-0.6-0.3-0.8-0.5c-0.2-0.2-0.4-0.5-0.5-0.7c-0.1-0.3-0.2-0.6-0.2-0.8c0-0.5,0.2-1,0.5-1.3c0.3-0.4,0.8-0.7,1.5-1.1
				c0.6,0.8,1.2,1.4,1.6,1.9c0.5,0.5,1,1,1.5,1.6C820.8,263.4,820.5,263.6,820.2,263.8L820.2,263.8z M818.1,254
				c0.3-0.3,0.7-0.4,1.1-0.4c0.4,0,0.8,0.1,1.1,0.4c0.3,0.3,0.4,0.6,0.4,1c0,0.4-0.1,0.7-0.4,1c-0.3,0.3-0.8,0.6-1.4,1
				c-0.3-0.3-0.5-0.6-0.6-0.8c-0.2-0.2-0.3-0.4-0.4-0.6c-0.1-0.2-0.2-0.4-0.2-0.6C817.7,254.6,817.8,254.3,818.1,254L818.1,254z
				 M825.4,263.7c-0.5-0.4-0.9-0.7-1.1-0.9c0.4-0.6,0.7-1.2,0.9-1.7c0.2-0.5,0.3-0.9,0.3-1.2c0-0.3-0.1-0.6-0.3-0.8
				c-0.2-0.2-0.5-0.3-0.8-0.3c-0.3,0-0.6,0.1-0.7,0.3c-0.2,0.2-0.4,0.6-0.6,1.1c-0.2,0.5-0.3,0.8-0.4,1c-0.2-0.2-0.4-0.5-0.7-0.7
				c-0.3-0.3-0.5-0.6-0.8-0.9c-0.3-0.3-0.6-0.7-0.9-1.1c0.9-0.5,1.6-1.1,2.1-1.6c0.5-0.5,0.7-1.1,0.7-1.9c0-0.5-0.1-1-0.4-1.5
				c-0.3-0.5-0.7-0.9-1.3-1.2c-0.6-0.3-1.3-0.4-2.1-0.4c-0.8,0-1.5,0.1-2.1,0.4c-0.6,0.3-1.1,0.7-1.4,1.2c-0.3,0.5-0.5,1-0.5,1.6
				c0,0.5,0.1,1,0.4,1.5c0.2,0.5,0.6,1,1.1,1.6c-0.5,0.3-1,0.6-1.4,0.8s-0.7,0.6-1,0.9c-0.3,0.3-0.5,0.7-0.7,1.1
				c-0.1,0.4-0.2,0.8-0.2,1.3c0,0.5,0.1,1,0.3,1.5c0.2,0.5,0.5,0.9,0.9,1.3c0.4,0.4,0.9,0.7,1.6,0.9c0.6,0.2,1.3,0.3,2.1,0.3
				c0.6,0,1.2-0.1,1.7-0.2c0.5-0.1,1-0.3,1.4-0.6c0.4-0.3,0.9-0.6,1.3-1c0.9,0.7,1.5,1.2,1.8,1.4c0.3,0.2,0.6,0.3,0.9,0.3
				c0.3,0,0.6-0.1,0.8-0.3c0.2-0.2,0.4-0.5,0.4-0.8c0-0.2-0.1-0.5-0.2-0.6C826.3,264.4,826,264.1,825.4,263.7L825.4,263.7z"/>
			<path class="st7" d="M845.2,252.1h-9c-0.5,0-0.8,0.1-1.1,0.3c-0.3,0.2-0.4,0.5-0.4,0.9c0,0.4,0.1,0.6,0.4,0.8
				c0.2,0.2,0.6,0.3,1.1,0.3h3.1v10.2c0,0.6,0.1,1,0.4,1.3c0.3,0.3,0.6,0.4,1,0.4c0.4,0,0.7-0.1,1-0.4c0.3-0.3,0.4-0.7,0.4-1.3
				v-10.2h3.1c0.5,0,0.8-0.1,1.1-0.3c0.2-0.2,0.4-0.5,0.4-0.8c0-0.3-0.1-0.6-0.4-0.8C846,252.2,845.7,252.1,845.2,252.1L845.2,252.1
				z"/>
			<path class="st7" d="M857.1,257.9c-0.5,0.1-1,0.2-1.7,0.2h-2.5v-3.8h2.6c1,0,1.6,0.1,1.9,0.2c0.3,0.2,0.6,0.4,0.8,0.7
				c0.2,0.3,0.3,0.6,0.3,1c0,0.5-0.1,0.9-0.4,1.2C857.9,257.6,857.6,257.8,857.1,257.9L857.1,257.9z M860.5,262.6
				c-0.4-0.6-0.8-1.1-1.2-1.7c-0.5-0.5-0.9-0.9-1.4-1.2c1.2-0.3,2.1-0.7,2.7-1.3c0.6-0.6,0.9-1.5,0.9-2.5c0-0.5-0.1-1-0.3-1.5
				c-0.2-0.4-0.4-0.8-0.8-1.2c-0.3-0.3-0.7-0.6-1.2-0.8c-0.4-0.2-0.8-0.3-1.2-0.3c-0.4-0.1-1-0.1-1.6-0.1h-4.6
				c-0.6,0-1.1,0.1-1.3,0.4c-0.3,0.3-0.4,0.7-0.4,1.3v10.8c0,0.6,0.1,1,0.4,1.3c0.3,0.3,0.6,0.4,1.1,0.4c0.4,0,0.8-0.1,1-0.4
				c0.3-0.3,0.4-0.7,0.4-1.3v-4.5h1c0.5,0,0.9,0.1,1.2,0.2c0.3,0.1,0.7,0.4,1,0.7c0.3,0.4,0.7,0.9,1.1,1.6l1.1,1.9
				c0.3,0.5,0.5,0.8,0.6,1c0.2,0.2,0.3,0.4,0.6,0.6c0.2,0.1,0.5,0.2,0.8,0.2c0.3,0,0.5,0,0.7-0.1c0.2-0.1,0.4-0.2,0.5-0.4
				c0.1-0.2,0.2-0.4,0.2-0.5c0-0.2-0.1-0.5-0.3-1C861.2,263.7,860.9,263.2,860.5,262.6L860.5,262.6z"/>
			<path class="st7" d="M870.1,260.6l2.1-5.8l2.1,5.8H870.1L870.1,260.6z M874.7,254.5c-0.2-0.5-0.3-0.8-0.4-1.1
				c-0.1-0.3-0.2-0.5-0.4-0.8c-0.2-0.2-0.4-0.4-0.6-0.6c-0.3-0.2-0.6-0.2-1-0.2c-0.4,0-0.7,0.1-1,0.2c-0.3,0.1-0.5,0.3-0.6,0.6
				c-0.2,0.2-0.3,0.5-0.5,0.9c-0.1,0.4-0.3,0.7-0.4,0.9l-3.6,9.1c-0.1,0.4-0.2,0.6-0.3,0.8c-0.1,0.2-0.1,0.4-0.1,0.6
				c0,0.3,0.1,0.6,0.4,0.9c0.3,0.3,0.6,0.4,0.9,0.4c0.4,0,0.7-0.1,0.9-0.4c0.2-0.2,0.4-0.7,0.7-1.4l0.7-1.8h5.7l0.7,1.8
				c0.1,0.2,0.2,0.5,0.3,0.8c0.1,0.3,0.2,0.5,0.3,0.6c0.1,0.1,0.2,0.2,0.4,0.3c0.1,0.1,0.3,0.1,0.6,0.1c0.4,0,0.7-0.1,1-0.4
				c0.3-0.3,0.4-0.6,0.4-0.9c0-0.3-0.1-0.8-0.4-1.5L874.7,254.5L874.7,254.5z"/>
			<path class="st7" d="M885.1,251.9c-0.4,0-0.8,0.1-1,0.4c-0.3,0.3-0.4,0.7-0.4,1.3v11c0,0.6,0.1,1,0.4,1.3c0.3,0.3,0.6,0.4,1,0.4
				c0.4,0,0.8-0.1,1-0.4c0.3-0.3,0.4-0.7,0.4-1.3v-11c0-0.6-0.1-1-0.4-1.3C885.8,252,885.5,251.9,885.1,251.9z"/>
			<path class="st7" d="M905.1,251.9c-0.4,0-0.7,0.1-0.9,0.4c-0.2,0.3-0.3,0.7-0.3,1.2v8.3l-5.4-8.2c-0.1-0.2-0.3-0.5-0.4-0.7
				c-0.2-0.2-0.3-0.4-0.4-0.5c-0.1-0.1-0.3-0.3-0.5-0.3c-0.2-0.1-0.4-0.1-0.7-0.1c-0.3,0-0.6,0.1-0.9,0.3c-0.3,0.2-0.5,0.4-0.6,0.7
				c-0.1,0.3-0.1,0.6-0.1,1.1v10.8c0,0.5,0.1,0.9,0.4,1.2c0.2,0.3,0.6,0.4,1,0.4c0.4,0,0.7-0.1,1-0.4c0.2-0.3,0.4-0.7,0.4-1.2v-8.2
				l5.3,8.1c0.2,0.2,0.3,0.4,0.5,0.7c0.1,0.2,0.3,0.4,0.5,0.6c0.2,0.2,0.4,0.3,0.6,0.4c0.2,0.1,0.4,0.1,0.7,0.1c1,0,1.5-0.6,1.5-1.8
				v-11c0-0.5-0.1-0.9-0.4-1.2C905.9,252,905.5,251.9,905.1,251.9L905.1,251.9z"/>
			<path class="st7" d="M913,251.9c-0.4,0-0.8,0.1-1,0.4c-0.3,0.3-0.4,0.7-0.4,1.3v11c0,0.6,0.1,1,0.4,1.3c0.3,0.3,0.6,0.4,1,0.4
				c0.4,0,0.8-0.1,1-0.4c0.3-0.3,0.4-0.7,0.4-1.3v-11c0-0.6-0.1-1-0.4-1.3C913.7,252,913.4,251.9,913,251.9z"/>
			<path class="st7" d="M930.3,251.9c-0.4,0-0.7,0.1-0.9,0.4c-0.2,0.3-0.3,0.7-0.3,1.2v8.3l-5.4-8.2c-0.1-0.2-0.3-0.5-0.4-0.7
				c-0.1-0.2-0.3-0.4-0.4-0.5c-0.1-0.1-0.3-0.3-0.5-0.3c-0.2-0.1-0.4-0.1-0.7-0.1c-0.3,0-0.6,0.1-0.9,0.3c-0.3,0.2-0.5,0.4-0.6,0.7
				c-0.1,0.3-0.1,0.6-0.1,1.1v10.8c0,0.5,0.1,0.9,0.4,1.2c0.3,0.3,0.6,0.4,1,0.4c0.4,0,0.7-0.1,1-0.4c0.2-0.3,0.4-0.7,0.4-1.2v-8.2
				l5.3,8.1c0.2,0.2,0.3,0.4,0.5,0.7c0.1,0.2,0.3,0.4,0.5,0.6c0.2,0.2,0.4,0.3,0.6,0.4c0.2,0.1,0.4,0.1,0.7,0.1c1,0,1.5-0.6,1.5-1.8
				v-11c0-0.5-0.1-0.9-0.4-1.2C931,252,930.7,251.9,930.3,251.9L930.3,251.9z"/>
			<path class="st7" d="M951.9,259.3c-0.2-0.2-0.4-0.4-0.7-0.5c-0.3-0.1-0.6-0.1-1-0.1H947c-0.4,0-0.7,0.1-0.9,0.3
				c-0.2,0.2-0.3,0.5-0.3,0.8c0,0.4,0.1,0.6,0.4,0.8c0.3,0.2,0.7,0.2,1.2,0.2h2.2v2.3c-0.6,0.3-1.2,0.6-1.8,0.7
				c-0.6,0.2-1.2,0.3-1.8,0.3c-1.3,0-2.4-0.4-3.1-1.3c-0.8-0.9-1.1-2.1-1.1-3.8c0-0.8,0.1-1.4,0.3-2.1c0.2-0.6,0.5-1.1,0.8-1.6
				c0.4-0.4,0.8-0.8,1.3-1c0.5-0.2,1.1-0.3,1.8-0.3c0.6,0,1.2,0.1,1.6,0.3c0.4,0.2,0.7,0.4,1,0.7c0.2,0.3,0.5,0.7,0.9,1.2
				c0.1,0.2,0.3,0.3,0.5,0.4c0.2,0.1,0.4,0.1,0.6,0.1c0.4,0,0.7-0.1,0.9-0.4c0.3-0.3,0.4-0.6,0.4-0.9c0-0.3-0.1-0.7-0.3-1.1
				c-0.2-0.4-0.6-0.8-1-1.2c-0.5-0.4-1-0.7-1.8-1c-0.7-0.3-1.6-0.4-2.5-0.4c-1.1,0-2.2,0.2-3.1,0.5c-0.9,0.3-1.7,0.8-2.3,1.5
				c-0.6,0.6-1.1,1.4-1.4,2.3c-0.3,0.9-0.5,1.9-0.5,3c0,1.1,0.2,2.1,0.5,3c0.3,0.9,0.8,1.7,1.4,2.3c0.6,0.6,1.4,1.1,2.3,1.4
				c0.9,0.3,1.9,0.5,2.9,0.5c0.9,0,1.8-0.1,2.6-0.3c0.8-0.2,1.6-0.5,2.4-1c0.3-0.2,0.5-0.3,0.7-0.5c0.2-0.2,0.3-0.4,0.4-0.6
				c0.1-0.2,0.1-0.5,0.1-0.8v-2.7C952.2,259.9,952.1,259.6,951.9,259.3L951.9,259.3z"/>
		</g>
		<g>
			<path class="st8" d="M1259.6,375.9c-4.3-1.2-11.6-2.4-16.5-3.7c-11-2.4-8.5,0-25,12.2c-1.2,1.2-3.7,2.4-5.5,4.3
				c-9.2,6.1-6.1,20.8,23.8,3.7C1242.5,388.8,1254.1,381.4,1259.6,375.9L1259.6,375.9z M1206.5,399.1c-0.6-5.5,1.8-7.3,9.8-14
				l18.9-16.5c3.1-1.8,23.8,2.4,26.9,6.7c-2.4,1.2-3.1,2.4-6.1,4.3l-19.5,12.2C1229.7,396.7,1215,405.2,1206.5,399.1L1206.5,399.1z
				 M1550.8,397.3c8.5-7.9,6.7-6.7-19.5-25.6c-3.1-2.4-3.7-2.4-7.9-1.2c-3.7,0.6-15.3,2.4-17.7,4.3c0,3.1,0.6,1.8,3.1,3.7
				c13.4,9.2,9.8,6.1,23.2,13.4c3.7,2.4,6.7,3.1,8.5,3.7c1.8,1.2,0.6,0,1.2,1.2c-14.7-3.1-33.6-16.5-42.7-23.8
				c3.1-3.7,14-4.3,18.9-6.1c7.9-2.4,6.1-1.2,16.5,6.7c2.4,1.8,20.8,14.7,22,16.5C1558.2,394.3,1554.5,396.1,1550.8,397.3
				L1550.8,397.3z M1536.2,388.2l4.9,0.6l0.6,2.4c-0.6,0-1.8-0.6-2.4-0.6C1535,389.4,1537.4,390,1536.2,388.2L1536.2,388.2z
				 M1256.5,369.2c-3.7,0-2.4-0.6-4.9-1.2c-2.4-1.2-3.1-0.6-6.1-1.2c1.8-2.4,2.4-2.4,4.9-4.3s3.1-3.1,5.5-4.3
				C1256.5,361.3,1256.5,365.6,1256.5,369.2L1256.5,369.2z M1402.5,270.3c0.6-2.4,1.8-5.5,3.1-6.7l20.8,22.6c4.3,4.3,6.7,6.7,11,11
				l11,9.8h-0.6c0,0-1.2,1.2-3.7,0.6c-3.7,0-2.4-3.7-7.3,1.8c-1.2-1.8-4.3-2.4-3.7-6.1c2.4,1.8,5.5,0,3.7-3.7
				c-3.1-0.6-4.3,1.2-6.1,2.4c-1.2,5.5,3.7,9.2,7.3,11c-0.6,1.8-0.6,2.4,0,4.3c1.8,0.6,4.3,1.2,5.5-0.6c1.2-1.8,0-0.6,0.6-3.1v-0.6
				c0,0,0,0,0-0.6v-0.6c3.1,2.4-0.6,0.6,1.2,7.9c4.9,1.2,6.1-1.8,2.4-4.9c4.9,1.2,6.7,4.3,6.7,10.4v-0.6V324l-1.2-2.4
				c-0.6-0.6,0-1.2-1.8-1.2s-3.1,1.8-1.8,3.1c0.6,1.8,3.1,3.1,4.9,4.3c0,0,0,0,0.6,0.6c0.6,0.6,1.2,1.8,2.4,1.8
				c6.1-1.8,4.3-8.5,0-5.5c0-3.7,0-6.1-2.4-8.5c-3.1-3.1-4.3-1.8-3.7-6.1c4.9,3.1,19.5,18.3,25.6,22l-1.8,3.7
				c-1.8-5.5-10.4-10.4-15.3-5.5c-1.8,1.8-2.4,7.9,0.6,8.5c1.8,0.6,3.1-0.6,2.4-2.4c-0.6-3.1-1.8-1.2-2.4-4.3
				c5.5-1.8,12.2,0.6,11.6,6.1c-2.4-0.6-0.6-1.8-4.3-1.8c-3.7,4.3,1.2,6.1,5.5,3.7c3.1-1.8,0-0.6,3.7-1.8c2.4-0.6,2.4-1.2,3.7-2.4
				l36,29.3c-4.3,0.6-7.9,1.2-11.6,2.4c0.6-3.7,3.7-12.8-3.7-10.4c-1.8,6.1,1.2,2.4,2.4,5.5c-4.3,0.6-6.1-1.8-7.9-3.1h0.6l3.7-1.2
				c0.6-6.1-7.3-7.9-7.3-1.2c0,3.7,4.3,6.7,7.9,7.9c-0.6,2.4-1.2,1.8,0,4.3c-2.4,0-2.4-0.6-4.3-1.8c-1.2-1.2-2.4-1.8-3.7-3.1
				c-2.4-1.8-4.3-3.7-7.3-5.5c-4.3-3.1-10.4-7.3-13.4-11c4.3,0.6,3.1-1.2,6.7,0c3.7,1.2,4.9,1.8,8.5,1.2c3.7,3.7,6.7,4.3,5.5-3.7
				c-1.8-1.2-6.7-6.1-9.2-1.2c-1.2,1.8,0,0-0.6,1.8v1.2c-3.7-0.6-6.1-1.2-6.1-5.5c0.6,0.6,2.4,1.8,3.7,0.6c3.7-3.7-6.1-7.9-6.1,1.2
				c-3.1-1.2-3.1-0.6-4.9,1.8l-15.3-11.6c-1.8-1.2-3.1-2.4-4.9-3.7c-3.1-3.1-6.7-5.5-9.2-7.9c-8.5-9.2-17.1-15.9-26.9-25.6
				l-17.1-17.7l4.3-6.1c5.5,0.6,4.3,1.2,6.7,4.3c-3.1,2.4,3.7-1.8-1.2,0.6c-1.8,0.6-2.4,1.2-1.8,4.3c4.3,1.2,1.8-0.6,6.7,0
				c0,0-0.6,0,1.8,0.6c1.8,0,1.2,0,3.1-0.6v-3.7c-6.1-2.4-1.8,3.1-6.7-3.7C1406.7,272.1,1405.5,272.1,1402.5,270.3L1402.5,270.3z
				 M1417.1,288.6c1.8-2.4,3.1-1.2,2.4-5.5h-4.3l-0.6,5.5c-1.8-1.2-1.8-1.2-4.3-0.6c-0.6,2.4-0.6,4.3,0.6,6.1c4.3,0.6,3.1,0,5.5-1.8
				c3.1,3.1,5.5,3.7,10.4,3.1c3.7-0.6,0.6,0,0,1.8c-0.6,3.1,1.2,3.1,4.3,2.4c0-1.8,0.6-3.7-0.6-6.1l-1.8-3.1
				c-3.1-3.7-7.3-1.2-4.3,3.1C1422,292.9,1419,291.1,1417.1,288.6L1417.1,288.6z M1265.7,356.4c1.8,0,1.2,0,2.4,1.2
				c-1.2,7.9-12.2,9.8-9.2,4.9c1.8-3.1,3.1-2.4,3.7-1.8C1265.7,360.7,1266.9,359.5,1265.7,356.4L1265.7,356.4z M1273,349.1
				c1.8-1.2-1.2-0.6,2.4,1.2c1.8,0.6,3.7,0.6,6.1,0.6c4.9-0.6,3.7-3.1,8.5-0.6l-12.8,9.8c-4.3,3.7-8.5,6.1-12.8,9.8
				c-1.2-4.9,1.2-2.4,4.3-6.1c1.8-1.8,3.1-4.9,1.8-7.9c0,0,0.6-0.6,0.6,0l3.1-1.8C1273,351.5,1273,349.7,1273,349.1L1273,349.1z
				 M1268.8,354c-4.3,0-6.1,1.2-6.7,4.9l-0.6-0.6c0,0-0.6,0-0.6-0.6l-2.4-1.8l17.1-13.4c2.4-2.4,6.7-6.7,9.8-8.5l-1.2,4.9v0.6
				c-0.6,1.2-1.8,1.2-1.2,3.7c1.2,2.4,3.1,0,2.4,3.7c-0.6,1.8-2.4,1.8-4.9,1.8c0.6-1.8,0.6-2.4,0-3.7c-2.4-0.6-1.8-0.6-4.3,0
				l-1.8,0.6C1271.2,346.6,1267.5,350.3,1268.8,354L1268.8,354z M1290.1,339.3c2.4-7.9,9.8-11,12.2-6.7c1.2,3.7,0,0,0,3.7
				s0,0.6,1.2,3.1c-3.7,1.8-7.3,7.3-11,9.2c0.6-1.8,3.1-4.9-0.6-5.5c-3.7,0-1.8,3.1-2.4,4.9c-1.2-1.2-1.8-6.1-1.8-7.3
				c2.4,0,2.4,3.7,6.1,0.6c2.4-1.8,2.4-3.7,0.6-5.5C1289.5,336.3,1292,337.5,1290.1,339.3L1290.1,339.3z M1289.5,333.8
				c-1.2-0.6-0.6-0.6-2.4-1.2c1.2-1.8,0-0.6,1.2-1.8l10.4-9.2c3.7-3.1,8.5-8.5,12.8-11c0,6.7-7.3,4.3-6.7,13.4
				c-1.2,1.2-3.1,1.2-2.4,3.7c0,0.6,2.4,4.9,5.5,1.8c4.9-4.3,3.7-1.2,6.7-3.7c0-1.8,0-1.8-0.6-3.1c-6.1-1.2,0,3.7-6.7,0.6
				c0.6-4.3,3.7-8.5,7.9-7.9c-1.2,1.8-1.8,3.1,0.6,4.3c1.8,1.2,3.1-1.2,3.7-1.8c1.8,1.8,2.4,1.2,4.9,1.8l-17.7,17.1
				c-1.8-3.7-1.2-7.3-7.3-7.9C1293.8,327.7,1292,331.4,1289.5,333.8L1289.5,333.8z M1314.5,305.7c4.3-2.4,11.6-10.4,14.7-14.7
				c2.4,0.6,3.1,0,4.3,1.8c-1.2,3.1-1.2,0.6-2.4,3.1c-1.2,2.4-0.6,6.1,3.1,4.9c1.8-0.6,0.6-1.2,3.1-2.4c0,0,1.8,0,2.4-0.6
				c4.9-1.2,3.1-3.7,7.9-3.1c-1.8,3.1-7.9,7.3-10.4,10.4l-10.4,11c-0.6-1.2-1.2-1.8-1.2-3.1c6.7-2.4,12.2-13.4,3.1-13.4
				c-3.7,1.2-4.3,1.2-3.7,4.9c4.3,1.2,3.1-0.6,5.5-1.8c1.2,4.9-5.5,11.6-9.8,9.2c1.2-4.3,6.1-1.8,3.7-6.1c-3.1-1.8-3.7,0.6-4.9,2.4
				c-2.4,4.3,0,3.1-1.2,6.7c-1.2-1.8-1.2-1.8-3.7-3.1l-1.2-0.6c1.2-0.6,1.8,0,4.3-1.2c0-2.4,0.6-1.2-0.6-3.1
				c-0.6-0.6-0.6-0.6-1.2-1.2H1314.5z M1335.9,292.9l4.3,1.2l-4.9,1.8L1335.9,292.9z M1350.6,266.7c9.8-3.1,15.9-5.5,24.4-9.2v32.4
				c-17.1,3.7-4.9,3.1-25.6,3.1L1350.6,266.7z M1343.9,255.1c1.2,7.9,0,6.7,4.3,11.6c0,8.5-0.6,17.7-0.6,26.3
				c-4.9,0-13.4-1.8-17.1-4.3c-1.8-11,0-22,1.2-32.4L1343.9,255.1z M1306.6,279.5c0-6.7,1.2-15.9,3.7-22l20.1-0.6
				c-1.2,12.2-1.2,18.9-1.2,31.7C1318.8,286.2,1310.9,280.1,1306.6,279.5L1306.6,279.5z M1348.7,263.6c-1.8-2.4-3.1-4.9-2.4-9.2
				l3.1-0.6L1348.7,263.6z M1351.2,264.2c-0.6-13.4,2.4-11.6,7.3-12.8c4.3-1.2,11,2.4,15.3,4.3
				C1370.7,257.5,1356.1,263.6,1351.2,264.2L1351.2,264.2z M1377.4,256.3c9.2-3.7,19.5-9.2,28.1-14c0,11-2.4,21.4-7.3,30.5
				c-3.1,6.1-4.3,5.5-9.2,9.8c-3.1,2.4-6.7,6.1-11.6,6.7V256.3z M1361.6,238c6.1-1.8,4.3-2.4,11-1.8c2.4,0,11.6-0.6,12.2-0.6
				c3.7,0.6,4.3,3.7,10.4,2.4c4.3-1.2,5.5-2.4,10.4-2.4c0.6,4.9-0.6,4.9-8.5,9.2c-3.7,1.8-7.3,3.7-11.6,6.1
				c-15.3,7.3-3.7,3.1-24.4-1.8L1361.6,238z M1356.1,238h3.1v4.9L1356.1,238z M1484.3,234.3h3.1h3.7h2.4l0.6,4.9h-56.2
				c0,0,0-0.6,0.6-0.6c2.4-4.3,0-1.8,0.6-4.9v-0.6l0.6-1.2c0.6,0.6,0.6-0.6,0.6,2.4h3.1v-2.4c0.6,0.6,0.6-0.6,0.6,2.4h3.7h1.8v-2.4
				c0,0.6,0.6-0.6,0.6,2.4h3.7h3.1h3.1v-2.4c0,0.6,0.6-0.6,0.6,2.4h3.7h1.8v-2.4c0.6,0.6,0.6-0.6,0.6,2.4h3.7h1.2h3.1v-2.4
				c0.6,0.6,0.6-0.6,0.6,2.4h3.7h3.1C1481.8,234.3,1484.3,234.3,1484.3,234.3z M1258.4,239.8c0.6-4.3,0.6,0,1.2-3.7
				c0-1.8,0,0.6,0-1.2v-1.8c0-1.8-1.2-0.6,0-1.2h55v6.7C1307.8,241.6,1268.8,239.8,1258.4,239.8L1258.4,239.8z M1326.1,226.4
				c4.9,3.1,3.1,1.2,6.1,2.4c-2.4,1.8-7.3,2.4-7.9-3.1L1326.1,226.4L1326.1,226.4L1326.1,226.4z M1461.1,218.4
				c0-2.4,0.6-0.6-0.6-2.4l-1.2-1.8c3.7,0,0.6,0.6,4.3,2.4l4.3-1.8c1.2,0.6,1.8,1.2,3.7,1.8l3.1-1.8c0,4.3-0.6-0.6-1.8,3.7
				c3.7,4.9,3.7-1.8,3.7,3.7c-1.8-0.6-4.9-1.8-4.9,1.2s2.4,0.6,2.4,4.3c-2.4-0.6-0.6-1.8-2.4-2.4c-3.7-0.6-3.1-0.6-4.9,1.2
				c-1.8-1.2-1.2-1.2-4.9-1.8c-1.8,3.1,0,2.4-2.4,1.8c1.8-1.2,1.8-1.8,2.4-5.5h-4.3C1459.3,217.8,1458.6,220.2,1461.1,218.4
				L1461.1,218.4z M1469.6,222.1c0-3.7,0-4.9-3.7-5.5c-3.1,2.4-3.1,6.1,0.6,7.9C1469.6,223.3,1467.8,224.5,1469.6,222.1
				L1469.6,222.1z M1423.2,223.3h-13.4c0.6-3.1,0-2.4,4.3-2.4c1.2,0.6,1.2,0.6,1.8,1.2c1.2-1.2,0.6-0.6,1.8-1.2
				c0.6,0.6,1.2,0.6,1.2,1.2c1.2-1.2-0.6-1.8,1.8-1.2C1422.6,221.5,1422.6,221.5,1423.2,223.3L1423.2,223.3z M1278.5,217.8
				c-0.6-3.1-0.6-1.2-2.4-3.7c5.5,0.6,0.6,4.3,8.5,1.2l3.7,1.8c1.2-1.2,1.2-1.2,3.7-1.8c-1.2,4.3-1.2,0-1.8,4.3
				c0.6,3.1,3.1-0.6,3.7,3.1c-1.2,0-4.3-1.8-4.3,1.2c0,2.4,0.6,1.8,1.2,2.4c1.2,1.2,1.8,0,0.6,1.8v-0.6l-0.6-0.6
				c-1.2-2.4,0.6-1.2-2.4-1.8c-1.8-0.6-3.1,0.6-4.3,1.2c-6.7-3.7-3.7,0-6.7,1.2c0.6-2.4,1.8-0.6,1.8-5.5c-1.8-0.6-1.8,0-3.7-1.2
				L1278.5,217.8z M1284,217.2c-1.8,1.2-3.1,2.4-2.4,4.9c0.6,2.4,1.8,3.1,3.7,2.4c0,0,2.4-1.2,1.8-4.3
				C1286.5,217.8,1285.2,217.8,1284,217.2L1284,217.2z M1386,232.5c-5.5-9.8,3.1-22.6,13.4-19.5c-4.3,1.8-6.7,1.2-9.8,4.3
				c-2.4,2.4-3.7,6.7-1.8,11.6C1386.6,232.5,1386.6,227.6,1386,232.5L1386,232.5z M1425.1,216c-1.2-3.1-2.4-2.4-2.4-3.7
				c0,0,0-1.2,3.1-0.6c3.1,0.6,1.2,2.4,0.6,3.1C1426.3,214.1,1425.1,216,1425.1,216L1425.1,216z M1293.8,217.2
				c0-3.1-0.6-3.7-1.8-5.5h22.6v1.8l-7.9,0.6c0,16.5-1.8,14,8.5,14v2.4h-22.6c3.7-4.3,0.6-3.1,4.9-5.5
				C1301.7,222.1,1299.9,217.2,1293.8,217.2L1293.8,217.2z M1258.4,211.7c21.4,0,14.7-1.2,15.3,4.3c-6.7,1.2-7.9,7.9,0.6,8.5
				c-2.4,4.3,1.8,5.5,4.3,4.3c1.2-0.6,0.6,0,1.2-1.2l0.6-0.6c4.3,3.7,2.4,0,6.7,0l1.2,3.1h-29.9V211.7z M1476.3,212.3
				c-6.7-1.2,0.6,1.2-7.9,0c-4.9-0.6-1.8,3.1-6.1-1.2h31.1v18.3h-17.7c4.3-9.2,4.3-2.4,6.1-7.3c1.8-4.3-1.2-6.1-4.9-6.1
				C1477.6,214.8,1477,213.5,1476.3,212.3L1476.3,212.3z M1444,214.1c-4.3,0-6.1,1.2-6.7-2.4h21.4c-1.2,1.2-1.8,2.4-1.2,4.3
				c-4.9,0.6-5.5,2.4-4.9,7.3l4.3,1.2v0.6v0.6c0,0,1.2,6.7,6.7,1.8l0.6-0.6c3.1,3.1,2.4,0.6,6.1,0l1.2,3.1c-6.1,0-12.2,0-18.3,0
				c-6.7,0-15.3,1.2-15.9-1.8h6.7V214.1z M1358.5,235.5c6.1-3.1,11.6-2.4,9.2-12.8c-2.4-9.2-7.9-6.1-12.2-11c3.1,0.6,9.2,1.8,11,3.7
				C1371.3,220.9,1372.6,237.3,1358.5,235.5L1358.5,235.5z M1361.6,206.2c14.7,1.2,29.9,1.2,44-0.6c0,1.8-0.6,4.3-1.8,4.9
				c-1.8,1.2-2.4,0-4.9,0c-4.3-0.6-31.1,1.2-37.2-0.6V206.2z M1345.7,202.5c2.4,0.6,2.4,0,1.2,2.4
				C1344.5,203.8,1345.7,205.6,1345.7,202.5L1345.7,202.5z M1260.8,208.6c-0.6-4.3-1.8-4.3-1.8-4.3s0,0-0.6-0.6l56.2,0.6h-2.4v4.3
				c3.7,0.6,1.2,0,2.4,0.6h-56.2C1260.2,208.6,1256.5,208.6,1260.8,208.6L1260.8,208.6z M1439.1,208.6c-0.6-3.7-1.2-0.6-1.2-3.7
				c0-1.8-0.6-0.6,0-1.8h55.6c0.6,3.7,1.2,3.1-2.4,3.7v1.8H1439.1z M1383.5,194c3.7,0,7.3,0,11-0.6l10.4-0.6v10.4
				c-26.9,1.8-18.9,1.8-44,0.6l-0.6-10.4L1383.5,194z M1331.6,176.9c1.8,1.8,1.2,1.2,3.1,3.7c1.2,1.8,1.8,2.4,2.4,4.9l-3.1,1.2
				c-1.8-1.8-1.2-1.8-1.8-3.7l1.8,1.8c1.2,0.6,0,0.6,1.8,0c0-1.8-1.8-4.3-3.1-5.5c-2.4,1.2-1.2,1.2,0,4.3l-2.4-4.3L1331.6,176.9z
				 M1425.7,176.3c1.2-1.2,1.8-2.4,2.4-3.1c1.8,0.6,2.4,1.2,3.1,1.8l-3.7,6.1c-1.2,1.2-0.6,0.6-1.2,1.2l-3.1-2.4L1425.7,176.3z
				 M1429.3,174.5c-1.2,0.6-0.6,0-2.4,1.8c-1.2,1.8-1.8,2.4-1.2,3.7c1.8,1.2,1.2,0.6,3.1-1.8
				C1430.6,175.1,1429.3,175.7,1429.3,174.5L1429.3,174.5z M1312.7,175.1c3.1-0.6,7.9-4.3,11-6.1c3.7-2.4,7.3-4.9,11.6-6.7
				c0.6,3.1,3.7,6.7,5.5,9.8l9.8,15.9c-3.1-1.8-3.7-4.9-6.1-8.5l-3.7-6.1c0,0,0,0,0-0.6V172l-0.6-1.2c0,0,0,0,0-0.6l-3.1-2.4
				c-1.2-1.2,0,0-1.2-1.2c-1.2-1.8-1.2-1.2-1.8-3.1l-4.9,3.1c-3.7,2.4-12.2,6.7-14,9.2c2.4,5.5,14,20.1,15.3,25
				c-1.8-0.6-1.2-0.6-2.4-1.2C1324.9,196.4,1313.3,176.9,1312.7,175.1L1312.7,175.1z M1309.7,161l4.3,2.4c-1.8,1.2-1.8,1.2-4.3,2.4
				V161z M1307.2,159.8l-0.6,5.5l-2.4-4.3L1307.2,159.8z M1361.6,164.1c-0.6-0.6-0.6,0.6-0.6-1.8v-2.4l2.4,0.6
				C1361.6,162.2,1362.8,161.6,1361.6,164.1L1361.6,164.1z M1446.4,159.8c5.5-3.7,3.1-1.2,4.3-1.2v3.7
				C1450.1,161.6,1447.7,160.4,1446.4,159.8L1446.4,159.8z M1404.9,162.9c-2.4-0.6-0.6,0-1.8-1.8l-1.8-1.8l3.7-0.6V162.9z
				 M1316.4,156.8c3.7,1.2,3.7,2.4,3.7,2.4s0,0.6,0.6,0.6c-1.8,0.6-1.8,0.6-4.3,1.8V156.8z M1312.1,156.1c0.6,0,1.8-0.6,2.4-1.2v5.5
				c-0.6,0-1.8-0.6-2.4-0.6l-1.8-1.8c0.6-0.6,0.6-0.6,1.2-1.2C1311.5,156.8,1311.5,156.1,1312.1,156.1L1312.1,156.1z M1453.1,156.1
				l3.1,1.8c-1.2,1.8-1.8,3.1-3.1,4.3V156.1z M1361,154.3c0-1.2,0.6-1.8,0.6-2.4c4.3,10.4,9.8,3.1,11,0.6c2.4,4.9,3.7,3.1,5.5,6.1
				l-16.5-1.2L1361,154.3z M1439.7,155.5c1.8-1.2,1.8-1.8,4.3-2.4v4.9L1439.7,155.5z M1393.3,154.9c6.7,4.3,8.5-3.1,9.2-4.3
				c1.8,1.2,2.4,1.2,2.4,4.9c-3.7,2.4-13.4,3.1-18.3,2.4c2.4-2.4,3.1-1.8,4.3-4.3L1393.3,154.9z M1446.4,151.3l4.3,3.1
				c-1.2,1.8-1.8,1.2-4.3,2.4V151.3z M1323.7,152.5c1.8,0.6,2.4,1.2,4.3,2.4l-3.7,1.8L1323.7,152.5z M1318.2,152.5
				c2.4-1.8,2.4-1.2,3.7-1.2v4.9c-1.8-0.6-3.1-1.8-4.9-2.4C1317.6,153.1,1317.6,153.7,1318.2,152.5L1318.2,152.5z M1436.7,148.8v4.9
				l-3.7-2.4L1436.7,148.8z M1303.6,149.4c0.6-1.8,0.6-1.2,0.6-1.8l4.3,1.8c0.6,0.6,0.6,0.6,1.2,0.6l-7.9,4.3L1303.6,149.4z
				 M1439.1,147l4.3,3.1l-4.3,2.4V147z M1450.1,147c6.7-4.3,6.1-3.1,7.3,4.9L1450.1,147z M1299.9,154.3l-3.7-9.2l6.1,1.8
				L1299.9,154.3z M1305.4,137.2c2.4,0,5.5,1.2,7.9,2.4l-1.2,9.2l-7.9-3.1L1305.4,137.2z M1315.8,140.3c3.7,0.6,4.3,1.2,6.1,3.1
				l-6.7,4.3L1315.8,140.3z M1464.1,141.5c-0.6,1.8-0.6,2.4-1.8,4.3c-0.6,0.6-0.6,1.8-1.2,2.4l-1.2,1.8c0-0.6-0.6,0-0.6-1.8
				c0-0.6-0.6-1.2-0.6-1.8c0-1.2-0.6-2.4-0.6-3.7L1464.1,141.5z M1367.1,145.8c3.1-2.4,3.7-4.9,6.1-7.9l1.8,3.1
				c-2.4,3.1-1.8,3.7-3.1,6.7C1368.9,147.6,1368.9,147.6,1367.1,145.8L1367.1,145.8z M1397,145.2c-1.2,1.2-1.8,1.2-3.7,2.4l-1.8-3.7
				c-0.6-1.8-1.2-1.8-2.4-3.1l1.2-3.7l0.6,0.6L1397,145.2z M1438.5,139.7c1.8-1.2,3.1-2.4,6.1-3.1l0.6,7.3L1438.5,139.7z
				 M1464.1,131.1v7.9l-6.1,1.8l-1.2-8.5L1464.1,131.1z M1296.2,134.2l6.1,1.8v0.6v0.6c0.6,3.1,0-1.8,0,1.2l-1.2,6.1l-6.1-1.8
				L1296.2,134.2z M1455,133.6l1.2,7.9l-7.9,3.1l-1.2-8.5L1455,133.6z M1306,126.8c3.7,1.2,2.4,1.2,4.9,3.7s3.1,1.8,2.4,6.1
				c-2.4-0.6-6.1-1.2-7.9-3.1L1306,126.8z M1293.8,140.3l-3.1-7.3l3.7,0.6L1293.8,140.3z M1387.2,129.3c2.4,0.6,1.8,2.4,1.8,4.3
				c-1.8-1.2,0,0-1.8-0.6c-1.2-0.6,0.6,0-1.2,0L1387.2,129.3z M1374.4,133.6c0-2.4,0-3.1,1.8-4.3c0.6,1.2,0.6,1.2,0.6,3.7
				L1374.4,133.6z M1296.8,124.4l6.7,1.8v6.7c-2.4,0-4.9-0.6-6.7-1.8V124.4z M1447,133.6c-0.6-3.7,1.2-4.3,2.4-6.1
				c1.8-2.4,1.2-2.4,4.9-3.7v7.9L1447,133.6z M1470.2,129.3l-3.7,7.3v-6.7L1470.2,129.3z M1463.5,121.3v7.3l-6.7,1.2v-7.3
				L1463.5,121.3z M1471.5,118.9v7.3c-0.6,0-1.8,1.2-2.4,1.2c-4.9,0.6-1.8,0-3.1-0.6v-6.7L1471.5,118.9z M1288.9,121.9l5.5,1.8v7.3
				l-5.5-1.8V121.9z M1297.5,115.8c1.2,0.6,5.5,5.5,6.1,7.9l-6.7-1.8L1297.5,115.8z M1289.5,113.4l5.5,1.2l-0.6,6.1
				c-2.4-0.6-4.3-0.6-5.5-2.4v-1.2L1289.5,113.4z M1456.8,120.1c0-2.4,1.2-3.1,2.4-4.9c1.2-1.2,0.6-0.6,1.8-1.8
				c1.2-1.2,0-0.6,1.8-1.8v6.7L1456.8,120.1z M1282.2,111.6l4.9,1.2v5.5l-4.9-0.6V111.6z M1471.5,110.3v5.5l-5.5,1.8v-6.1
				L1471.5,110.3z M1478.2,108.5v6.1l-4.9,0.6v-5.5L1478.2,108.5z M1289.5,106.1c2.4,0.6,4.3,4.3,5.5,6.1l-5.5-1.8V106.1z
				 M1282.8,104.2l4.9,1.2l-0.6,5.5l-4.9-1.8L1282.8,104.2z M1466,108.5c0.6-1.8,1.2-1.8,2.4-3.7c1.2-1.8,0.6-1.2,3.1-2.4v4.9
				L1466,108.5z M1277.3,102.4l3.1,0.6v5.5l-3.7-0.6L1277.3,102.4z M1473.3,101.8l2.4-0.6c3.7,0,0.6,0,2.4,0.6v4.3l-4.9,1.2V101.8z
				 M1480.6,100l3.1-0.6v5.5l-3.1,0.6V100z M1387.8,101.2c0,1.8,0,0.6-0.6,1.8c-0.6,0-1.8,0.6-1.2-2.4c0-1.8-0.6,0,1.2-1.2
				C1387.2,98.7,1387.8,98.1,1387.8,101.2L1387.8,101.2z M1282.8,98.1c3.1,0.6,3.7,1.8,4.9,4.9l-4.9-1.2V98.1z M1277.3,96.3l3.7,0.6
				v3.7l-3.1-1.2L1277.3,96.3z M1274.9,97.5c0,2.4-0.6,1.8-1.2,1.8s-2.4,0-0.6-4.3C1274.9,96.3,1274.9,93.9,1274.9,97.5L1274.9,97.5
				z M1473.3,99.4c0.6-2.4,1.8-3.7,4.9-4.3v3.7L1473.3,99.4z M1483.7,93.3v3.7l-3.1,0.6c0-0.6,0-1.2,0-1.8c0-1.8,0.6-1.2,0.6-1.8
				L1483.7,93.3z M1485.5,93.3c0.6-2.4,0-0.6,1.8-1.2c0.6,1.8,1.8,3.1-0.6,4.3C1486.7,95.7,1484.9,96.3,1485.5,93.3L1485.5,93.3z
				 M1361.6,88.4c1.2,1.2,0.6-1.8,1.2,2.4v1.8c-0.6,2.4,0,1.2-3.7,1.8L1361.6,88.4z M1277.3,90.8c3.7,0.6,3.1,0.6,3.1,3.7
				C1276.7,93.9,1277.3,95.1,1277.3,90.8L1277.3,90.8z M1401.9,90.8c0.6,1.8,0.6,1.2,0.6,2.4l-3.1-0.6c-0.6-2.4-0.6-2.4,0-4.3
				L1401.9,90.8z M1275.5,93.3c-2.4-0.6-3.7-2.4,0-3.1V93.3z M1480,91.4c0-3.1,0-3.1,3.1-3.7C1483.1,91.4,1483.7,90.8,1480,91.4
				L1480,91.4z M1486.7,86.5c0,0,1.8-1.2,0.6,2.4c-0.6,1.2-1.2,0.6-1.8,0.6C1485.5,85.9,1484.9,87.8,1486.7,86.5L1486.7,86.5z
				 M1388.4,82.3c-1.8-1.8-1.8-2.4-3.7-3.7l4.9-0.6L1388.4,82.3z M1370.7,77.4l5.5,0.6c-0.6,0.6-1.2,1.2-1.8,2.4l-1.8,1.8
				L1370.7,77.4z M1255.9,70.7c1.8-1.8,2.4-1.2,3.7-3.7c1.8,3.1,4.3,6.1,6.1,9.8c-1.2,1.8-2.4,1.8-3.7,2.4L1255.9,70.7z
				 M1500.8,63.3c2.4,3.1,2.4,1.8,4.3,3.7c-1.8,3.1-3.7,6.1-6.1,8.5c-3.1-0.6-3.1-0.6-4.3-2.4L1500.8,63.3z M1251.1,58.5
				c1.2,0.6,1.8,0.6,3.1,1.2c1.8,1.2,0.6,0.6,1.2,1.2l-4.3,1.8V58.5z M1505.7,57.2c1.2-1.8,1.8-1.8,4.3-2.4l-0.6,4.9L1505.7,57.2z
				 M1408,179.3c0-6.1,0-12.2,0-18.3c0-18.9-3.1-7.3-13.4-23.2c-4.9-7.3-6.1-30.5-1.2-39.1c2.4-4.3,6.1-2.4,10.4-1.8
				c1.8-3.7,1.2-5.5-1.2-9.2c-1.8-3.1-4.3-4.9-6.1-7.9c-3.7-4.3-4.9-6.7-9.8-7.9h-0.6c-2.4-1.2-3.1-3.1-6.1-3.1
				c-1.8,0-1.8,1.2-3.1,2.4c-2.4,1.8-1.8,0.6-4.3,1.8c-4.3,1.8-6.7,6.1-9.2,9.2c-3.7,4.3-6.1,7.9-6.1,14.7
				c12.2,0,15.9,6.1,15.9,17.1l-1.2,20.1c-1.8,5.5-5.5,10.4-9.8,14c-3.1,3.1-3.7,2.4-3.7,7.9v35.4c-2.4-1.8-9.8-14-12.2-17.7
				c-4.9-7.3-18.9-29.9-24.4-36l-28.1-32.4c-8.5-10.4-25-33.6-31.7-45.2c-2.4-4.9-4.3-6.1-10.4-6.1c-3.1,0-5.5,3.7-5.5,6.1
				c0,4.3-0.6,5.5,2.4,8.5c6.7,7.3,14,20.8,19.5,29.3c9.8,16.5,18.9,32.4,26.3,50.1c3.1,7.9,7.3,15.9,12.2,22.6l22.6,34.2
				c-3.7,0-6.1-0.6-9.2,1.8l-2.4,2.4v-8.5h-61.7v40.9h61.7v-12.2c3.7,1.8,5.5,4.9,11,6.1c11,1.8,4.9-14.7,23.2,0.6
				c2.4,2.4,5.5,9.2,7.3,12.2l-21.4,3.7c-7.3,1.2-15.9,1.8-23.2,1.8c-5.5,0-12.8-1.2-17.7,0c-4.3,1.2-9.8,6.7-9.8,11
				c0,3.7,3.1,6.7,6.1,8.5c3.7,3.1,4.9,3.7,9.2,6.1c4.9,2.4,15.9,8.5,21.4,8.5c-6.1,8.5-39.7,38.5-47,45.2l-12.2,10.4
				c-5.5,4.3-10.4,8.5-15.9,12.8c-1.2,1.2-2.4,1.8-3.7,3.1c-1.8,1.2-2.4,1.8-3.7,3.1c-4.3,3.1-3.1-1.2-8.5,4.3l-23.2,19.5
				c-7.3,6.7-7.3,17.7,2.4,17.7c12.2,0,20.1-4.9,31.1-11.6c4.9-3.1,11.6-6.7,16.5-11c2.4-1.8,2.4-2.4,5.5-4.3
				c3.1-1.8,1.8-2.4,4.9-4.3c17.7-12.2,34.8-26.9,50.7-41.5l32.4-33c5.5-5.5,7.9-1.8,15.3-3.7c16.5-3.7,15.9-5.5,25.6-11.6
				c2.4,3.7,12.2,12.8,16.5,17.1c3.1,3.1,4.9,5.5,7.9,8.5c1.8,1.8,2.4,1.8,4.3,3.7c24.4,23.8,47.6,42.1,74.5,61.7
				c11,7.9,36,26.3,50.7,26.3c6.1,0,12.2-3.1,12.2-7.9c0-6.1-5.5-9.2-9.8-11.6c-4.3-3.1-7.9-6.1-12.2-8.5c-4.3-3.1-7.9-6.7-12.2-9.2
				c-2.4-1.2-1.2,0-3.7-1.2c-4.3-1.2-28.1-22-33-26.3c-1.8-1.8-3.7-3.1-5.5-4.9c-1.2-1.2-1.8-1.8-3.1-2.4
				c-8.5-7.3-17.7-14.7-25-22.6l-22-21.4c-3.7-3.7-24.4-23.2-25.6-26.9c-0.6-2.4,1.2-15.3,1.2-18.9s1.8-5.5,3.1-6.7l0.6-0.6
				c5.5,3.7,9.2,7.3,15.9,2.4c1.8-1.2,3.1-4.3,5.5-4.9v14h61.1v-41.5h-59.8c-2.4,0-2.4,1.8-1.8,4.9c0.6,2.4,0.6,3.1,0.6,6.7
				c-3.1-1.8-1.8-3.1-6.1-5.5c3.1-6.1,7.3-11.6,11.6-17.1l11.6-17.1c7.9-12.2,13.4-24.4,20.1-37.9c9.2-18.9,19.5-36.6,31.1-54.3
				l11.6-18.3c0-3.7,0.6-7.3-1.8-9.8c-4.3-3.1-10.4-1.8-12.8,3.1c-4.9,9.2-11,17.7-17.1,25.6L1458,114
				c-20.8,26.3-21.4,23.8-40.3,51.9C1414.1,170.8,1411.6,175.7,1408,179.3L1408,179.3z"/>
			<path class="st8" d="M1312.7,274.6c1.2,0,1.2,0,1.8-0.6c4.9-2.4,1.8-10.4-1.2-10.4c-2.4,0.6-3.7,2.4-4.3,4.9
				c0,3.1-0.6,1.2,0.6,3.1L1312.7,274.6z"/>
			<path class="st8" d="M1337.1,275.8c1.2,1.2,0,1.2,1.8,1.8c1.8-1.2,1.2-1.2,3.7-2.4c0-3.7,1.2-5.5-2.4-8.5
				c-4.9,0.6-4.3,3.1-4.9,7.3c0,0,0.6,0.6,1.2,0.6C1337.1,275.8,1336.5,275.2,1337.1,275.8L1337.1,275.8z"/>
			<path class="st8" d="M1323.1,275.8c4.3-1.2,4.9-5.5,3.1-7.9l-1.2-1.8l-0.6-1.2c-2.4,0-3.1,1.2-4.9,1.8c0,1.2-1.2,4.3,0,5.5
				c0,0,0,0,0.6,0.6c0,0,0,0,0.6,0.6l0.6,1.2C1323.1,275.8,1321.9,275.2,1323.1,275.8L1323.1,275.8z"/>
			<path class="st8" d="M1290.1,208.6c2.4,0,1.8,0,3.1-1.2v-0.6c0,0,0,0,0-0.6v1.8h1.8v-4.3c-1.2,0-1.2,0-2.4,0.6l-0.6,1.2v0.6v-1.8
				h-1.8V208.6z"/>
			<path class="st8" d="M1274.3,208.6c2.4,0,1.8,0,3.1-1.2v-0.6c0,0,0,0,0-0.6v1.8h1.8v-4.3c-1.2,0-1.2,0-2.4,0.6l-0.6,1.8v0.6V205
				h-1.8V208.6z"/>
			<polygon class="st8" points="1309.7,208.6 1311.5,208.6 1311.5,204.4 1309.1,204.4 			"/>
			<polygon class="st8" points="1271.2,208.6 1273.6,208.6 1273.6,204.4 1270.6,204.4 			"/>
			<polygon class="st8" points="1296.2,208.6 1299.3,208.6 1298.1,204.4 1296.2,204.4 			"/>
			<path class="st9" d="M1536.2,388.2c1.2,1.8-1.2,0.6,2.4,2.4c0.6,0.6,1.8,0.6,2.4,0.6l-0.6-2.4L1536.2,388.2z"/>
			<rect x="1299.9" y="204.4" class="st8" width="1.8" height="4.3"/>
			<rect x="1267.5" y="204.4" class="st8" width="1.8" height="4.3"/>
			<rect x="1284" y="204.4" class="st8" width="1.8" height="4.3"/>
			<rect x="1306" y="204.4" class="st8" width="1.8" height="4.3"/>
			<rect x="1261.4" y="204.4" class="st8" width="1.8" height="4.3"/>
			<polygon class="st8" points="1265.1,208.6 1266.9,208.6 1266.3,204.4 1264.5,204.4 			"/>
			<polygon class="st8" points="1281,208.6 1282.8,208.6 1282.2,204.4 1280.4,204.4 			"/>
			<polygon class="st8" points="1303.6,208.6 1305.4,208.6 1304.8,204.4 1302.3,204.4 			"/>
			<polygon class="st8" points="1287.1,208.6 1289.5,208.6 1288.3,204.4 1286.5,204.4 			"/>
			<rect x="1448.9" y="235.5" class="st8" width="3.1" height="1.8"/>
			<rect x="1465.4" y="235.5" class="st8" width="3.1" height="1.8"/>
			<rect x="1487.3" y="235.5" class="st8" width="3.1" height="1.8"/>
			<rect x="1283.4" y="232.5" class="st8" width="2.4" height="2.4"/>
			<rect x="1276.7" y="232.5" class="st8" width="2.4" height="2.4"/>
			<rect x="1299.3" y="232.5" class="st8" width="2.4" height="2.4"/>
			<rect x="1260.8" y="232.5" class="st8" width="2.4" height="2.4"/>
			<path class="st9" d="M1275.5,93.3v-3.1C1271.2,90.8,1272.4,92.6,1275.5,93.3L1275.5,93.3z"/>
			<rect x="1452.5" y="206.8" class="st8" width="2.4" height="1.8"/>
			<rect x="1449.5" y="203.8" class="st8" width="2.4" height="1.8"/>
			<rect x="1484.9" y="206.8" class="st8" width="2.4" height="1.8"/>
			<rect x="1469" y="206.8" class="st8" width="2.4" height="1.8"/>
			<rect x="1487.3" y="203.8" class="st8" width="2.4" height="1.8"/>
			<rect x="1465.4" y="203.8" class="st8" width="2.4" height="1.8"/>
			<rect x="1312.1" y="232.5" class="st8" width="2.4" height="2.4"/>
			<rect x="1491" y="235.5" class="st8" width="2.4" height="1.8"/>
			<rect x="1276.7" y="236.1" class="st8" width="2.4" height="1.8"/>
			<rect x="1270.6" y="236.1" class="st8" width="2.4" height="1.8"/>
			<rect x="1293.2" y="236.1" class="st8" width="2.4" height="1.8"/>
			<rect x="1309.1" y="236.1" class="st8" width="2.4" height="1.8"/>
			<rect x="1484.3" y="235.5" class="st8" width="1.8" height="1.8"/>
			<rect x="1446.4" y="235.5" class="st8" width="1.8" height="1.8"/>
			<rect x="1442.8" y="235.5" class="st8" width="1.8" height="1.8"/>
			<rect x="1481.2" y="235.5" class="st8" width="1.8" height="1.8"/>
			<rect x="1475.1" y="235.5" class="st8" width="1.8" height="1.8"/>
			<rect x="1440.3" y="235.5" class="st8" width="1.8" height="1.8"/>
			<rect x="1462.3" y="235.5" class="st8" width="1.8" height="1.8"/>
			<rect x="1456.2" y="235.5" class="st8" width="1.8" height="1.8"/>
			<rect x="1472.1" y="235.5" class="st8" width="1.8" height="1.8"/>
			<rect x="1468.4" y="235.5" class="st8" width="1.8" height="1.8"/>
			<rect x="1458.6" y="235.5" class="st8" width="1.8" height="1.8"/>
			<rect x="1452.5" y="235.5" class="st8" width="1.8" height="1.8"/>
			<rect x="1478.2" y="235.5" class="st8" width="1.8" height="1.8"/>
			<rect x="1491" y="203.8" class="st8" width="1.8" height="1.8"/>
			<rect x="1264.5" y="232.5" class="st8" width="1.8" height="2.4"/>
			<rect x="1274.3" y="232.5" class="st8" width="1.8" height="2.4"/>
			<rect x="1280.4" y="232.5" class="st8" width="1.8" height="2.4"/>
			<rect x="1286.5" y="232.5" class="st8" width="1.8" height="2.4"/>
			<rect x="1290.1" y="232.5" class="st8" width="1.8" height="2.4"/>
			<rect x="1296.2" y="232.5" class="st8" width="1.8" height="2.4"/>
			<rect x="1309.1" y="232.5" class="st8" width="1.8" height="2.4"/>
			<rect x="1268.1" y="232.5" class="st8" width="1.8" height="2.4"/>
			<rect x="1293.2" y="232.5" class="st8" width="1.8" height="2.4"/>
			<rect x="1306" y="232.5" class="st8" width="1.8" height="2.4"/>
			<rect x="1302.9" y="232.5" class="st8" width="1.8" height="2.4"/>
			<rect x="1270.6" y="232.5" class="st8" width="1.8" height="2.4"/>
			<rect x="1312.1" y="236.1" class="st8" width="2.4" height="1.8"/>
			<rect x="1444" y="206.8" class="st8" width="1.8" height="1.8"/>
			<rect x="1462.3" y="203.8" class="st8" width="1.8" height="1.8"/>
			<rect x="1481.8" y="206.8" class="st8" width="1.8" height="1.8"/>
			<rect x="1446.4" y="203.8" class="st8" width="1.8" height="1.8"/>
			<rect x="1459.9" y="206.8" class="st8" width="1.8" height="1.8"/>
			<rect x="1450.1" y="206.8" class="st8" width="1.8" height="1.8"/>
			<rect x="1466" y="206.8" class="st8" width="1.8" height="1.8"/>
			<rect x="1472.1" y="206.8" class="st8" width="1.8" height="1.8"/>
			<rect x="1487.9" y="206.8" class="st8" width="1.8" height="1.8"/>
			<rect x="1481.2" y="203.8" class="st8" width="1.8" height="1.8"/>
			<rect x="1478.2" y="203.8" class="st8" width="1.8" height="1.8"/>
			<rect x="1475.1" y="203.8" class="st8" width="1.8" height="1.8"/>
			<rect x="1456.2" y="203.8" class="st8" width="1.8" height="1.8"/>
			<rect x="1459.3" y="203.8" class="st8" width="1.8" height="1.8"/>
			<rect x="1442.8" y="203.8" class="st8" width="1.8" height="1.8"/>
			<rect x="1440.3" y="203.8" class="st8" width="1.8" height="1.8"/>
			<rect x="1446.4" y="206.8" class="st8" width="1.8" height="1.8"/>
			<rect x="1472.1" y="203.8" class="st8" width="1.8" height="1.8"/>
			<rect x="1452.5" y="203.8" class="st8" width="1.8" height="1.8"/>
			<rect x="1469" y="203.8" class="st8" width="1.8" height="1.8"/>
			<rect x="1475.7" y="206.8" class="st8" width="1.8" height="1.8"/>
			<rect x="1478.2" y="206.8" class="st8" width="1.8" height="1.8"/>
			<rect x="1456.2" y="206.8" class="st8" width="1.8" height="1.8"/>
			<rect x="1484.9" y="203.8" class="st8" width="1.8" height="1.8"/>
			<rect x="1440.3" y="206.8" class="st8" width="1.8" height="1.8"/>
			<rect x="1462.3" y="206.8" class="st8" width="1.8" height="1.8"/>
			<rect x="1299.9" y="236.1" class="st8" width="1.8" height="1.8"/>
			<rect x="1296.2" y="236.1" class="st8" width="1.8" height="1.8"/>
			<rect x="1290.1" y="236.1" class="st8" width="1.8" height="1.8"/>
			<rect x="1286.5" y="236.1" class="st8" width="1.8" height="1.8"/>
			<rect x="1268.1" y="236.1" class="st8" width="1.8" height="1.8"/>
			<rect x="1284" y="236.1" class="st8" width="1.8" height="1.8"/>
			<rect x="1261.4" y="236.1" class="st8" width="1.8" height="1.8"/>
			<rect x="1280.4" y="236.1" class="st8" width="1.8" height="1.8"/>
			<rect x="1302.9" y="236.1" class="st8" width="1.8" height="1.8"/>
			<rect x="1306" y="236.1" class="st8" width="1.8" height="1.8"/>
			<rect x="1264.5" y="236.1" class="st8" width="1.8" height="1.8"/>
			<rect x="1274.3" y="236.1" class="st8" width="1.8" height="1.8"/>
			<path class="st10" d="M1940.4,210.5c0.6-3.7,25.6-37.2,37.2-16.5C1975.2,203.8,1949.5,209.9,1940.4,210.5L1940.4,210.5z
				 M1843.3,195.2c1.8-5.5,17.1-15.3,25.6-16.5c1.8,10.4,4.9,14.7-4.3,17.7C1859.2,198.9,1848.2,198.9,1843.3,195.2L1843.3,195.2z
				 M1997.8,113.4c-6.7,4.3-3.1,18.3-1.8,27.5c1.2,9.8,1.2,20.8,2.4,30.5c1.8,28.7,10.4,39.1-22.6,39.7c1.8-11.6,16.5-23.8,0.6-33
				c-14.7-9.2-18.9,11-27.5,14c0-11.6,0-21.4-0.6-33c-2.4-30.5,1.2-12.8,2.4-28.7c-9.8-4.9-5.5-6.1-7.3-15.3c0,0,0-0.6-0.6-1.2
				c0-0.6,0-0.6-0.6-1.2c-2.4,3.1-4.3,9.2-4.9,13.4c-1.8,7.9,0.6,7.9,1.8,14c2.4,11,7.9,54.3,2.4,61.7c-1.8,2.4-6.1,7.9-8.5,8.5
				c-7.9,2.4-6.7-3.7-8.5-7.3c-4.3,1.8-3.7,4.3-9.8,6.7c-13.4,5.5-26.9,3.7-33-10.4c-7.9-18.9-7.3-46.4-12.8-51.3
				c-4.9,6.1-1.8,14-1.2,21.4c-12.2,6.7-33,18.3-31.7,36.6c4.9,3.1,14,4.9,22.6,3.1c9.2-1.8,6.7-8.5,14.7-11.6
				c2.4,11.6,6.7,22,15.9,25.6c15.9,5.5,29.3-5.5,32.4-6.7c3.7,7.9,7.3,7.9,18.9,6.7c9.2-0.6,14,0,23.2,0
				c40.9,0.6,26.9-1.8,39.1-11.6c7.9,11.6,4.3,11.6,22.6,11.6h49.5c8.5-0.6,6.7-3.7,13.4-2.4c15.9,2.4,15.3,3.7,24.4-6.1
				c6.7,3.1,4.9,4.3,15.3,3.7c4.3-8.5,9.2-31.1,0.6-36c-3.7,12.2,6.7,31.1-11.6,22c0-4.9,1.2-5.5,0.6-9.8c-0.6-3.1,0-1.2-1.2-3.1
				c-4.9,3.7-2.4,9.8-7.9,15.3c-3.1,3.1-11,5.5-15.9,1.8c-3.1-3.1,0-3.7-0.6-7.9s1.2,0-1.2-3.1c-4.3,6.1-3.1,12.2-13.4,12.8h-50.7
				c-10.4,0-15.3,1.8-18.3-7.3C2002,187.9,2004.5,121.9,1997.8,113.4L1997.8,113.4z"/>
			<path class="st10" d="M1653.4,202.5c1.8-4.3,2.4-4.9,6.7-6.1c1.8,3.1,5.5,11,6.1,14.7C1659.5,209.9,1655.2,206.8,1653.4,202.5
				L1653.4,202.5z M1663.8,184.2c-6.1,1.2-8.5,5.5-11.6,10.4c-3.7,4.9-3.7,11-7.9,13.4c-14,7.9-20.8-4.9-21.4-17.1
				c-0.6-11.6-3.1-73.3-6.1-78.2c-7.9,3.7-1.8,25.6-1.8,33.6c0.6,12.2,1.2,25.6,2.4,37.2c1.2,12.2-0.6,25.6,6.1,33.6
				c11,14,26.3-1.8,26.3-2.4c8.5,6.7,7.9,9.2,24.4,9.2c6.1-6.7,3.1-4.3,15.3-3.1c6.7,0.6,14,0.6,20.8,0.6
				c32.4,0.6,56.2,3.7,80.6-7.9c11.6-5.5,20.1-9.2,22-23.2c-7.9,2.4-13.4,9.2-22,12.2s-29.3-12.2-4.3-24.4c10.4-5.5,12.2,0.6,18.9,0
				c-3.7-11-19.5-18.9-28.7-4.9c-4.3,6.7-10.4,19.5-8.5,28.7c1.2,4.9,3.7,4.3,1.2,6.1c-3.1,3.1-56.8,1.8-65.3,1.8
				C1669.3,210.5,1679.1,208,1663.8,184.2L1663.8,184.2z"/>
			<path class="st10" d="M1748.7,260.5c-1.8,1.2-1.8-1.2-3.1,4.9l3.1,40.9c0.6,6.7,9.2,39.1-18.3,27.5c-2.4-7.9,1.2-7.3-0.6-12.2
				c-7.3,2.4-0.6,7.3-10.4,11c-11.6,4.3-44.6,4.3-57.4,3.7c-34.2-1.8-20.1-36-30.5-51.3c-4.9,6.7,0,9.8-1.8,15.9
				c-6.1,6.1-19.5,7.9-19.5,18.3c6.1-0.6,1.2-0.6,10.4-6.1c3.7-2.4,6.1-3.7,11-4.3l1.8,9.8c-6.7,5.5-16.5,7.9-23.2,2.4
				c-2.4-1.8,0-1.2-1.8-1.2c-2.4,3.7-2.4,4.3-2.4,10.4c25.6,6.7,20.8-3.1,28.7-7.3c7.3,15.3,1.2,22.6,37.9,23.2
				c9.8,0,20.1,0,29.9-0.6c15.3-1.2,13.4-3.1,23.2-7.3l3.1,3.7c3.7,3.7,4.9,5.5,11.6,4.3c8.5-1.2,8.5-6.1,12.8-9.2
				c3.7,7.9,4.9,9.8,15.3,11c7.9,1.2,16.5-0.6,23.2-2.4c7.3-1.8,12.2-4.3,18.9-7.3c10.4-4.3,9.8-2.4,21.4-3.7
				c1.2-2.4,3.1-6.1,3.1-9.8c-17.7-1.2-19.5-1.2-32.4-9.2c-6.7-4.3-9.2-3.7-13.4,1.8c-2.4,3.1-6.7,7.9-7.3,12.2
				c6.1-1.8,4.3-9.2,12.8-6.7c3.1,0.6,11,5.5,12.8,7.3c-3.1,3.1-48.8,20.8-52.5-2.4C1752.9,315.5,1751.7,265.4,1748.7,260.5
				L1748.7,260.5z"/>
			<path class="st10" d="M1552.7,204.4c-9.8-13.4,4.3-26.3-0.6-33c-4.9,10.4-11,28.1-4.9,40.9c5.5,11.6,21.4,15.3,36,8.5
				c34.2-15.3,18.9-65.9,11-69.6c-6.7,12.8,0,15.3,3.7,31.1c3.7,16.5-2.4,20.8-14,26.3C1572.2,213.5,1558.8,212.9,1552.7,204.4
				L1552.7,204.4z"/>
			<path class="st10" d="M1908.6,345.4c14.7-3.7,8.5-36,7.9-48.2c-1.8-26.9,0.6-15.9,2.4-26.3c-3.7-3.1-3.7-1.2-4.9-5.5l-1.2-7.3
				c0-0.6,0-0.6-0.6-1.2c-3.1,4.3-4.9,11-3.7,17.1c1.8,7.3,2.4,10.4,3.1,18.3c1.2,11,3.1,29.3,2.4,39.7c-11,8.5-17.1,2.4-20.1-9.2
				c-3.1-13.4,0-28.7-5.5-32.4c-6.7,20.1,12.2,35.4-12.8,44c-8.5,3.1-11-0.6-14-0.6c-3.7,9.8,1.2,13.4,12.8,10.4
				c6.7-1.8,14.7-11.6,14.7-11.6c0-0.6,0.6-0.6,0.6-0.6c1.2,1.8,0,0,1.2,2.4l4.3,7.3C1899.5,345.4,1903.1,346.6,1908.6,345.4
				L1908.6,345.4z"/>
			<path class="st10" d="M2053.3,319.8c-7.3,4.9-10.4-3.7-4.3-7.9C2050.9,313.7,2053.3,315.5,2053.3,319.8L2053.3,319.8z
				 M2028.3,308.2c0,0-6.1,0-4.3,7.9c1.2,4.9,11.6,8.5,1.2,23.2c-3.1,4.3-6.7,8.5-11.6,11c-5.5,3.1-11,1.8-14,2.4
				c-4.3,1.2-1.8-0.6-4.3,2.4c28.7,7.9,19.5-1.8,28.7,0.6c11,3.7,20.8,6.7,27.5-3.1c12.8-18.3,12.2-45.2-0.6-51.3
				c-3.7,3.1-8.5,13.4-7.9,21.4c1.8,15.9,14,3.7,14,3.7c0.6,9.8-4.9,15.9-9.8,20.8c-6.7,6.1-11.6,6.7-23.2,6.1
				C2024.6,345.4,2041.7,329.5,2028.3,308.2L2028.3,308.2z"/>
			<path class="st10" d="M2088.7,171.4c-1.8-12.8,3.1-10.4,14.7-12.2c9.2-1.8,14.7-0.6,15.9-9.2c-13.4-0.6-61.7,9.2-79.4,12.8
				c-8.5,1.8-18.3,1.8-17.1,11.6l62.9-12.2c-0.6,7.3-1.8,9.8,0.6,15.9c7.3,3.1,10.4-1.2,10.4-9.2
				C2089.3,169.6,2094.8,170.2,2088.7,171.4L2088.7,171.4z"/>
			<path class="st10" d="M1712,151.3c17.1-7.3,27.5,0.6,29.9-12.2c-19.5,0.6-56.2,8.5-77.5,12.8c-11,2.4-17.1,1.2-18.9,11.6l62.9-11
				c-1.2,9.8-3.1,11.6,3.1,17.1c5.5-1.2,7.3-4.9,7.9-11c-5.5,1.2-2.4,2.4-7.3,2.4V151.3z"/>
			<path class="st10" d="M1646.7,298.4c5.5-1.2,29.3-19.5,35.4-23.2c11-6.7,31.1-16.5,31.7-23.8c-7.3,0.6-48.8,29.9-60.4,37.9
				C1649.1,292.3,1647.9,292.3,1646.7,298.4L1646.7,298.4z"/>
			<path class="st10" d="M1972.7,357.6c9.8-1.8,19.5-21.4,19.5-32.4c0-6.7-1.2-15.3-7.9-17.1c-8.5,14,12.8,11.6,0,31.1
				c-9.2,14-11.6,11.6-31.1,13.4C1955.6,357.6,1969.7,358.2,1972.7,357.6L1972.7,357.6z"/>
			<path class="st10" d="M1842.7,266.7c-3.7,10.4-1.2,26.3,0,38.5c1.2,12.8,1.2,26.3,2.4,39.7c7.9-2.4,3.1-28.7,2.4-37.9
				c-0.6-6.7-1.2-14-1.2-20.8C1845.7,280.7,1846.3,270.3,1842.7,266.7L1842.7,266.7z"/>
			<path class="st10" d="M1746.8,178.1c9.2-1.2,26.3-18.3,26.9-27.5c0.6-9.2-7.9-11.6-13.4-6.1c-1.8,1.8-4.3,5.5-3.7,9.8
				c0.6,3.7,6.1,6.1,6.1,6.1l0.6,0.6C1759,170.8,1748,171.4,1746.8,178.1L1746.8,178.1z"/>
			<path class="st10" d="M1927.5,267.3c-1.8,0.6-3.1-2.4-3.1,9.2l4.3,64.7c1.2,7.3-1.2-4.9,0.6,1.8l1.2,1.8
				c2.4-3.1,1.8-3.7,1.8-10.4C1932.4,321.6,1930,272.1,1927.5,267.3L1927.5,267.3z"/>
			<path class="st10" d="M1998.4,260.5c-4.3,4.3-2.4,11-1.8,18.9l4.9,58c7.3-3.7,1.8-31.1,1.8-39.1l-3.7-37.2
				C1999,261.2,1998.4,261.2,1998.4,260.5L1998.4,260.5z"/>
			<path class="st10" d="M1955,299.6v4.9c4.9,0.6,15.9,9.2,11,14l-5.5,3.1l-0.6-0.6c-1.2,2.4,1.8,1.2-2.4,2.4
				c-6.7-1.8-3.1,0-4.9-3.1c0,0,0-0.6-0.6-0.6l-1.8-4.3c-4.3,15.9,1.8,15.3,9.2,15.9l0.6-0.6c0,0.6,5.5-2.4,8.5-11.6
				c0-0.6,0-0.6,0-1.2s0-1.8,0.6-2.4c0.6-3.1,0-6.7,0.6-9.8l-3.1-4.3c-1.8,0-1.8,0.6-1.2-1.2c-2.4,0.6-1.8,0.6-1.2-1.2
				c-2.4,0.6-1.8,1.2-1.2-1.2c-2.4,0.6-1.8,1.2-1.8-1.2c-3.7-1.8-0.6-0.6-4.9-1.8C1956.9,298.4,1957.5,298.4,1955,299.6L1955,299.6z
				"/>
			<path class="st10" d="M1875,136c3.7-2.4,5.5-5.5,6.7-9.8c-2.4-2.4-4.3-5.5-7.9-7.3l-6.1,7.3c-4.3-3.1-2.4-3.7-7.9-5.5l-6.1,10.4
				l7.3,6.7c3.7-2.4,3.1-3.7,6.1-7.3C1872.6,132.3,1870.8,133.6,1875,136L1875,136z"/>
			<path class="st10" d="M1631.4,149.4c6.7-1.2,17.7-5.5,24.4-7.9c14-4.3,19.5-3.7,19.5-11c-5.5,0-18.9,4.3-24.4,6.1
				C1636.3,142.1,1632,141.5,1631.4,149.4L1631.4,149.4z"/>
			<path class="st10" d="M1887.9,147.6c6.1-0.6,17.1-5.5,23.8-7.3c15.3-4.3,20.1-3.7,20.1-11.6c-6.1,0.6-18.9,4.9-25,6.7
				C1898.2,138.4,1889.1,138.4,1887.9,147.6L1887.9,147.6z"/>
			<path class="st10" d="M1829.2,279.5c6.7,0.6,2.4-6.7-1.2-8.5c-4.9,3.7-5.5,7.3-6.1,15.9c-3.7-3.1-2.4-2.4-4.3-6.7
				c-4.3-10.4-10.4-4.3-9.2,1.2c1.2,3.7,3.1,2.4,6.1,3.7c1.2,4.3,2.4,4.9,3.1,9.2c1.2,5.5-1.2,5.5,3.7,6.7l4.3-20.8L1829.2,279.5z"
				/>
			<path class="st10" d="M1655.2,279.5c3.7-1.8,4.9-13.4,6.7-22.6l6.1,1.8c0-6.1,0-6.7-3.7-9.2c-4.9,3.7-4.9,8.5-6.7,14.7
				c-6.7-6.7-1.8-10.4-11-11l-0.6,7.9c3.1,1.8,4.3,1.2,6.7,3.1c0.6,3.1,1.2,5.5,2.4,8.5C1654.6,275.2,1654.6,277,1655.2,279.5
				L1655.2,279.5z"/>
			<path class="st10" d="M1562.4,105.5c0.6,2.4,1.2,1.8-1.2,1.2c0.6,2.4,1.2,2.4-0.6,1.8c0.6,2.4,1.2,1.8-1.2,1.2l-2.4,1.8
				c0.6,2.4,1.2,1.8-0.6,1.8c0.6,2.4,1.8,2.4-0.6,1.8c0.6,1.8,1.2,1.8-1.2,1.2l0.6,1.8c1.2-0.6,0,0,1.8-1.2c0.6,0,1.8-1.2,1.8-1.8
				c3.1-1.8,2.4-1.2,6.7-1.8l5.5,0.6v3.7c0,0-0.6,0.6-0.6,1.2c0.6,2.4,0.6,1.8-1.8,0.6c0.6,1.8,0.6,1.2-1.8,0.6l-1.8,0.6
				c0,1.8,0.6,1.2-1.2,1.2l-3.1,4.9c0,0-0.6,0.6-0.6,1.2c2.4-0.6,3.7-1.2,7.3-2.4l1.8-0.6c0-1.8-0.6-1.8,1.2-1.2l1.8-1.8
				c-0.6-2.4-1.2-1.8,1.2-1.2c-0.6-2.4-1.2-1.8,1.2-1.2c-0.6-1.8-0.6-1.2,1.2-1.2l1.8-10.4l-2.4-1.2l-12.2-2.4
				C1563.7,106.1,1564.3,106.1,1562.4,105.5L1562.4,105.5z"/>
			<path class="st10" d="M2011.8,154.3c-2.4-1.2-2.4-1.8-1.8,0.6c-2.4-0.6-1.8-1.2-1.2,1.2c-0.6,0.6-0.6,0-1.2,2.4
				c-0.6,1.8,0,0.6,0,2.4c5.5,0,2.4-0.6,3.7-1.2c4.9,0.6,1.8,0.6,3.1-0.6c5.5,0.6,1.8,0.6,3.1-1.2c-5.5,0-2.4,0-3.1,1.2l-3.1,0.6
				h-2.4l0.6-3.7c2.4,0.6,1.8,0.6,1.2-1.2C2012.4,155.5,2012.4,156.8,2011.8,154.3c6.1,0,18.3-4.9,22.6-7.3l3.7-1.2l4.9-1.2
				c6.1,1.2,1.8,0.6,3.7-1.8c-6.1,0-3.1-0.6-3.7,1.8c-0.6,0-5.5-1.2-4.9,1.2c-1.2,0-4.3-1.2-3.7,1.2c-6.7,0-12.2,3.1-18.9,4.3
				c1.8-5.5,2.4-14-0.6-20.8c-1.8-3.7-1.8-3.1-3.7-4.3c-6.7,4.3-2.4,5.5,0,11.6c1.2,4.3,1.2,5.5,1.2,9.8
				C2013,153.1,2014.2,149.4,2011.8,154.3L2011.8,154.3z"/>
			<path class="st10" d="M2043.6,143.9l-4.9,1.2l-3.7,1.2c-4.3,2.4-17.1,7.3-22.6,7.3c0.6,2.4,0.6,1.8-1.8,0.6
				c0.6,2.4,1.2,1.8-1.2,1.2l-0.6,3.7h2.4l3.1-0.6c0.6-1.2-2.4-1.2,3.1-1.2c6.7-1.8,12.8-4.3,18.3-6.1c12.8-3.7,14-2.4,16.5-7.9
				c-1.8-1.2-1.8-1.8-5.5-1.2C2045.4,144.5,2049.7,145.2,2043.6,143.9L2043.6,143.9z"/>
			<path class="st10" d="M1960.5,321l5.5-3.1c4.9-4.3-6.1-13.4-11-14V299c1.8-1.2,1.2-1.2,1.8-4.9c4.3,1.2,1.2,0,4.9,1.8
				c-0.6,2.4-0.6,1.8,1.8,1.2c-0.6,1.8-0.6,1.2,1.2,1.2c-0.6,2.4-0.6,1.8,1.2,1.2c-0.6,1.8-0.6,1.2,1.2,1.2l3.1,4.3
				c0,3.1,0,6.7-0.6,9.8c0,0.6,0,1.8-0.6,2.4c0,0.6,0,0.6,0,1.2c-2.4,9.8-7.9,12.2-8.5,11.6l-0.6,0.6c-7.3-0.6-12.8,0-9.2-15.9
				l1.8,4.3c0,0,0,0.6,0.6,0.6c1.8,3.1-1.8,1.2,4.9,3.1C1962.4,321.6,1959.3,323.4,1960.5,321c-6.1,0-7.3,0.6-6.7-4.3
				c0-4.3,1.8-7.9,2.4-11c6.1,2.4,8.5,4.9,9.8,10.4c-1.8,1.8,0,0-2.4,2.4l-0.6,0.6L1960.5,321z M1955,299.6l-4.9,12.8
				c-6.1,20.1,4.3,22.6,9.8,18.3c4.9-0.6,7.3-4.3,9.8-9.2c1.2-3.1,3.1-8.5,1.8-12.8c-0.6-4.3-0.6-2.4-1.8-3.7l-3.1-4.3
				c0.6-2.4,0.6-1.8-1.2-1.2c0.6-2.4,0.6-1.8-1.2-1.2c0.6-2.4,0.6-1.8-1.2-1.2c0.6-2.4,0.6-1.8-1.8-1.2c-0.6-1.2,1.2-1.2-2.4-2.4
				c-4.9-1.8-1.8,0-2.4,0.6c-0.6,0.6-0.6,0.6-1.2,2.4v1.2C1955,298.4,1955,299,1955,299.6L1955,299.6z"/>
			<path class="st10" d="M1967.2,285c4.3-5.5,6.7-8.5-1.8-12.8c-4.3,3.1-1.2,2.4-4.9,5.5c-4.3-1.8-1.8-1.8-6.7-3.7
				c-2.4,3.1-3.7,3.7-4.3,9.2c3.1,1.8,2.4,1.8,6.1,3.7l4.9-5.5C1965.4,283.1,1961.7,283.1,1967.2,285L1967.2,285z"/>
			<path class="st10" d="M1672.3,374.1c5.5-1.8,1.2-1.8,6.1-4.9c3.1,2.4,1.8,1.8,4.9,3.7c5.5-4.3,5.5-6.1,1.8-12.2
				c-6.7,0.6-3.7-0.6-7.3,4.9c-4.9-3.1,0-2.4-7.9-3.7c-1.2,3.7-2.4,3.7-3.1,8.5L1672.3,374.1z"/>
			<path class="st10" d="M1627.2,277.6c2.4-1.8,4.3-4.3,4.9-7.9c-2.4-3.1-2.4-3.7-6.7-4.9l-3.1,5.5c-6.1-1.8-2.4-0.6-7.3-4.3
				l-5.5,7.3c1.8,2.4,3.7,4.9,7.3,6.1l2.4-5.5C1626.5,275.2,1622.9,274.6,1627.2,277.6L1627.2,277.6z"/>
			<path class="st10" d="M1709.6,283.1c-1.8-7.9-3.1-6.7-5.5-7.9c-1.8,6.1,2.4,11,2.4,19.5c0,9.8-3.7,12.2-4.9,19.5
				c1.8-1.2,2.4-0.6,4.3-4.3C1709,303.3,1711.4,291.1,1709.6,283.1L1709.6,283.1z"/>
			<path class="st10" d="M1553.9,151.3c1.8-4.3,5.5-8.5,6.7-12.2c-3.7,0.6-3.1,0.6-5.5,4.3c-5.5,7.9-10.4,25,0,22
				c3.7-1.2,4.3-6.1,3.7-9.8l-4.9-3.1C1554.5,151.3,1554.5,151.3,1553.9,151.3L1553.9,151.3z"/>
			<path class="st10" d="M1573.4,124.4c-3.1,2.4-5.5,6.1-6.7,11c3.1,2.4,3.7,4.3,7.9,6.1C1581.4,135.4,1584.4,128.7,1573.4,124.4
				L1573.4,124.4z"/>
			<path class="st10" d="M1688.8,302.7c3.7-3.7,4.3-7.3,2.4-12.8c-6.1,0.6-1.2,3.7-3.7,9.2l-0.6-0.6l-1.8-2.4
				c-1.2-1.8,0-0.6-1.8-1.8l-1.8,7.9c-3.1-1.2-0.6,0-2.4-2.4c-1.8-2.4,0.6-1.2-1.8-2.4c-1.8,3.7-1.8,7.3,0,11
				C1680.3,307.6,1687,304.5,1688.8,302.7L1688.8,302.7z"/>
			<path class="st10" d="M1914.1,167.1c3.7-1.8,6.1-5.5,7.3-9.8l-7.3-7.3c-3.7,1.8-6.7,6.7-7.3,11L1914.1,167.1z"/>
			<path class="st10" d="M1901.9,308.8c-1.2-10.4,2.4-15.3,1.8-22c-6.1,3.1-9.2,22.6-3.7,29.3c5.5-1.2,6.1-4.3,6.7-10.4
				L1901.9,308.8z"/>
			<path class="st10" d="M1790.2,363.1c4.3-0.6,9.2-5.5,13.4-7.9c5.5-3.7,9.8-4.3,10.4-11c-4.3,0.6-9.8,5.5-13.4,7.9
				C1795.1,355.2,1790.8,356.4,1790.2,363.1L1790.2,363.1z"/>
			<path class="st10" d="M1634.5,126.2c1.8,4.9,0.6,9.2,1.8,12.8c4.3-4.3,4.3-20.8-2.4-23.8C1629,120.1,1632.6,120.7,1634.5,126.2
				L1634.5,126.2z"/>
			<path class="st10" d="M1970.3,145.2c-1.2-11-4.9-8.5-6.1-9.2c-1.8,6.7,0.6,4.9,2.4,11c1.2,4.9,0,8.5,1.8,12.2l1.8-6.1
				C1970.9,150.6,1970.9,147,1970.3,145.2L1970.3,145.2z"/>
			<path class="st10" d="M2013.6,298.4c3.7-3.1,4.3-3.7,4.3-9.2c-4.3-2.4-1.2-1.8-6.1-3.7c-1.8,3.1-3.1,4.3-4.3,8.5L2013.6,298.4z"
				/>
			<path class="st10" d="M1883,281.9c3.7-0.6,7.3-4.3,10.4-6.1c4.3-2.4,6.7-2.4,7.3-7.9C1898.9,267.9,1883,274,1883,281.9
				L1883,281.9z"/>
			<path class="st10" d="M1786.5,302.7c7.9-4.9,5.5-11-1.2-12.8c-2.4,3.1-3.7,4.3-4.3,9.2L1786.5,302.7z"/>
			<path class="st10" d="M2040.5,298.4c0.6,0,17.7-7.3,18.3-14.7c-4.3,0.6-7.9,3.7-11,5.5C2043.6,291.7,2041.1,292.9,2040.5,298.4
				L2040.5,298.4z"/>
			<path class="st10" d="M1876.9,279.5c-2.4-3.7-0.6-1.2-4.3-3.1c-2.4,4.3,0,4.9,1.8,9.2c1.2,4.3,0,6.7,3.1,10.4
				C1878.1,292.9,1879.3,283.1,1876.9,279.5L1876.9,279.5z"/>
		</g>
		<g>
			<g>
				<path class="st11" d="M2363.4,128.8c2.8,6.1,10.3,13.1,15.9,18.2c5.6,5.1,10.8,12.2,15.4,18.2c14.5-7,33.2-29.9,73.9-21
					c54.3,11.7,81.9,69.7,52.9,118.3c-13.1,21-36,36.5-61.3,38.4l2.8,0.9c10.3,2.3-10.3-0.9,3.3,0.5l17.3-0.9
					c67.8-13.1,88.9-73.9,100.6-78.1c0-38.8-13.6-67.8-41.2-95c-31.3-30.9-74.4-39.8-117.4-33.7
					C2405.5,97.4,2371.3,115.2,2363.4,128.8L2363.4,128.8z"/>
			</g>
			<g>
				<path class="st10" d="M2372.7,324.3V223.7c0-36.5,18.2-48.2,22-58.9c-15.4-19.2-16.4-18.2-26.7-42.1
					c-37.9,24.3-46.8,97.8-46.8,135.6c0,29.9-9.4,87,19.6,93.5h12.2c0.5,0,1.4,0,1.9-0.5c5.1-0.9,8.9-4.7,12.6-8.4
					C2372.7,337.4,2372.7,335,2372.7,324.3L2372.7,324.3z"/>
			</g>
			<g>
				<path class="st12" d="M2372.7,324.3c22.5,25.3,79,31.8,107.1,24.3c12.6-3.3,22.9-6.5,34.1-11.7c8.4-4.2,19.2-12.2,26.7-19.2
					c8.4-8,14.5-15,22-23.9c11.2-15,22.5-44.4,22.5-70.2c-13.1,5.1-60.8,78.6-124.4,77.6c-19.2-0.5-40.2-1.4-61.3-20.6
					c-5.6-5.1-14.5-16.8-17.8-24.3c-4.2-9.4-8.4-19.6-8.4-32.3v100.1H2372.7z"/>
			</g>
			<g>
				<path class="st10" d="M3072.9,161.5c0-10.3,15.4-10.3,15.4,0C3087.9,171.3,3072.9,171.3,3072.9,161.5L3072.9,161.5z
					 M2935.4,161.5c0-10.3,15.4-10.3,15.4,0C2950.8,171.3,2935.4,171.3,2935.4,161.5L2935.4,161.5z M3011.6,144.2
					c16.8-24.8,28.1-22.5,19.2-36c-9.8,2.8-40.7,40.2-42.1,45.8c8.9,0,14-1.9,17.8,3.7c8.9,14-15.9,11.7-21.5,11.7
					c0-22,2.3-23.4-7.5-28.5c-8,7.5-5.6,10.8-5.6,28.5c-15.4-0.5-6.5-3.7-10.8-15.9c-5.1-14-37-18.2-37,10.3
					c0,25.3,30.9,15.9,30.9,15.9c9.8-0.5-0.5,4.2,20.1,0.5c9.4-1.9,11.7,2.8,22,2.8c7,0,10.8-3.7,15.4-3.7c5.6,0,5.1,3.7,13.1,3.7
					c9.4,0,7-1.9,14-2.8c8.4-0.9,6.5,2.8,12.6,2.8c9.4,0,7-1.9,14-2.8c7.5-0.9,9.4,2.8,14.5,2.8c10.3,0,6.1-7,17.3-2.3
					c14.5,5.6,8.4,0,17.3-0.9c6.1-0.5,7,3.3,9.4,3.3c25.3,0,19.2-28.1,19.2-60.8c0-4.2-1.4-4.2-3.7-7.5c-14.5,3.7-9.4,18.7-9.4,55.2
					c-17.8-0.5-3.3-12.6-7.5-45.8c-0.9-7.5-2.8-8-9.4-9.4c-2.3,3.3-3.7,3.3-3.7,7.5V169c-20.6-0.5,0-15.4-19.2-24.8
					c-5.1-2.3-23.9-1.9-25.7-0.9c-7,3.3-4.7,9.8-4.7,25.7h-11.2c0-36.5,5.1-51.5-9.4-55.2c-6.1,8.9-3.7,12.6-3.7,28.5
					c0,18.2,4.2,26.7-9.8,26.7c-7.5,0-4.7-6.1-6.1-12.6C3017.3,148.9,3015.4,149.8,3011.6,144.2L3011.6,144.2z"/>
			</g>
			<g>
				<path class="st10" d="M3486.9,155.4l17.3,13.6h-17.3V155.4z M3437.3,161.5c0-10.3,15.4-10.3,15.4,0
					C3452.3,171.3,3437.3,171.3,3437.3,161.5L3437.3,161.5z M3565,153.6c8,0,13.1,15.4,0,15.4C3555.6,169,3555.6,153.6,3565,153.6
					L3565,153.6z M3505.6,154l17.8-0.5c-2.8,4.2-5.6,4.7-9.4,7.5L3505.6,154z M3656.7,169c-13.6-0.9-3.7-5.1-10.3-16.4
					c-7.5-13.1-22.5-10.3-39.3-10.3c-15,0-24.3,24.8-11.2,24.8c10.8,0-0.5-13.6,17.3-13.6s24.8-2.3,24.8,15.4
					c-78.1,0-39.3,0.9-56.6-19.6c-7-8.4-11.7-6.5-25.3-6.5c-0.5,0-0.9,0-1.4,0c-7,0-8.4-2.3-8,15c0,15.9-4.7,11.2-21,11.2
					c3.3-4.7,8.4-6.5,13.1-12.2c16.8-20.1-22.5-15-43.5-15c-8.9,0,0.9,2.8-7.5,2.8c-4.2,0-13.6-11.2-13.6,8.4
					c0,10.3,2.3,10.8-3.7,15.4c-10.8-2.8-2.8-6.5-7.5-17.3c-12.2-25.7-58,5.1-28.1,26.2c2.8,1.9,6.1,3.3,9.8,3.7
					c8,0.9,8.4-3.3,10.8-3.3c8.4,0,2.8,1.4,10.8,2.8c6.1,0.9,3.7,0,11.2-1.4c8.9-1.4,11.2,2.8,25.7,2.8c8.4,0,3.7-1.9,10.3-2.8
					c9.4-1.4,2.8,2.8,10.8,2.8c11.2,0,15.9,0.9,24.8-2.3c9.4-3.7-0.5-4.2,9.4-0.9c17.8,6.1,11.2-0.5,21.5-0.5
					c7.5,0-0.5,4.2,26.7,3.7c4.2,0,10.3-0.5,13.6-0.5c1.9,0,7.5,0.9,13.1,0.5c8.4-0.5,6.5-1.9,13.6-1.9c0,0,26.7,5.6,26.7-17.3
					c0-15.9,4.2-51.9-8.4-48.2c-6.5,1.9-5.1,8-4.7,15.9C3658.5,142.3,3660.4,160.6,3656.7,169L3656.7,169z"/>
			</g>
			<g>
				<path class="st10" d="M3356.8,169c1.9-2.3,14.5-13.6,17.3-15.4C3374.1,171.8,3375.1,169,3356.8,169L3356.8,169z M3290.4,161.5
					c0-10.3,15.4-10.3,15.4,0C3305.4,171.3,3290.4,171.3,3290.4,161.5L3290.4,161.5z M3338.1,153.6h17.3c-4.2,6.1-3.3,1.4-7.5,7.5
					C3343.3,158.7,3340.9,157.8,3338.1,153.6L3338.1,153.6z M3252.1,125c0,21.5-5.6,57.1,19.2,57.1c6.5,0,11.7-3.7,14-4.2
					c3.7-0.5-0.5-0.9,6.1,1.4c15,5.6,12.6-1.9,20.1-1.4c8,0-1.9,4.2,23.4,4.2c7.5,0,6.5-2.8,11.7-3.3c1.9,0,25.7,9.4,36.5-3.7
					c6.1-7,2.3-29.9,3.3-46.3c0.5-8.4,2.3-12.6-8-15.4c-6.1,9.4-3.7,15.4-3.7,32.3c-10.3-7-24.3-3.7-47.7-3.7
					c-5.6,0-14,7.5-0.9,18.2l10.3,8.9h-17.3c-1.9-7.5-0.9-14.5-5.1-19.6c-7-8.4-14.5-6.5-25.3-6.5c-0.5,0-0.9,0-1.4,0
					c-7,0-7-0.9-8,5.1c-3.3,15.4,8.9,21-13.6,21v-47.7c0-4.2-1.4-4.2-3.7-7.5C3254.9,115.2,3252.1,116.6,3252.1,125L3252.1,125z"/>
			</g>
			<g>
				<path class="st10" d="M2857.3,169h-9.4c-7.5,0-10.3-10.8-2.8-14C2854.5,150.3,2856.8,160.6,2857.3,169L2857.3,169z
					 M2786.7,153.6c32.3,0,16.8,15.4,11.2,15.4c-27.6,0-8-7-18.7-21.5c-5.6-7.5-12.6-8.4-17.8-1.4c5.1,18.7,9.4-8.4,9.4,28.5
					c0,9.8-6.1,14.5-15.4,15.4c-1.4-5.6-0.9-3.3-3.7-7.5c-8.4,2.3-4.7,5.1-10.3,4.2c-2.8-0.5-0.5-6.5-12.6,1.9
					c1.9,7,1.9,4.2,5.6,9.4c7-1.9,4.2-1.9,9.8-5.6c1.4,1.9,0.5,1.4,2.8,3.3l8,3.7c4.7,2.3-3.3,2.8,4.7,2.8c12.2,0,20.6-10.3,22.9-21
					c15,7,22-4.7,30.4-1.9c4.7,1.4,4.2,3.7,11.2,3.7c41.6,0,59.4,5.6,59.4-22.9c0-14.5,0-29.5,0-44c-25.7-6.1-1.4,43.5-15.4,53.3
					c0-41.2-40.2-28.1-40.2-9.4c0,5.1,0.9,5.1,1.9,9.4h-11.2c0-16.4-1.9-13.6-9.4-24.8c13.6-20.6,31.3-24.8,19.2-36
					C2820.8,110.1,2787.6,149.4,2786.7,153.6L2786.7,153.6z"/>
			</g>
			<g>
				<path class="st10" d="M2626.2,113.8v215.6c0,8,13.1,8,13.1,0V113.8C2639.8,105.4,2626.2,105.4,2626.2,113.8L2626.2,113.8z"/>
			</g>
			<g>
				<path class="st10" d="M3175.8,161.5c0-10.3,15.4-10.3,15.4,0C3190.8,171.3,3175.8,171.3,3175.8,161.5L3175.8,161.5z
					 M3248.3,155.4c0-6.5-1.4-7.5-1.9-13.1h-9.4c-3.3,13.1-1.9,11.2-1.9,26.7h-9.4c0-15.4,0.9-13.6-1.9-26.7h-9.4
					c-2.8,13.1-1.9,11.2-1.9,26.7c-15.4-0.5-5.6-2.3-10.3-14.5c-8.9-23.4-45.8-10.3-37.4,12.6c7.5,21,25.7,13.1,29.5,12.6
					c8.9-1.4,7,3.3,16.8,1.4C3230.5,177,3248.3,191.5,3248.3,155.4L3248.3,155.4z"/>
			</g>
			<g>
				<path class="st10" d="M2313.3,102.1c0,25.7,31.3,32.7,45.4,16.8c14-15.9,2.8-39.8-22.5-39.8
					C2325.5,79.2,2313.3,91.8,2313.3,102.1L2313.3,102.1z"/>
			</g>
			<g>
				<path class="st10" d="M2706.2,153.6c4.7,0,7.5,3.3,7.5,7.5s-3.3,7.5-7.5,7.5C2695.5,169,2697.8,153.6,2706.2,153.6L2706.2,153.6
					z M2687.5,161.5c0,8.9,4.2,14.5,10.8,17.8c13.6,6.5,12.2-0.9,21.5-0.9c8.4,0-0.5,4.7,21,1.9c7.5-0.9,5.1,0.9,10.3-3.3
					c7.5-6.1,5.1-13.6,5.1-29.5c0-4.2-1.4-5.6-5.6-5.6c-14,0,2.8,26.7-11.2,26.7h-11.2C2727.3,131.1,2687.5,137.2,2687.5,161.5
					L2687.5,161.5z"/>
			</g>
			<g>
				<path class="st10" d="M3389.6,125c0,26.7-4.2,48.2,5.6,57.1c5.1-2.8,7.5-3.3,7.5-11.2v-49.6
					C3402.7,113.3,3389.6,110.1,3389.6,125L3389.6,125z"/>
			</g>
			<g>
				<path class="st10" d="M2887.7,125v45.8c0,8.4,2.3,8.4,7.5,11.2c9.8-9.4,5.6-30.9,5.6-57.1c0-8.4-2.8-9.8-9.4-11.2
					C2889.6,117.5,2887.7,119.4,2887.7,125L2887.7,125z"/>
			</g>
			<g>
				<path class="st10" d="M3675.8,180.7c7,1.4,10.3,0,11.2-5.1v-54.3c0-5.1-2.8-5.6-5.6-7.5c-8.9,6.1-5.6,8.9-5.6,30.4
					C3675.8,156.4,3675.8,168.5,3675.8,180.7L3675.8,180.7z"/>
			</g>
			<g>
				<path class="st10" d="M3170.2,125c0,12.6,12.2,5.1,12.2,5.1c0.9,0,14.5,6.5,14.5-2.8c0-12.6-12.2-5.1-12.2-4.7
					C3183.3,122.2,3170.2,115.7,3170.2,125L3170.2,125z"/>
			</g>
			<g>
				<path class="st10" d="M3431.2,126.9c0,1.9,4.2,5.6,5.6,5.6c7,0,0.9-1.9,6.5-2.8c0.9,0,14.5,6.5,14.5-2.8
					c0-12.6-11.2-4.7-14.5-5.1c-5.1-0.9,0.5-2.3-10.3-2.8C3432.1,124.6,3431.2,123.2,3431.2,126.9L3431.2,126.9z"/>
			</g>
			<g>
				<path class="st10" d="M2693.1,123.2c4.2,16.8,10.3,7,15.4,3.7c1.4,6.1,0.5,5.6,7.5,5.6c1.9-2.3,9.4-13.6-1.9-13.6
					c-8.4,0,0,1.9-6.1,2.3C2704.3,122.2,2701.5,115.2,2693.1,123.2L2693.1,123.2z"/>
			</g>
			<g>
				<path class="st10" d="M3204.4,188.2c1.9,7,1.9,4.2,5.6,9.4c6.5-1.9,4.2-0.9,7.5-5.6c5.6,3.7,2.3,3.7,9.4,5.6
					c3.7-5.6,3.7-2.8,5.6-9.4c-12.6-8.4-9.4-1.9-14-1.4c-3.7,0.5,0.9,0.9-3.3-0.5c-5.6-1.9,5.1-1.9-4.2-1.9
					C3209,184.4,3205.8,186.8,3204.4,188.2L3204.4,188.2z"/>
			</g>
			<g>
				<path class="st10" d="M2929.8,125c0,4.7,8,14.5,11.2,1.9c8,5.1,3.7,5.6,11.2,5.6c8.4-11.7-1.4-13.6-1.9-13.6
					c-7,0-0.9,1.9-6.5,2.8C2942.9,122.2,2929.8,115.7,2929.8,125L2929.8,125z"/>
			</g>
			<g>
				<path class="st10" d="M2963.9,188.2c1.9,7,1.9,4.2,5.6,9.4c6.5-1.9,4.2-0.9,7.5-5.6c5.6,3.7,2.8,3.7,9.4,5.6
					c1.9-2.3,9.4-13.6-1.9-13.6c-9.4,0,2.3,5.1-9.4,1.9c-5.6-1.9,5.1-1.9-4.2-1.9C2968.6,184.4,2965.3,186.8,2963.9,188.2
					L2963.9,188.2z"/>
			</g>
			<g>
				<path class="st10" d="M3465.8,188.2l5.6,9.4c6.5-1.9,4.2-0.9,7.5-5.6c5.6,3.7,2.3,3.7,9.4,5.6c1.9-2.3,9.4-13.6-1.9-13.6
					c-8.4,0,0,1.9-6.1,2.3c-3.7,0.5,0.9,0.9-3.3-0.5c-5.6-1.9,5.1-1.9-4.2-1.9C3470.5,184.4,3467.2,186.8,3465.8,188.2L3465.8,188.2
					z"/>
			</g>
			<g>
				<path class="st10" d="M3612.7,190c0,4.2,0.5,2.3,1.9,7.5h9.4c0.9-4.2,3.7-13.6-3.7-13.6C3616.4,184.4,3612.7,187.7,3612.7,190
					L3612.7,190z"/>
			</g>
			<g>
				<path class="st10" d="M2841.9,125c0,10.8,13.6,8,13.6,1.9C2855.4,116.1,2841.9,119,2841.9,125L2841.9,125z"/>
			</g>
			<g>
				<path class="st10" d="M3234.8,131.1c5.6,1.4,11.2,5.6,11.2-5.6C3246.5,119,3234.8,111.9,3234.8,131.1L3234.8,131.1z"/>
			</g>
			<g>
				<path class="st13" d="M2691.3,266.8h30.4v8.9h-9.8v39.3h-10.8v-39.3h-9.8V266.8z"/>
			</g>
			<g>
				<path class="st13" d="M2720.2,266.8h9.8v16.4c1.9-2.8,4.7-4.7,8.9-4.7c2.3,0,4.2,0.5,5.6,1.9c1.4,0.9,2.3,2.8,2.8,4.2
					c0.5,1.9,0.5,4.2,0.5,7.5v22.9h-9.8V292c0-2.3,0-3.7-0.5-4.7c-0.5-0.9-1.4-0.9-2.8-0.9c-1.4,0-2.3,0.5-3.3,0.9
					c-0.9,0.5-1.4,2.3-1.4,5.1v22.9h-9.8V266.8z"/>
			</g>
			<g>
				<path class="st13" d="M2778.2,299h-18.7v1.9c0,3.3,0.5,5.1,1.4,6.5c0.9,0.9,1.9,1.4,3.3,1.4c3.3,0,4.7-1.9,5.1-6.1l8.9,0.5
					c-1.4,8.4-6.5,12.6-14,12.6c-4.7,0-8.4-1.9-11.2-5.1c-2.3-3.3-3.7-7.5-3.7-13.1c0-6.1,1.4-10.8,4.2-14.5
					c2.8-3.3,6.1-5.1,10.8-5.1c4.2,0,7.5,1.4,10.3,4.2C2776.8,285.9,2778.2,291.5,2778.2,299z M2768.9,293.4c0-0.5,0-0.9,0-0.9
					c0-4.7-1.4-7-4.7-7c-3.3,0-4.7,2.8-4.7,8H2768.9z"/>
			</g>
			<g>
				<path class="st13" d="M2827.4,291.1c0,16.8-6.1,25.3-17.8,25.3c-5.6,0-10.3-2.3-13.1-6.5c-2.8-4.2-4.7-10.3-4.7-18.7
					c0-16.8,6.1-24.8,17.8-24.8c5.6,0,10.3,1.9,13.1,6.1C2826,276.6,2827.4,282.7,2827.4,291.1z M2816.1,291.1
					c0-6.5-0.5-10.8-1.4-13.1c-0.9-2.3-2.8-3.3-4.7-3.3c-2.3,0-3.7,0.9-4.7,3.3c-0.9,2.3-1.4,6.5-1.4,13.1s0.5,10.8,1.4,13.1
					c0.9,2.3,2.8,3.3,4.7,3.3c2.3,0,3.7-0.9,4.7-3.3C2815.7,302.3,2816.1,297.6,2816.1,291.1z"/>
			</g>
			<g>
				<path class="st13" d="M2829.7,279.4h9.4v4.7c1.9-3.7,4.7-5.6,8.9-5.6c4.2,0,7,1.9,8,5.6c1.4-3.7,4.7-5.6,8.9-5.6
					c2.3,0,4.2,0.5,5.6,1.4c1.4,0.9,2.3,1.9,2.8,3.3s0.9,4.2,0.9,8.4v23.4h-9.8v-22.5c0-2.8,0-4.2-0.5-5.1s-1.4-1.4-2.3-1.4
					c-1.4,0-2.8,0.5-3.3,1.4c-0.5,0.9-0.9,3.3-0.9,6.5v21h-9.8V292c0-2.3,0-4.2-0.5-5.1c-0.5-0.9-1.4-0.9-2.3-0.9
					c-1.4,0-2.8,0.5-3.3,1.9c-0.5,0.9-0.9,3.3-0.9,6.1v21h-9.8v-35.5H2829.7z"/>
			</g>
			<g>
				<path class="st13" d="M2884.4,291.1l-9.4-0.9c0.5-3.7,1.9-6.5,4.7-8.4s6.1-2.8,9.8-2.8c3.3,0,6.1,0.5,8,1.9
					c1.9,1.4,3.3,2.8,3.7,4.7s0.9,4.2,0.9,8v14.5c0,4.7,0,7,0.5,8h-9.4c-0.5-0.9-0.5-2.8-0.5-5.6c-2.3,4.2-5.6,6.1-9.8,6.1
					c-2.8,0-5.1-0.9-7-2.3c-1.9-1.9-2.8-4.2-2.8-7.5c0-4.2,1.4-7,4.2-9.4c2.8-2.3,7.5-3.3,14.5-3.7V292c0-2.3-0.5-4.2-0.9-5.1
					s-1.4-1.4-2.8-1.4C2886.3,285.5,2884.9,287.3,2884.4,291.1z M2892.4,298.1c-2.8,0.5-5.1,0.9-6.1,1.9c-1.4,0.9-1.9,2.3-1.9,4.7
					c0,2.8,0.9,4.7,3.3,4.7c1.4,0,2.3-0.5,3.3-1.9c0.9-1.4,1.4-3.7,1.4-7.5V298.1z"/>
			</g>
			<g>
				<path class="st13" d="M2905.5,279.4h9.4v4.7c1.9-3.7,4.7-5.6,8.9-5.6c2.3,0,4.2,0.5,5.6,1.4c1.4,0.9,2.3,2.3,2.8,4.2
					c0.5,1.4,0.5,4.2,0.5,7.5v23.4h-9.8v-23.4c0-2.3-0.5-3.7-0.9-4.7c-0.5-0.9-1.4-0.9-2.3-0.9c-1.9,0-2.8,0.5-3.7,1.9
					c-0.5,0.9-0.9,3.3-0.9,6.1v21h-9.8v-35.5H2905.5z"/>
			</g>
			<g>
				<path class="st13" d="M2945.7,276.6h-10.3v-9.8h10.3V276.6z M2935.9,279.4h9.8v36h-9.8V279.4z"/>
			</g>
			<g>
				<path class="st13" d="M2992,277.5l-8.9,3.3c-1.4-4.2-3.7-6.1-7-6.1c-1.4,0-2.8,0.5-3.7,1.4c-0.9,0.9-1.4,1.9-1.4,3.3
					s0.5,2.3,1.4,3.3c0.9,0.9,3.3,1.9,6.5,3.3c3.3,0.9,5.6,2.3,7.5,3.3c1.9,0.9,3.3,2.8,4.2,4.7c0.9,1.9,1.9,4.2,1.9,7
					c0,4.7-1.4,8.4-4.7,11.2c-3.3,2.8-7.5,4.2-12.6,4.2c-8.9,0-14.5-4.2-16.8-13.1l9.4-2.8c0.9,4.7,3.7,7.5,8,7.5
					c1.9,0,3.3-0.5,4.7-1.4c0.9-0.9,1.9-2.3,1.9-3.7s-0.5-2.3-1.4-3.3c-0.9-0.9-2.8-1.9-5.6-2.8c-3.7-1.4-6.5-2.3-8.4-3.7
					c-1.9-0.9-3.3-2.8-4.7-4.7c-1.4-1.9-1.9-4.2-1.9-7c0-4.2,1.4-8,4.2-10.8s6.5-4.2,11.2-4.2C2985,266.3,2990.1,270,2992,277.5z"/>
			</g>
			<g>
				<path class="st13" d="M3021,297.6c0,12.6-4.7,18.7-14.5,18.7s-14.5-6.1-14.5-18.7s4.7-18.7,14.5-18.7S3021,285,3021,297.6z
					 M3010.7,297.6c0-4.7-0.5-7.5-0.9-9.4c-0.5-1.4-1.9-2.3-3.3-2.3c-1.4,0-2.8,0.9-3.3,2.3c-0.5,1.4-0.9,4.7-0.9,9.4
					c0,4.2,0.5,7.5,0.9,9.4c0.5,1.9,1.9,2.3,3.3,2.3c1.4,0,2.8-0.9,3.3-2.3C3010.2,305.1,3010.7,301.8,3010.7,297.6z"/>
			</g>
			<g>
				<path class="st13" d="M3049.1,292.5l-9.4,0.5c0-2.3-0.5-3.7-0.9-5.1c-0.5-0.9-1.4-1.9-2.8-1.9c-3.3,0-5.1,3.7-5.1,10.8
					c0,4.2,0.5,7,1.4,8.4c0.9,1.4,1.9,2.3,3.7,2.3c2.3,0,3.7-2.3,4.2-6.5l9.4,0.5c-0.9,9.4-5.6,14-14,14c-4.7,0-8-1.4-10.8-4.7
					c-2.8-3.3-3.7-8-3.7-14s1.4-10.8,3.7-14c2.3-3.3,6.1-4.7,10.8-4.7C3043.9,278.9,3048.6,283.6,3049.1,292.5z"/>
			</g>
			<g>
				<path class="st13" d="M3061.2,276.6h-10.3v-9.8h10.3V276.6z M3050.9,279.4h9.8v36h-9.8V279.4z"/>
			</g>
			<g>
				<path class="st13" d="M3090.7,299H3072v1.9c0,3.3,0.5,5.1,1.4,6.5c0.9,0.9,1.9,1.4,3.3,1.4c3.3,0,4.7-1.9,5.1-6.1l8.9,0.5
					c-1.4,8.4-6.5,12.6-14,12.6c-4.7,0-8.4-1.9-11.2-5.1c-2.3-3.3-3.7-7.5-3.7-13.1c0-6.1,1.4-10.8,4.2-14.5
					c2.8-3.3,6.1-5.1,10.8-5.1c4.2,0,7.5,1.4,10.3,4.2C3089.8,285.9,3090.7,291.5,3090.7,299z M3081.3,293.4c0-0.5,0-0.9,0-0.9
					c0-4.7-1.4-7-4.7-7s-4.7,2.8-4.7,8H3081.3z"/>
			</g>
			<g>
				<path class="st13" d="M3093.5,268.6l9.8-0.5v11.2h6.5v8h-6.5v13.1c0,2.3,0,4.2,0,4.7c0,0.9,0.5,1.4,0.9,1.9
					c0.5,0.5,1.4,0.9,3.3,0.9c0.9,0,1.9,0,2.8,0v7.5c-2.3,0.5-4.2,0.9-6.1,0.9c-2.8,0-5.1-0.5-7-1.9c-1.4-0.9-2.8-2.8-3.3-4.2
					c-0.5-1.9-0.5-4.7-0.5-8.4v-14.5h-4.2v-8h4.2V268.6z"/>
			</g>
			<g>
				<path class="st13" d="M3104.3,279.4h9.8l4.7,22l4.7-22h8.4l-10.8,36.5c-0.9,3.3-1.9,6.1-2.8,7.5s-1.9,2.3-3.3,3.3
					s-3.3,1.4-5.6,1.4c-1.4,0-2.8,0-4.2-0.5v-8c0.9,0,1.9,0,2.8,0c1.9,0,3.3-0.5,4.2-0.9c0.9-0.5,1.4-1.9,1.9-4.2L3104.3,279.4z"/>
			</g>
			<g>
				<path class="st13" d="M3156.6,279.4h6.5v8h-6.5v28.1h-9.8v-28.1h-4.2v-8h4.2c0-3.7,0.5-6.1,0.9-8c0.5-1.9,1.9-3.3,3.3-4.7
					c1.9-1.4,4.2-1.9,7-1.9c1.9,0,3.3,0,5.1,0.5v8c-0.9,0-1.4,0-2.3,0c-1.9,0-3.3,0.5-3.7,1.4
					C3156.6,275.2,3156.6,276.6,3156.6,279.4z"/>
			</g>
			<g>
				<path class="st13" d="M3189.4,297.6c0,12.6-4.7,18.7-14.5,18.7s-14.5-6.1-14.5-18.7s4.7-18.7,14.5-18.7S3189.4,285,3189.4,297.6
					z M3179.1,297.6c0-4.7-0.5-7.5-0.9-9.4c-0.5-1.4-1.9-2.3-3.3-2.3c-1.4,0-2.8,0.9-3.3,2.3c-0.5,1.4-0.9,4.7-0.9,9.4
					c0,4.2,0.5,7.5,0.9,9.4s1.9,2.3,3.3,2.3c1.4,0,2.8-0.9,3.3-2.3C3179.1,305.1,3179.1,301.8,3179.1,297.6z"/>
			</g>
			<g>
				<path class="st13" d="M3190.8,279.4h8.9v8.9c1.4-6.1,4.2-9.4,8.4-9.4c0.5,0,0.9,0,1.9,0v9.8c-0.9,0-1.4,0-1.9,0
					c-4.7,0-7.5,3.7-7.5,11.2v15.4h-9.8V279.4L3190.8,279.4z"/>
			</g>
			<g>
				<path class="st13" d="M3222.1,266.8h10.8v48.6h-10.8V266.8z"/>
			</g>
			<g>
				<path class="st13" d="M3236.2,279.4h9.4v4.7c1.9-3.7,4.7-5.6,8.9-5.6c2.3,0,4.2,0.5,5.6,1.4c1.4,0.9,2.3,2.3,2.8,4.2
					c0.5,1.4,0.5,4.2,0.5,7.5v23.4h-9.8v-23.4c0-2.3-0.5-3.7-0.9-4.7c-0.5-0.5-1.4-0.9-2.3-0.9c-1.9,0-2.8,0.5-3.7,1.9
					c-0.5,0.9-0.9,3.3-0.9,6.1v21h-9.8v-35.5H3236.2z"/>
			</g>
			<g>
				<path class="st13" d="M3268,268.6l9.8-0.5v11.2h6.5v8h-6.5v13.1c0,2.3,0,4.2,0,4.7c0,0.9,0.5,1.4,0.9,1.9
					c0.5,0.5,1.4,0.9,3.3,0.9c0.9,0,1.9,0,2.8,0v7.5c-2.3,0.5-4.2,0.9-6.1,0.9c-2.8,0-5.1-0.5-7-1.9c-1.4-0.9-2.8-2.8-3.3-4.2
					c-0.5-1.9-0.5-4.7-0.5-8.4v-14.5h-4.2v-8h4.2V268.6z"/>
			</g>
			<g>
				<path class="st13" d="M3312.4,299h-18.7v1.9c0,3.3,0.5,5.1,1.4,6.5c0.9,0.9,1.9,1.4,3.3,1.4c3.3,0,4.7-1.9,5.1-6.1l8.9,0.5
					c-1.4,8.4-6.5,12.6-14,12.6c-4.7,0-8.4-1.9-11.2-5.1c-2.3-3.3-3.7-7.5-3.7-13.1c0-6.1,1.4-10.8,4.2-14.5
					c2.8-3.3,6.1-5.1,10.8-5.1c4.2,0,7.5,1.4,10.3,4.2C3311,285.9,3312.4,291.5,3312.4,299z M3303,293.4c0-0.5,0-0.9,0-0.9
					c0-4.7-1.4-7-4.7-7s-4.7,2.8-4.7,8H3303z"/>
			</g>
			<g>
				<path class="st13" d="M3313.8,266.8h9.8v48.6h-9.8V266.8z"/>
			</g>
			<g>
				<path class="st13" d="M3326,266.8h9.8v48.6h-9.8V266.8z"/>
			</g>
			<g>
				<path class="st13" d="M3365.7,299H3347v1.9c0,3.3,0.5,5.1,1.4,6.5c0.9,0.9,1.9,1.4,3.3,1.4c3.3,0,4.7-1.9,5.1-6.1l8.9,0.5
					c-1.4,8.4-6.5,12.6-14,12.6c-4.7,0-8.4-1.9-11.2-5.1c-2.3-3.3-3.7-7.5-3.7-13.1c0-6.1,1.4-10.8,4.2-14.5
					c2.8-3.3,6.1-5.1,10.8-5.1c4.2,0,7.5,1.4,10.3,4.2C3364.3,285.9,3365.7,291.5,3365.7,299z M3356.4,293.4c0-0.5,0-0.9,0-0.9
					c0-4.7-1.4-7-4.7-7s-4.7,2.8-4.7,8H3356.4z"/>
			</g>
			<g>
				<path class="st13" d="M3393.8,292.5l-9.4,0.5c0-2.3-0.5-3.7-0.9-5.1c-0.5-0.9-1.4-1.9-2.8-1.9c-3.3,0-5.1,3.7-5.1,10.8
					c0,4.2,0.5,7,1.4,8.4c0.9,1.4,1.9,2.3,3.7,2.3c2.3,0,3.7-2.3,4.2-6.5l9.4,0.5c-0.9,9.4-5.6,14-14,14c-4.7,0-8-1.4-10.8-4.7
					c-2.8-3.3-3.7-8-3.7-14s1.4-10.8,3.7-14c2.3-3.3,6.1-4.7,10.8-4.7C3388.2,278.9,3392.9,283.6,3393.8,292.5z"/>
			</g>
			<g>
				<path class="st13" d="M3395.7,268.6l9.8-0.5v11.2h6.5v8h-6.5v13.1c0,2.3,0,4.2,0,4.7c0,0.9,0.5,1.4,0.9,1.9s1.4,0.9,3.3,0.9
					c0.9,0,1.9,0,2.8,0v7.5c-2.3,0.5-4.2,0.9-6.1,0.9c-2.8,0-5.1-0.5-7-1.9c-1.4-0.9-2.8-2.8-3.3-4.2c-0.5-1.9-0.5-4.7-0.5-8.4
					v-14.5h-4.2v-8h4.2V268.6z"/>
			</g>
			<g>
				<path class="st13" d="M3412,279.4h9.8v22.9c0,2.3,0,3.7,0.5,4.7c0.5,0.9,1.4,1.4,2.8,1.4s2.3-0.5,2.8-0.9s0.9-1.4,1.4-2.8
					c0-0.9,0-3.3,0-7v-18.2h9.8v36h-9.4v-4.7c-1.4,2.3-2.8,4.2-4.2,4.7c-1.4,0.5-3.3,0.9-5.1,0.9c-2.8,0-4.7-0.5-6.1-1.4
					c-1.4-0.9-2.3-2.3-2.8-4.2c-0.5-1.4-0.5-4.2-0.5-7.5v-23.9H3412z"/>
			</g>
			<g>
				<path class="st13" d="M3452.3,291.1l-9.4-0.9c0.5-3.7,1.9-6.5,4.7-8.4s6.1-2.8,9.8-2.8c3.3,0,6.1,0.5,8,1.9
					c1.9,1.4,3.3,2.8,3.7,4.7s0.9,4.2,0.9,8v14.5c0,4.7,0,7,0.5,8h-9.4c-0.5-0.9-0.5-2.8-0.5-5.6c-2.3,4.2-5.6,6.1-9.8,6.1
					c-2.8,0-5.1-0.9-7-2.3c-1.9-1.9-2.8-4.2-2.8-7.5c0-4.2,1.4-7,4.2-9.4c2.8-2.3,7.5-3.3,14.5-3.7V292c0-2.3-0.5-4.2-0.9-5.1
					s-1.4-1.4-2.8-1.4C3454.1,285.5,3452.7,287.3,3452.3,291.1z M3460.2,298.1c-2.8,0.5-5.1,0.9-6.1,1.9c-1.4,0.9-1.9,2.3-1.9,4.7
					c0,2.8,0.9,4.7,3.3,4.7c1.4,0,2.3-0.5,3.3-1.9s1.4-3.7,1.4-7.5V298.1z"/>
			</g>
			<g>
				<path class="st13" d="M3472.8,266.8h9.8v48.6h-9.8V266.8z"/>
			</g>
			<g>
				<path class="st13" d="M3500,266.8h14c4.2,0,7.5,0.5,9.8,0.9c2.3,0.9,4.2,2.3,6.1,4.7c1.4,2.3,2.3,5.6,2.3,9.4s-0.5,6.5-1.9,8.9
					c-1.4,2.3-3.3,4.2-5.1,5.1c-2.3,0.9-5.6,1.4-10.3,1.4h-4.7v17.8h-10.8v-48.2H3500z M3510.3,274.7v14.5h3.3
					c2.8,0,4.7-0.5,5.6-1.9s1.4-3.3,1.4-5.1c0-1.9-0.5-3.3-0.9-4.2c-0.5-0.9-1.4-1.9-2.3-2.3c-0.9-0.5-1.9-0.5-3.7-0.5h-3.3V274.7z"
					/>
			</g>
			<g>
				<path class="st13" d="M3530.8,279.4h8.9v8.9c1.4-6.1,4.2-9.4,8.4-9.4c0.5,0,0.9,0,1.9,0v9.8c-0.9,0-1.4,0-1.9,0
					c-4.7,0-7.5,3.7-7.5,11.2v15.4h-9.8V279.4L3530.8,279.4z"/>
			</g>
			<g>
				<path class="st13" d="M3576.7,297.6c0,12.6-4.7,18.7-14.5,18.7c-9.8,0-14.5-6.1-14.5-18.7s4.7-18.7,14.5-18.7
					C3572,278.9,3576.7,285,3576.7,297.6z M3566.4,297.6c0-4.7-0.5-7.5-0.9-9.4c-0.5-1.4-1.9-2.3-3.3-2.3c-1.4,0-2.8,0.9-3.3,2.3
					s-0.9,4.7-0.9,9.4c0,4.2,0.5,7.5,0.9,9.4s1.9,2.3,3.3,2.3c1.4,0,2.8-0.9,3.3-2.3C3565.9,305.1,3566.4,301.8,3566.4,297.6z"/>
			</g>
			<g>
				<path class="st13" d="M3578.1,279.4h9.4v5.1c1.9-3.7,4.7-5.6,8-5.6c3.3,0,6.1,1.4,8.4,4.2c2.3,2.8,3.3,7.5,3.3,13.6
					c0,6.1-0.9,11.2-3.3,14c-2.3,3.3-5.1,4.7-8.9,4.7c-2.8,0-5.1-0.9-7-3.3v15h-9.8V279.4z M3587.9,300.9c0,3.3,0.5,5.6,0.9,6.5
					c0.5,0.9,1.9,1.4,3.3,1.4c1.4,0,2.8-0.5,3.3-1.9c0.9-1.4,0.9-4.7,0.9-9.8c0-4.2-0.5-7.5-0.9-8.9s-1.9-2.3-3.3-2.3
					c-1.4,0-2.3,0.5-3.3,1.4c-0.9,0.9-1.4,3.3-1.4,7v6.5H3587.9z"/>
			</g>
			<g>
				<path class="st13" d="M3635.6,299h-18.7v1.9c0,3.3,0.5,5.1,1.4,6.5c0.9,0.9,1.9,1.4,3.3,1.4c3.3,0,4.7-1.9,5.1-6.1l8.9,0.5
					c-1.4,8.4-6.5,12.6-14,12.6c-4.7,0-8.4-1.9-11.2-5.1c-2.3-3.3-3.7-7.5-3.7-13.1c0-6.1,1.4-10.8,4.2-14.5
					c2.8-3.3,6.1-5.1,10.8-5.1c4.2,0,7.5,1.4,10.3,4.2C3634.7,285.9,3635.6,291.5,3635.6,299z M3626.3,293.4c0-0.5,0-0.9,0-0.9
					c0-4.7-1.4-7-4.7-7s-4.7,2.8-4.7,8H3626.3z"/>
			</g>
			<g>
				<path class="st13" d="M3637,279.4h8.9v8.9c1.4-6.1,4.2-9.4,8.4-9.4c0.5,0,0.9,0,1.9,0v9.8c-0.9,0-1.4,0-1.9,0
					c-4.7,0-7.5,3.7-7.5,11.2v15.4h-9.8L3637,279.4L3637,279.4z"/>
			</g>
			<g>
				<path class="st13" d="M3658.1,268.6l9.8-0.5v11.2h6.5v8h-6.5v13.1c0,2.3,0,4.2,0,4.7c0,0.9,0.5,1.4,0.9,1.9
					c0.5,0.5,1.4,0.9,3.3,0.9c0.9,0,1.9,0,2.8,0v7.5c-2.3,0.5-4.2,0.9-6.1,0.9c-2.8,0-5.1-0.5-7-1.9c-1.4-0.9-2.8-2.8-3.3-4.2
					c-0.5-1.9-0.5-4.7-0.5-8.4v-14.5h-4.2v-8h4.2V268.6L3658.1,268.6z"/>
			</g>
			<g>
				<path class="st13" d="M3670.2,279.4h9.8l4.7,22l4.7-22h8.4l-10.8,36.5c-0.9,3.3-1.9,6.1-2.8,7.5s-1.9,2.3-3.3,3.3
					c-1.4,0.9-3.3,1.4-5.6,1.4c-1.4,0-2.8,0-4.2-0.5v-8c0.9,0,1.9,0,2.8,0c1.9,0,3.3-0.5,4.2-0.9s1.4-1.9,1.9-4.2L3670.2,279.4z"/>
			</g>
		</g>
	</g>
</g>
</svg>
