<?xml version="1.0" encoding="utf-8"?>
<!-- Generator: Adobe Illustrator 25.2.0, SVG Export Plug-In . SVG Version: 6.00 Build 0)  -->
<svg version="1.1" xmlns="http://www.w3.org/2000/svg" xmlns:xlink="http://www.w3.org/1999/xlink" x="0px" y="0px"
	 viewBox="0 0 1920 571" style="enable-background:new 0 0 1920 571;" xml:space="preserve">
<style type="text/css">
	.st0{display:none;}
	.st1{fill:none;stroke:#DDDDDD;stroke-miterlimit:10;}
	.st2{fill:none;stroke:#FFDE8F;stroke-width:3;stroke-miterlimit:10;}
	.st3{fill:none;stroke:#BDE1E5;stroke-width:3;stroke-miterlimit:10;}
	.st4{opacity:0.51;}
	.st5{fill:none;stroke:#191919;stroke-miterlimit:10;}
	.st6{fill:none;stroke:#F7D9AA;stroke-width:3;stroke-miterlimit:10;}
</style>
<g id="Layer_3" class="st0">
	
		<image style="display:inline;overflow:visible;" width="1920" height="571" xlink:href="../OneDrive/remaining projects/innovation logo/inovation-bg-resize.png" >
	</image>
</g>
<g id="lines">
	<g>
		<polyline class="st1" points="0,101.6 256,101.6 272.9,113.7 338.8,113.7 357.3,101.6 424.3,101.6 590.4,101.6 606.2,88.9 
			676.9,88.9 844.1,215 		"/>
		<polyline class="st1" points="422.1,113.7 587.3,113.7 603.1,101.6 670.6,101.6 839.4,225 		"/>
		<polyline class="st1" points="0,190.7 464.9,190.7 483.9,204.9 551.4,204.9 567.2,193.3 765,193.3 779.8,204.9 891.6,204.9 
			912.2,190.7 		"/>
		<polyline class="st1" points="0,217.9 464.9,217.9 483.9,232.1 551.4,232.1 567.2,220.5 765,220.5 779.8,232.1 891.6,232.1 
			912.2,217.9 932.1,201.5 		"/>
		<polyline class="st1" points="0,268.8 465.9,268.8 484.9,282 550.9,282 566.7,268.8 761.3,268.8 777.1,279.8 892.1,279.8 
			963.9,228.7 1211.8,228.7 1231.3,215 1736.6,215 1917.5,215 1948.1,215 		"/>
		<polyline class="st1" points="0,304 468.8,304 484.7,291.7 553.1,291.7 566.5,304 765.1,304 779.4,291.7 892.1,291.7 974.1,351.8 
					"/>
		<polyline class="st1" points="947.5,351.8 883.4,303.2 825.3,303.2 		"/>
		<polyline class="st1" points="886.4,323.8 893.7,323.8 933.7,354.6 		"/>
		<polyline class="st1" points="945.1,207.1 882.2,251.8 837.1,251.8 		"/>
		<polyline class="st1" points="837.1,263.2 893.7,263.2 965.3,209.8 		"/>
		<polyline class="st1" points="841.1,347.9 779.4,347.9 764.4,359.8 567.7,359.8 553.9,347.9 485.1,347.9 447.9,375.6 0,375.6 		
			"/>
		<polyline class="st1" points="0,389 446.7,389 484.3,361.7 551.1,361.7 566.2,372 765.5,372 777.8,361.7 841.1,361.7 		"/>
		<polyline class="st1" points="903.2,389 717,544.6 594.1,455 0,455 		"/>
		<polyline class="st1" points="0,466.8 587.3,466.8 715.4,555.7 920.6,389 		"/>
		<polyline class="st1" points="939.1,389 715.4,571 577.8,472.4 0,472.4 		"/>
		<path class="st1" d="M918.1,261.3c0,0,307.4,1.1,309,1.9s26.4-18.2,26.4-18.2h117.6l34.3-22.2h120.3l35.9-25.8h363.4"/>
		<polyline class="st1" points="1920,239.2 1581.5,239.2 1559.9,254.5 1448.6,254.5 1421.5,274 1298.8,274 1275.1,291.7 
			897.9,291.7 		"/>
		<polyline class="st1" points="901.2,276.2 1254,276.2 1279.8,258.2 1394.8,258.2 1415.4,241.3 1529.3,241.3 1565.2,215 		"/>
		<polyline class="st1" points="1920,288.3 1485,288.3 1462.9,302.5 920.6,302.5 		"/>
		<polyline class="st1" points="928.5,312 1305.7,312 1317.8,323.8 1465.5,323.8 1481.8,312 1920,312 		"/>
		<line class="st1" x1="1920" y1="330.5" x2="1637.5" y2="330.5"/>
		<polyline class="st1" points="1920,363.2 1683.9,363.2 1637.5,332.3 1603,332.3 1574.4,353.6 1433.3,353.6 1414.7,340.4 
			1302,340.4 1280.2,323.8 935.8,323.8 		"/>
		<polyline class="st1" points="950.2,334.3 1253.3,334.3 1277.5,351.8 1393,351.8 1409,363.2 1625.2,363.2 1663.6,389.4 
			1920,389.4 		"/>
		<polyline class="st1" points="1920,410.4 1652.5,410.4 1627.6,389.4 1409,392.6 1383.1,374.8 1250.5,374.8 1226.8,357 982.7,357 
					"/>
		<polyline class="st1" points="968.7,347.9 1238.7,345.5 1256.9,359.8 1376.4,359.8 1405.2,379.9 1629.9,379.1 1652.1,396.2 		"/>
	</g>
</g>
<g id="arrow">
	<g>
		<polyline class="st2" points="672.8,367.9 686.2,359.9 672.7,352.3 		"/>
		<polyline class="st2" points="695.5,367.9 708.9,359.9 695.4,352.3 		"/>
		<polyline class="st2" points="716.7,367.9 730.1,359.9 716.5,352.3 		"/>
		<polyline class="st2" points="1164.9,310.3 1178.3,302.4 1164.7,294.7 		"/>
		<polyline class="st2" points="1187.6,310.3 1201,302.4 1187.4,294.7 		"/>
		<polyline class="st2" points="1208.7,310.3 1222.1,302.4 1208.6,294.7 		"/>
	</g>
	<g>
		<polyline class="st3" points="523.4,239.4 536.8,231.5 523.2,223.9 		"/>
		<polyline class="st3" points="499.4,239.4 512.8,231.5 499.3,223.9 		"/>
		<polyline class="st3" points="1337.8,267.1 1351.2,259.1 1337.6,251.5 		"/>
		<polyline class="st3" points="1313.8,267.1 1327.2,259.1 1313.7,251.5 		"/>
		<polyline class="st3" points="1461.1,229.4 1472.6,222.6 1461,216.1 		"/>
		<polyline class="st3" points="1440.5,229.4 1452,222.6 1440.4,216.1 		"/>
		<polyline class="st3" points="1424.4,229.4 1435.9,222.6 1424.3,216.1 		"/>
	</g>
	<g class="st4">
		<line class="st5" x1="740.9" y1="275.8" x2="740.9" y2="296.7"/>
		<line class="st5" x1="738.4" y1="275.8" x2="738.4" y2="296.7"/>
		<line class="st5" x1="735.9" y1="275.8" x2="735.9" y2="296.7"/>
		<line class="st5" x1="733.4" y1="275.8" x2="733.4" y2="296.7"/>
		<line class="st5" x1="730.9" y1="275.8" x2="730.9" y2="296.7"/>
		<line class="st5" x1="728.4" y1="275.8" x2="728.4" y2="296.7"/>
		<line class="st5" x1="725.8" y1="275.8" x2="725.8" y2="296.7"/>
		<line class="st5" x1="723.3" y1="275.8" x2="723.3" y2="296.7"/>
		<line class="st5" x1="720.8" y1="275.8" x2="720.8" y2="296.7"/>
		<line class="st5" x1="718.3" y1="275.8" x2="718.3" y2="296.7"/>
		<line class="st5" x1="715.8" y1="275.8" x2="715.8" y2="296.7"/>
		<line class="st5" x1="713.3" y1="275.8" x2="713.3" y2="296.7"/>
		<line class="st5" x1="710.8" y1="275.8" x2="710.8" y2="296.7"/>
		<line class="st5" x1="708.3" y1="275.8" x2="708.3" y2="296.7"/>
		<line class="st5" x1="705.8" y1="275.8" x2="705.8" y2="296.7"/>
		<line class="st5" x1="703.3" y1="275.8" x2="703.3" y2="296.7"/>
		<line class="st5" x1="700.8" y1="275.8" x2="700.8" y2="296.7"/>
		<line class="st5" x1="698.3" y1="275.8" x2="698.3" y2="296.7"/>
		<line class="st5" x1="695.8" y1="275.8" x2="695.8" y2="296.7"/>
		<line class="st5" x1="693.3" y1="275.8" x2="693.3" y2="296.7"/>
		<line class="st5" x1="690.8" y1="275.8" x2="690.8" y2="296.7"/>
		<line class="st5" x1="688.3" y1="275.8" x2="688.3" y2="296.7"/>
		<line class="st5" x1="685.8" y1="275.8" x2="685.8" y2="296.7"/>
		<line class="st5" x1="683.3" y1="275.8" x2="683.3" y2="296.7"/>
		<line class="st5" x1="680.7" y1="275.8" x2="680.7" y2="296.7"/>
		<line class="st5" x1="678.2" y1="275.8" x2="678.2" y2="296.7"/>
		<line class="st5" x1="675.7" y1="275.8" x2="675.7" y2="296.7"/>
		<line class="st5" x1="673.2" y1="275.8" x2="673.2" y2="296.7"/>
		<line class="st5" x1="670.7" y1="275.8" x2="670.7" y2="296.7"/>
		<line class="st5" x1="668.2" y1="275.8" x2="668.2" y2="296.7"/>
		<line class="st5" x1="665.7" y1="275.8" x2="665.7" y2="296.7"/>
		<line class="st5" x1="663.2" y1="275.8" x2="663.2" y2="296.7"/>
		<line class="st5" x1="660.7" y1="275.8" x2="660.7" y2="296.7"/>
		<line class="st5" x1="658.2" y1="275.8" x2="658.2" y2="296.7"/>
		<line class="st5" x1="655.7" y1="275.8" x2="655.7" y2="296.7"/>
		<line class="st5" x1="653.2" y1="275.8" x2="653.2" y2="296.7"/>
		<line class="st5" x1="650.7" y1="275.8" x2="650.7" y2="296.7"/>
		<line class="st5" x1="648.2" y1="275.8" x2="648.2" y2="296.7"/>
		<line class="st5" x1="645.7" y1="275.8" x2="645.7" y2="296.7"/>
		<line class="st5" x1="643.2" y1="275.8" x2="643.2" y2="296.7"/>
		<line class="st5" x1="640.7" y1="275.8" x2="640.7" y2="296.7"/>
	</g>
	<g>
		<line class="st6" x1="1082.6" y1="366.1" x2="1082.6" y2="373.2"/>
		<line class="st6" x1="1090.8" y1="366.1" x2="1090.8" y2="373.2"/>
		<line class="st6" x1="1099" y1="366.1" x2="1099" y2="373.2"/>
		<line class="st6" x1="1107.2" y1="366.1" x2="1107.2" y2="373.2"/>
		<line class="st6" x1="1115.5" y1="366.1" x2="1115.5" y2="373.2"/>
		<line class="st6" x1="1123.7" y1="366.1" x2="1123.7" y2="373.2"/>
		<line class="st6" x1="1131.9" y1="366.1" x2="1131.9" y2="373.2"/>
		<line class="st6" x1="1140.1" y1="366.1" x2="1140.1" y2="373.2"/>
		<line class="st6" x1="1148.3" y1="366.1" x2="1148.3" y2="373.2"/>
		<line class="st6" x1="1156.5" y1="366.1" x2="1156.5" y2="373.2"/>
		<line class="st6" x1="1164.7" y1="366.1" x2="1164.7" y2="373.2"/>
		<line class="st6" x1="1172.9" y1="366.1" x2="1172.9" y2="373.2"/>
		<line class="st6" x1="1181.1" y1="366.1" x2="1181.1" y2="373.2"/>
		<line class="st6" x1="1189.3" y1="366.1" x2="1189.3" y2="373.2"/>
		<line class="st6" x1="1197.5" y1="366.1" x2="1197.5" y2="373.2"/>
		<line class="st6" x1="1205.7" y1="366.1" x2="1205.7" y2="373.2"/>
	</g>
</g>
</svg>
