<?xml version="1.0" encoding="utf-8"?>
<!-- Generator: Adobe Illustrator 25.2.0, SVG Export Plug-In . SVG Version: 6.00 Build 0)  -->
<svg version="1.1" xmlns="http://www.w3.org/2000/svg" xmlns:xlink="http://www.w3.org/1999/xlink" x="0px" y="0px"
	 viewBox="0 0 571 1920" style="enable-background:new 0 0 571 1920;" xml:space="preserve">
<style type="text/css">
	.st0{display:none;}
	.st1{fill:none;stroke:#DDDDDD;stroke-miterlimit:10;}
	.st2{fill:none;stroke:#FFDE8F;stroke-width:3;stroke-miterlimit:10;}
	.st3{fill:none;stroke:#BDE1E5;stroke-width:3;stroke-miterlimit:10;}
	.st4{opacity:0.51;}
	.st5{fill:none;stroke:#191919;stroke-miterlimit:10;}
	.st6{fill:none;stroke:#F7D9AA;stroke-width:3;stroke-miterlimit:10;}
</style>
<g id="Layer_3" class="st0">
	
		<image style="display:inline;overflow:visible;" width="1920" height="571" xlink:href="../OneDrive/remaining projects/innovation logo/inovation-bg-resize.png"  transform="matrix(0 1 -1 0 585.0659 -14.0659)">
	</image>
</g>
<g id="lines">
	<g>
		<polyline class="st1" points="483.5,-14.1 483.5,241.9 471.4,258.8 471.4,324.7 483.5,343.2 483.5,410.2 483.5,576.4 496.2,592.2 
			496.2,662.9 370.1,830.1 		"/>
		<polyline class="st1" points="471.4,408 471.4,573.2 483.5,589 483.5,656.5 360.1,825.3 		"/>
		<polyline class="st1" points="394.4,-14.1 394.4,450.8 380.1,469.8 380.1,537.3 391.7,553.1 391.7,750.9 380.1,765.7 380.1,877.5 
			394.4,898.1 		"/>
		<polyline class="st1" points="367.2,-14.1 367.2,450.8 353,469.8 353,537.3 364.6,553.1 364.6,750.9 353,765.7 353,877.5 
			367.2,898.1 383.5,918 		"/>
		<polyline class="st1" points="316.3,-14.1 316.3,451.9 303.1,470.9 303.1,536.8 316.3,552.6 316.3,747.3 305.2,763.1 305.2,878.1 
			356.4,949.8 356.4,1197.7 370.1,1217.2 370.1,1722.5 370.1,1903.5 370.1,1934.1 		"/>
		<polyline class="st1" points="281.1,-14.1 281.1,454.8 293.4,470.6 293.4,539 281.1,552.5 281.1,751.1 293.4,765.3 293.4,878.1 
			233.2,960 		"/>
		<polyline class="st1" points="233.2,933.5 281.9,869.4 281.9,811.2 		"/>
		<polyline class="st1" points="261.3,872.3 261.3,879.6 230.5,919.6 		"/>
		<polyline class="st1" points="378,931.1 333.3,868.2 333.3,823.1 		"/>
		<polyline class="st1" points="321.8,823.1 321.8,879.6 375.2,951.3 		"/>
		<polyline class="st1" points="237.2,827 237.2,765.3 225.3,750.3 225.3,553.7 237.2,539.8 237.2,471 209.5,433.8 209.5,-14.1 		
			"/>
		<polyline class="st1" points="196,-14.1 196,432.6 223.3,470.2 223.3,537.1 213,552.1 213,751.5 223.3,763.7 223.3,827 		"/>
		<polyline class="st1" points="196,889.1 40.4,702.9 130.1,580 130.1,-14.1 		"/>
		<polyline class="st1" points="118.2,-14.1 118.2,573.2 29.4,701.4 196,906.5 		"/>
		<polyline class="st1" points="196,925 14.1,701.4 112.7,563.7 112.7,-14.1 		"/>
		<path class="st1" d="M323.7,904c0,0-1.1,307.4-1.9,309c-0.8,1.6,18.2,26.4,18.2,26.4V1357l22.2,34.3v120.3l25.8,35.9v363.4"/>
		<polyline class="st1" points="345.8,1905.9 345.8,1567.5 330.5,1545.8 330.5,1434.5 311,1407.4 311,1284.7 293.4,1261 
			293.4,883.9 		"/>
		<polyline class="st1" points="308.9,887.2 308.9,1239.9 326.8,1265.8 326.8,1380.7 343.7,1401.3 343.7,1515.3 370.1,1551.1 		"/>
		<polyline class="st1" points="296.8,1905.9 296.8,1470.9 282.5,1448.8 282.5,906.5 		"/>
		<polyline class="st1" points="273,914.5 273,1291.6 261.3,1303.7 261.3,1451.4 273,1467.8 273,1905.9 		"/>
		<line class="st1" x1="254.6" y1="1905.9" x2="254.6" y2="1623.4"/>
		<polyline class="st1" points="221.9,1905.9 221.9,1669.8 252.8,1623.4 252.8,1589 231.4,1560.3 231.4,1419.3 244.7,1400.7 
			244.7,1287.9 261.3,1266.2 261.3,921.7 		"/>
		<polyline class="st1" points="250.7,936.1 250.7,1239.3 233.2,1263.4 233.2,1378.9 221.9,1394.9 221.9,1611.1 195.6,1649.5 
			195.6,1905.9 		"/>
		<polyline class="st1" points="174.7,1905.9 174.7,1638.4 195.6,1613.5 192.5,1394.9 210.3,1369 210.3,1236.5 228.1,1212.7 
			228.1,968.7 		"/>
		<polyline class="st1" points="237.2,954.6 239.5,1224.6 225.3,1242.8 225.3,1362.3 205.1,1391.2 205.9,1615.9 188.9,1638 		"/>
	</g>
</g>
<g id="arrow">
	<g>
		<polyline class="st2" points="217.2,658.8 225.1,672.2 232.8,658.6 		"/>
		<polyline class="st2" points="217.2,681.5 225.1,694.9 232.8,681.3 		"/>
		<polyline class="st2" points="217.2,702.6 225.1,716 232.8,702.5 		"/>
		<polyline class="st2" points="274.7,1150.8 282.7,1164.2 290.3,1150.6 		"/>
		<polyline class="st2" points="274.7,1173.5 282.7,1186.9 290.3,1173.3 		"/>
		<polyline class="st2" points="274.7,1194.6 282.7,1208.1 290.3,1194.5 		"/>
	</g>
	<g>
		<polyline class="st3" points="345.6,509.3 353.5,522.7 361.2,509.2 		"/>
		<polyline class="st3" points="345.6,485.4 353.5,498.8 361.2,485.2 		"/>
		<polyline class="st3" points="318,1323.7 325.9,1337.1 333.6,1323.5 		"/>
		<polyline class="st3" points="318,1299.7 325.9,1313.2 333.6,1299.6 		"/>
		<polyline class="st3" points="355.6,1447 362.4,1458.5 369,1446.9 		"/>
		<polyline class="st3" points="355.6,1426.4 362.4,1438 369,1426.3 		"/>
		<polyline class="st3" points="355.6,1410.3 362.4,1421.9 369,1410.2 		"/>
	</g>
	<g class="st4">
		<line class="st5" x1="309.3" y1="726.8" x2="288.3" y2="726.8"/>
		<line class="st5" x1="309.3" y1="724.3" x2="288.3" y2="724.3"/>
		<line class="st5" x1="309.3" y1="721.8" x2="288.3" y2="721.8"/>
		<line class="st5" x1="309.3" y1="719.3" x2="288.3" y2="719.3"/>
		<line class="st5" x1="309.3" y1="716.8" x2="288.3" y2="716.8"/>
		<line class="st5" x1="309.3" y1="714.3" x2="288.3" y2="714.3"/>
		<line class="st5" x1="309.3" y1="711.8" x2="288.3" y2="711.8"/>
		<line class="st5" x1="309.3" y1="709.3" x2="288.3" y2="709.3"/>
		<line class="st5" x1="309.3" y1="706.8" x2="288.3" y2="706.8"/>
		<line class="st5" x1="309.3" y1="704.3" x2="288.3" y2="704.3"/>
		<line class="st5" x1="309.3" y1="701.8" x2="288.3" y2="701.8"/>
		<line class="st5" x1="309.3" y1="699.3" x2="288.3" y2="699.3"/>
		<line class="st5" x1="309.3" y1="696.7" x2="288.3" y2="696.7"/>
		<line class="st5" x1="309.3" y1="694.2" x2="288.3" y2="694.2"/>
		<line class="st5" x1="309.3" y1="691.7" x2="288.3" y2="691.7"/>
		<line class="st5" x1="309.3" y1="689.2" x2="288.3" y2="689.2"/>
		<line class="st5" x1="309.3" y1="686.7" x2="288.3" y2="686.7"/>
		<line class="st5" x1="309.3" y1="684.2" x2="288.3" y2="684.2"/>
		<line class="st5" x1="309.3" y1="681.7" x2="288.3" y2="681.7"/>
		<line class="st5" x1="309.3" y1="679.2" x2="288.3" y2="679.2"/>
		<line class="st5" x1="309.3" y1="676.7" x2="288.3" y2="676.7"/>
		<line class="st5" x1="309.3" y1="674.2" x2="288.3" y2="674.2"/>
		<line class="st5" x1="309.3" y1="671.7" x2="288.3" y2="671.7"/>
		<line class="st5" x1="309.3" y1="669.2" x2="288.3" y2="669.2"/>
		<line class="st5" x1="309.3" y1="666.7" x2="288.3" y2="666.7"/>
		<line class="st5" x1="309.3" y1="664.2" x2="288.3" y2="664.2"/>
		<line class="st5" x1="309.3" y1="661.7" x2="288.3" y2="661.7"/>
		<line class="st5" x1="309.3" y1="659.2" x2="288.3" y2="659.2"/>
		<line class="st5" x1="309.3" y1="656.7" x2="288.3" y2="656.7"/>
		<line class="st5" x1="309.3" y1="654.2" x2="288.3" y2="654.2"/>
		<line class="st5" x1="309.3" y1="651.6" x2="288.3" y2="651.6"/>
		<line class="st5" x1="309.3" y1="649.1" x2="288.3" y2="649.1"/>
		<line class="st5" x1="309.3" y1="646.6" x2="288.3" y2="646.6"/>
		<line class="st5" x1="309.3" y1="644.1" x2="288.3" y2="644.1"/>
		<line class="st5" x1="309.3" y1="641.6" x2="288.3" y2="641.6"/>
		<line class="st5" x1="309.3" y1="639.1" x2="288.3" y2="639.1"/>
		<line class="st5" x1="309.3" y1="636.6" x2="288.3" y2="636.6"/>
		<line class="st5" x1="309.3" y1="634.1" x2="288.3" y2="634.1"/>
		<line class="st5" x1="309.3" y1="631.6" x2="288.3" y2="631.6"/>
		<line class="st5" x1="309.3" y1="629.1" x2="288.3" y2="629.1"/>
		<line class="st5" x1="309.3" y1="626.6" x2="288.3" y2="626.6"/>
	</g>
	<g>
		<line class="st6" x1="219" y1="1068.5" x2="211.9" y2="1068.5"/>
		<line class="st6" x1="219" y1="1076.8" x2="211.9" y2="1076.8"/>
		<line class="st6" x1="219" y1="1085" x2="211.9" y2="1085"/>
		<line class="st6" x1="219" y1="1093.2" x2="211.9" y2="1093.2"/>
		<line class="st6" x1="219" y1="1101.4" x2="211.9" y2="1101.4"/>
		<line class="st6" x1="219" y1="1109.6" x2="211.9" y2="1109.6"/>
		<line class="st6" x1="219" y1="1117.8" x2="211.9" y2="1117.8"/>
		<line class="st6" x1="219" y1="1126" x2="211.9" y2="1126"/>
		<line class="st6" x1="219" y1="1134.2" x2="211.9" y2="1134.2"/>
		<line class="st6" x1="219" y1="1142.4" x2="211.9" y2="1142.4"/>
		<line class="st6" x1="219" y1="1150.6" x2="211.9" y2="1150.6"/>
		<line class="st6" x1="219" y1="1158.8" x2="211.9" y2="1158.8"/>
		<line class="st6" x1="219" y1="1167.1" x2="211.9" y2="1167.1"/>
		<line class="st6" x1="219" y1="1175.3" x2="211.9" y2="1175.3"/>
		<line class="st6" x1="219" y1="1183.5" x2="211.9" y2="1183.5"/>
		<line class="st6" x1="219" y1="1191.7" x2="211.9" y2="1191.7"/>
	</g>
</g>
</svg>
