<?xml version="1.0" encoding="utf-8"?>
<!-- Generator: Adobe Illustrator 25.0.1, SVG Export Plug-In . SVG Version: 6.00 Build 0)  -->
<svg version="1.1" id="Layer_1" xmlns="http://www.w3.org/2000/svg" xmlns:xlink="http://www.w3.org/1999/xlink" x="0px" y="0px"
	 viewBox="0 0 783.4 436.7" style="enable-background:new 0 0 783.4 436.7;" xml:space="preserve">
<style type="text/css">
	.st0{fill-rule:evenodd;clip-rule:evenodd;fill:#4A4A4D;}
	.st1{fill-rule:evenodd;clip-rule:evenodd;fill:#FEFEFE;}
	.st2{fill:#81BE00;}
	.st3{fill:#1F9CDC;}
	.st4{fill-rule:evenodd;clip-rule:evenodd;fill:#FFFFFF;}
	.st5{fill-rule:evenodd;clip-rule:evenodd;fill:#B7D96F;}
	.st6{fill-rule:evenodd;clip-rule:evenodd;fill:#D2E7A5;}
	.st7{fill:#FFFFFF;}
	.st8{fill-rule:evenodd;clip-rule:evenodd;fill:#E2131A;}
	.st9{fill-rule:evenodd;clip-rule:evenodd;fill:#FCDBCE;}
	.st10{fill-rule:evenodd;clip-rule:evenodd;fill:#DB151A;}
	.st11{fill-rule:evenodd;clip-rule:evenodd;fill:#EBEBEB;}
	.st12{fill-rule:evenodd;clip-rule:evenodd;fill:#008000;}
	.st13{fill:#DB151A;}
</style>
<g id="Layer_x0020_1">
	<g id="_2531301594304">
		<path class="st0" d="M269,278.3c-42.9-60.8-23.7-13.9-31.3,35.3l-24.3-1.2c0-0.6-0.6-1.2-0.6-1.7c0-0.6-0.6-1.2-0.6-1.7l-0.6-19.1
			c0-26.1-4.1-152.3,1.7-166.8v-0.6c5.2-1.2,13.9-2.3,20.3-0.6c6.4,2.3,0-1.7,4.6,2.3c7,23.2,0,68.4,1.7,95c0,3.5,0.6,5.2,1.7,8.7
			c16.2-1.2,14.5-8.1,23.7-19.1c4.6-5.2,19.1-20.9,24.3-23.7c6.4-3.5,24.9-5.2,30.1,0c5.2,5.8-4.6,13.9-8.1,18
			c-9.3,9.3-18.5,18.5-27.2,27.8c-1.2,1.2-2.3,2.3-3.5,3.5c-1.7,1.7-2.3,2.9-3.5,5.2c-0.6,4.1,3.5,9.3,5.8,11.6
			c8.7,13.3,38.2,47.5,37.7,60.8v1.2c-30.7,0.6-26.1,2.3-44.6-24.3C273.7,285.3,271.3,281.2,269,278.3L269,278.3L269,278.3z
			 M359.4,319.4c1.2-26.6,0.6-53.9,0.6-80.5c0-44.6,0-89.2-1.2-133.2c-1-35.9-20.9-41.1-52.1-39.4c-74.7,0-149.4-0.6-224.2,0
			c-5.2,0-5.8,1.2-10.4,3.5c-12.2,7-11.6,9.3-18.5,21.4c-1.7,2.9-0.6,12.2-0.6,15.6c-0.6,75.3-0.6,150,0,224.7
			c0,35,28.1,35.3,55,35.3c74.1,0,148.3,1.2,222.4,0c12.8,0,25.1-12.3,27.8-24.9C358.8,335.1,358.8,326.4,359.4,319.4L359.4,319.4z"
			/>
		<path class="st0" d="M669.9,275.4v-64.3c36.5-19.1,49.2-6.4,49.2,34.2C718.5,285.3,703.5,293.9,669.9,275.4L669.9,275.4z
			 M695.3,179.8c-9.3,1.2-19.1,7-23.2,3.5c-7-8.7-0.6-49.8-3.5-64.3c-9.8-2.3-21.4-2.9-30.7,0.6c-7.5,2.9-2.9,81.7-2.9,95l0.6,90.9
			c1.7,7.5,9.8,8.1,20.9,7c9.3-1.2,8.1-3.5,13.3-10.4c16.2,1.7,30.1,19.1,56.8,8.7C757.9,298,778.8,168.8,695.3,179.8L695.3,179.8
			L695.3,179.8z"/>
		<path class="st0" d="M572.5,277.1c0,4.1,0.6,2.3-4.6,2.3c-8.7,7-19.7,7-29.5,4.1c-2.9-13.3-3.5-29,11-29c2.3-2.3,0.6-1.7,5.2-2.9
			h23.7l0.6,17.4c0,12.7,0,2.9-2.3,6.4C575.4,278.9,578.9,278.9,572.5,277.1L572.5,277.1L572.5,277.1z M578.3,229.6
			c-28.4,1.7-81.1-12.2-76.5,46.3c4.6,64.9,75.3,26.6,77.6,26.1c6.4,6.4,4.1,9.3,13.3,10.4c28.4,4.6,21.4-5.8,21.4-56.2
			c0-52.7,11-86.3-75.9-76.5c-13.9,1.7-36.5,3.5-30.1,21.4C516.4,227.3,583,178.7,578.3,229.6L578.3,229.6L578.3,229.6z"/>
		<path class="st0" d="M404.6,314.2h74.1c16.8,0,13.3-5.2,12.7-23.2c-0.6-21.4-5.8-16.8-52.1-16.8c-21.4,0-18.5-1.7-18.5-22.6
			c0-16.8,1.7-122.2-1.7-132.6c-5.8-1.7-22.6-2.3-30.1-1.7c-13.3,1.2-9.8,9.3-9.3,23.2v130.9C379.7,300.3,373.3,314.2,404.6,314.2
			L404.6,314.2L404.6,314.2z"/>
		<path class="st1" d="M79,66.3H53C53,105,46.9,85.1,79,66.3z"/>
		<path class="st1" d="M53,367.5h24.3c-18.5-14.5-7.5,1.7-22.6-22l-2.3-2.9v24.9L53,367.5L53,367.5z"/>
		<path class="st0" d="M567.9,279.5c5.2,0,4.9,4.1,5.5,0.6c6.4,1.7,2.1-1.2,3.8-4.6c2.3-3.5,4.6,9.8,5.2-2.9l0.6-23.7l-29,1.2
			c-4.6,1.2-1.7,2.3-4.1,4.6l27.2-1.2C577.2,265.8,581.2,276.1,567.9,279.5L567.9,279.5z"/>
		<g id="Layer_x0020_1_1_">
			<polygon class="st2" points="898,366.7 1202,366.7 1202,71.9 898,71.9 			"/>
			<polygon class="st3" points="1213.1,366.7 1871.5,366.7 1871.5,71.9 1213.1,71.9 			"/>
			<path class="st4" d="M980.4,171.7l0.5,0.5l0.5,0.5l0.6,0.6l0.5,0.5l0.5,0.5l0.6,0.6l0.5,0.5l0.5,0.5l0.6,0.6l0.5,0.5l0.5,0.5
				l0.6,0.6l0.5,0.5l0.5,0.5l0.6,0.6l0.5,0.5l0.5,0.5l0.6,0.6l0.5,0.5l0.5,0.6l0.6,0.5l0.5,0.5l0.5,0.6l0.6,0.5l0.5,0.5l0.6,0.6
				l0.5,0.5l0.5,0.5l0.6,0.6l0.5,0.5l0.5,0.5l0.6,0.6l0.5,0.5l0.5,0.5l0.6,0.6l0.5,0.5l0.5,0.5l0.6,0.6l0.5,0.5l0.5,0.5l0.6,0.6
				l0.5,0.5l0.5,0.6l0.6,0.5l0.5,0.5l0.5,0.6l0.6,0.5l0.5,0.5l0.5,0.6l0.6,0.5l0.5,0.5l0.6,0.6l0.5,0.5l0.5,0.5l0.6,0.6l0.5,0.5
				l0.5,0.5l0.6,0.6l0.5,0.5l0.5,0.5l0.6,0.6l0.5,0.5l0.5,0.5l0.6,0.6l0.5,0.5l0.5,0.5l0.6,0.6l0.5,0.5l0.5,0.6l0.6,0.5l0.5,0.5
				l0.5,0.6l0.6,0.5l0.5,0.5l0.6,0.6l0.5,0.5l0.5,0.5l0.6,0.6l0.5,0.5l0.5,0.5l0.6,0.6l0.5,0.5l0.5,0.5l0.6,0.6l0.5,0.5l0.5,0.5
				l0.6,0.6l0.5,0.5c0.7,0,0.5-0.1,0.5,0.6l0.1,0.3c0.2,0.9,0.4,0.8-0.4,0.8l-0.5,0.5l-0.6,0.5l-0.5,0.6l-0.5,0.5l-0.6,0.5l-0.5,0.6
				l-0.5,0.5l-0.6,0.5l-0.5,0.6l-0.5,0.5l-0.6,0.5l-0.5,0.6l-0.6,0.5l-0.5,0.5l-0.5,0.6l-0.6,0.5l-0.5,0.5l-0.5,0.6l-0.6,0.5
				l-0.5,0.6l-0.5,0.5l-0.6,0.5l-0.5,0.6l-0.5,0.5l-0.6,0.5l-0.5,0.6l-0.5,0.5l-0.6,0.5l-0.5,0.6l-0.5,0.5l-0.6,0.5l-0.5,0.6
				l-0.5,0.5l-0.6,0.5l-0.5,0.6l-0.5,0.5l-0.6,0.5l-0.5,0.6l-0.6,0.5l-0.5,0.5l-0.5,0.6l-0.6,0.5l-0.5,0.5l-0.5,0.6l-0.6,0.5
				l-0.5,0.6l-0.5,0.5l-0.6,0.5l-0.5,0.6l-0.5,0.5l-0.6,0.5l-0.5,0.6l-0.5,0.5l-0.6,0.5l-0.5,0.6l-0.5,0.5l-0.6,0.5l-0.5,0.6
				l-0.5,0.5l-0.6,0.5l-0.5,0.6l-0.6,0.5l-0.5,0.5l-0.5,0.6l-0.6,0.5l-0.5,0.5l-0.5,0.6l-0.6,0.5l-0.5,0.5l-0.5,0.6l-0.6,0.5
				l-0.5,0.6l-0.5,0.5l-0.6,0.5l-0.5,0.6l-0.5,0.5l-0.6,0.5l-0.5,0.6l-0.5,0.5l-0.6,0.5l-0.5,0.6l-0.5,0.5l-0.6,0.5l-0.5,0.6
				l-0.5,0.5l-0.6,0.5l-0.5,0.6l-0.6,0.5l-0.5,0.5l-0.4,0.7l0.2,0.1l37.7,0.1l49.7-49.6l-49.3-49.6h-29.4c-1.8,0-7.6-0.8-8.7,0.7
				L980.4,171.7L980.4,171.7z"/>
			<polygon class="st4" points="1055.9,247 1056.3,247.6 1057,248.2 1057.4,248.7 1058,249.3 1058.6,249.8 1059.1,250.3 
				1059.6,250.9 1060.2,251.4 1060.7,251.9 1061.3,252.6 1061.8,253.1 1062.3,253.7 1062.8,254.2 1063.3,254.8 1063.9,255.3 
				1064.4,255.8 1064.9,256.4 1065.5,256.9 1066,257.4 1066.5,258 1067.1,258.5 1067.6,259 1068.1,259.6 1068.7,260.1 1069.3,260.6 
				1069.8,261.2 1070.4,261.7 1070.9,262.2 1071.4,262.8 1072,263.3 1072.5,263.9 1073.1,264.4 1073.6,265 1074.1,265.6 
				1074.7,266.1 1075.2,266.6 1075.7,267.2 1076.3,267.7 1076.8,268.2 1077.3,268.8 1077.9,269.3 1078.5,269.7 1116.9,269.7 
				1075.3,227.7 			"/>
			<path class="st4" d="M1077.6,171.2l-0.5,0.5l-0.6,0.5l-0.5,0.6l-0.5,0.5l-0.6,0.5l-0.5,0.6l-0.6,0.5l-0.5,0.5l-0.5,0.6l-0.6,0.5
				l-0.5,0.5l-0.5,0.6l-0.6,0.5l-0.5,0.6l-0.5,0.5l-0.6,0.5l-0.5,0.6l-0.5,0.5l-0.6,0.5l-0.5,0.6l-0.5,0.5l-0.6,0.5l-0.5,0.6
				l-0.5,0.5l-0.6,0.5l-0.5,0.6l-0.5,0.5l-0.6,0.5l-0.5,0.6l-0.6,0.5l-0.5,0.5l-0.5,0.6l-0.6,0.5l-0.5,0.5l-0.5,0.6l-0.6,0.5
				l-0.5,0.6l-0.5,0.5l-0.6,0.5c0,0.8,0.2,0.6-0.6,0.6c0.8,1.6,17.6,18.4,19.4,19.2l0.5-0.6l0.6-0.5l0.5-0.5l0.5-0.6l0.6-0.5
				l0.5-0.5l0.6-0.6l0.5-0.5l0.5-0.6l0.6-0.5l0.5-0.5l0.5-0.6l0.6-0.5l0.5-0.5l0.5-0.6l0.6-0.5l0.5-0.5l0.5-0.6l0.6-0.5l0.5-0.5
				l0.5-0.6l0.6-0.5l0.5-0.5l0.5-0.6l0.6-0.5l0.5-0.5l0.5-0.6l0.6-0.5l0.5-0.5l0.5-0.6l0.6-0.5l0.5-0.5l0.6-0.6l0.5-0.5l0.5-0.6
				l0.6-0.5l0.5-0.5l0.5-0.6l0.6-0.5l0.5-0.5l0.5-1l-18.9-18.7h-0.2L1077.6,171.2L1077.6,171.2z"/>
			<path class="st5" d="M1077.6,171.2l-0.5,0.5l-0.6,0.5l-0.5,0.6l-0.5,0.5l-0.6,0.5l-0.5,0.6l-0.6,0.5l-0.5,0.5l-0.5,0.6l-0.6,0.5
				l-0.5,0.5l-0.5,0.6l-0.6,0.5l-0.5,0.6l-0.5,0.5l-0.6,0.5l-0.5,0.6l-0.5,0.5l-0.6,0.5l-0.5,0.6l-0.5,0.5l-0.6,0.5l-0.5,0.6
				l-0.5,0.5l-0.6,0.5l-0.5,0.6l-0.5,0.5l-0.6,0.5l-0.5,0.6l-0.6,0.5l-0.5,0.5l-0.5,0.6l-0.6,0.5l-0.5,0.5l-0.5,0.6l-0.6,0.5
				l-0.5,0.6l-0.5,0.5l-0.6,0.5l-0.6,0.6c0.8,0,0.6,0.2,0.6-0.6l0.6-0.5l0.5-0.5l0.5-0.6l0.6-0.5l0.5-0.6l0.5-0.5l0.6-0.5l0.5-0.6
				l0.5-0.5l0.6-0.5l0.5-0.6l0.6-0.5l0.5-0.5l0.5-0.6l0.6-0.5l0.5-0.5l0.5-0.6l0.6-0.5l0.5-0.5l0.5-0.6l0.6-0.5l0.5-0.5l0.5-0.6
				l0.6-0.5l0.5-0.5l0.5-0.6l0.6-0.5l0.5-0.6l0.5-0.5l0.6-0.5l0.5-0.6l0.5-0.5l0.6-0.5l0.5-0.6l0.6-0.5l0.5-0.5l0.5-0.6l0.6-0.5
				L1077.6,171.2l0.6-0.5h0.2h-0.2C1077.4,170.6,1077.6,170.4,1077.6,171.2z"/>
			<polygon class="st6" points="1096.9,190.5 1096.4,191 1095.8,191.5 1095.3,192.1 1094.7,192.6 1094.1,193.1 1093.6,193.7 
				1093.1,194.2 1092.5,194.8 1092,195.3 1091.4,195.8 1090.9,196.4 1090.4,196.9 1089.8,197.4 1089.3,198 1088.8,198.5 1088.2,199 
				1087.7,199.6 1087.2,200.1 1086.6,200.6 1086.1,201.2 1085.6,201.7 1085,202.2 1084.5,202.8 1084,203.4 1083.4,203.9 
				1082.8,204.5 1082.4,205 1081.7,205.5 1081.2,206.1 1080.7,206.6 1080.1,207.1 1079.6,207.7 1079.1,208.2 1078.5,208.8 
				1078,209.3 1077.4,209.8 1076.9,210.4 1076.4,210.9 1075.8,211.4 1075.3,212 1075.8,211.4 1076.4,210.9 1076.9,210.4 
				1077.4,209.8 1078,209.3 1078.5,208.8 1079.1,208.2 1079.6,207.7 1080.1,207.1 1080.7,206.6 1081.2,206.1 1081.7,205.5 
				1082.4,205 1082.8,204.5 1083.4,203.9 1084,203.4 1084.5,202.8 1085,202.2 1085.6,201.7 1086.1,201.2 1086.6,200.6 1087.2,200.1 
				1087.7,199.6 1088.2,199 1088.8,198.5 1089.3,198 1089.8,197.4 1090.4,196.9 1090.9,196.4 1091.4,195.8 1092,195.3 1092.5,194.8 
				1093.1,194.2 1093.6,193.7 1094.1,193.1 1094.7,192.6 1095.3,192.1 1095.8,191.5 1096.4,191 1096.9,190.5 1097.8,189.7 
				1097.4,189.4 			"/>
			<polygon class="st5" points="1056.3,247.6 1056.9,248.2 1057.5,248.7 1058,249.3 1058.6,249.8 1059.1,250.3 1059.6,250.9 
				1060.2,251.4 1060.7,251.9 1061.3,252.6 1061.8,253.1 1062.3,253.7 1062.8,254.2 1063.3,254.8 1063.9,255.3 1064.4,255.8 
				1064.9,256.4 1065.5,256.9 1066,257.4 1066.5,258 1067.1,258.5 1067.6,259 1068.1,259.6 1068.7,260.1 1069.2,260.6 1069.7,261.2 
				1070.4,261.7 1070.9,262.2 1071.4,262.8 1072,263.3 1072.5,263.9 1073.1,264.4 1073.6,265 1074.1,265.6 1074.7,266.1 
				1075.2,266.6 1075.7,267.2 1076.3,267.7 1076.8,268.2 1077.3,268.8 1077.9,269.3 1078.5,269.7 1077.9,269.3 1077.3,268.8 
				1076.8,268.2 1076.3,267.7 1075.7,267.2 1075.2,266.6 1074.7,266.1 1074.1,265.6 1073.6,265 1073.1,264.4 1072.5,263.9 
				1072,263.3 1071.4,262.8 1070.9,262.2 1070.4,261.7 1069.7,261.2 1069.2,260.6 1068.7,260.1 1068.1,259.6 1067.6,259 
				1067.1,258.5 1066.5,258 1066,257.4 1065.5,256.9 1064.9,256.4 1064.4,255.8 1063.9,255.3 1063.3,254.8 1062.8,254.2 
				1062.3,253.7 1061.8,253.1 1061.3,252.6 1060.7,251.9 1060.2,251.4 1059.6,250.9 1059.1,250.3 1058.6,249.8 1058,249.3 
				1057.5,248.7 1056.9,248.2 1056.3,247.6 1055.9,247 			"/>
			<path class="st4" d="M1433.2,185c3.1-3.3,13.4-11.6,14-15.8c-6.9-1.1-9.5-1.2-13,2.7l-22.5,23.8c-5.2-1.7-11.9-10.4-17.5-15.9
				c-10.5-10.2-8.5-12.2-21.4-10.7c1,6.1,25.5,24.7,28.9,32.2c-2.5,3.3-5.4,5.6-8.3,8.7c-3,3.1-5.2,5.6-8.4,8.8
				c-3.8,3.7-14.5,13.4-15.5,18.2l11.5-0.4c1.5-2.6,25.6-27.5,28.9-29.9c3.7,1.7,28.3,27.6,33.5,32.9l24.7,24.8
				c4.8,4.6,11.7,1.8,11.8,1.7c0.1-0.3,0.4-0.2,0.7-0.3c1.5-2.1-57.9-57.4-62.2-64.4L1433.2,185L1433.2,185z"/>
			<path class="st4" d="M1541.6,216.3l-7.5,0.1c-4,5.8,0.3,10.8-13.1,11.5c-7.7,0.5-16.5,0.2-24.3,0.1c-23.3-0.1-24.4-2.3-24.3-25.7
				c0.1-21,1.8-25,23.3-25.1c7.7,0,16.8-0.4,24.3,0.2c9.7,0.6,11.3,3.4,13.3,11.4l8.2-0.1c0.7-24.6-24.8-20.5-45.8-20.4
				c-26.6,0-32.1,7.5-32,34c0,27.2,2.5,34.7,30.9,34.7C1517.4,236.9,1542,242.2,1541.6,216.3L1541.6,216.3z"/>
			<path class="st4" d="M1714.5,235.9h53.9c1.4,0,0.9,0,3.5-0.8c15.5-4.8,17-18.2,16.6-33.9c-0.2-7.7-0.2-16-3.4-21.9
				c-2.6-4.6-9.2-9.3-16.1-9c-2.3,0.4-23-0.7-28-0.7c-7.4,0-20.5,0.9-27,0.2c0.8,10.7,0.2,22.3,0.2,33.4
				C1714.2,213.8,1714.8,225.8,1714.5,235.9L1714.5,235.9z M1767.4,227.8c-3.7,2.4-39.2,1-45.3,0.3c-1.6-4.9-1-42.7-0.6-50.2
				c7.9-1.2,42.4-2.9,47.6,0.6c2.1,0.1,0,0,3.5,1.4c0.3,0.1,1,0.5,1.3,0.7c1.2,0.7,1.1,0.9,1.6,1.4c1.6-0.5,1.3-0.8,0.9,1
				c1.7-0.3,1.1-0.5,0.6,1.3c1.5,0.7,1.1-1,0.9,2.5c1.8,0.4,1.4,2.6,1.6,4.7c0.1,7.6,0.8,16.3,0.1,23.8
				C1778.9,223.8,1774.9,225.1,1767.4,227.8L1767.4,227.8z"/>
			<path class="st4" d="M1301.1,236.6h56.6l0.1-8.3c-2.4,0.1-47.2,1.4-49.4-1.1l-1.2-3.7c-0.1-1.5,0.1-4.4,0.1-6.2
				c0-3.7-0.3-7.1,0.3-10.7c5.7-1.5,38.8-0.7,46.9-0.5c2.4-3.8,0.9-2.6,0.9-7.7l-47.8-0.8c-0.6-0.9-0.5,0-1.2-2.5
				c-0.3-0.9-0.3-2-0.4-3c0-1.3,0.1-3.6,0.1-5c-0.1-12.1,0.3-8.5,1.9-9.4l49.2-1.2v-6.4l-57.5-0.7
				C1299.5,181.9,1297.4,229.3,1301.1,236.6L1301.1,236.6z"/>
			<path class="st4" d="M1639.1,236.7l57.3,0.1l0.6-7.5c-7.9-2.8-39-0.3-50.7-1.1c-1-3-1.9-19.7,0.4-21.5c7.9-2.8,36,0.1,47.5-1
				l0.3-4.8c-1.4-1.2-1.1,1.8-1.3-2.3l-35.9,0.1c-5,0.1-10,1-11.3-1.4c-1.5-2.4-1-7.4-1-10.2c-0.3-11.3-0.7-8.2,1.4-9
				c1.9-1.4,0.9-1.1,5.7-1.1c10.3,0.1,37.1,1,43.8-1l-0.1-5.1c-5.4-2.5-55.6-1.1-57.4-0.7C1638,181.4,1636.8,228.8,1639.1,236.7
				L1639.1,236.7z"/>
			<path class="st4" d="M1619.6,169.3l-57.6,0.3l-0.3,66.7l58.3,0.3l0.1-8.3l-47.4-0.1c-2.9-0.6-0.9,1.2-1.9-1
				c-1.9-2.1-1.9-17.4-0.1-19.8c1.1-1.2-0.8-0.3,2-1.1c1.3-0.3,1.5-0.2,2.7-0.3l41,0.1c1.2-2.3,0.6-0.1,1-3.8c0.1-1,0-2.4,0.1-3.6
				l-48-0.2c-1.9-5.5-1.9-14.9-0.3-20.4c4.4-1.9,42.6-1,50.5-1L1619.6,169.3L1619.6,169.3z"/>
			<path class="st7" d="M1491.7,251.9c-0.4,0-0.8,0.1-1,0.4c-0.3,0.3-0.4,0.7-0.4,1.3v11c0,0.6,0.1,1,0.4,1.3c0.3,0.3,0.6,0.4,1,0.4
				c0.4,0,0.8-0.1,1-0.4c0.3-0.3,0.4-0.7,0.4-1.3v-11c0-0.6-0.1-1-0.4-1.3C1492.5,252,1492.1,251.9,1491.7,251.9z"/>
			<path class="st7" d="M1507.6,252.1h-9c-0.5,0-0.8,0.1-1.1,0.3c-0.3,0.2-0.4,0.5-0.4,0.9c0,0.4,0.1,0.6,0.4,0.8
				c0.2,0.2,0.6,0.3,1.1,0.3h3.1v10.2c0,0.6,0.1,1,0.4,1.3c0.3,0.3,0.6,0.4,1,0.4c0.4,0,0.7-0.1,1-0.4c0.3-0.3,0.4-0.7,0.4-1.3
				v-10.2h3.1c0.5,0,0.8-0.1,1.1-0.3c0.2-0.2,0.4-0.5,0.4-0.8c0-0.3-0.1-0.6-0.4-0.8C1508.5,252.2,1508.1,252.1,1507.6,252.1
				L1507.6,252.1z"/>
			<path class="st7" d="M1527.3,258.9c-0.5-0.3-1-0.6-1.6-0.8c-0.6-0.2-1.3-0.4-2.1-0.6c-0.6-0.2-1.1-0.3-1.4-0.4
				c-0.3-0.1-0.5-0.2-0.8-0.3c-0.3-0.1-0.5-0.3-0.6-0.5c-0.1-0.2-0.2-0.4-0.2-0.7c0-0.4,0.2-0.8,0.7-1.2c0.5-0.3,1-0.5,1.8-0.5
				c0.8,0,1.4,0.1,1.7,0.4c0.4,0.3,0.7,0.7,0.9,1.2c0.2,0.4,0.4,0.6,0.6,0.8c0.2,0.2,0.4,0.2,0.7,0.2c0.4,0,0.7-0.1,0.9-0.4
				c0.2-0.3,0.4-0.6,0.4-0.9c0-0.4-0.1-0.8-0.3-1.1c-0.2-0.4-0.5-0.8-0.9-1.1c-0.4-0.4-0.9-0.6-1.6-0.9c-0.6-0.2-1.4-0.3-2.2-0.3
				c-1.1,0-2,0.2-2.8,0.5c-0.8,0.3-1.4,0.8-1.8,1.4c-0.4,0.6-0.6,1.3-0.6,2c0,0.8,0.2,1.5,0.6,2c0.4,0.5,0.9,1,1.6,1.3
				c0.7,0.3,1.5,0.6,2.5,0.8c0.8,0.2,1.4,0.3,1.8,0.5c0.4,0.2,0.8,0.4,1.1,0.7c0.3,0.3,0.4,0.7,0.4,1.1c0,0.6-0.3,1.1-0.8,1.5
				c-0.5,0.4-1.2,0.6-2.1,0.6c-0.6,0-1.1-0.1-1.5-0.3c-0.4-0.2-0.7-0.4-0.9-0.7c-0.2-0.3-0.4-0.7-0.6-1.1c-0.2-0.4-0.3-0.7-0.5-0.8
				c-0.2-0.2-0.5-0.3-0.8-0.3c-0.4,0-0.7,0.1-0.9,0.4c-0.2,0.2-0.4,0.5-0.4,0.9c0,0.6,0.2,1.2,0.6,1.8c0.4,0.6,0.9,1.1,1.5,1.5
				c0.9,0.5,2,0.8,3.4,0.8c1.2,0,2.1-0.2,3-0.6c0.8-0.4,1.5-0.9,1.9-1.6c0.4-0.7,0.7-1.4,0.7-2.3c0-0.7-0.1-1.3-0.4-1.8
				C1528.1,259.6,1527.7,259.2,1527.3,258.9L1527.3,258.9z"/>
			<path class="st7" d="M1544.3,263.8h-6.6v-4h5.9c0.4,0,0.8-0.1,1-0.3c0.2-0.2,0.3-0.5,0.3-0.8s-0.1-0.6-0.3-0.8
				c-0.2-0.2-0.5-0.3-1-0.3h-5.9v-3.4h6.4c0.4,0,0.8-0.1,1-0.3c0.2-0.2,0.3-0.5,0.3-0.8c0-0.3-0.1-0.6-0.3-0.8
				c-0.2-0.2-0.6-0.3-1-0.3h-7.5c-0.4,0-0.7,0-1,0.2c-0.3,0.1-0.4,0.3-0.6,0.6c-0.1,0.3-0.2,0.6-0.2,1v10.5c0,0.6,0.1,1.1,0.4,1.3
				c0.3,0.3,0.7,0.4,1.3,0.4h7.7c0.5,0,0.8-0.1,1-0.3c0.2-0.2,0.3-0.5,0.3-0.8c0-0.3-0.1-0.6-0.3-0.8
				C1545.1,263.9,1544.7,263.8,1544.3,263.8z"/>
			<path class="st7" d="M1558.7,257.9c-0.5,0.1-1,0.2-1.7,0.2h-2.5v-3.8h2.6c1,0,1.6,0.1,1.9,0.2c0.3,0.2,0.6,0.4,0.8,0.7
				c0.2,0.3,0.3,0.6,0.3,1c0,0.5-0.1,0.9-0.4,1.2C1559.5,257.6,1559.1,257.8,1558.7,257.9z M1562.1,262.6c-0.4-0.6-0.8-1.1-1.2-1.7
				c-0.5-0.5-0.9-0.9-1.4-1.2c1.2-0.3,2.1-0.7,2.7-1.3c0.6-0.6,0.9-1.5,0.9-2.5c0-0.5-0.1-1-0.3-1.5c-0.2-0.4-0.4-0.8-0.8-1.2
				c-0.3-0.3-0.7-0.6-1.2-0.8c-0.4-0.2-0.8-0.3-1.2-0.3c-0.4-0.1-1-0.1-1.6-0.1h-4.6c-0.6,0-1.1,0.1-1.3,0.4
				c-0.3,0.3-0.4,0.7-0.4,1.3v10.8c0,0.6,0.1,1,0.4,1.3c0.3,0.3,0.6,0.4,1.1,0.4c0.4,0,0.8-0.1,1-0.4c0.3-0.3,0.4-0.7,0.4-1.3v-4.5
				h1c0.5,0,0.9,0.1,1.2,0.2c0.3,0.1,0.7,0.4,1,0.7c0.3,0.4,0.7,0.9,1.1,1.6l1.1,1.9c0.3,0.5,0.5,0.8,0.6,1c0.2,0.2,0.3,0.4,0.6,0.6
				c0.2,0.1,0.5,0.2,0.8,0.2c0.3,0,0.5,0,0.7-0.1c0.2-0.1,0.4-0.2,0.5-0.4c0.1-0.2,0.2-0.4,0.2-0.5c0-0.2-0.1-0.5-0.3-1
				C1562.7,263.7,1562.5,263.2,1562.1,262.6L1562.1,262.6z"/>
			<path class="st7" d="M1579,252c-0.2-0.1-0.4-0.2-0.7-0.2c-0.3,0-0.6,0.1-0.8,0.2c-0.2,0.1-0.3,0.3-0.4,0.5
				c-0.1,0.2-0.2,0.5-0.4,1l-3.2,9.5l-3.2-9.4c-0.2-0.7-0.4-1.1-0.6-1.4c-0.2-0.3-0.5-0.4-1-0.4c-0.4,0-0.7,0.1-1,0.4
				c-0.3,0.3-0.4,0.6-0.4,0.9c0,0.1,0,0.3,0.1,0.5c0,0.2,0.1,0.4,0.1,0.5c0.1,0.2,0.1,0.3,0.2,0.5l3.3,9.1c0.1,0.3,0.2,0.7,0.4,1
				c0.1,0.3,0.3,0.6,0.4,0.8c0.2,0.2,0.4,0.4,0.6,0.6c0.3,0.2,0.6,0.2,1,0.2c0.4,0,0.7-0.1,1-0.2c0.3-0.1,0.5-0.4,0.6-0.6
				c0.2-0.2,0.3-0.5,0.4-0.8c0.1-0.3,0.2-0.6,0.4-1l3.4-9.1c0.1-0.2,0.1-0.3,0.2-0.5c0-0.2,0.1-0.3,0.1-0.5c0-0.2,0.1-0.3,0.1-0.5
				c0-0.2-0.1-0.4-0.2-0.6C1579.4,252.3,1579.2,252.2,1579,252L1579,252z"/>
			<path class="st7" d="M1586.6,251.9c-0.4,0-0.8,0.1-1,0.4c-0.3,0.3-0.4,0.7-0.4,1.3v11c0,0.6,0.1,1,0.4,1.3c0.3,0.3,0.6,0.4,1,0.4
				c0.4,0,0.8-0.1,1-0.4c0.3-0.3,0.4-0.7,0.4-1.3v-11c0-0.6-0.1-1-0.4-1.3C1587.4,252,1587,251.9,1586.6,251.9z"/>
			<path class="st7" d="M1604.2,260.4c-0.4,0-0.7,0.1-0.9,0.3c-0.2,0.2-0.3,0.5-0.5,0.9c-0.3,0.8-0.7,1.4-1.3,1.8
				c-0.6,0.4-1.3,0.6-2.1,0.6c-0.8,0-1.4-0.2-2-0.5c-0.6-0.4-1-0.9-1.3-1.6c-0.3-0.7-0.5-1.6-0.5-2.7c0-1.6,0.3-2.9,1-3.8
				c0.7-0.9,1.6-1.3,2.8-1.3c0.7,0,1.3,0.2,1.8,0.5c0.5,0.3,0.9,0.9,1.3,1.6c0.2,0.4,0.4,0.7,0.6,0.9c0.2,0.2,0.5,0.3,0.8,0.3
				c0.3,0,0.6-0.1,0.8-0.4c0.2-0.3,0.3-0.5,0.3-0.9c0-0.6-0.2-1.2-0.7-1.9c-0.5-0.7-1.1-1.2-2-1.7c-0.9-0.5-1.9-0.7-3-0.7
				c-0.9,0-1.8,0.2-2.6,0.5c-0.8,0.3-1.5,0.8-2.1,1.4c-0.6,0.6-1.1,1.4-1.4,2.3c-0.3,0.9-0.5,1.9-0.5,3c0,0.7,0.1,1.3,0.2,2
				c0.1,0.6,0.3,1.2,0.6,1.7c0.3,0.5,0.6,1,0.9,1.5c0.4,0.5,0.9,0.9,1.4,1.2c0.5,0.3,1,0.5,1.6,0.7c0.6,0.1,1.3,0.2,2,0.2
				c1,0,1.8-0.1,2.6-0.5c0.7-0.3,1.3-0.7,1.8-1.2c0.5-0.5,0.8-1,1-1.5c0.2-0.5,0.3-1,0.3-1.4c0-0.4-0.1-0.6-0.4-0.9
				C1604.8,260.6,1604.5,260.4,1604.2,260.4L1604.2,260.4z"/>
			<path class="st7" d="M1619.6,263.8h-6.6v-4h5.9c0.4,0,0.8-0.1,1-0.3c0.2-0.2,0.3-0.5,0.3-0.8s-0.1-0.6-0.3-0.8
				c-0.2-0.2-0.5-0.3-1-0.3h-5.9v-3.4h6.4c0.4,0,0.8-0.1,1-0.3c0.2-0.2,0.3-0.5,0.3-0.8c0-0.3-0.1-0.6-0.3-0.8
				c-0.2-0.2-0.6-0.3-1-0.3h-7.5c-0.4,0-0.7,0-1,0.2c-0.3,0.1-0.4,0.3-0.6,0.6c-0.1,0.3-0.2,0.6-0.2,1v10.5c0,0.6,0.1,1.1,0.4,1.3
				c0.3,0.3,0.7,0.4,1.3,0.4h7.7c0.4,0,0.8-0.1,1-0.3c0.2-0.2,0.3-0.5,0.3-0.8c0-0.3-0.1-0.6-0.3-0.8
				C1620.4,263.9,1620.1,263.8,1619.6,263.8L1619.6,263.8z"/>
			<path class="st7" d="M1636.2,258.9c-0.5-0.3-1-0.6-1.6-0.8c-0.6-0.2-1.4-0.4-2.1-0.6c-0.6-0.2-1.1-0.3-1.3-0.4
				c-0.3-0.1-0.6-0.2-0.8-0.3c-0.3-0.1-0.5-0.3-0.6-0.5c-0.2-0.2-0.2-0.4-0.2-0.7c0-0.4,0.2-0.8,0.7-1.2c0.4-0.3,1-0.5,1.8-0.5
				c0.8,0,1.4,0.1,1.7,0.4c0.4,0.3,0.7,0.7,0.9,1.2c0.2,0.4,0.4,0.6,0.6,0.8c0.2,0.2,0.4,0.2,0.7,0.2c0.3,0,0.6-0.1,0.9-0.4
				c0.2-0.3,0.4-0.6,0.4-0.9c0-0.4-0.1-0.8-0.3-1.1c-0.2-0.4-0.5-0.8-0.9-1.1c-0.4-0.4-0.9-0.6-1.6-0.9c-0.6-0.2-1.4-0.3-2.2-0.3
				c-1.1,0-2,0.2-2.8,0.5c-0.8,0.3-1.4,0.8-1.8,1.4c-0.4,0.6-0.6,1.3-0.6,2c0,0.8,0.2,1.5,0.6,2c0.4,0.5,0.9,1,1.6,1.3
				c0.7,0.3,1.5,0.6,2.5,0.8c0.8,0.2,1.3,0.3,1.8,0.5c0.4,0.2,0.8,0.4,1.1,0.7c0.3,0.3,0.4,0.7,0.4,1.1c0,0.6-0.3,1.1-0.8,1.5
				c-0.5,0.4-1.2,0.6-2.1,0.6c-0.6,0-1.1-0.1-1.5-0.3c-0.4-0.2-0.7-0.4-0.9-0.7c-0.2-0.3-0.4-0.7-0.6-1.1c-0.1-0.4-0.3-0.7-0.5-0.8
				c-0.2-0.2-0.5-0.3-0.8-0.3c-0.4,0-0.7,0.1-0.9,0.4c-0.2,0.2-0.4,0.5-0.4,0.9c0,0.6,0.2,1.2,0.6,1.8c0.4,0.6,0.9,1.1,1.5,1.5
				c0.9,0.5,2,0.8,3.4,0.8c1.1,0,2.1-0.2,3-0.6c0.8-0.4,1.5-0.9,1.9-1.6c0.4-0.7,0.7-1.4,0.7-2.3c0-0.7-0.1-1.3-0.4-1.8
				C1637,259.6,1636.6,259.2,1636.2,258.9L1636.2,258.9z"/>
			<path class="st7" d="M1655.8,263.8c-0.3,0.2-0.6,0.3-0.9,0.4c-0.3,0.1-0.6,0.1-0.9,0.1s-0.7-0.1-0.9-0.2
				c-0.3-0.1-0.6-0.3-0.8-0.5c-0.2-0.2-0.4-0.5-0.5-0.7c-0.1-0.3-0.2-0.6-0.2-0.8c0-0.5,0.2-1,0.5-1.3c0.3-0.4,0.8-0.7,1.5-1.1
				c0.6,0.8,1.2,1.4,1.6,1.9c0.5,0.5,1,1,1.5,1.6C1656.3,263.4,1656,263.6,1655.8,263.8L1655.8,263.8z M1653.6,254
				c0.3-0.3,0.7-0.4,1.1-0.4c0.4,0,0.8,0.1,1.1,0.4c0.3,0.3,0.4,0.6,0.4,1c0,0.4-0.1,0.7-0.4,1c-0.3,0.3-0.8,0.6-1.4,1
				c-0.3-0.3-0.5-0.6-0.6-0.8c-0.2-0.2-0.3-0.4-0.4-0.6c-0.1-0.2-0.2-0.4-0.2-0.6C1653.2,254.6,1653.4,254.3,1653.6,254L1653.6,254z
				 M1661,263.7c-0.5-0.4-0.9-0.7-1.1-0.9c0.4-0.6,0.7-1.2,0.9-1.7c0.2-0.5,0.3-0.9,0.3-1.2c0-0.3-0.1-0.6-0.3-0.8
				c-0.2-0.2-0.5-0.3-0.8-0.3c-0.3,0-0.6,0.1-0.7,0.3c-0.2,0.2-0.4,0.6-0.6,1.1c-0.2,0.5-0.3,0.8-0.4,1c-0.2-0.2-0.4-0.5-0.7-0.7
				c-0.3-0.3-0.5-0.6-0.8-0.9c-0.3-0.3-0.6-0.7-0.9-1.1c0.9-0.5,1.6-1.1,2.1-1.6c0.5-0.5,0.7-1.1,0.7-1.9c0-0.5-0.1-1-0.4-1.5
				c-0.3-0.5-0.7-0.9-1.3-1.2c-0.6-0.3-1.3-0.4-2.1-0.4c-0.8,0-1.5,0.1-2.1,0.4c-0.6,0.3-1.1,0.7-1.4,1.2c-0.3,0.5-0.5,1-0.5,1.6
				c0,0.5,0.1,1,0.4,1.5c0.2,0.5,0.6,1,1.1,1.6c-0.5,0.3-1,0.6-1.4,0.8s-0.7,0.6-1,0.9c-0.3,0.3-0.5,0.7-0.7,1.1
				c-0.1,0.4-0.2,0.8-0.2,1.3c0,0.5,0.1,1,0.3,1.5c0.2,0.5,0.5,0.9,0.9,1.3c0.4,0.4,0.9,0.7,1.6,0.9c0.6,0.2,1.3,0.3,2.1,0.3
				c0.6,0,1.2-0.1,1.7-0.2c0.5-0.1,1-0.3,1.4-0.6c0.4-0.3,0.9-0.6,1.3-1c0.9,0.7,1.5,1.2,1.8,1.4c0.3,0.2,0.6,0.3,0.9,0.3
				c0.3,0,0.6-0.1,0.8-0.3c0.2-0.2,0.4-0.5,0.4-0.8c0-0.2-0.1-0.5-0.2-0.6C1661.8,264.4,1661.5,264.1,1661,263.7L1661,263.7z"/>
			<path class="st7" d="M1680.7,252.1h-9c-0.5,0-0.8,0.1-1.1,0.3c-0.3,0.2-0.4,0.5-0.4,0.9c0,0.4,0.1,0.6,0.4,0.8
				c0.2,0.2,0.6,0.3,1.1,0.3h3.1v10.2c0,0.6,0.1,1,0.4,1.3c0.3,0.3,0.6,0.4,1,0.4c0.4,0,0.7-0.1,1-0.4c0.3-0.3,0.4-0.7,0.4-1.3
				v-10.2h3.1c0.5,0,0.8-0.1,1.1-0.3c0.2-0.2,0.4-0.5,0.4-0.8c0-0.3-0.1-0.6-0.4-0.8C1681.5,252.2,1681.2,252.1,1680.7,252.1
				L1680.7,252.1z"/>
			<path class="st7" d="M1692.6,257.9c-0.5,0.1-1,0.2-1.7,0.2h-2.5v-3.8h2.6c1,0,1.6,0.1,1.9,0.2c0.3,0.2,0.6,0.4,0.8,0.7
				c0.2,0.3,0.3,0.6,0.3,1c0,0.5-0.1,0.9-0.4,1.2C1693.5,257.6,1693.1,257.8,1692.6,257.9L1692.6,257.9z M1696,262.6
				c-0.4-0.6-0.8-1.1-1.2-1.7c-0.5-0.5-0.9-0.9-1.4-1.2c1.2-0.3,2.1-0.7,2.7-1.3c0.6-0.6,0.9-1.5,0.9-2.5c0-0.5-0.1-1-0.3-1.5
				c-0.2-0.4-0.4-0.8-0.8-1.2c-0.3-0.3-0.7-0.6-1.2-0.8c-0.4-0.2-0.8-0.3-1.2-0.3c-0.4-0.1-1-0.1-1.6-0.1h-4.6
				c-0.6,0-1.1,0.1-1.3,0.4c-0.3,0.3-0.4,0.7-0.4,1.3v10.8c0,0.6,0.1,1,0.4,1.3c0.3,0.3,0.6,0.4,1.1,0.4c0.4,0,0.8-0.1,1-0.4
				c0.3-0.3,0.4-0.7,0.4-1.3v-4.5h1c0.5,0,0.9,0.1,1.2,0.2c0.3,0.1,0.7,0.4,1,0.7c0.3,0.4,0.7,0.9,1.1,1.6l1.1,1.9
				c0.3,0.5,0.5,0.8,0.6,1c0.2,0.2,0.3,0.4,0.6,0.6c0.2,0.1,0.5,0.2,0.8,0.2c0.3,0,0.5,0,0.7-0.1c0.2-0.1,0.4-0.2,0.5-0.4
				c0.1-0.2,0.2-0.4,0.2-0.5c0-0.2-0.1-0.5-0.3-1C1696.7,263.7,1696.4,263.2,1696,262.6L1696,262.6z"/>
			<path class="st7" d="M1705.6,260.6l2.1-5.8l2.1,5.8H1705.6L1705.6,260.6z M1710.2,254.5c-0.2-0.5-0.3-0.8-0.4-1.1
				c-0.1-0.3-0.2-0.5-0.4-0.8c-0.2-0.2-0.4-0.4-0.6-0.6c-0.3-0.2-0.6-0.2-1-0.2c-0.4,0-0.7,0.1-1,0.2c-0.3,0.1-0.5,0.3-0.6,0.6
				c-0.2,0.2-0.3,0.5-0.5,0.9c-0.1,0.4-0.3,0.7-0.4,0.9l-3.6,9.1c-0.2,0.4-0.2,0.6-0.3,0.8c-0.1,0.2-0.1,0.4-0.1,0.6
				c0,0.3,0.1,0.6,0.4,0.9c0.3,0.3,0.6,0.4,0.9,0.4c0.4,0,0.7-0.1,0.9-0.4c0.2-0.2,0.4-0.7,0.7-1.4l0.7-1.8h5.7l0.7,1.8
				c0.1,0.2,0.2,0.5,0.3,0.8c0.1,0.3,0.2,0.5,0.3,0.6c0.1,0.1,0.2,0.2,0.4,0.3c0.1,0.1,0.3,0.1,0.6,0.1c0.4,0,0.7-0.1,1-0.4
				c0.3-0.3,0.4-0.6,0.4-0.9c0-0.3-0.1-0.8-0.4-1.5L1710.2,254.5L1710.2,254.5z"/>
			<path class="st7" d="M1720.6,251.9c-0.4,0-0.8,0.1-1,0.4c-0.3,0.3-0.4,0.7-0.4,1.3v11c0,0.6,0.1,1,0.4,1.3c0.3,0.3,0.6,0.4,1,0.4
				c0.4,0,0.8-0.1,1-0.4c0.3-0.3,0.4-0.7,0.4-1.3v-11c0-0.6-0.1-1-0.4-1.3C1721.4,252,1721,251.9,1720.6,251.9z"/>
			<path class="st7" d="M1740.7,251.9c-0.4,0-0.7,0.1-0.9,0.4c-0.2,0.3-0.3,0.7-0.3,1.2v8.3l-5.4-8.2c-0.1-0.2-0.3-0.5-0.4-0.7
				c-0.2-0.2-0.3-0.4-0.4-0.5c-0.1-0.1-0.3-0.3-0.5-0.3c-0.2-0.1-0.4-0.1-0.7-0.1c-0.3,0-0.6,0.1-0.9,0.3c-0.3,0.2-0.5,0.4-0.6,0.7
				c-0.1,0.3-0.1,0.6-0.1,1.1v10.8c0,0.5,0.1,0.9,0.4,1.2c0.2,0.3,0.6,0.4,1,0.4c0.4,0,0.7-0.1,1-0.4c0.2-0.3,0.4-0.7,0.4-1.2v-8.2
				l5.3,8.1c0.2,0.2,0.3,0.4,0.5,0.7c0.1,0.2,0.3,0.4,0.5,0.6c0.2,0.2,0.4,0.3,0.6,0.4c0.2,0.1,0.4,0.1,0.7,0.1c1,0,1.5-0.6,1.5-1.8
				v-11c0-0.5-0.1-0.9-0.4-1.2C1741.4,252,1741.1,251.9,1740.7,251.9L1740.7,251.9z"/>
			<path class="st7" d="M1748.5,251.9c-0.4,0-0.8,0.1-1,0.4c-0.3,0.3-0.4,0.7-0.4,1.3v11c0,0.6,0.1,1,0.4,1.3c0.3,0.3,0.6,0.4,1,0.4
				c0.4,0,0.8-0.1,1-0.4c0.3-0.3,0.4-0.7,0.4-1.3v-11c0-0.6-0.1-1-0.4-1.3C1749.2,252,1748.9,251.9,1748.5,251.9z"/>
			<path class="st7" d="M1765.8,251.9c-0.4,0-0.7,0.1-0.9,0.4c-0.2,0.3-0.3,0.7-0.3,1.2v8.3l-5.4-8.2c-0.1-0.2-0.3-0.5-0.4-0.7
				c-0.1-0.2-0.3-0.4-0.4-0.5c-0.1-0.1-0.3-0.3-0.5-0.3c-0.2-0.1-0.4-0.1-0.7-0.1c-0.3,0-0.6,0.1-0.9,0.3c-0.3,0.2-0.5,0.4-0.6,0.7
				c-0.1,0.3-0.2,0.6-0.2,1.1v10.8c0,0.5,0.1,0.9,0.4,1.2c0.3,0.3,0.6,0.4,1,0.4c0.4,0,0.7-0.1,1-0.4c0.2-0.3,0.4-0.7,0.4-1.2v-8.2
				l5.3,8.1c0.2,0.2,0.3,0.4,0.5,0.7c0.1,0.2,0.3,0.4,0.5,0.6c0.2,0.2,0.4,0.3,0.6,0.4c0.2,0.1,0.4,0.1,0.7,0.1c1,0,1.5-0.6,1.5-1.8
				v-11c0-0.5-0.1-0.9-0.4-1.2C1766.5,252,1766.2,251.9,1765.8,251.9L1765.8,251.9z"/>
			<path class="st7" d="M1787.4,259.3c-0.2-0.2-0.4-0.4-0.7-0.5c-0.3-0.1-0.6-0.1-1-0.1h-3.2c-0.4,0-0.7,0.1-0.9,0.3
				c-0.2,0.2-0.3,0.5-0.3,0.8c0,0.4,0.1,0.6,0.4,0.8c0.3,0.2,0.7,0.2,1.2,0.2h2.2v2.3c-0.6,0.3-1.2,0.6-1.8,0.7
				c-0.6,0.2-1.2,0.3-1.8,0.3c-1.3,0-2.4-0.4-3.1-1.3c-0.8-0.9-1.1-2.1-1.1-3.8c0-0.8,0.1-1.4,0.3-2.1c0.2-0.6,0.5-1.1,0.8-1.6
				c0.4-0.4,0.8-0.8,1.3-1c0.5-0.2,1.1-0.3,1.8-0.3c0.6,0,1.2,0.1,1.6,0.3c0.4,0.2,0.7,0.4,1,0.7c0.2,0.3,0.5,0.7,0.9,1.2
				c0.1,0.2,0.3,0.3,0.5,0.4c0.2,0.1,0.4,0.1,0.6,0.1c0.4,0,0.7-0.1,0.9-0.4c0.3-0.3,0.4-0.6,0.4-0.9c0-0.3-0.1-0.7-0.3-1.1
				c-0.2-0.4-0.6-0.8-1-1.2c-0.5-0.4-1-0.7-1.8-1c-0.7-0.3-1.6-0.4-2.5-0.4c-1.1,0-2.2,0.2-3.1,0.5c-0.9,0.3-1.7,0.8-2.3,1.5
				c-0.6,0.6-1.1,1.4-1.4,2.3c-0.3,0.9-0.5,1.9-0.5,3c0,1.1,0.2,2.1,0.5,3c0.3,0.9,0.8,1.7,1.4,2.3c0.6,0.6,1.4,1.1,2.3,1.4
				c0.9,0.3,1.9,0.5,2.9,0.5c0.9,0,1.8-0.1,2.6-0.3c0.8-0.2,1.6-0.5,2.4-1c0.3-0.2,0.5-0.3,0.7-0.5c0.2-0.2,0.3-0.4,0.4-0.6
				c0.1-0.2,0.1-0.5,0.1-0.8v-2.7C1787.7,259.9,1787.6,259.6,1787.4,259.3L1787.4,259.3z"/>
		</g>
		<g>
			<path class="st8" d="M2095.1,375.9c-4.3-1.2-11.6-2.4-16.5-3.7c-11-2.4-8.5,0-25,12.2c-1.2,1.2-3.7,2.4-5.5,4.3
				c-9.2,6.1-6.1,20.8,23.8,3.7C2078,388.8,2089.6,381.4,2095.1,375.9L2095.1,375.9z M2042,399.1c-0.6-5.5,1.8-7.3,9.8-14l18.9-16.5
				c3.1-1.8,23.8,2.4,26.9,6.7c-2.4,1.2-3.1,2.4-6.1,4.3l-19.5,12.2C2065.2,396.7,2050.5,405.2,2042,399.1L2042,399.1z
				 M2386.4,397.3c8.5-7.9,6.7-6.7-19.5-25.6c-3.1-2.4-3.7-2.4-7.9-1.2c-3.7,0.6-15.3,2.4-17.7,4.3c0,3.1,0.6,1.8,3.1,3.7
				c13.4,9.2,9.8,6.1,23.2,13.4c3.7,2.4,6.7,3.1,8.5,3.7c1.8,1.2,0.6,0,1.2,1.2c-14.7-3.1-33.6-16.5-42.7-23.8
				c3.1-3.7,14-4.3,18.9-6.1c7.9-2.4,6.1-1.2,16.5,6.7c2.4,1.8,20.8,14.7,22,16.5C2393.7,394.3,2390,396.1,2386.4,397.3
				L2386.4,397.3z M2371.7,388.2l4.9,0.6l0.6,2.4c-0.6,0-1.8-0.6-2.4-0.6C2370.5,389.4,2372.9,390,2371.7,388.2L2371.7,388.2z
				 M2092.1,369.2c-3.7,0-2.4-0.6-4.9-1.2c-2.4-1.2-3.1-0.6-6.1-1.2c1.8-2.4,2.4-2.4,4.9-4.3c2.4-1.8,3.1-3.1,5.5-4.3
				C2092.1,361.3,2092.1,365.6,2092.1,369.2L2092.1,369.2z M2238,270.3c0.6-2.4,1.8-5.5,3.1-6.7l20.8,22.6c4.3,4.3,6.7,6.7,11,11
				l11,9.8h-0.6c0,0-1.2,1.2-3.7,0.6c-3.7,0-2.4-3.7-7.3,1.8c-1.2-1.8-4.3-2.4-3.7-6.1c2.4,1.8,5.5,0,3.7-3.7
				c-3.1-0.6-4.3,1.2-6.1,2.4c-1.2,5.5,3.7,9.2,7.3,11c-0.6,1.8-0.6,2.4,0,4.3c1.8,0.6,4.3,1.2,5.5-0.6s0-0.6,0.6-3.1v-0.6
				c0,0,0,0,0-0.6v-0.6c3.1,2.4-0.6,0.6,1.2,7.9c4.9,1.2,6.1-1.8,2.4-4.9c4.9,1.2,6.7,4.3,6.7,10.4v-0.6V324l-1.2-2.4
				c-0.6-0.6,0-1.2-1.8-1.2c-1.8,0-3.1,1.8-1.8,3.1c0.6,1.8,3.1,3.1,4.9,4.3c0,0,0,0,0.6,0.6c0.6,0.6,1.2,1.8,2.4,1.8
				c6.1-1.8,4.3-8.5,0-5.5c0-3.7,0-6.1-2.4-8.5c-3.1-3.1-4.3-1.8-3.7-6.1c4.9,3.1,19.5,18.3,25.6,22l-1.8,3.7
				c-1.8-5.5-10.4-10.4-15.3-5.5c-1.8,1.8-2.4,7.9,0.6,8.5c1.8,0.6,3.1-0.6,2.4-2.4c-0.6-3.1-1.8-1.2-2.4-4.3
				c5.5-1.8,12.2,0.6,11.6,6.1c-2.4-0.6-0.6-1.8-4.3-1.8c-3.7,4.3,1.2,6.1,5.5,3.7c3.1-1.8,0-0.6,3.7-1.8c2.4-0.6,2.4-1.2,3.7-2.4
				l36,29.3c-4.3,0.6-7.9,1.2-11.6,2.4c0.6-3.7,3.7-12.8-3.7-10.4c-1.8,6.1,1.2,2.4,2.4,5.5c-4.3,0.6-6.1-1.8-7.9-3.1h0.6l3.7-1.2
				c0.6-6.1-7.3-7.9-7.3-1.2c0,3.7,4.3,6.7,7.9,7.9c-0.6,2.4-1.2,1.8,0,4.3c-2.4,0-2.4-0.6-4.3-1.8c-1.2-1.2-2.4-1.8-3.7-3.1
				c-2.4-1.8-4.3-3.7-7.3-5.5c-4.3-3.1-10.4-7.3-13.4-11c4.3,0.6,3.1-1.2,6.7,0c3.7,1.2,4.9,1.8,8.5,1.2c3.7,3.7,6.7,4.3,5.5-3.7
				c-1.8-1.2-6.7-6.1-9.2-1.2c-1.2,1.8,0,0-0.6,1.8v1.2c-3.7-0.6-6.1-1.2-6.1-5.5c0.6,0.6,2.4,1.8,3.7,0.6c3.7-3.7-6.1-7.9-6.1,1.2
				c-3.1-1.2-3.1-0.6-4.9,1.8l-15.3-11.6c-1.8-1.2-3.1-2.4-4.9-3.7c-3.1-3.1-6.7-5.5-9.2-7.9c-8.5-9.2-17.1-15.9-26.9-25.6
				l-17.1-17.7l4.3-6.1c5.5,0.6,4.3,1.2,6.7,4.3c-3.1,2.4,3.7-1.8-1.2,0.6c-1.8,0.6-2.4,1.2-1.8,4.3c4.3,1.2,1.8-0.6,6.7,0
				c0,0-0.6,0,1.8,0.6c1.8,0,1.2,0,3.1-0.6v-3.7c-6.1-2.4-1.8,3.1-6.7-3.7C2242.3,272.1,2241,272.1,2238,270.3L2238,270.3z
				 M2252.6,288.6c1.8-2.4,3.1-1.2,2.4-5.5h-4.3l-0.6,5.5c-1.8-1.2-1.8-1.2-4.3-0.6c-0.6,2.4-0.6,4.3,0.6,6.1c4.3,0.6,3.1,0,5.5-1.8
				c3.1,3.1,5.5,3.7,10.4,3.1c3.7-0.6,0.6,0,0,1.8c-0.6,3.1,1.2,3.1,4.3,2.4c0-1.8,0.6-3.7-0.6-6.1l-1.8-3.1
				c-3.1-3.7-7.3-1.2-4.3,3.1C2257.5,292.9,2254.5,291.1,2252.6,288.6L2252.6,288.6z M2101.2,356.4c1.8,0,1.2,0,2.4,1.2
				c-1.2,7.9-12.2,9.8-9.2,4.9c1.8-3.1,3.1-2.4,3.7-1.8C2101.2,360.7,2102.4,359.5,2101.2,356.4L2101.2,356.4z M2108.5,349.1
				c1.8-1.2-1.2-0.6,2.4,1.2c1.8,0.6,3.7,0.6,6.1,0.6c4.9-0.6,3.7-3.1,8.5-0.6l-12.8,9.8c-4.3,3.7-8.5,6.1-12.8,9.8
				c-1.2-4.9,1.2-2.4,4.3-6.1c1.8-1.8,3.1-4.9,1.8-7.9c0,0,0.6-0.6,0.6,0l3.1-1.8C2108.5,351.5,2108.5,349.7,2108.5,349.1
				L2108.5,349.1z M2104.3,354c-4.3,0-6.1,1.2-6.7,4.9l-0.6-0.6c0,0-0.6,0-0.6-0.6l-2.4-1.8l17.1-13.4c2.4-2.4,6.7-6.7,9.8-8.5
				l-1.2,4.9v0.6c-0.6,1.2-1.8,1.2-1.2,3.7c1.2,2.4,3.1,0,2.4,3.7c-0.6,1.8-2.4,1.8-4.9,1.8c0.6-1.8,0.6-2.4,0-3.7
				c-2.4-0.6-1.8-0.6-4.3,0l-1.8,0.6C2106.7,346.6,2103.1,350.3,2104.3,354L2104.3,354z M2125.6,339.3c2.4-7.9,9.8-11,12.2-6.7
				c1.2,3.7,0,0,0,3.7s0,0.6,1.2,3.1c-3.7,1.8-7.3,7.3-11,9.2c0.6-1.8,3.1-4.9-0.6-5.5c-3.7,0-1.8,3.1-2.4,4.9
				c-1.2-1.2-1.8-6.1-1.8-7.3c2.4,0,2.4,3.7,6.1,0.6c2.4-1.8,2.4-3.7,0.6-5.5C2125,336.3,2127.5,337.5,2125.6,339.3L2125.6,339.3z
				 M2125,333.8c-1.2-0.6-0.6-0.6-2.4-1.2c1.2-1.8,0-0.6,1.2-1.8l10.4-9.2c3.7-3.1,8.5-8.5,12.8-11c0,6.7-7.3,4.3-6.7,13.4
				c-1.2,1.2-3.1,1.2-2.4,3.7c0,0.6,2.4,4.9,5.5,1.8c4.9-4.3,3.7-1.2,6.7-3.7c0-1.8,0-1.8-0.6-3.1c-6.1-1.2,0,3.7-6.7,0.6
				c0.6-4.3,3.7-8.5,7.9-7.9c-1.2,1.8-1.8,3.1,0.6,4.3c1.8,1.2,3.1-1.2,3.7-1.8c1.8,1.8,2.4,1.2,4.9,1.8l-17.7,17.1
				c-1.8-3.7-1.2-7.3-7.3-7.9C2129.3,327.7,2127.5,331.4,2125,333.8L2125,333.8z M2150.1,305.7c4.3-2.4,11.6-10.4,14.7-14.7
				c2.4,0.6,3.1,0,4.3,1.8c-1.2,3.1-1.2,0.6-2.4,3.1c-1.2,2.4-0.6,6.1,3.1,4.9c1.8-0.6,0.6-1.2,3.1-2.4c0,0,1.8,0,2.4-0.6
				c4.9-1.2,3.1-3.7,7.9-3.1c-1.8,3.1-7.9,7.3-10.4,10.4l-10.4,11c-0.6-1.2-1.2-1.8-1.2-3.1c6.7-2.4,12.2-13.4,3.1-13.4
				c-3.7,1.2-4.3,1.2-3.7,4.9c4.3,1.2,3.1-0.6,5.5-1.8c1.2,4.9-5.5,11.6-9.8,9.2c1.2-4.3,6.1-1.8,3.7-6.1c-3.1-1.8-3.7,0.6-4.9,2.4
				c-2.4,4.3,0,3.1-1.2,6.7c-1.2-1.8-1.2-1.8-3.7-3.1l-1.2-0.6c1.2-0.6,1.8,0,4.3-1.2c0-2.4,0.6-1.2-0.6-3.1
				c-0.6-0.6-0.6-0.6-1.2-1.2H2150.1z M2171.4,292.9l4.3,1.2l-4.9,1.8L2171.4,292.9z M2186.1,266.7c9.8-3.1,15.9-5.5,24.4-9.2v32.4
				c-17.1,3.7-4.9,3.1-25.6,3.1L2186.1,266.7z M2179.4,255.1c1.2,7.9,0,6.7,4.3,11.6c0,8.5-0.6,17.7-0.6,26.3
				c-4.9,0-13.4-1.8-17.1-4.3c-1.8-11,0-22,1.2-32.4L2179.4,255.1z M2142.1,279.5c0-6.7,1.2-15.9,3.7-22l20.1-0.6
				c-1.2,12.2-1.2,18.9-1.2,31.7C2154.3,286.2,2146.4,280.1,2142.1,279.5L2142.1,279.5z M2184.3,263.6c-1.8-2.4-3.1-4.9-2.4-9.2
				l3.1-0.6L2184.3,263.6z M2186.7,264.2c-0.6-13.4,2.4-11.6,7.3-12.8c4.3-1.2,11,2.4,15.3,4.3
				C2206.2,257.5,2191.6,263.6,2186.7,264.2L2186.7,264.2z M2213,256.3c9.2-3.7,19.5-9.2,28.1-14c0,11-2.4,21.4-7.3,30.5
				c-3.1,6.1-4.3,5.5-9.2,9.8c-3.1,2.4-6.7,6.1-11.6,6.7V256.3z M2197.1,238c6.1-1.8,4.3-2.4,11-1.8c2.4,0,11.6-0.6,12.2-0.6
				c3.7,0.6,4.3,3.7,10.4,2.4c4.3-1.2,5.5-2.4,10.4-2.4c0.6,4.9-0.6,4.9-8.5,9.2c-3.7,1.8-7.3,3.7-11.6,6.1
				c-15.3,7.3-3.7,3.1-24.4-1.8L2197.1,238z M2191.6,238h3.1v4.9L2191.6,238z M2319.8,234.3h3.1h3.7h2.4l0.6,4.9h-56.2
				c0,0,0-0.6,0.6-0.6c2.4-4.3,0-1.8,0.6-4.9v-0.6l0.6-1.2c0.6,0.6,0.6-0.6,0.6,2.4h3.1v-2.4c0.6,0.6,0.6-0.6,0.6,2.4h3.7h1.8v-2.4
				c0,0.6,0.6-0.6,0.6,2.4h3.7h3.1h3.1v-2.4c0,0.6,0.6-0.6,0.6,2.4h3.7h1.8v-2.4c0.6,0.6,0.6-0.6,0.6,2.4h3.7h1.2h3.1v-2.4
				c0.6,0.6,0.6-0.6,0.6,2.4h3.7h3.1C2317.4,234.3,2319.8,234.3,2319.8,234.3z M2093.9,239.8c0.6-4.3,0.6,0,1.2-3.7
				c0-1.8,0,0.6,0-1.2v-1.8c0-1.8-1.2-0.6,0-1.2h55v6.7C2143.3,241.6,2104.3,239.8,2093.9,239.8L2093.9,239.8z M2161.7,226.4
				c4.9,3.1,3.1,1.2,6.1,2.4c-2.4,1.8-7.3,2.4-7.9-3.1L2161.7,226.4L2161.7,226.4L2161.7,226.4z M2296.6,218.4
				c0-2.4,0.6-0.6-0.6-2.4l-1.2-1.8c3.7,0,0.6,0.6,4.3,2.4l4.3-1.8c1.2,0.6,1.8,1.2,3.7,1.8l3.1-1.8c0,4.3-0.6-0.6-1.8,3.7
				c3.7,4.9,3.7-1.8,3.7,3.7c-1.8-0.6-4.9-1.8-4.9,1.2s2.4,0.6,2.4,4.3c-2.4-0.6-0.6-1.8-2.4-2.4c-3.7-0.6-3.1-0.6-4.9,1.2
				c-1.8-1.2-1.2-1.2-4.9-1.8c-1.8,3.1,0,2.4-2.4,1.8c1.8-1.2,1.8-1.8,2.4-5.5h-4.3C2294.8,217.8,2294.2,220.2,2296.6,218.4
				L2296.6,218.4z M2305.1,222.1c0-3.7,0-4.9-3.7-5.5c-3.1,2.4-3.1,6.1,0.6,7.9C2305.1,223.3,2303.3,224.5,2305.1,222.1
				L2305.1,222.1z M2258.7,223.3h-13.4c0.6-3.1,0-2.4,4.3-2.4c1.2,0.6,1.2,0.6,1.8,1.2c1.2-1.2,0.6-0.6,1.8-1.2
				c0.6,0.6,1.2,0.6,1.2,1.2c1.2-1.2-0.6-1.8,1.8-1.2C2258.1,221.5,2258.1,221.5,2258.7,223.3L2258.7,223.3z M2114,217.8
				c-0.6-3.1-0.6-1.2-2.4-3.7c5.5,0.6,0.6,4.3,8.5,1.2l3.7,1.8c1.2-1.2,1.2-1.2,3.7-1.8c-1.2,4.3-1.2,0-1.8,4.3
				c0.6,3.1,3.1-0.6,3.7,3.1c-1.2,0-4.3-1.8-4.3,1.2c0,2.4,0.6,1.8,1.2,2.4c1.2,1.2,1.8,0,0.6,1.8v-0.6l-0.6-0.6
				c-1.2-2.4,0.6-1.2-2.4-1.8c-1.8-0.6-3.1,0.6-4.3,1.2c-6.7-3.7-3.7,0-6.7,1.2c0.6-2.4,1.8-0.6,1.8-5.5c-1.8-0.6-1.8,0-3.7-1.2
				L2114,217.8z M2119.5,217.2c-1.8,1.2-3.1,2.4-2.4,4.9c0.6,2.4,1.8,3.1,3.7,2.4c0,0,2.4-1.2,1.8-4.3
				C2122,217.8,2120.8,217.8,2119.5,217.2L2119.5,217.2z M2221.5,232.5c-5.5-9.8,3.1-22.6,13.4-19.5c-4.3,1.8-6.7,1.2-9.8,4.3
				c-2.4,2.4-3.7,6.7-1.8,11.6C2222.1,232.5,2222.1,227.6,2221.5,232.5L2221.5,232.5z M2260.6,216c-1.2-3.1-2.4-2.4-2.4-3.7
				c0,0,0-1.2,3.1-0.6c3.1,0.6,1.2,2.4,0.6,3.1C2261.8,214.1,2260.6,216,2260.6,216L2260.6,216z M2129.3,217.2
				c0-3.1-0.6-3.7-1.8-5.5h22.6v1.8l-7.9,0.6c0,16.5-1.8,14,8.5,14v2.4h-22.6c3.7-4.3,0.6-3.1,4.9-5.5
				C2137.2,222.1,2135.4,217.2,2129.3,217.2L2129.3,217.2z M2093.9,211.7c21.4,0,14.7-1.2,15.3,4.3c-6.7,1.2-7.9,7.9,0.6,8.5
				c-2.4,4.3,1.8,5.5,4.3,4.3c1.2-0.6,0.6,0,1.2-1.2l0.6-0.6c4.3,3.7,2.4,0,6.7,0l1.2,3.1h-29.9V211.7z M2311.9,212.3
				c-6.7-1.2,0.6,1.2-7.9,0c-4.9-0.6-1.8,3.1-6.1-1.2h31.1v18.3h-17.7c4.3-9.2,4.3-2.4,6.1-7.3c1.8-4.3-1.2-6.1-4.9-6.1
				C2313.1,214.8,2312.5,213.5,2311.9,212.3L2311.9,212.3z M2279.5,214.1c-4.3,0-6.1,1.2-6.7-2.4h21.4c-1.2,1.2-1.8,2.4-1.2,4.3
				c-4.9,0.6-5.5,2.4-4.9,7.3l4.3,1.2v0.6v0.6c0,0,1.2,6.7,6.7,1.8l0.6-0.6c3.1,3.1,2.4,0.6,6.1,0l1.2,3.1c-6.1,0-12.2,0-18.3,0
				c-6.7,0-15.3,1.2-15.9-1.8h6.7V214.1z M2194,235.5c6.1-3.1,11.6-2.4,9.2-12.8c-2.4-9.2-7.9-6.1-12.2-11c3.1,0.6,9.2,1.8,11,3.7
				C2206.8,220.9,2208.1,237.3,2194,235.5L2194,235.5z M2197.1,206.2c14.7,1.2,29.9,1.2,44-0.6c0,1.8-0.6,4.3-1.8,4.9
				c-1.8,1.2-2.4,0-4.9,0c-4.3-0.6-31.1,1.2-37.2-0.6V206.2z M2181.2,202.5c2.4,0.6,2.4,0,1.2,2.4
				C2180,203.8,2181.2,205.6,2181.2,202.5L2181.2,202.5z M2096.3,208.6c-0.6-4.3-1.8-4.3-1.8-4.3s0,0-0.6-0.6l56.2,0.6h-2.4v4.3
				c3.7,0.6,1.2,0,2.4,0.6h-56.2C2095.7,208.6,2092.1,208.6,2096.3,208.6L2096.3,208.6z M2274.6,208.6c-0.6-3.7-1.2-0.6-1.2-3.7
				c0-1.8-0.6-0.6,0-1.8h55.6c0.6,3.7,1.2,3.1-2.4,3.7v1.8H2274.6z M2219.1,194c3.7,0,7.3,0,11-0.6l10.4-0.6v10.4
				c-26.9,1.8-18.9,1.8-44,0.6l-0.6-10.4L2219.1,194z M2167.2,176.9c1.8,1.8,1.2,1.2,3.1,3.7c1.2,1.8,1.8,2.4,2.4,4.9l-3.1,1.2
				c-1.8-1.8-1.2-1.8-1.8-3.7l1.8,1.8c1.2,0.6,0,0.6,1.8,0c0-1.8-1.8-4.3-3.1-5.5c-2.4,1.2-1.2,1.2,0,4.3l-2.4-4.3L2167.2,176.9z
				 M2261.2,176.3c1.2-1.2,1.8-2.4,2.4-3.1c1.8,0.6,2.4,1.2,3.1,1.8l-3.7,6.1c-1.2,1.2-0.6,0.6-1.2,1.2l-3.1-2.4L2261.2,176.3z
				 M2264.9,174.5c-1.2,0.6-0.6,0-2.4,1.8c-1.2,1.8-1.8,2.4-1.2,3.7c1.8,1.2,1.2,0.6,3.1-1.8
				C2266.1,175.1,2264.9,175.7,2264.9,174.5L2264.9,174.5z M2148.2,175.1c3.1-0.6,7.9-4.3,11-6.1c3.7-2.4,7.3-4.9,11.6-6.7
				c0.6,3.1,3.7,6.7,5.5,9.8l9.8,15.9c-3.1-1.8-3.7-4.9-6.1-8.5l-3.7-6.1c0,0,0,0,0-0.6V172l-0.6-1.2c0,0,0,0,0-0.6l-3.1-2.4
				c-1.2-1.2,0,0-1.2-1.2c-1.2-1.8-1.2-1.2-1.8-3.1l-4.9,3.1c-3.7,2.4-12.2,6.7-14,9.2c2.4,5.5,14,20.1,15.3,25
				c-1.8-0.6-1.2-0.6-2.4-1.2C2160.4,196.4,2148.8,176.9,2148.2,175.1L2148.2,175.1z M2145.2,161l4.3,2.4c-1.8,1.2-1.8,1.2-4.3,2.4
				V161z M2142.7,159.8l-0.6,5.5l-2.4-4.3L2142.7,159.8z M2197.1,164.1c-0.6-0.6-0.6,0.6-0.6-1.8v-2.4l2.4,0.6
				C2197.1,162.2,2198.3,161.6,2197.1,164.1L2197.1,164.1z M2281.9,159.8c5.5-3.7,3.1-1.2,4.3-1.2v3.7
				C2285.6,161.6,2283.2,160.4,2281.9,159.8L2281.9,159.8z M2240.4,162.9c-2.4-0.6-0.6,0-1.8-1.8l-1.8-1.8l3.7-0.6V162.9z
				 M2151.9,156.8c3.7,1.2,3.7,2.4,3.7,2.4s0,0.6,0.6,0.6c-1.8,0.6-1.8,0.6-4.3,1.8V156.8z M2147.6,156.1c0.6,0,1.8-0.6,2.4-1.2v5.5
				c-0.6,0-1.8-0.6-2.4-0.6l-1.8-1.8c0.6-0.6,0.6-0.6,1.2-1.2C2147,156.8,2147,156.1,2147.6,156.1L2147.6,156.1z M2288.7,156.1
				l3.1,1.8c-1.2,1.8-1.8,3.1-3.1,4.3V156.1z M2196.5,154.3c0-1.2,0.6-1.8,0.6-2.4c4.3,10.4,9.8,3.1,11,0.6c2.4,4.9,3.7,3.1,5.5,6.1
				l-16.5-1.2L2196.5,154.3z M2275.2,155.5c1.8-1.2,1.8-1.8,4.3-2.4v4.9L2275.2,155.5z M2228.8,154.9c6.7,4.3,8.5-3.1,9.2-4.3
				c1.8,1.2,2.4,1.2,2.4,4.9c-3.7,2.4-13.4,3.1-18.3,2.4c2.4-2.4,3.1-1.8,4.3-4.3L2228.8,154.9z M2281.9,151.3l4.3,3.1
				c-1.2,1.8-1.8,1.2-4.3,2.4V151.3z M2159.2,152.5c1.8,0.6,2.4,1.2,4.3,2.4l-3.7,1.8L2159.2,152.5z M2153.7,152.5
				c2.4-1.8,2.4-1.2,3.7-1.2v4.9c-1.8-0.6-3.1-1.8-4.9-2.4C2153.1,153.1,2153.1,153.7,2153.7,152.5L2153.7,152.5z M2272.2,148.8v4.9
				l-3.7-2.4L2272.2,148.8z M2139.1,149.4c0.6-1.8,0.6-1.2,0.6-1.8l4.3,1.8c0.6,0.6,0.6,0.6,1.2,0.6l-7.9,4.3L2139.1,149.4z
				 M2274.6,147l4.3,3.1l-4.3,2.4V147z M2285.6,147c6.7-4.3,6.1-3.1,7.3,4.9L2285.6,147z M2135.4,154.3l-3.7-9.2l6.1,1.8
				L2135.4,154.3z M2140.9,137.2c2.4,0,5.5,1.2,7.9,2.4l-1.2,9.2l-7.9-3.1L2140.9,137.2z M2151.3,140.3c3.7,0.6,4.3,1.2,6.1,3.1
				l-6.7,4.3L2151.3,140.3z M2299.7,141.5c-0.6,1.8-0.6,2.4-1.8,4.3c-0.6,0.6-0.6,1.8-1.2,2.4l-1.2,1.8c0-0.6-0.6,0-0.6-1.8
				c0-0.6-0.6-1.2-0.6-1.8c0-1.2-0.6-2.4-0.6-3.7L2299.7,141.5z M2202.6,145.8c3.1-2.4,3.7-4.9,6.1-7.9l1.8,3.1
				c-2.4,3.1-1.8,3.7-3.1,6.7C2204.4,147.6,2204.4,147.6,2202.6,145.8L2202.6,145.8z M2232.5,145.2c-1.2,1.2-1.8,1.2-3.7,2.4
				l-1.8-3.7c-0.6-1.8-1.2-1.8-2.4-3.1l1.2-3.7l0.6,0.6L2232.5,145.2z M2274,139.7c1.8-1.2,3.1-2.4,6.1-3.1l0.6,7.3L2274,139.7z
				 M2299.7,131.1v7.9l-6.1,1.8l-1.2-8.5L2299.7,131.1z M2131.7,134.2l6.1,1.8v0.6v0.6c0.6,3.1,0-1.8,0,1.2l-1.2,6.1l-6.1-1.8
				L2131.7,134.2z M2290.5,133.6l1.2,7.9l-7.9,3.1l-1.2-8.5L2290.5,133.6z M2141.5,126.8c3.7,1.2,2.4,1.2,4.9,3.7s3.1,1.8,2.4,6.1
				c-2.4-0.6-6.1-1.2-7.9-3.1L2141.5,126.8z M2129.3,140.3l-3.1-7.3l3.7,0.6L2129.3,140.3z M2222.7,129.3c2.4,0.6,1.8,2.4,1.8,4.3
				c-1.8-1.2,0,0-1.8-0.6c-1.2-0.6,0.6,0-1.2,0L2222.7,129.3z M2209.9,133.6c0-2.4,0-3.1,1.8-4.3c0.6,1.2,0.6,1.2,0.6,3.7
				L2209.9,133.6z M2132.4,124.4l6.7,1.8v6.7c-2.4,0-4.9-0.6-6.7-1.8V124.4z M2282.6,133.6c-0.6-3.7,1.2-4.3,2.4-6.1
				c1.8-2.4,1.2-2.4,4.9-3.7v7.9L2282.6,133.6z M2305.8,129.3l-3.7,7.3v-6.7L2305.8,129.3z M2299,121.3v7.3l-6.7,1.2v-7.3
				L2299,121.3z M2307,118.9v7.3c-0.6,0-1.8,1.2-2.4,1.2c-4.9,0.6-1.8,0-3.1-0.6v-6.7L2307,118.9z M2124.4,121.9l5.5,1.8v7.3
				l-5.5-1.8V121.9z M2133,115.8c1.2,0.6,5.5,5.5,6.1,7.9l-6.7-1.8L2133,115.8z M2125,113.4l5.5,1.2l-0.6,6.1
				c-2.4-0.6-4.3-0.6-5.5-2.4v-1.2L2125,113.4z M2292.3,120.1c0-2.4,1.2-3.1,2.4-4.9c1.2-1.2,0.6-0.6,1.8-1.8s0-0.6,1.8-1.8v6.7
				L2292.3,120.1z M2117.7,111.6l4.9,1.2v5.5l-4.9-0.6V111.6z M2307,110.3v5.5l-5.5,1.8v-6.1L2307,110.3z M2313.7,108.5v6.1
				l-4.9,0.6v-5.5L2313.7,108.5z M2125,106.1c2.4,0.6,4.3,4.3,5.5,6.1l-5.5-1.8V106.1z M2118.3,104.2l4.9,1.2l-0.6,5.5l-4.9-1.8
				L2118.3,104.2z M2301.5,108.5c0.6-1.8,1.2-1.8,2.4-3.7c1.2-1.8,0.6-1.2,3.1-2.4v4.9L2301.5,108.5z M2112.8,102.4l3.1,0.6v5.5
				l-3.7-0.6L2112.8,102.4z M2308.8,101.8l2.4-0.6c3.7,0,0.6,0,2.4,0.6v4.3l-4.9,1.2V101.8z M2316.1,100l3.1-0.6v5.5l-3.1,0.6V100z
				 M2223.3,101.2c0,1.8,0,0.6-0.6,1.8c-0.6,0-1.8,0.6-1.2-2.4c0-1.8-0.6,0,1.2-1.2C2222.7,98.7,2223.3,98.1,2223.3,101.2
				L2223.3,101.2z M2118.3,98.1c3.1,0.6,3.7,1.8,4.9,4.9l-4.9-1.2V98.1z M2112.8,96.3l3.7,0.6v3.7l-3.1-1.2L2112.8,96.3z
				 M2110.4,97.5c0,2.4-0.6,1.8-1.2,1.8c-0.6,0-2.4,0-0.6-4.3C2110.4,96.3,2110.4,93.9,2110.4,97.5L2110.4,97.5z M2308.8,99.4
				c0.6-2.4,1.8-3.7,4.9-4.3v3.7L2308.8,99.4z M2319.2,93.3v3.7l-3.1,0.6c0-0.6,0-1.2,0-1.8c0-1.8,0.6-1.2,0.6-1.8L2319.2,93.3z
				 M2321,93.3c0.6-2.4,0-0.6,1.8-1.2c0.6,1.8,1.8,3.1-0.6,4.3C2322.2,95.7,2320.4,96.3,2321,93.3L2321,93.3z M2197.1,88.4
				c1.2,1.2,0.6-1.8,1.2,2.4v1.8c-0.6,2.4,0,1.2-3.7,1.8L2197.1,88.4z M2112.8,90.8c3.7,0.6,3.1,0.6,3.1,3.7
				C2112.2,93.9,2112.8,95.1,2112.8,90.8L2112.8,90.8z M2237.4,90.8c0.6,1.8,0.6,1.2,0.6,2.4l-3.1-0.6c-0.6-2.4-0.6-2.4,0-4.3
				L2237.4,90.8z M2111,93.3c-2.4-0.6-3.7-2.4,0-3.1V93.3z M2315.5,91.4c0-3.1,0-3.1,3.1-3.7C2318.6,91.4,2319.2,90.8,2315.5,91.4
				L2315.5,91.4z M2322.2,86.5c0,0,1.8-1.2,0.6,2.4c-0.6,1.2-1.2,0.6-1.8,0.6C2321,85.9,2320.4,87.8,2322.2,86.5L2322.2,86.5z
				 M2223.9,82.3c-1.8-1.8-1.8-2.4-3.7-3.7l4.9-0.6L2223.9,82.3z M2206.2,77.4l5.5,0.6c-0.6,0.6-1.2,1.2-1.8,2.4l-1.8,1.8
				L2206.2,77.4z M2091.5,70.7c1.8-1.8,2.4-1.2,3.7-3.7c1.8,3.1,4.3,6.1,6.1,9.8c-1.2,1.8-2.4,1.8-3.7,2.4L2091.5,70.7z
				 M2336.3,63.3c2.4,3.1,2.4,1.8,4.3,3.7c-1.8,3.1-3.7,6.1-6.1,8.5c-3.1-0.6-3.1-0.6-4.3-2.4L2336.3,63.3z M2086.6,58.5
				c1.2,0.6,1.8,0.6,3.1,1.2c1.8,1.2,0.6,0.6,1.2,1.2l-4.3,1.8V58.5z M2341.2,57.2c1.2-1.8,1.8-1.8,4.3-2.4l-0.6,4.9L2341.2,57.2z
				 M2243.5,179.3c0-6.1,0-12.2,0-18.3c0-18.9-3.1-7.3-13.4-23.2c-4.9-7.3-6.1-30.5-1.2-39.1c2.4-4.3,6.1-2.4,10.4-1.8
				c1.8-3.7,1.2-5.5-1.2-9.2c-1.8-3.1-4.3-4.9-6.1-7.9c-3.7-4.3-4.9-6.7-9.8-7.9h-0.6c-2.4-1.2-3.1-3.1-6.1-3.1
				c-1.8,0-1.8,1.2-3.1,2.4c-2.4,1.8-1.8,0.6-4.3,1.8c-4.3,1.8-6.7,6.1-9.2,9.2c-3.7,4.3-6.1,7.9-6.1,14.7
				c12.2,0,15.9,6.1,15.9,17.1l-1.2,20.1c-1.8,5.5-5.5,10.4-9.8,14c-3.1,3.1-3.7,2.4-3.7,7.9v35.4c-2.4-1.8-9.8-14-12.2-17.7
				c-4.9-7.3-18.9-29.9-24.4-36l-28.1-32.4c-8.5-10.4-25-33.6-31.7-45.2c-2.4-4.9-4.3-6.1-10.4-6.1c-3.1,0-5.5,3.7-5.5,6.1
				c0,4.3-0.6,5.5,2.4,8.5c6.7,7.3,14,20.8,19.5,29.3c9.8,16.5,18.9,32.4,26.3,50.1c3.1,7.9,7.3,15.9,12.2,22.6l22.6,34.2
				c-3.7,0-6.1-0.6-9.2,1.8l-2.4,2.4v-8.5h-61.7v40.9h61.7v-12.2c3.7,1.8,5.5,4.9,11,6.1c11,1.8,4.9-14.7,23.2,0.6
				c2.4,2.4,5.5,9.2,7.3,12.2l-21.4,3.7c-7.3,1.2-15.9,1.8-23.2,1.8c-5.5,0-12.8-1.2-17.7,0c-4.3,1.2-9.8,6.7-9.8,11
				c0,3.7,3.1,6.7,6.1,8.5c3.7,3.1,4.9,3.7,9.2,6.1c4.9,2.4,15.9,8.5,21.4,8.5c-6.1,8.5-39.7,38.5-47,45.2l-12.2,10.4
				c-5.5,4.3-10.4,8.5-15.9,12.8c-1.2,1.2-2.4,1.8-3.7,3.1c-1.8,1.2-2.4,1.8-3.7,3.1c-4.3,3.1-3.1-1.2-8.5,4.3l-23.2,19.5
				c-7.3,6.7-7.3,17.7,2.4,17.7c12.2,0,20.1-4.9,31.1-11.6c4.9-3.1,11.6-6.7,16.5-11c2.4-1.8,2.4-2.4,5.5-4.3s1.8-2.4,4.9-4.3
				c17.7-12.2,34.8-26.9,50.7-41.5l32.4-33c5.5-5.5,7.9-1.8,15.3-3.7c16.5-3.7,15.9-5.5,25.6-11.6c2.4,3.7,12.2,12.8,16.5,17.1
				c3.1,3.1,4.9,5.5,7.9,8.5c1.8,1.8,2.4,1.8,4.3,3.7c24.4,23.8,47.6,42.1,74.5,61.7c11,7.9,36,26.3,50.7,26.3
				c6.1,0,12.2-3.1,12.2-7.9c0-6.1-5.5-9.2-9.8-11.6c-4.3-3.1-7.9-6.1-12.2-8.5c-4.3-3.1-7.9-6.7-12.2-9.2c-2.4-1.2-1.2,0-3.7-1.2
				c-4.3-1.2-28.1-22-33-26.3c-1.8-1.8-3.7-3.1-5.5-4.9c-1.2-1.2-1.8-1.8-3.1-2.4c-8.5-7.3-17.7-14.7-25-22.6l-22-21.4
				c-3.7-3.7-24.4-23.2-25.6-26.9c-0.6-2.4,1.2-15.3,1.2-18.9s1.8-5.5,3.1-6.7l0.6-0.6c5.5,3.7,9.2,7.3,15.9,2.4
				c1.8-1.2,3.1-4.3,5.5-4.9v14h61.1v-41.5H2271c-2.4,0-2.4,1.8-1.8,4.9c0.6,2.4,0.6,3.1,0.6,6.7c-3.1-1.8-1.8-3.1-6.1-5.5
				c3.1-6.1,7.3-11.6,11.6-17.1l11.6-17.1c7.9-12.2,13.4-24.4,20.1-37.9c9.2-18.9,19.5-36.6,31.1-54.3l11.6-18.3
				c0-3.7,0.6-7.3-1.8-9.8c-4.3-3.1-10.4-1.8-12.8,3.1c-4.9,9.2-11,17.7-17.1,25.6l-24.4,32.4c-20.8,26.3-21.4,23.8-40.3,51.9
				C2249.6,170.8,2247.1,175.7,2243.5,179.3L2243.5,179.3z"/>
			<path class="st8" d="M2148.2,274.6c1.2,0,1.2,0,1.8-0.6c4.9-2.4,1.8-10.4-1.2-10.4c-2.4,0.6-3.7,2.4-4.3,4.9
				c0,3.1-0.6,1.2,0.6,3.1L2148.2,274.6z"/>
			<path class="st8" d="M2172.7,275.8c1.2,1.2,0,1.2,1.8,1.8c1.8-1.2,1.2-1.2,3.7-2.4c0-3.7,1.2-5.5-2.4-8.5
				c-4.9,0.6-4.3,3.1-4.9,7.3c0,0,0.6,0.6,1.2,0.6C2172.7,275.8,2172,275.2,2172.7,275.8L2172.7,275.8z"/>
			<path class="st8" d="M2158.6,275.8c4.3-1.2,4.9-5.5,3.1-7.9l-1.2-1.8l-0.6-1.2c-2.4,0-3.1,1.2-4.9,1.8c0,1.2-1.2,4.3,0,5.5
				c0,0,0,0,0.6,0.6c0,0,0,0,0.6,0.6l0.6,1.2C2158.6,275.8,2157.4,275.2,2158.6,275.8L2158.6,275.8z"/>
			<path class="st8" d="M2125.6,208.6c2.4,0,1.8,0,3.1-1.2v-0.6c0,0,0,0,0-0.6v1.8h1.8v-4.3c-1.2,0-1.2,0-2.4,0.6l-0.6,1.2v0.6v-1.8
				h-1.8V208.6z"/>
			<path class="st8" d="M2109.8,208.6c2.4,0,1.8,0,3.1-1.2v-0.6c0,0,0,0,0-0.6v1.8h1.8v-4.3c-1.2,0-1.2,0-2.4,0.6l-0.6,1.8v0.6V205
				h-1.8V208.6z"/>
			<polygon class="st8" points="2145.2,208.6 2147,208.6 2147,204.4 2144.6,204.4 			"/>
			<polygon class="st8" points="2106.7,208.6 2109.2,208.6 2109.2,204.4 2106.1,204.4 			"/>
			<polygon class="st8" points="2131.7,208.6 2134.8,208.6 2133.6,204.4 2131.7,204.4 			"/>
			<path class="st9" d="M2371.7,388.2c1.2,1.8-1.2,0.6,2.4,2.4c0.6,0.6,1.8,0.6,2.4,0.6l-0.6-2.4L2371.7,388.2z"/>
			<rect x="2135.4" y="204.4" class="st8" width="1.8" height="4.3"/>
			<rect x="2103.1" y="204.4" class="st8" width="1.8" height="4.3"/>
			<rect x="2119.5" y="204.4" class="st8" width="1.8" height="4.3"/>
			<rect x="2141.5" y="204.4" class="st8" width="1.8" height="4.3"/>
			<rect x="2096.9" y="204.4" class="st8" width="1.8" height="4.3"/>
			<polygon class="st8" points="2100.6,208.6 2102.4,208.6 2101.8,204.4 2100,204.4 			"/>
			<polygon class="st8" points="2116.5,208.6 2118.3,208.6 2117.7,204.4 2115.9,204.4 			"/>
			<polygon class="st8" points="2139.1,208.6 2140.9,208.6 2140.3,204.4 2137.9,204.4 			"/>
			<polygon class="st8" points="2122.6,208.6 2125,208.6 2123.8,204.4 2122,204.4 			"/>
			<rect x="2284.4" y="235.5" class="st8" width="3.1" height="1.8"/>
			<rect x="2300.9" y="235.5" class="st8" width="3.1" height="1.8"/>
			<rect x="2322.9" y="235.5" class="st8" width="3.1" height="1.8"/>
			<rect x="2118.9" y="232.5" class="st8" width="2.4" height="2.4"/>
			<rect x="2112.2" y="232.5" class="st8" width="2.4" height="2.4"/>
			<rect x="2134.8" y="232.5" class="st8" width="2.4" height="2.4"/>
			<rect x="2096.3" y="232.5" class="st8" width="2.4" height="2.4"/>
			<path class="st9" d="M2111,93.3v-3.1C2106.7,90.8,2107.9,92.6,2111,93.3L2111,93.3z"/>
			<rect x="2288.1" y="206.8" class="st8" width="2.4" height="1.8"/>
			<rect x="2285" y="203.8" class="st8" width="2.4" height="1.8"/>
			<rect x="2320.4" y="206.8" class="st8" width="2.4" height="1.8"/>
			<rect x="2304.5" y="206.8" class="st8" width="2.4" height="1.8"/>
			<rect x="2322.9" y="203.8" class="st8" width="2.4" height="1.8"/>
			<rect x="2300.9" y="203.8" class="st8" width="2.4" height="1.8"/>
			<rect x="2147.6" y="232.5" class="st8" width="2.4" height="2.4"/>
			<rect x="2326.5" y="235.5" class="st8" width="2.4" height="1.8"/>
			<rect x="2112.2" y="236.1" class="st8" width="2.4" height="1.8"/>
			<rect x="2106.1" y="236.1" class="st8" width="2.4" height="1.8"/>
			<rect x="2128.7" y="236.1" class="st8" width="2.4" height="1.8"/>
			<rect x="2144.6" y="236.1" class="st8" width="2.4" height="1.8"/>
			<rect x="2319.8" y="235.5" class="st8" width="1.8" height="1.8"/>
			<rect x="2281.9" y="235.5" class="st8" width="1.8" height="1.8"/>
			<rect x="2278.3" y="235.5" class="st8" width="1.8" height="1.8"/>
			<rect x="2316.7" y="235.5" class="st8" width="1.8" height="1.8"/>
			<rect x="2310.6" y="235.5" class="st8" width="1.8" height="1.8"/>
			<rect x="2275.8" y="235.5" class="st8" width="1.8" height="1.8"/>
			<rect x="2297.8" y="235.5" class="st8" width="1.8" height="1.8"/>
			<rect x="2291.7" y="235.5" class="st8" width="1.8" height="1.8"/>
			<rect x="2307.6" y="235.5" class="st8" width="1.8" height="1.8"/>
			<rect x="2303.9" y="235.5" class="st8" width="1.8" height="1.8"/>
			<rect x="2294.2" y="235.5" class="st8" width="1.8" height="1.8"/>
			<rect x="2288.1" y="235.5" class="st8" width="1.8" height="1.8"/>
			<rect x="2313.7" y="235.5" class="st8" width="1.8" height="1.8"/>
			<rect x="2326.5" y="203.8" class="st8" width="1.8" height="1.8"/>
			<rect x="2100" y="232.5" class="st8" width="1.8" height="2.4"/>
			<rect x="2109.8" y="232.5" class="st8" width="1.8" height="2.4"/>
			<rect x="2115.9" y="232.5" class="st8" width="1.8" height="2.4"/>
			<rect x="2122" y="232.5" class="st8" width="1.8" height="2.4"/>
			<rect x="2125.6" y="232.5" class="st8" width="1.8" height="2.4"/>
			<rect x="2131.7" y="232.5" class="st8" width="1.8" height="2.4"/>
			<rect x="2144.6" y="232.5" class="st8" width="1.8" height="2.4"/>
			<rect x="2103.7" y="232.5" class="st8" width="1.8" height="2.4"/>
			<rect x="2128.7" y="232.5" class="st8" width="1.8" height="2.4"/>
			<rect x="2141.5" y="232.5" class="st8" width="1.8" height="2.4"/>
			<rect x="2138.5" y="232.5" class="st8" width="1.8" height="2.4"/>
			<rect x="2106.1" y="232.5" class="st8" width="1.8" height="2.4"/>
			<rect x="2147.6" y="236.1" class="st8" width="2.4" height="1.8"/>
			<rect x="2279.5" y="206.8" class="st8" width="1.8" height="1.8"/>
			<rect x="2297.8" y="203.8" class="st8" width="1.8" height="1.8"/>
			<rect x="2317.4" y="206.8" class="st8" width="1.8" height="1.8"/>
			<rect x="2281.9" y="203.8" class="st8" width="1.8" height="1.8"/>
			<rect x="2295.4" y="206.8" class="st8" width="1.8" height="1.8"/>
			<rect x="2285.6" y="206.8" class="st8" width="1.8" height="1.8"/>
			<rect x="2301.5" y="206.8" class="st8" width="1.8" height="1.8"/>
			<rect x="2307.6" y="206.8" class="st8" width="1.8" height="1.8"/>
			<rect x="2323.5" y="206.8" class="st8" width="1.8" height="1.8"/>
			<rect x="2316.7" y="203.8" class="st8" width="1.8" height="1.8"/>
			<rect x="2313.7" y="203.8" class="st8" width="1.8" height="1.8"/>
			<rect x="2310.6" y="203.8" class="st8" width="1.8" height="1.8"/>
			<rect x="2291.7" y="203.8" class="st8" width="1.8" height="1.8"/>
			<rect x="2294.8" y="203.8" class="st8" width="1.8" height="1.8"/>
			<rect x="2278.3" y="203.8" class="st8" width="1.8" height="1.8"/>
			<rect x="2275.8" y="203.8" class="st8" width="1.8" height="1.8"/>
			<rect x="2281.9" y="206.8" class="st8" width="1.8" height="1.8"/>
			<rect x="2307.6" y="203.8" class="st8" width="1.8" height="1.8"/>
			<rect x="2288.1" y="203.8" class="st8" width="1.8" height="1.8"/>
			<rect x="2304.5" y="203.8" class="st8" width="1.8" height="1.8"/>
			<rect x="2311.3" y="206.8" class="st8" width="1.8" height="1.8"/>
			<rect x="2313.7" y="206.8" class="st8" width="1.8" height="1.8"/>
			<rect x="2291.7" y="206.8" class="st8" width="1.8" height="1.8"/>
			<rect x="2320.4" y="203.8" class="st8" width="1.8" height="1.8"/>
			<rect x="2275.8" y="206.8" class="st8" width="1.8" height="1.8"/>
			<rect x="2297.8" y="206.8" class="st8" width="1.8" height="1.8"/>
			<rect x="2135.4" y="236.1" class="st8" width="1.8" height="1.8"/>
			<rect x="2131.7" y="236.1" class="st8" width="1.8" height="1.8"/>
			<rect x="2125.6" y="236.1" class="st8" width="1.8" height="1.8"/>
			<rect x="2122" y="236.1" class="st8" width="1.8" height="1.8"/>
			<rect x="2103.7" y="236.1" class="st8" width="1.8" height="1.8"/>
			<rect x="2119.5" y="236.1" class="st8" width="1.8" height="1.8"/>
			<rect x="2096.9" y="236.1" class="st8" width="1.8" height="1.8"/>
			<rect x="2115.9" y="236.1" class="st8" width="1.8" height="1.8"/>
			<rect x="2138.5" y="236.1" class="st8" width="1.8" height="1.8"/>
			<rect x="2141.5" y="236.1" class="st8" width="1.8" height="1.8"/>
			<rect x="2100" y="236.1" class="st8" width="1.8" height="1.8"/>
			<rect x="2109.8" y="236.1" class="st8" width="1.8" height="1.8"/>
			<path class="st10" d="M2775.9,210.5c0.6-3.7,25.6-37.2,37.2-16.5C2810.7,203.8,2785,209.9,2775.9,210.5L2775.9,210.5z
				 M2678.8,195.2c1.8-5.5,17.1-15.3,25.6-16.5c1.8,10.4,4.9,14.7-4.3,17.7C2694.7,198.9,2683.7,198.9,2678.8,195.2L2678.8,195.2z
				 M2833.3,113.4c-6.7,4.3-3.1,18.3-1.8,27.5c1.2,9.8,1.2,20.8,2.4,30.5c1.8,28.7,10.4,39.1-22.6,39.7c1.8-11.6,16.5-23.8,0.6-33
				c-14.7-9.2-18.9,11-27.5,14c0-11.6,0-21.4-0.6-33c-2.4-30.5,1.2-12.8,2.4-28.7c-9.8-4.9-5.5-6.1-7.3-15.3c0,0,0-0.6-0.6-1.2
				c0-0.6,0-0.6-0.6-1.2c-2.4,3.1-4.3,9.2-4.9,13.4c-1.8,7.9,0.6,7.9,1.8,14c2.4,11,7.9,54.3,2.4,61.7c-1.8,2.4-6.1,7.9-8.5,8.5
				c-7.9,2.4-6.7-3.7-8.5-7.3c-4.3,1.8-3.7,4.3-9.8,6.7c-13.4,5.5-26.9,3.7-33-10.4c-7.9-18.9-7.3-46.4-12.8-51.3
				c-4.9,6.1-1.8,14-1.2,21.4c-12.2,6.7-33,18.3-31.7,36.6c4.9,3.1,14,4.9,22.6,3.1c9.2-1.8,6.7-8.5,14.7-11.6
				c2.4,11.6,6.7,22,15.9,25.6c15.9,5.5,29.3-5.5,32.4-6.7c3.7,7.9,7.3,7.9,18.9,6.7c9.2-0.6,14,0,23.2,0
				c40.9,0.6,26.9-1.8,39.1-11.6c7.9,11.6,4.3,11.6,22.6,11.6h49.5c8.5-0.6,6.7-3.7,13.4-2.4c15.9,2.4,15.3,3.7,24.4-6.1
				c6.7,3.1,4.9,4.3,15.3,3.7c4.3-8.5,9.2-31.1,0.6-36c-3.7,12.2,6.7,31.1-11.6,22c0-4.9,1.2-5.5,0.6-9.8c-0.6-3.1,0-1.2-1.2-3.1
				c-4.9,3.7-2.4,9.8-7.9,15.3c-3.1,3.1-11,5.5-15.9,1.8c-3.1-3.1,0-3.7-0.6-7.9s1.2,0-1.2-3.1c-4.3,6.1-3.1,12.2-13.4,12.8H2862
				c-10.4,0-15.3,1.8-18.3-7.3C2837.6,187.9,2840,121.9,2833.3,113.4L2833.3,113.4z"/>
			<path class="st10" d="M2488.9,202.5c1.8-4.3,2.4-4.9,6.7-6.1c1.8,3.1,5.5,11,6.1,14.7C2495,209.9,2490.8,206.8,2488.9,202.5
				L2488.9,202.5z M2499.3,184.2c-6.1,1.2-8.5,5.5-11.6,10.4c-3.7,4.9-3.7,11-7.9,13.4c-14,7.9-20.8-4.9-21.4-17.1
				c-0.6-11.6-3.1-73.3-6.1-78.2c-7.9,3.7-1.8,25.6-1.8,33.6c0.6,12.2,1.2,25.6,2.4,37.2c1.2,12.2-0.6,25.6,6.1,33.6
				c11,14,26.3-1.8,26.3-2.4c8.5,6.7,7.9,9.2,24.4,9.2c6.1-6.7,3.1-4.3,15.3-3.1c6.7,0.6,14,0.6,20.8,0.6
				c32.4,0.6,56.2,3.7,80.6-7.9c11.6-5.5,20.1-9.2,22-23.2c-7.9,2.4-13.4,9.2-22,12.2s-29.3-12.2-4.3-24.4c10.4-5.5,12.2,0.6,18.9,0
				c-3.7-11-19.5-18.9-28.7-4.9c-4.3,6.7-10.4,19.5-8.5,28.7c1.2,4.9,3.7,4.3,1.2,6.1c-3.1,3.1-56.8,1.8-65.3,1.8
				C2504.8,210.5,2514.6,208,2499.3,184.2L2499.3,184.2z"/>
			<path class="st10" d="M2584.2,260.5c-1.8,1.2-1.8-1.2-3.1,4.9l3.1,40.9c0.6,6.7,9.2,39.1-18.3,27.5c-2.4-7.9,1.2-7.3-0.6-12.2
				c-7.3,2.4-0.6,7.3-10.4,11c-11.6,4.3-44.6,4.3-57.4,3.7c-34.2-1.8-20.1-36-30.5-51.3c-4.9,6.7,0,9.8-1.8,15.9
				c-6.1,6.1-19.5,7.9-19.5,18.3c6.1-0.6,1.2-0.6,10.4-6.1c3.7-2.4,6.1-3.7,11-4.3l1.8,9.8c-6.7,5.5-16.5,7.9-23.2,2.4
				c-2.4-1.8,0-1.2-1.8-1.2c-2.4,3.7-2.4,4.3-2.4,10.4c25.6,6.7,20.8-3.1,28.7-7.3c7.3,15.3,1.2,22.6,37.9,23.2
				c9.8,0,20.1,0,29.9-0.6c15.3-1.2,13.4-3.1,23.2-7.3l3.1,3.7c3.7,3.7,4.9,5.5,11.6,4.3c8.5-1.2,8.5-6.1,12.8-9.2
				c3.7,7.9,4.9,9.8,15.3,11c7.9,1.2,16.5-0.6,23.2-2.4c7.3-1.8,12.2-4.3,18.9-7.3c10.4-4.3,9.8-2.4,21.4-3.7
				c1.2-2.4,3.1-6.1,3.1-9.8c-17.7-1.2-19.5-1.2-32.4-9.2c-6.7-4.3-9.2-3.7-13.4,1.8c-2.4,3.1-6.7,7.9-7.3,12.2
				c6.1-1.8,4.3-9.2,12.8-6.7c3.1,0.6,11,5.5,12.8,7.3c-3.1,3.1-48.8,20.8-52.5-2.4C2588.4,315.5,2587.2,265.4,2584.2,260.5
				L2584.2,260.5z"/>
			<path class="st10" d="M2388.2,204.4c-9.8-13.4,4.3-26.3-0.6-33c-4.9,10.4-11,28.1-4.9,40.9c5.5,11.6,21.4,15.3,36,8.5
				c34.2-15.3,18.9-65.9,11-69.6c-6.7,12.8,0,15.3,3.7,31.1c3.7,16.5-2.4,20.8-14,26.3C2407.7,213.5,2394.3,212.9,2388.2,204.4
				L2388.2,204.4z"/>
			<path class="st10" d="M2744.1,345.4c14.7-3.7,8.5-36,7.9-48.2c-1.8-26.9,0.6-15.9,2.4-26.3c-3.7-3.1-3.7-1.2-4.9-5.5l-1.2-7.3
				c0-0.6,0-0.6-0.6-1.2c-3.1,4.3-4.9,11-3.7,17.1c1.8,7.3,2.4,10.4,3.1,18.3c1.2,11,3.1,29.3,2.4,39.7c-11,8.5-17.1,2.4-20.1-9.2
				c-3.1-13.4,0-28.7-5.5-32.4c-6.7,20.1,12.2,35.4-12.8,44c-8.5,3.1-11-0.6-14-0.6c-3.7,9.8,1.2,13.4,12.8,10.4
				c6.7-1.8,14.7-11.6,14.7-11.6c0-0.6,0.6-0.6,0.6-0.6c1.2,1.8,0,0,1.2,2.4l4.3,7.3C2735,345.4,2738.6,346.6,2744.1,345.4
				L2744.1,345.4z"/>
			<path class="st10" d="M2888.8,319.8c-7.3,4.9-10.4-3.7-4.3-7.9C2886.4,313.7,2888.8,315.5,2888.8,319.8L2888.8,319.8z
				 M2863.8,308.2c0,0-6.1,0-4.3,7.9c1.2,4.9,11.6,8.5,1.2,23.2c-3.1,4.3-6.7,8.5-11.6,11c-5.5,3.1-11,1.8-14,2.4
				c-4.3,1.2-1.8-0.6-4.3,2.4c28.7,7.9,19.5-1.8,28.7,0.6c11,3.7,20.8,6.7,27.5-3.1c12.8-18.3,12.2-45.2-0.6-51.3
				c-3.7,3.1-8.5,13.4-7.9,21.4c1.8,15.9,14,3.7,14,3.7c0.6,9.8-4.9,15.9-9.8,20.8c-6.7,6.1-11.6,6.7-23.2,6.1
				C2860.1,345.4,2877.2,329.5,2863.8,308.2L2863.8,308.2z"/>
			<path class="st10" d="M2924.3,171.4c-1.8-12.8,3.1-10.4,14.7-12.2c9.2-1.8,14.7-0.6,15.9-9.2c-13.4-0.6-61.7,9.2-79.4,12.8
				c-8.5,1.8-18.3,1.8-17.1,11.6l62.9-12.2c-0.6,7.3-1.8,9.8,0.6,15.9c7.3,3.1,10.4-1.2,10.4-9.2
				C2924.9,169.6,2930.4,170.2,2924.3,171.4L2924.3,171.4z"/>
			<path class="st10" d="M2547.5,151.3c17.1-7.3,27.5,0.6,29.9-12.2c-19.5,0.6-56.2,8.5-77.5,12.8c-11,2.4-17.1,1.2-18.9,11.6
				l62.9-11c-1.2,9.8-3.1,11.6,3.1,17.1c5.5-1.2,7.3-4.9,7.9-11c-5.5,1.2-2.4,2.4-7.3,2.4L2547.5,151.3z"/>
			<path class="st10" d="M2482.2,298.4c5.5-1.2,29.3-19.5,35.4-23.2c11-6.7,31.1-16.5,31.7-23.8c-7.3,0.6-48.8,29.9-60.4,37.9
				C2484.7,292.3,2483.4,292.3,2482.2,298.4L2482.2,298.4z"/>
			<path class="st10" d="M2808.2,357.6c9.8-1.8,19.5-21.4,19.5-32.4c0-6.7-1.2-15.3-7.9-17.1c-8.5,14,12.8,11.6,0,31.1
				c-9.2,14-11.6,11.6-31.1,13.4C2791.2,357.6,2805.2,358.2,2808.2,357.6L2808.2,357.6z"/>
			<path class="st10" d="M2678.2,266.7c-3.7,10.4-1.2,26.3,0,38.5c1.2,12.8,1.2,26.3,2.4,39.7c7.9-2.4,3.1-28.7,2.4-37.9
				c-0.6-6.7-1.2-14-1.2-20.8C2681.3,280.7,2681.9,270.3,2678.2,266.7L2678.2,266.7z"/>
			<path class="st10" d="M2582.3,178.1c9.2-1.2,26.3-18.3,26.9-27.5c0.6-9.2-7.9-11.6-13.4-6.1c-1.8,1.8-4.3,5.5-3.7,9.8
				c0.6,3.7,6.1,6.1,6.1,6.1l0.6,0.6C2594.6,170.8,2583.6,171.4,2582.3,178.1L2582.3,178.1z"/>
			<path class="st10" d="M2763.1,267.3c-1.8,0.6-3.1-2.4-3.1,9.2l4.3,64.7c1.2,7.3-1.2-4.9,0.6,1.8l1.2,1.8
				c2.4-3.1,1.8-3.7,1.8-10.4C2767.9,321.6,2765.5,272.1,2763.1,267.3L2763.1,267.3z"/>
			<path class="st10" d="M2833.9,260.5c-4.3,4.3-2.4,11-1.8,18.9l4.9,58c7.3-3.7,1.8-31.1,1.8-39.1l-3.7-37.2
				C2834.5,261.2,2833.9,261.2,2833.9,260.5L2833.9,260.5z"/>
			<path class="st10" d="M2790.5,299.6v4.9c4.9,0.6,15.9,9.2,11,14l-5.5,3.1l-0.6-0.6c-1.2,2.4,1.8,1.2-2.4,2.4
				c-6.7-1.8-3.1,0-4.9-3.1c0,0,0-0.6-0.6-0.6l-1.8-4.3c-4.3,15.9,1.8,15.3,9.2,15.9l0.6-0.6c0,0.6,5.5-2.4,8.5-11.6
				c0-0.6,0-0.6,0-1.2s0-1.8,0.6-2.4c0.6-3.1,0-6.7,0.6-9.8l-3.1-4.3c-1.8,0-1.8,0.6-1.2-1.2c-2.4,0.6-1.8,0.6-1.2-1.2
				c-2.4,0.6-1.8,1.2-1.2-1.2c-2.4,0.6-1.8,1.2-1.8-1.2c-3.7-1.8-0.6-0.6-4.9-1.8C2792.4,298.4,2793,298.4,2790.5,299.6
				L2790.5,299.6z"/>
			<path class="st10" d="M2710.6,136c3.7-2.4,5.5-5.5,6.7-9.8c-2.4-2.4-4.3-5.5-7.9-7.3l-6.1,7.3c-4.3-3.1-2.4-3.7-7.9-5.5
				l-6.1,10.4l7.3,6.7c3.7-2.4,3.1-3.7,6.1-7.3C2708.1,132.3,2706.3,133.6,2710.6,136L2710.6,136z"/>
			<path class="st10" d="M2466.9,149.4c6.7-1.2,17.7-5.5,24.4-7.9c14-4.3,19.5-3.7,19.5-11c-5.5,0-18.9,4.3-24.4,6.1
				C2471.8,142.1,2467.6,141.5,2466.9,149.4L2466.9,149.4z"/>
			<path class="st10" d="M2723.4,147.6c6.1-0.6,17.1-5.5,23.8-7.3c15.3-4.3,20.1-3.7,20.1-11.6c-6.1,0.6-18.9,4.9-25,6.7
				C2733.8,138.4,2724.6,138.4,2723.4,147.6L2723.4,147.6z"/>
			<path class="st10" d="M2664.8,279.5c6.7,0.6,2.4-6.7-1.2-8.5c-4.9,3.7-5.5,7.3-6.1,15.9c-3.7-3.1-2.4-2.4-4.3-6.7
				c-4.3-10.4-10.4-4.3-9.2,1.2c1.2,3.7,3.1,2.4,6.1,3.7c1.2,4.3,2.4,4.9,3.1,9.2c1.2,5.5-1.2,5.5,3.7,6.7l4.3-20.8L2664.8,279.5z"
				/>
			<path class="st10" d="M2490.8,279.5c3.7-1.8,4.9-13.4,6.7-22.6l6.1,1.8c0-6.1,0-6.7-3.7-9.2c-4.9,3.7-4.9,8.5-6.7,14.7
				c-6.7-6.7-1.8-10.4-11-11l-0.6,7.9c3.1,1.8,4.3,1.2,6.7,3.1c0.6,3.1,1.2,5.5,2.4,8.5C2490.1,275.2,2490.1,277,2490.8,279.5
				L2490.8,279.5z"/>
			<path class="st10" d="M2398,105.5c0.6,2.4,1.2,1.8-1.2,1.2c0.6,2.4,1.2,2.4-0.6,1.8c0.6,2.4,1.2,1.8-1.2,1.2l-2.4,1.8
				c0.6,2.4,1.2,1.8-0.6,1.8c0.6,2.4,1.8,2.4-0.6,1.8c0.6,1.8,1.2,1.8-1.2,1.2l0.6,1.8c1.2-0.6,0,0,1.8-1.2c0.6,0,1.8-1.2,1.8-1.8
				c3.1-1.8,2.4-1.2,6.7-1.8l5.5,0.6v3.7c0,0-0.6,0.6-0.6,1.2c0.6,2.4,0.6,1.8-1.8,0.6c0.6,1.8,0.6,1.2-1.8,0.6l-1.8,0.6
				c0,1.8,0.6,1.2-1.2,1.2l-3.1,4.9c0,0-0.6,0.6-0.6,1.2c2.4-0.6,3.7-1.2,7.3-2.4l1.8-0.6c0-1.8-0.6-1.8,1.2-1.2l1.8-1.8
				c-0.6-2.4-1.2-1.8,1.2-1.2c-0.6-2.4-1.2-1.8,1.2-1.2c-0.6-1.8-0.6-1.2,1.2-1.2l1.8-10.4l-2.4-1.2l-12.2-2.4
				C2399.2,106.1,2399.8,106.1,2398,105.5L2398,105.5z"/>
			<path class="st10" d="M2847.3,154.3c-2.4-1.2-2.4-1.8-1.8,0.6c-2.4-0.6-1.8-1.2-1.2,1.2c-0.6,0.6-0.6,0-1.2,2.4
				c-0.6,1.8,0,0.6,0,2.4c5.5,0,2.4-0.6,3.7-1.2c4.9,0.6,1.8,0.6,3.1-0.6c5.5,0.6,1.8,0.6,3.1-1.2c-5.5,0-2.4,0-3.1,1.2l-3.1,0.6
				h-2.4l0.6-3.7c2.4,0.6,1.8,0.6,1.2-1.2C2847.9,155.5,2847.9,156.8,2847.3,154.3c6.1,0,18.3-4.9,22.6-7.3l3.7-1.2l4.9-1.2
				c6.1,1.2,1.8,0.6,3.7-1.8c-6.1,0-3.1-0.6-3.7,1.8c-0.6,0-5.5-1.2-4.9,1.2c-1.2,0-4.3-1.2-3.7,1.2c-6.7,0-12.2,3.1-18.9,4.3
				c1.8-5.5,2.4-14-0.6-20.8c-1.8-3.7-1.8-3.1-3.7-4.3c-6.7,4.3-2.4,5.5,0,11.6c1.2,4.3,1.2,5.5,1.2,9.8
				C2848.5,153.1,2849.8,149.4,2847.3,154.3L2847.3,154.3z"/>
			<path class="st10" d="M2879.1,143.9l-4.9,1.2l-3.7,1.2c-4.3,2.4-17.1,7.3-22.6,7.3c0.6,2.4,0.6,1.8-1.8,0.6
				c0.6,2.4,1.2,1.8-1.2,1.2l-0.6,3.7h2.4l3.1-0.6c0.6-1.2-2.4-1.2,3.1-1.2c6.7-1.8,12.8-4.3,18.3-6.1c12.8-3.7,14-2.4,16.5-7.9
				c-1.8-1.2-1.8-1.8-5.5-1.2C2880.9,144.5,2885.2,145.2,2879.1,143.9L2879.1,143.9z"/>
			<path class="st10" d="M2796,321l5.5-3.1c4.9-4.3-6.1-13.4-11-14V299c1.8-1.2,1.2-1.2,1.8-4.9c4.3,1.2,1.2,0,4.9,1.8
				c-0.6,2.4-0.6,1.8,1.8,1.2c-0.6,1.8-0.6,1.2,1.2,1.2c-0.6,2.4-0.6,1.8,1.2,1.2c-0.6,1.8-0.6,1.2,1.2,1.2l3.1,4.3
				c0,3.1,0,6.7-0.6,9.8c0,0.6,0,1.8-0.6,2.4c0,0.6,0,0.6,0,1.2c-2.4,9.8-7.9,12.2-8.5,11.6l-0.6,0.6c-7.3-0.6-12.8,0-9.2-15.9
				l1.8,4.3c0,0,0,0.6,0.6,0.6c1.8,3.1-1.8,1.2,4.9,3.1C2797.9,321.6,2794.8,323.4,2796,321c-6.1,0-7.3,0.6-6.7-4.3
				c0-4.3,1.8-7.9,2.4-11c6.1,2.4,8.5,4.9,9.8,10.4c-1.8,1.8,0,0-2.4,2.4l-0.6,0.6L2796,321z M2790.5,299.6l-4.9,12.8
				c-6.1,20.1,4.3,22.6,9.8,18.3c4.9-0.6,7.3-4.3,9.8-9.2c1.2-3.1,3.1-8.5,1.8-12.8c-0.6-4.3-0.6-2.4-1.8-3.7l-3.1-4.3
				c0.6-2.4,0.6-1.8-1.2-1.2c0.6-2.4,0.6-1.8-1.2-1.2c0.6-2.4,0.6-1.8-1.2-1.2c0.6-2.4,0.6-1.8-1.8-1.2c-0.6-1.2,1.2-1.2-2.4-2.4
				c-4.9-1.8-1.8,0-2.4,0.6c-0.6,0.6-0.6,0.6-1.2,2.4v1.2C2790.5,298.4,2790.5,299,2790.5,299.6L2790.5,299.6z"/>
			<path class="st10" d="M2802.8,285c4.3-5.5,6.7-8.5-1.8-12.8c-4.3,3.1-1.2,2.4-4.9,5.5c-4.3-1.8-1.8-1.8-6.7-3.7
				c-2.4,3.1-3.7,3.7-4.3,9.2c3.1,1.8,2.4,1.8,6.1,3.7l4.9-5.5C2800.9,283.1,2797.3,283.1,2802.8,285L2802.8,285z"/>
			<path class="st10" d="M2507.9,374.1c5.5-1.8,1.2-1.8,6.1-4.9c3.1,2.4,1.8,1.8,4.9,3.7c5.5-4.3,5.5-6.1,1.8-12.2
				c-6.7,0.6-3.7-0.6-7.3,4.9c-4.9-3.1,0-2.4-7.9-3.7c-1.2,3.7-2.4,3.7-3.1,8.5L2507.9,374.1z"/>
			<path class="st10" d="M2462.7,277.6c2.4-1.8,4.3-4.3,4.9-7.9c-2.4-3.1-2.4-3.7-6.7-4.9l-3.1,5.5c-6.1-1.8-2.4-0.6-7.3-4.3
				l-5.5,7.3c1.8,2.4,3.7,4.9,7.3,6.1l2.4-5.5C2462.1,275.2,2458.4,274.6,2462.7,277.6L2462.7,277.6z"/>
			<path class="st10" d="M2545.1,283.1c-1.8-7.9-3.1-6.7-5.5-7.9c-1.8,6.1,2.4,11,2.4,19.5c0,9.8-3.7,12.2-4.9,19.5
				c1.8-1.2,2.4-0.6,4.3-4.3C2544.5,303.3,2546.9,291.1,2545.1,283.1L2545.1,283.1z"/>
			<path class="st10" d="M2389.4,151.3c1.8-4.3,5.5-8.5,6.7-12.2c-3.7,0.6-3.1,0.6-5.5,4.3c-5.5,7.9-10.4,25,0,22
				c3.7-1.2,4.3-6.1,3.7-9.8l-4.9-3.1C2390,151.3,2390,151.3,2389.4,151.3L2389.4,151.3z"/>
			<path class="st10" d="M2408.9,124.4c-3.1,2.4-5.5,6.1-6.7,11c3.1,2.4,3.7,4.3,7.9,6.1C2416.9,135.4,2419.9,128.7,2408.9,124.4
				L2408.9,124.4z"/>
			<path class="st10" d="M2524.3,302.7c3.7-3.7,4.3-7.3,2.4-12.8c-6.1,0.6-1.2,3.7-3.7,9.2l-0.6-0.6l-1.8-2.4
				c-1.2-1.8,0-0.6-1.8-1.8l-1.8,7.9c-3.1-1.2-0.6,0-2.4-2.4c-1.8-2.4,0.6-1.2-1.8-2.4c-1.8,3.7-1.8,7.3,0,11
				C2515.8,307.6,2522.5,304.5,2524.3,302.7L2524.3,302.7z"/>
			<path class="st10" d="M2749.6,167.1c3.7-1.8,6.1-5.5,7.3-9.8l-7.3-7.3c-3.7,1.8-6.7,6.7-7.3,11L2749.6,167.1z"/>
			<path class="st10" d="M2737.4,308.8c-1.2-10.4,2.4-15.3,1.8-22c-6.1,3.1-9.2,22.6-3.7,29.3c5.5-1.2,6.1-4.3,6.7-10.4
				L2737.4,308.8z"/>
			<path class="st10" d="M2625.7,363.1c4.3-0.6,9.2-5.5,13.4-7.9c5.5-3.7,9.8-4.3,10.4-11c-4.3,0.6-9.8,5.5-13.4,7.9
				C2630.6,355.2,2626.3,356.4,2625.7,363.1L2625.7,363.1z"/>
			<path class="st10" d="M2470,126.2c1.8,4.9,0.6,9.2,1.8,12.8c4.3-4.3,4.3-20.8-2.4-23.8C2464.5,120.1,2468.2,120.7,2470,126.2
				L2470,126.2z"/>
			<path class="st10" d="M2805.8,145.2c-1.2-11-4.9-8.5-6.1-9.2c-1.8,6.7,0.6,4.9,2.4,11c1.2,4.9,0,8.5,1.8,12.2l1.8-6.1
				C2806.4,150.6,2806.4,147,2805.8,145.2L2805.8,145.2z"/>
			<path class="st10" d="M2849.2,298.4c3.7-3.1,4.3-3.7,4.3-9.2c-4.3-2.4-1.2-1.8-6.1-3.7c-1.8,3.1-3.1,4.3-4.3,8.5L2849.2,298.4z"
				/>
			<path class="st10" d="M2718.5,281.9c3.7-0.6,7.3-4.3,10.4-6.1c4.3-2.4,6.7-2.4,7.3-7.9C2734.4,267.9,2718.5,274,2718.5,281.9
				L2718.5,281.9z"/>
			<path class="st10" d="M2622,302.7c7.9-4.9,5.5-11-1.2-12.8c-2.4,3.1-3.7,4.3-4.3,9.2L2622,302.7z"/>
			<path class="st10" d="M2876,298.4c0.6,0,17.7-7.3,18.3-14.7c-4.3,0.6-7.9,3.7-11,5.5C2879.1,291.7,2876.6,292.9,2876,298.4
				L2876,298.4z"/>
			<path class="st10" d="M2712.4,279.5c-2.4-3.7-0.6-1.2-4.3-3.1c-2.4,4.3,0,4.9,1.8,9.2c1.2,4.3,0,6.7,3.1,10.4
				C2713.6,292.9,2714.8,283.1,2712.4,279.5L2712.4,279.5z"/>
		</g>
		<g>
			<g>
				<path class="st11" d="M3198.9,128.8c2.8,6.1,10.3,13.1,15.9,18.2c5.6,5.1,10.8,12.2,15.4,18.2c14.5-7,33.2-29.9,73.9-21
					c54.3,11.7,81.9,69.7,52.9,118.3c-13.1,21-36,36.5-61.3,38.4l2.8,0.9c10.3,2.3-10.3-0.9,3.3,0.5l17.3-0.9
					c67.8-13.1,88.9-73.9,100.6-78.1c0-38.8-13.6-67.8-41.2-95c-31.3-30.9-74.4-39.8-117.4-33.7
					C3241,97.4,3206.8,115.2,3198.9,128.8L3198.9,128.8z"/>
			</g>
			<g>
				<path class="st10" d="M3208.2,324.3V223.7c0-36.5,18.2-48.2,22-58.9c-15.4-19.2-16.4-18.2-26.7-42.1
					c-37.9,24.3-46.8,97.8-46.8,135.6c0,29.9-9.4,87,19.6,93.5h12.2c0.5,0,1.4,0,1.9-0.5c5.1-0.9,8.9-4.7,12.6-8.4
					C3208.2,337.4,3208.2,335,3208.2,324.3L3208.2,324.3z"/>
			</g>
			<g>
				<path class="st12" d="M3208.2,324.3c22.5,25.3,79,31.8,107.1,24.3c12.6-3.3,22.9-6.5,34.1-11.7c8.4-4.2,19.2-12.2,26.7-19.2
					c8.4-8,14.5-15,22-23.9c11.2-15,22.5-44.4,22.5-70.2c-13.1,5.1-60.8,78.6-124.4,77.6c-19.2-0.5-40.2-1.4-61.3-20.6
					c-5.6-5.1-14.5-16.8-17.8-24.3c-4.2-9.4-8.4-19.6-8.4-32.3v100.1H3208.2z"/>
			</g>
			<g>
				<path class="st10" d="M3908.4,161.5c0-10.3,15.4-10.3,15.4,0C3923.4,171.3,3908.4,171.3,3908.4,161.5L3908.4,161.5z
					 M3770.9,161.5c0-10.3,15.4-10.3,15.4,0C3786.4,171.3,3770.9,171.3,3770.9,161.5L3770.9,161.5z M3847.2,144.2
					c16.8-24.8,28.1-22.5,19.2-36c-9.8,2.8-40.7,40.2-42.1,45.8c8.9,0,14-1.9,17.8,3.7c8.9,14-15.9,11.7-21.5,11.7
					c0-22,2.3-23.4-7.5-28.5c-8,7.5-5.6,10.8-5.6,28.5c-15.4-0.5-6.5-3.7-10.8-15.9c-5.1-14-37-18.2-37,10.3
					c0,25.3,30.9,15.9,30.9,15.9c9.8-0.5-0.5,4.2,20.1,0.5c9.4-1.9,11.7,2.8,22,2.8c7,0,10.8-3.7,15.4-3.7c5.6,0,5.1,3.7,13.1,3.7
					c9.4,0,7-1.9,14-2.8c8.4-0.9,6.5,2.8,12.6,2.8c9.4,0,7-1.9,14-2.8c7.5-0.9,9.4,2.8,14.5,2.8c10.3,0,6.1-7,17.3-2.3
					c14.5,5.6,8.4,0,17.3-0.9c6.1-0.5,7,3.3,9.4,3.3c25.3,0,19.2-28.1,19.2-60.8c0-4.2-1.4-4.2-3.7-7.5c-14.5,3.7-9.4,18.7-9.4,55.2
					c-17.8-0.5-3.3-12.6-7.5-45.8c-0.9-7.5-2.8-8-9.4-9.4c-2.3,3.3-3.7,3.3-3.7,7.5V169c-20.6-0.5,0-15.4-19.2-24.8
					c-5.1-2.3-23.9-1.9-25.7-0.9c-7,3.3-4.7,9.8-4.7,25.7h-11.2c0-36.5,5.1-51.5-9.4-55.2c-6.1,8.9-3.7,12.6-3.7,28.5
					c0,18.2,4.2,26.7-9.8,26.7c-7.5,0-4.7-6.1-6.1-12.6C3852.8,148.9,3850.9,149.8,3847.2,144.2L3847.2,144.2z"/>
			</g>
			<g>
				<path class="st10" d="M4322.4,155.4l17.3,13.6h-17.3V155.4z M4272.8,161.5c0-10.3,15.4-10.3,15.4,0
					C4287.8,171.3,4272.8,171.3,4272.8,161.5L4272.8,161.5z M4400.5,153.6c8,0,13.1,15.4,0,15.4
					C4391.1,169,4391.1,153.6,4400.5,153.6L4400.5,153.6z M4341.1,154l17.8-0.5c-2.8,4.2-5.6,4.7-9.4,7.5L4341.1,154z M4492.2,169
					c-13.6-0.9-3.7-5.1-10.3-16.4c-7.5-13.1-22.5-10.3-39.3-10.3c-15,0-24.3,24.8-11.2,24.8c10.8,0-0.5-13.6,17.3-13.6
					s24.8-2.3,24.8,15.4c-78.1,0-39.3,0.9-56.6-19.6c-7-8.4-11.7-6.5-25.3-6.5c-0.5,0-0.9,0-1.4,0c-7,0-8.4-2.3-8,15
					c0,15.9-4.7,11.2-21,11.2c3.3-4.7,8.4-6.5,13.1-12.2c16.8-20.1-22.5-15-43.5-15c-8.9,0,0.9,2.8-7.5,2.8
					c-4.2,0-13.6-11.2-13.6,8.4c0,10.3,2.3,10.8-3.7,15.4c-10.8-2.8-2.8-6.5-7.5-17.3c-12.2-25.7-58,5.1-28.1,26.2
					c2.8,1.9,6.1,3.3,9.8,3.7c8,0.9,8.4-3.3,10.8-3.3c8.4,0,2.8,1.4,10.8,2.8c6.1,0.9,3.7,0,11.2-1.4c8.9-1.4,11.2,2.8,25.7,2.8
					c8.4,0,3.7-1.9,10.3-2.8c9.4-1.4,2.8,2.8,10.8,2.8c11.2,0,15.9,0.9,24.8-2.3c9.4-3.7-0.5-4.2,9.4-0.9
					c17.8,6.1,11.2-0.5,21.5-0.5c7.5,0-0.5,4.2,26.7,3.7c4.2,0,10.3-0.5,13.6-0.5c1.9,0,7.5,0.9,13.1,0.5c8.4-0.5,6.5-1.9,13.6-1.9
					c0,0,26.7,5.6,26.7-17.3c0-15.9,4.2-51.9-8.4-48.2c-6.5,1.9-5.1,8-4.7,15.9C4494,142.3,4495.9,160.6,4492.2,169L4492.2,169z"/>
			</g>
			<g>
				<path class="st10" d="M4192.4,169c1.9-2.3,14.5-13.6,17.3-15.4C4209.7,171.8,4210.6,169,4192.4,169L4192.4,169z M4125.9,161.5
					c0-10.3,15.4-10.3,15.4,0C4140.9,171.3,4125.9,171.3,4125.9,161.5L4125.9,161.5z M4173.6,153.6h17.3c-4.2,6.1-3.3,1.4-7.5,7.5
					C4178.8,158.7,4176.4,157.8,4173.6,153.6L4173.6,153.6z M4087.6,125c0,21.5-5.6,57.1,19.2,57.1c6.5,0,11.7-3.7,14-4.2
					c3.7-0.5-0.5-0.9,6.1,1.4c15,5.6,12.6-1.9,20.1-1.4c8,0-1.9,4.2,23.4,4.2c7.5,0,6.5-2.8,11.7-3.3c1.9,0,25.7,9.4,36.5-3.7
					c6.1-7,2.3-29.9,3.3-46.3c0.5-8.4,2.3-12.6-8-15.4c-6.1,9.4-3.7,15.4-3.7,32.3c-10.3-7-24.3-3.7-47.7-3.7
					c-5.6,0-14,7.5-0.9,18.2l10.3,8.9h-17.3c-1.9-7.5-0.9-14.5-5.1-19.6c-7-8.4-14.5-6.5-25.3-6.5c-0.5,0-0.9,0-1.4,0
					c-7,0-7-0.9-8,5.1c-3.3,15.4,8.9,21-13.6,21v-47.7c0-4.2-1.4-4.2-3.7-7.5C4090.4,115.2,4087.6,116.6,4087.6,125L4087.6,125z"/>
			</g>
			<g>
				<path class="st10" d="M3692.8,169h-9.4c-7.5,0-10.3-10.8-2.8-14C3690,150.3,3692.3,160.6,3692.8,169L3692.8,169z M3622.2,153.6
					c32.3,0,16.8,15.4,11.2,15.4c-27.6,0-8-7-18.7-21.5c-5.6-7.5-12.6-8.4-17.8-1.4c5.1,18.7,9.4-8.4,9.4,28.5
					c0,9.8-6.1,14.5-15.4,15.4c-1.4-5.6-0.9-3.3-3.7-7.5c-8.4,2.3-4.7,5.1-10.3,4.2c-2.8-0.5-0.5-6.5-12.6,1.9
					c1.9,7,1.9,4.2,5.6,9.4c7-1.9,4.2-1.9,9.8-5.6c1.4,1.9,0.5,1.4,2.8,3.3l8,3.7c4.7,2.3-3.3,2.8,4.7,2.8c12.2,0,20.6-10.3,22.9-21
					c15,7,22-4.7,30.4-1.9c4.7,1.4,4.2,3.7,11.2,3.7c41.6,0,59.4,5.6,59.4-22.9c0-14.5,0-29.5,0-44c-25.7-6.1-1.4,43.5-15.4,53.3
					c0-41.2-40.2-28.1-40.2-9.4c0,5.1,0.9,5.1,1.9,9.4H3654c0-16.4-1.9-13.6-9.4-24.8c13.6-20.6,31.3-24.8,19.2-36
					C3656.3,110.1,3623.1,149.4,3622.2,153.6L3622.2,153.6z"/>
			</g>
			<g>
				<path class="st10" d="M3461.8,113.8v215.6c0,8,13.1,8,13.1,0V113.8C3475.3,105.4,3461.8,105.4,3461.8,113.8L3461.8,113.8z"/>
			</g>
			<g>
				<path class="st10" d="M4011.3,161.5c0-10.3,15.4-10.3,15.4,0C4026.3,171.3,4011.3,171.3,4011.3,161.5L4011.3,161.5z
					 M4083.8,155.4c0-6.5-1.4-7.5-1.9-13.1h-9.4c-3.3,13.1-1.9,11.2-1.9,26.7h-9.4c0-15.4,0.9-13.6-1.9-26.7h-9.4
					c-2.8,13.1-1.9,11.2-1.9,26.7c-15.4-0.5-5.6-2.3-10.3-14.5c-8.9-23.4-45.8-10.3-37.4,12.6c7.5,21,25.7,13.1,29.5,12.6
					c8.9-1.4,7,3.3,16.8,1.4C4066.1,177,4083.8,191.5,4083.8,155.4L4083.8,155.4z"/>
			</g>
			<g>
				<path class="st10" d="M3148.8,102.1c0,25.7,31.3,32.7,45.4,16.8s2.8-39.8-22.5-39.8C3161,79.2,3148.8,91.8,3148.8,102.1
					L3148.8,102.1z"/>
			</g>
			<g>
				<path class="st10" d="M3541.7,153.6c4.7,0,7.5,3.3,7.5,7.5s-3.3,7.5-7.5,7.5C3531,169,3533.3,153.6,3541.7,153.6L3541.7,153.6z
					 M3523,161.5c0,8.9,4.2,14.5,10.8,17.8c13.6,6.5,12.2-0.9,21.5-0.9c8.4,0-0.5,4.7,21,1.9c7.5-0.9,5.1,0.9,10.3-3.3
					c7.5-6.1,5.1-13.6,5.1-29.5c0-4.2-1.4-5.6-5.6-5.6c-14,0,2.8,26.7-11.2,26.7h-11.2C3562.8,131.1,3523,137.2,3523,161.5
					L3523,161.5z"/>
			</g>
			<g>
				<path class="st10" d="M4225.1,125c0,26.7-4.2,48.2,5.6,57.1c5.1-2.8,7.5-3.3,7.5-11.2v-49.6
					C4238.2,113.3,4225.1,110.1,4225.1,125L4225.1,125z"/>
			</g>
			<g>
				<path class="st10" d="M3723.2,125v45.8c0,8.4,2.3,8.4,7.5,11.2c9.8-9.4,5.6-30.9,5.6-57.1c0-8.4-2.8-9.8-9.4-11.2
					C3725.1,117.5,3723.2,119.4,3723.2,125L3723.2,125z"/>
			</g>
			<g>
				<path class="st10" d="M4511.3,180.7c7,1.4,10.3,0,11.2-5.1v-54.3c0-5.1-2.8-5.6-5.6-7.5c-8.9,6.1-5.6,8.9-5.6,30.4
					C4511.3,156.4,4511.3,168.5,4511.3,180.7L4511.3,180.7z"/>
			</g>
			<g>
				<path class="st10" d="M4005.7,125c0,12.6,12.2,5.1,12.2,5.1c0.9,0,14.5,6.5,14.5-2.8c0-12.6-12.2-5.1-12.2-4.7
					C4018.8,122.2,4005.7,115.7,4005.7,125L4005.7,125z"/>
			</g>
			<g>
				<path class="st10" d="M4266.7,126.9c0,1.9,4.2,5.6,5.6,5.6c7,0,0.9-1.9,6.5-2.8c0.9,0,14.5,6.5,14.5-2.8
					c0-12.6-11.2-4.7-14.5-5.1c-5.1-0.9,0.5-2.3-10.3-2.8C4267.7,124.6,4266.7,123.2,4266.7,126.9L4266.7,126.9z"/>
			</g>
			<g>
				<path class="st10" d="M3528.6,123.2c4.2,16.8,10.3,7,15.4,3.7c1.4,6.1,0.5,5.6,7.5,5.6c1.9-2.3,9.4-13.6-1.9-13.6
					c-8.4,0,0,1.9-6.1,2.3C3539.9,122.2,3537.1,115.2,3528.6,123.2L3528.6,123.2z"/>
			</g>
			<g>
				<path class="st10" d="M4039.9,188.2c1.9,7,1.9,4.2,5.6,9.4c6.5-1.9,4.2-0.9,7.5-5.6c5.6,3.7,2.3,3.7,9.4,5.6
					c3.7-5.6,3.7-2.8,5.6-9.4c-12.6-8.4-9.4-1.9-14-1.4c-3.7,0.5,0.9,0.9-3.3-0.5c-5.6-1.9,5.1-1.9-4.2-1.9
					C4044.5,184.4,4041.3,186.8,4039.9,188.2L4039.9,188.2z"/>
			</g>
			<g>
				<path class="st10" d="M3765.3,125c0,4.7,8,14.5,11.2,1.9c8,5.1,3.7,5.6,11.2,5.6c8.4-11.7-1.4-13.6-1.9-13.6
					c-7,0-0.9,1.9-6.5,2.8C3778.4,122.2,3765.3,115.7,3765.3,125L3765.3,125z"/>
			</g>
			<g>
				<path class="st10" d="M3799.5,188.2c1.9,7,1.9,4.2,5.6,9.4c6.5-1.9,4.2-0.9,7.5-5.6c5.6,3.7,2.8,3.7,9.4,5.6
					c1.9-2.3,9.4-13.6-1.9-13.6c-9.4,0,2.3,5.1-9.4,1.9c-5.6-1.9,5.1-1.9-4.2-1.9C3804.1,184.4,3800.9,186.8,3799.5,188.2
					L3799.5,188.2z"/>
			</g>
			<g>
				<path class="st10" d="M4301.3,188.2l5.6,9.4c6.5-1.9,4.2-0.9,7.5-5.6c5.6,3.7,2.3,3.7,9.4,5.6c1.9-2.3,9.4-13.6-1.9-13.6
					c-8.4,0,0,1.9-6.1,2.3c-3.7,0.5,0.9,0.9-3.3-0.5c-5.6-1.9,5.1-1.9-4.2-1.9C4306,184.4,4302.7,186.8,4301.3,188.2L4301.3,188.2z"
					/>
			</g>
			<g>
				<path class="st10" d="M4448.2,190c0,4.2,0.5,2.3,1.9,7.5h9.4c0.9-4.2,3.7-13.6-3.7-13.6C4451.9,184.4,4448.2,187.7,4448.2,190
					L4448.2,190z"/>
			</g>
			<g>
				<path class="st10" d="M3677.4,125c0,10.8,13.6,8,13.6,1.9C3690.9,116.1,3677.4,119,3677.4,125L3677.4,125z"/>
			</g>
			<g>
				<path class="st10" d="M4070.3,131.1c5.6,1.4,11.2,5.6,11.2-5.6C4082,119,4070.3,111.9,4070.3,131.1L4070.3,131.1z"/>
			</g>
			<g>
				<path class="st13" d="M3526.8,266.8h30.4v8.9h-9.8v39.3h-10.8v-39.3h-9.8V266.8z"/>
			</g>
			<g>
				<path class="st13" d="M3555.8,266.8h9.8v16.4c1.9-2.8,4.7-4.7,8.9-4.7c2.3,0,4.2,0.5,5.6,1.9c1.4,0.9,2.3,2.8,2.8,4.2
					c0.5,1.9,0.5,4.2,0.5,7.5v22.9h-9.8V292c0-2.3,0-3.7-0.5-4.7c-0.5-0.9-1.4-0.9-2.8-0.9c-1.4,0-2.3,0.5-3.3,0.9s-1.4,2.3-1.4,5.1
					v22.9h-9.8V266.8z"/>
			</g>
			<g>
				<path class="st13" d="M3613.8,299h-18.7v1.9c0,3.3,0.5,5.1,1.4,6.5c0.9,0.9,1.9,1.4,3.3,1.4c3.3,0,4.7-1.9,5.1-6.1l8.9,0.5
					c-1.4,8.4-6.5,12.6-14,12.6c-4.7,0-8.4-1.9-11.2-5.1c-2.3-3.3-3.7-7.5-3.7-13.1c0-6.1,1.4-10.8,4.2-14.5
					c2.8-3.3,6.1-5.1,10.8-5.1c4.2,0,7.5,1.4,10.3,4.2C3612.4,285.9,3613.8,291.5,3613.8,299z M3604.4,293.4c0-0.5,0-0.9,0-0.9
					c0-4.7-1.4-7-4.7-7s-4.7,2.8-4.7,8H3604.4z"/>
			</g>
			<g>
				<path class="st13" d="M3662.9,291.1c0,16.8-6.1,25.3-17.8,25.3c-5.6,0-10.3-2.3-13.1-6.5c-2.8-4.2-4.7-10.3-4.7-18.7
					c0-16.8,6.1-24.8,17.8-24.8c5.6,0,10.3,1.9,13.1,6.1C3661.5,276.6,3662.9,282.7,3662.9,291.1z M3651.7,291.1
					c0-6.5-0.5-10.8-1.4-13.1c-0.9-2.3-2.8-3.3-4.7-3.3c-2.3,0-3.7,0.9-4.7,3.3c-0.9,2.3-1.4,6.5-1.4,13.1s0.5,10.8,1.4,13.1
					c0.9,2.3,2.8,3.3,4.7,3.3c2.3,0,3.7-0.9,4.7-3.3C3651.2,302.3,3651.7,297.6,3651.7,291.1z"/>
			</g>
			<g>
				<path class="st13" d="M3665.2,279.4h9.4v4.7c1.9-3.7,4.7-5.6,8.9-5.6c4.2,0,7,1.9,8,5.6c1.4-3.7,4.7-5.6,8.9-5.6
					c2.3,0,4.2,0.5,5.6,1.4c1.4,0.9,2.3,1.9,2.8,3.3c0.5,1.4,0.9,4.2,0.9,8.4v23.4h-9.8v-22.5c0-2.8,0-4.2-0.5-5.1
					c-0.5-0.9-1.4-1.4-2.3-1.4c-1.4,0-2.8,0.5-3.3,1.4c-0.5,0.9-0.9,3.3-0.9,6.5v21h-9.8V292c0-2.3,0-4.2-0.5-5.1
					c-0.5-0.9-1.4-0.9-2.3-0.9c-1.4,0-2.8,0.5-3.3,1.9c-0.5,0.9-0.9,3.3-0.9,6.1v21h-9.8v-35.5H3665.2z"/>
			</g>
			<g>
				<path class="st13" d="M3719.9,291.1l-9.4-0.9c0.5-3.7,1.9-6.5,4.7-8.4s6.1-2.8,9.8-2.8c3.3,0,6.1,0.5,8,1.9s3.3,2.8,3.7,4.7
					s0.9,4.2,0.9,8v14.5c0,4.7,0,7,0.5,8h-9.4c-0.5-0.9-0.5-2.8-0.5-5.6c-2.3,4.2-5.6,6.1-9.8,6.1c-2.8,0-5.1-0.9-7-2.3
					c-1.9-1.9-2.8-4.2-2.8-7.5c0-4.2,1.4-7,4.2-9.4c2.8-2.3,7.5-3.3,14.5-3.7V292c0-2.3-0.5-4.2-0.9-5.1c-0.5-0.9-1.4-1.4-2.8-1.4
					C3721.8,285.5,3720.4,287.3,3719.9,291.1z M3727.9,298.1c-2.8,0.5-5.1,0.9-6.1,1.9c-1.4,0.9-1.9,2.3-1.9,4.7
					c0,2.8,0.9,4.7,3.3,4.7c1.4,0,2.3-0.5,3.3-1.9c0.9-1.4,1.4-3.7,1.4-7.5V298.1z"/>
			</g>
			<g>
				<path class="st13" d="M3741,279.4h9.4v4.7c1.9-3.7,4.7-5.6,8.9-5.6c2.3,0,4.2,0.5,5.6,1.4c1.4,0.9,2.3,2.3,2.8,4.2
					c0.5,1.4,0.5,4.2,0.5,7.5v23.4h-9.8v-23.4c0-2.3-0.5-3.7-0.9-4.7c-0.5-0.9-1.4-0.9-2.3-0.9c-1.9,0-2.8,0.5-3.7,1.9
					c-0.5,0.9-0.9,3.3-0.9,6.1v21h-9.8v-35.5H3741z"/>
			</g>
			<g>
				<path class="st13" d="M3781.2,276.6h-10.3v-9.8h10.3V276.6z M3771.4,279.4h9.8v36h-9.8V279.4z"/>
			</g>
			<g>
				<path class="st13" d="M3827.5,277.5l-8.9,3.3c-1.4-4.2-3.7-6.1-7-6.1c-1.4,0-2.8,0.5-3.7,1.4c-0.9,0.9-1.4,1.9-1.4,3.3
					s0.5,2.3,1.4,3.3c0.9,0.9,3.3,1.9,6.5,3.3c3.3,0.9,5.6,2.3,7.5,3.3c1.9,0.9,3.3,2.8,4.2,4.7s1.9,4.2,1.9,7
					c0,4.7-1.4,8.4-4.7,11.2s-7.5,4.2-12.6,4.2c-8.9,0-14.5-4.2-16.8-13.1l9.4-2.8c0.9,4.7,3.7,7.5,8,7.5c1.9,0,3.3-0.5,4.7-1.4
					c0.9-0.9,1.9-2.3,1.9-3.7s-0.5-2.3-1.4-3.3c-0.9-0.9-2.8-1.9-5.6-2.8c-3.7-1.4-6.5-2.3-8.4-3.7c-1.9-0.9-3.3-2.8-4.7-4.7
					c-1.4-1.9-1.9-4.2-1.9-7c0-4.2,1.4-8,4.2-10.8s6.5-4.2,11.2-4.2C3820.5,266.3,3825.6,270,3827.5,277.5z"/>
			</g>
			<g>
				<path class="st13" d="M3856.5,297.6c0,12.6-4.7,18.7-14.5,18.7c-9.8,0-14.5-6.1-14.5-18.7s4.7-18.7,14.5-18.7
					C3851.8,278.9,3856.5,285,3856.5,297.6z M3846.2,297.6c0-4.7-0.5-7.5-0.9-9.4c-0.5-1.4-1.9-2.3-3.3-2.3c-1.4,0-2.8,0.9-3.3,2.3
					s-0.9,4.7-0.9,9.4c0,4.2,0.5,7.5,0.9,9.4s1.9,2.3,3.3,2.3c1.4,0,2.8-0.9,3.3-2.3C3845.8,305.1,3846.2,301.8,3846.2,297.6z"/>
			</g>
			<g>
				<path class="st13" d="M3884.6,292.5l-9.4,0.5c0-2.3-0.5-3.7-0.9-5.1c-0.5-0.9-1.4-1.9-2.8-1.9c-3.3,0-5.1,3.7-5.1,10.8
					c0,4.2,0.5,7,1.4,8.4c0.9,1.4,1.9,2.3,3.7,2.3c2.3,0,3.7-2.3,4.2-6.5l9.4,0.5c-0.9,9.4-5.6,14-14,14c-4.7,0-8-1.4-10.8-4.7
					s-3.7-8-3.7-14s1.4-10.8,3.7-14c2.3-3.3,6.1-4.7,10.8-4.7C3879.4,278.9,3884.1,283.6,3884.6,292.5z"/>
			</g>
			<g>
				<path class="st13" d="M3896.7,276.6h-10.3v-9.8h10.3V276.6z M3886.5,279.4h9.8v36h-9.8V279.4z"/>
			</g>
			<g>
				<path class="st13" d="M3926.2,299h-18.7v1.9c0,3.3,0.5,5.1,1.4,6.5c0.9,0.9,1.9,1.4,3.3,1.4c3.3,0,4.7-1.9,5.1-6.1l8.9,0.5
					c-1.4,8.4-6.5,12.6-14,12.6c-4.7,0-8.4-1.9-11.2-5.1c-2.3-3.3-3.7-7.5-3.7-13.1c0-6.1,1.4-10.8,4.2-14.5
					c2.8-3.3,6.1-5.1,10.8-5.1c4.2,0,7.5,1.4,10.3,4.2C3925.3,285.9,3926.2,291.5,3926.2,299z M3916.9,293.4c0-0.5,0-0.9,0-0.9
					c0-4.7-1.4-7-4.7-7s-4.7,2.8-4.7,8H3916.9z"/>
			</g>
			<g>
				<path class="st13" d="M3929,268.6l9.8-0.5v11.2h6.5v8h-6.5v13.1c0,2.3,0,4.2,0,4.7c0,0.9,0.5,1.4,0.9,1.9s1.4,0.9,3.3,0.9
					c0.9,0,1.9,0,2.8,0v7.5c-2.3,0.5-4.2,0.9-6.1,0.9c-2.8,0-5.1-0.5-7-1.9c-1.4-0.9-2.8-2.8-3.3-4.2c-0.5-1.9-0.5-4.7-0.5-8.4
					v-14.5h-4.2v-8h4.2V268.6z"/>
			</g>
			<g>
				<path class="st13" d="M3939.8,279.4h9.8l4.7,22l4.7-22h8.4l-10.8,36.5c-0.9,3.3-1.9,6.1-2.8,7.5c-0.9,1.4-1.9,2.3-3.3,3.3
					c-1.4,0.9-3.3,1.4-5.6,1.4c-1.4,0-2.8,0-4.2-0.5v-8c0.9,0,1.9,0,2.8,0c1.9,0,3.3-0.5,4.2-0.9c0.9-0.5,1.4-1.9,1.9-4.2
					L3939.8,279.4z"/>
			</g>
			<g>
				<path class="st13" d="M3992.2,279.4h6.5v8h-6.5v28.1h-9.8v-28.1h-4.2v-8h4.2c0-3.7,0.5-6.1,0.9-8c0.5-1.9,1.9-3.3,3.3-4.7
					c1.9-1.4,4.2-1.9,7-1.9c1.9,0,3.3,0,5.1,0.5v8c-0.9,0-1.4,0-2.3,0c-1.9,0-3.3,0.5-3.7,1.4
					C3992.2,275.2,3992.2,276.6,3992.2,279.4z"/>
			</g>
			<g>
				<path class="st13" d="M4024.9,297.6c0,12.6-4.7,18.7-14.5,18.7c-9.8,0-14.5-6.1-14.5-18.7s4.7-18.7,14.5-18.7
					C4020.2,278.9,4024.9,285,4024.9,297.6z M4014.6,297.6c0-4.7-0.5-7.5-0.9-9.4c-0.5-1.4-1.9-2.3-3.3-2.3s-2.8,0.9-3.3,2.3
					s-0.9,4.7-0.9,9.4c0,4.2,0.5,7.5,0.9,9.4c0.5,1.9,1.9,2.3,3.3,2.3s2.8-0.9,3.3-2.3C4014.6,305.1,4014.6,301.8,4014.6,297.6z"/>
			</g>
			<g>
				<path class="st13" d="M4026.3,279.4h8.9v8.9c1.4-6.1,4.2-9.4,8.4-9.4c0.5,0,0.9,0,1.9,0v9.8c-0.9,0-1.4,0-1.9,0
					c-4.7,0-7.5,3.7-7.5,11.2v15.4h-9.8V279.4L4026.3,279.4z"/>
			</g>
			<g>
				<path class="st13" d="M4057.6,266.8h10.8v48.6h-10.8V266.8z"/>
			</g>
			<g>
				<path class="st13" d="M4071.7,279.4h9.4v4.7c1.9-3.7,4.7-5.6,8.9-5.6c2.3,0,4.2,0.5,5.6,1.4c1.4,0.9,2.3,2.3,2.8,4.2
					c0.5,1.4,0.5,4.2,0.5,7.5v23.4h-9.8v-23.4c0-2.3-0.5-3.7-0.9-4.7c-0.5-0.5-1.4-0.9-2.3-0.9c-1.9,0-2.8,0.5-3.7,1.9
					c-0.5,0.9-0.9,3.3-0.9,6.1v21h-9.8v-35.5H4071.7z"/>
			</g>
			<g>
				<path class="st13" d="M4103.5,268.6l9.8-0.5v11.2h6.5v8h-6.5v13.1c0,2.3,0,4.2,0,4.7c0,0.9,0.5,1.4,0.9,1.9s1.4,0.9,3.3,0.9
					c0.9,0,1.9,0,2.8,0v7.5c-2.3,0.5-4.2,0.9-6.1,0.9c-2.8,0-5.1-0.5-7-1.9c-1.4-0.9-2.8-2.8-3.3-4.2c-0.5-1.9-0.5-4.7-0.5-8.4
					v-14.5h-4.2v-8h4.2V268.6z"/>
			</g>
			<g>
				<path class="st13" d="M4147.9,299h-18.7v1.9c0,3.3,0.5,5.1,1.4,6.5c0.9,0.9,1.9,1.4,3.3,1.4c3.3,0,4.7-1.9,5.1-6.1l8.9,0.5
					c-1.4,8.4-6.5,12.6-14,12.6c-4.7,0-8.4-1.9-11.2-5.1c-2.3-3.3-3.7-7.5-3.7-13.1c0-6.1,1.4-10.8,4.2-14.5
					c2.8-3.3,6.1-5.1,10.8-5.1c4.2,0,7.5,1.4,10.3,4.2C4146.5,285.9,4147.9,291.5,4147.9,299z M4138.6,293.4c0-0.5,0-0.9,0-0.9
					c0-4.7-1.4-7-4.7-7c-3.3,0-4.7,2.8-4.7,8H4138.6z"/>
			</g>
			<g>
				<path class="st13" d="M4149.3,266.8h9.8v48.6h-9.8V266.8z"/>
			</g>
			<g>
				<path class="st13" d="M4161.5,266.8h9.8v48.6h-9.8V266.8z"/>
			</g>
			<g>
				<path class="st13" d="M4201.2,299h-18.7v1.9c0,3.3,0.5,5.1,1.4,6.5c0.9,0.9,1.9,1.4,3.3,1.4c3.3,0,4.7-1.9,5.1-6.1l8.9,0.5
					c-1.4,8.4-6.5,12.6-14,12.6c-4.7,0-8.4-1.9-11.2-5.1c-2.3-3.3-3.7-7.5-3.7-13.1c0-6.1,1.4-10.8,4.2-14.5
					c2.8-3.3,6.1-5.1,10.8-5.1c4.2,0,7.5,1.4,10.3,4.2C4199.8,285.9,4201.2,291.5,4201.2,299z M4191.9,293.4c0-0.5,0-0.9,0-0.9
					c0-4.7-1.4-7-4.7-7c-3.3,0-4.7,2.8-4.7,8H4191.9z"/>
			</g>
			<g>
				<path class="st13" d="M4229.3,292.5l-9.4,0.5c0-2.3-0.5-3.7-0.9-5.1c-0.5-0.9-1.4-1.9-2.8-1.9c-3.3,0-5.1,3.7-5.1,10.8
					c0,4.2,0.5,7,1.4,8.4s1.9,2.3,3.7,2.3c2.3,0,3.7-2.3,4.2-6.5l9.4,0.5c-0.9,9.4-5.6,14-14,14c-4.7,0-8-1.4-10.8-4.7
					s-3.7-8-3.7-14s1.4-10.8,3.7-14c2.3-3.3,6.1-4.7,10.8-4.7C4223.7,278.9,4228.4,283.6,4229.3,292.5z"/>
			</g>
			<g>
				<path class="st13" d="M4231.2,268.6l9.8-0.5v11.2h6.5v8h-6.5v13.1c0,2.3,0,4.2,0,4.7c0,0.9,0.5,1.4,0.9,1.9s1.4,0.9,3.3,0.9
					c0.9,0,1.9,0,2.8,0v7.5c-2.3,0.5-4.2,0.9-6.1,0.9c-2.8,0-5.1-0.5-7-1.9c-1.4-0.9-2.8-2.8-3.3-4.2c-0.5-1.9-0.5-4.7-0.5-8.4
					v-14.5h-4.2v-8h4.2V268.6z"/>
			</g>
			<g>
				<path class="st13" d="M4247.5,279.4h9.8v22.9c0,2.3,0,3.7,0.5,4.7c0.5,0.9,1.4,1.4,2.8,1.4s2.3-0.5,2.8-0.9s0.9-1.4,1.4-2.8
					c0-0.9,0-3.3,0-7v-18.2h9.8v36h-9.4v-4.7c-1.4,2.3-2.8,4.2-4.2,4.7c-1.4,0.5-3.3,0.9-5.1,0.9c-2.8,0-4.7-0.5-6.1-1.4
					c-1.4-0.9-2.3-2.3-2.8-4.2c-0.5-1.4-0.5-4.2-0.5-7.5v-23.9H4247.5z"/>
			</g>
			<g>
				<path class="st13" d="M4287.8,291.1l-9.4-0.9c0.5-3.7,1.9-6.5,4.7-8.4c2.8-1.9,6.1-2.8,9.8-2.8c3.3,0,6.1,0.5,8,1.9
					c1.9,1.4,3.3,2.8,3.7,4.7s0.9,4.2,0.9,8v14.5c0,4.7,0,7,0.5,8h-9.4c-0.5-0.9-0.5-2.8-0.5-5.6c-2.3,4.2-5.6,6.1-9.8,6.1
					c-2.8,0-5.1-0.9-7-2.3c-1.9-1.9-2.8-4.2-2.8-7.5c0-4.2,1.4-7,4.2-9.4c2.8-2.3,7.5-3.3,14.5-3.7V292c0-2.3-0.5-4.2-0.9-5.1
					s-1.4-1.4-2.8-1.4C4289.6,285.5,4288.2,287.3,4287.8,291.1z M4295.7,298.1c-2.8,0.5-5.1,0.9-6.1,1.9c-1.4,0.9-1.9,2.3-1.9,4.7
					c0,2.8,0.9,4.7,3.3,4.7c1.4,0,2.3-0.5,3.3-1.9s1.4-3.7,1.4-7.5V298.1z"/>
			</g>
			<g>
				<path class="st13" d="M4308.4,266.8h9.8v48.6h-9.8V266.8z"/>
			</g>
			<g>
				<path class="st13" d="M4335.5,266.8h14c4.2,0,7.5,0.5,9.8,0.9c2.3,0.9,4.2,2.3,6.1,4.7c1.4,2.3,2.3,5.6,2.3,9.4
					s-0.5,6.5-1.9,8.9c-1.4,2.3-3.3,4.2-5.1,5.1c-2.3,0.9-5.6,1.4-10.3,1.4h-4.7v17.8H4335v-48.2H4335.5z M4345.8,274.7v14.5h3.3
					c2.8,0,4.7-0.5,5.6-1.9s1.4-3.3,1.4-5.1c0-1.9-0.5-3.3-0.9-4.2c-0.5-0.9-1.4-1.9-2.3-2.3c-0.9-0.5-1.9-0.5-3.7-0.5h-3.3V274.7z"
					/>
			</g>
			<g>
				<path class="st13" d="M4366.3,279.4h8.9v8.9c1.4-6.1,4.2-9.4,8.4-9.4c0.5,0,0.9,0,1.9,0v9.8c-0.9,0-1.4,0-1.9,0
					c-4.7,0-7.5,3.7-7.5,11.2v15.4h-9.8V279.4L4366.3,279.4z"/>
			</g>
			<g>
				<path class="st13" d="M4412.2,297.6c0,12.6-4.7,18.7-14.5,18.7s-14.5-6.1-14.5-18.7s4.7-18.7,14.5-18.7S4412.2,285,4412.2,297.6
					z M4401.9,297.6c0-4.7-0.5-7.5-0.9-9.4c-0.5-1.4-1.9-2.3-3.3-2.3s-2.8,0.9-3.3,2.3s-0.9,4.7-0.9,9.4c0,4.2,0.5,7.5,0.9,9.4
					s1.9,2.3,3.3,2.3c1.4,0,2.8-0.9,3.3-2.3C4401.4,305.1,4401.9,301.8,4401.9,297.6z"/>
			</g>
			<g>
				<path class="st13" d="M4413.6,279.4h9.4v5.1c1.9-3.7,4.7-5.6,8-5.6c3.3,0,6.1,1.4,8.4,4.2c2.3,2.8,3.3,7.5,3.3,13.6
					c0,6.1-0.9,11.2-3.3,14c-2.3,3.3-5.1,4.7-8.9,4.7c-2.8,0-5.1-0.9-7-3.3v15h-9.8V279.4z M4423.4,300.9c0,3.3,0.5,5.6,0.9,6.5
					c0.5,0.9,1.9,1.4,3.3,1.4s2.8-0.5,3.3-1.9c0.9-1.4,0.9-4.7,0.9-9.8c0-4.2-0.5-7.5-0.9-8.9s-1.9-2.3-3.3-2.3
					c-1.4,0-2.3,0.5-3.3,1.4c-0.9,0.9-1.4,3.3-1.4,7v6.5H4423.4z"/>
			</g>
			<g>
				<path class="st13" d="M4471.1,299h-18.7v1.9c0,3.3,0.5,5.1,1.4,6.5c0.9,0.9,1.9,1.4,3.3,1.4c3.3,0,4.7-1.9,5.1-6.1l8.9,0.5
					c-1.4,8.4-6.5,12.6-14,12.6c-4.7,0-8.4-1.9-11.2-5.1c-2.3-3.3-3.7-7.5-3.7-13.1c0-6.1,1.4-10.8,4.2-14.5
					c2.8-3.3,6.1-5.1,10.8-5.1c4.2,0,7.5,1.4,10.3,4.2C4470.2,285.9,4471.1,291.5,4471.1,299z M4461.8,293.4c0-0.5,0-0.9,0-0.9
					c0-4.7-1.4-7-4.7-7c-3.3,0-4.7,2.8-4.7,8H4461.8z"/>
			</g>
			<g>
				<path class="st13" d="M4472.5,279.4h8.9v8.9c1.4-6.1,4.2-9.4,8.4-9.4c0.5,0,0.9,0,1.9,0v9.8c-0.9,0-1.4,0-1.9,0
					c-4.7,0-7.5,3.7-7.5,11.2v15.4h-9.8V279.4L4472.5,279.4z"/>
			</g>
			<g>
				<path class="st13" d="M4493.6,268.6l9.8-0.5v11.2h6.5v8h-6.5v13.1c0,2.3,0,4.2,0,4.7c0,0.9,0.5,1.4,0.9,1.9s1.4,0.9,3.3,0.9
					c0.9,0,1.9,0,2.8,0v7.5c-2.3,0.5-4.2,0.9-6.1,0.9c-2.8,0-5.1-0.5-7-1.9c-1.4-0.9-2.8-2.8-3.3-4.2c-0.5-1.9-0.5-4.7-0.5-8.4
					v-14.5h-4.2v-8h4.2V268.6L4493.6,268.6z"/>
			</g>
			<g>
				<path class="st13" d="M4505.7,279.4h9.8l4.7,22l4.7-22h8.4l-10.8,36.5c-0.9,3.3-1.9,6.1-2.8,7.5s-1.9,2.3-3.3,3.3
					s-3.3,1.4-5.6,1.4c-1.4,0-2.8,0-4.2-0.5v-8c0.9,0,1.9,0,2.8,0c1.9,0,3.3-0.5,4.2-0.9s1.4-1.9,1.9-4.2L4505.7,279.4z"/>
			</g>
		</g>
	</g>
</g>
</svg>
