<?xml version="1.0" encoding="utf-8"?>
<!-- Generator: Adobe Illustrator 25.0.1, SVG Export Plug-In . SVG Version: 6.00 Build 0)  -->
<svg version="1.1" id="Layer_1" xmlns="http://www.w3.org/2000/svg" xmlns:xlink="http://www.w3.org/1999/xlink" x="0px" y="0px"
	 viewBox="0 0 1460.6 436.7" style="enable-background:new 0 0 1460.6 436.7;" xml:space="preserve">
<style type="text/css">
	.st0{fill-rule:evenodd;clip-rule:evenodd;fill:#4A4A4D;}
	.st1{fill-rule:evenodd;clip-rule:evenodd;fill:#FEFEFE;}
	.st2{fill:#81BE00;}
	.st3{fill:#1F9CDC;}
	.st4{fill-rule:evenodd;clip-rule:evenodd;fill:#FFFFFF;}
	.st5{fill-rule:evenodd;clip-rule:evenodd;fill:#B7D96F;}
	.st6{fill-rule:evenodd;clip-rule:evenodd;fill:#D2E7A5;}
	.st7{fill:#FFFFFF;}
	.st8{fill-rule:evenodd;clip-rule:evenodd;fill:#E2131A;}
	.st9{fill-rule:evenodd;clip-rule:evenodd;fill:#FCDBCE;}
	.st10{fill-rule:evenodd;clip-rule:evenodd;fill:#DB151A;}
	.st11{fill-rule:evenodd;clip-rule:evenodd;fill:#EBEBEB;}
	.st12{fill-rule:evenodd;clip-rule:evenodd;fill:#008000;}
	.st13{fill:#DB151A;}
</style>
<g id="Layer_x0020_1">
	<g id="_2531301594304">
		<path class="st0" d="M-2838.8,278.3c-42.9-60.8-23.7-13.9-31.3,35.3l-24.3-1.2c0-0.6-0.6-1.2-0.6-1.7c0-0.6-0.6-1.2-0.6-1.7
			l-0.6-19.1c0-26.1-4.1-152.3,1.7-166.8v-0.6c5.2-1.2,13.9-2.3,20.3-0.6c6.4,2.3,0-1.7,4.6,2.3c7,23.2,0,68.4,1.7,95
			c0,3.5,0.6,5.2,1.7,8.7c16.2-1.2,14.5-8.1,23.7-19.1c4.6-5.2,19.1-20.9,24.3-23.7c6.4-3.5,24.9-5.2,30.1,0
			c5.2,5.8-4.6,13.9-8.1,18c-9.3,9.3-18.5,18.5-27.2,27.8c-1.2,1.2-2.3,2.3-3.5,3.5c-1.7,1.7-2.3,2.9-3.5,5.2
			c-0.6,4.1,3.5,9.3,5.8,11.6c8.7,13.3,38.2,47.5,37.7,60.8v1.2c-30.7,0.6-26.1,2.3-44.6-24.3
			C-2834.2,285.3-2836.5,281.2-2838.8,278.3L-2838.8,278.3L-2838.8,278.3z M-2748.5,319.4c1.2-26.6,0.6-53.9,0.6-80.5
			c0-44.6,0-89.2-1.2-133.2c-1-35.9-20.9-41.1-52.1-39.4c-74.7,0-149.4-0.6-224.2,0c-5.2,0-5.8,1.2-10.4,3.5
			c-12.2,7-11.6,9.3-18.5,21.4c-1.7,2.9-0.6,12.2-0.6,15.6c-0.6,75.3-0.6,150,0,224.7c0,35,28.1,35.3,55,35.3
			c74.1,0,148.3,1.2,222.4,0c12.8,0,25.1-12.3,27.8-24.9C-2749.1,335.1-2749.1,326.4-2748.5,319.4L-2748.5,319.4z"/>
		<path class="st0" d="M-2438,275.4v-64.3c36.5-19.1,49.2-6.4,49.2,34.2C-2389.4,285.3-2404.4,293.9-2438,275.4L-2438,275.4z
			 M-2412.5,179.8c-9.3,1.2-19.1,7-23.2,3.5c-7-8.7-0.6-49.8-3.5-64.3c-9.8-2.3-21.4-2.9-30.7,0.6c-7.5,2.9-2.9,81.7-2.9,95
			l0.6,90.9c1.7,7.5,9.8,8.1,20.9,7c9.3-1.2,8.1-3.5,13.3-10.4c16.2,1.7,30.1,19.1,56.8,8.7C-2350,298-2329.1,168.8-2412.5,179.8
			L-2412.5,179.8L-2412.5,179.8z"/>
		<path class="st0" d="M-2535.3,277.1c0,4.1,0.6,2.3-4.6,2.3c-8.7,7-19.7,7-29.5,4.1c-2.9-13.3-3.5-29,11-29
			c2.3-2.3,0.6-1.7,5.2-2.9h23.7l0.6,17.4c0,12.7,0,2.9-2.3,6.4C-2532.4,278.9-2529,278.9-2535.3,277.1L-2535.3,277.1L-2535.3,277.1
			z M-2529.5,229.6c-28.4,1.7-81.1-12.2-76.5,46.3c4.6,64.9,75.3,26.6,77.6,26.1c6.4,6.4,4.1,9.3,13.3,10.4
			c28.4,4.6,21.4-5.8,21.4-56.2c0-52.7,11-86.3-75.9-76.5c-13.9,1.7-36.5,3.5-30.1,21.4C-2591.5,227.3-2524.9,178.7-2529.5,229.6
			L-2529.5,229.6L-2529.5,229.6z"/>
		<path class="st0" d="M-2703.3,314.2h74.1c16.8,0,13.3-5.2,12.7-23.2c-0.6-21.4-5.8-16.8-52.1-16.8c-21.4,0-18.5-1.7-18.5-22.6
			c0-16.8,1.7-122.2-1.7-132.6c-5.8-1.7-22.6-2.3-30.1-1.7c-13.3,1.2-9.8,9.3-9.3,23.2v130.9
			C-2728.2,300.3-2734.6,314.2-2703.3,314.2L-2703.3,314.2L-2703.3,314.2z"/>
		<path class="st1" d="M-3028.8,66.3h-26.1C-3054.9,105-3061,85.1-3028.8,66.3z"/>
		<path class="st1" d="M-3054.9,367.5h24.3c-18.5-14.5-7.5,1.7-22.6-22l-2.3-2.9v24.9L-3054.9,367.5L-3054.9,367.5z"/>
		<path class="st0" d="M-2540,279.5c5.2,0,4.9,4.1,5.5,0.6c6.4,1.7,2.1-1.2,3.8-4.6c2.3-3.5,4.6,9.8,5.2-2.9l0.6-23.7l-29,1.2
			c-4.6,1.2-1.7,2.3-4.1,4.6l27.2-1.2C-2530.7,265.8-2526.7,276.1-2540,279.5L-2540,279.5z"/>
		<g id="Layer_x0020_1_1_">
			<polygon class="st2" points="-2209.9,366.7 -1905.9,366.7 -1905.9,71.9 -2209.9,71.9 			"/>
			<polygon class="st3" points="-1894.8,366.7 -1236.4,366.7 -1236.4,71.9 -1894.8,71.9 			"/>
			<path class="st4" d="M-2127.4,171.7l0.5,0.5l0.5,0.5l0.6,0.6l0.5,0.5l0.5,0.5l0.6,0.6l0.5,0.5l0.5,0.5l0.6,0.6l0.5,0.5l0.5,0.5
				l0.6,0.6l0.5,0.5l0.5,0.5l0.6,0.6l0.5,0.5l0.5,0.5l0.6,0.6l0.5,0.5l0.5,0.6l0.6,0.5l0.5,0.5l0.5,0.6l0.6,0.5l0.5,0.5l0.6,0.6
				l0.5,0.5l0.5,0.5l0.6,0.6l0.5,0.5l0.5,0.5l0.6,0.6l0.5,0.5l0.5,0.5l0.6,0.6l0.5,0.5l0.5,0.5l0.6,0.6l0.5,0.5l0.5,0.5l0.6,0.6
				l0.5,0.5l0.5,0.6l0.6,0.5l0.5,0.5l0.5,0.6l0.6,0.5l0.5,0.5l0.5,0.6l0.6,0.5l0.5,0.5l0.6,0.6l0.5,0.5l0.5,0.5l0.6,0.6l0.5,0.5
				l0.5,0.5l0.6,0.6l0.5,0.5l0.5,0.5l0.6,0.6l0.5,0.5l0.5,0.5l0.6,0.6l0.5,0.5l0.5,0.5l0.6,0.6l0.5,0.5l0.5,0.6l0.6,0.5l0.5,0.5
				l0.5,0.6l0.6,0.5l0.5,0.5l0.6,0.6l0.5,0.5l0.5,0.5l0.6,0.6l0.5,0.5l0.5,0.5l0.6,0.6l0.5,0.5l0.5,0.5l0.6,0.6l0.5,0.5l0.5,0.5
				l0.6,0.6l0.5,0.5c0.7,0,0.5-0.1,0.5,0.6l0.1,0.3c0.2,0.9,0.4,0.8-0.4,0.8l-0.5,0.5l-0.6,0.5l-0.5,0.6l-0.5,0.5l-0.6,0.5l-0.5,0.6
				l-0.5,0.5l-0.6,0.5l-0.5,0.6l-0.5,0.5l-0.6,0.5l-0.5,0.6l-0.6,0.5l-0.5,0.5l-0.5,0.6l-0.6,0.5l-0.5,0.5l-0.5,0.6l-0.6,0.5
				l-0.5,0.6l-0.5,0.5l-0.6,0.5l-0.5,0.6l-0.5,0.5l-0.6,0.5l-0.5,0.6l-0.5,0.5l-0.6,0.5l-0.5,0.6l-0.5,0.5l-0.6,0.5l-0.5,0.6
				l-0.5,0.5l-0.6,0.5l-0.5,0.6l-0.5,0.5l-0.6,0.5l-0.5,0.6l-0.6,0.5l-0.5,0.5l-0.5,0.6l-0.6,0.5l-0.5,0.5l-0.5,0.6l-0.6,0.5
				l-0.5,0.6l-0.5,0.5l-0.6,0.5l-0.5,0.6l-0.5,0.5l-0.6,0.5l-0.5,0.6l-0.5,0.5l-0.6,0.5l-0.5,0.6l-0.5,0.5l-0.6,0.5l-0.5,0.6
				l-0.5,0.5l-0.6,0.5l-0.5,0.6l-0.6,0.5l-0.5,0.5l-0.5,0.6l-0.6,0.5l-0.5,0.5l-0.5,0.6l-0.6,0.5l-0.5,0.5l-0.5,0.6l-0.6,0.5
				l-0.5,0.6l-0.5,0.5l-0.6,0.5l-0.5,0.6l-0.5,0.5l-0.6,0.5l-0.5,0.6l-0.5,0.5l-0.6,0.5l-0.5,0.6l-0.5,0.5l-0.6,0.5l-0.5,0.6
				l-0.5,0.5l-0.6,0.5l-0.5,0.6l-0.6,0.5l-0.5,0.5l-0.4,0.7l0.2,0.1l37.7,0.1l49.7-49.6l-49.3-49.6h-29.4c-1.8,0-7.6-0.8-8.7,0.7
				L-2127.4,171.7L-2127.4,171.7z"/>
			<polygon class="st4" points="-2051.9,247 -2051.5,247.6 -2050.9,248.2 -2050.4,248.7 -2049.9,249.3 -2049.3,249.8 -2048.8,250.3 
				-2048.3,250.9 -2047.7,251.4 -2047.2,251.9 -2046.6,252.6 -2046.1,253.1 -2045.6,253.7 -2045.1,254.2 -2044.6,254.8 -2044,255.3 
				-2043.5,255.8 -2043,256.4 -2042.4,256.9 -2041.8,257.4 -2041.3,258 -2040.7,258.5 -2040.2,259 -2039.7,259.6 -2039.1,260.1 
				-2038.6,260.6 -2038.1,261.2 -2037.5,261.7 -2037,262.2 -2036.5,262.8 -2035.9,263.3 -2035.4,263.9 -2034.8,264.4 -2034.3,265 
				-2033.8,265.6 -2033.2,266.1 -2032.7,266.6 -2032.2,267.2 -2031.6,267.7 -2031.1,268.2 -2030.6,268.8 -2030,269.3 -2029.3,269.7 
				-1990.9,269.7 -2032.6,227.7 			"/>
			<path class="st4" d="M-2030.3,171.2l-0.5,0.5l-0.6,0.5l-0.5,0.6l-0.5,0.5l-0.6,0.5l-0.5,0.6l-0.6,0.5l-0.5,0.5l-0.5,0.6l-0.6,0.5
				l-0.5,0.5l-0.5,0.6l-0.6,0.5l-0.5,0.6l-0.5,0.5l-0.6,0.5l-0.5,0.6l-0.5,0.5l-0.6,0.5l-0.5,0.6l-0.5,0.5l-0.6,0.5l-0.5,0.6
				l-0.5,0.5l-0.6,0.5l-0.5,0.6l-0.5,0.5l-0.6,0.5l-0.5,0.6l-0.6,0.5l-0.5,0.5l-0.5,0.6l-0.6,0.5l-0.5,0.5l-0.5,0.6l-0.6,0.5
				l-0.5,0.6l-0.5,0.5l-0.6,0.5c0,0.8,0.2,0.6-0.6,0.6c0.8,1.6,17.6,18.4,19.4,19.2l0.5-0.6l0.6-0.5l0.5-0.5l0.5-0.6l0.6-0.5
				l0.5-0.5l0.6-0.6l0.5-0.5l0.5-0.6l0.6-0.5l0.5-0.5l0.5-0.6l0.6-0.5l0.5-0.5l0.5-0.6l0.6-0.5l0.5-0.5l0.5-0.6l0.6-0.5l0.5-0.5
				l0.5-0.6l0.6-0.5l0.5-0.5l0.5-0.6l0.6-0.5l0.5-0.5l0.5-0.6l0.6-0.5l0.5-0.5l0.5-0.6l0.6-0.5l0.5-0.5l0.6-0.6l0.5-0.5l0.5-0.6
				l0.6-0.5l0.5-0.5l0.5-0.6l0.6-0.5l0.5-0.5l0.5-1l-18.9-18.7h-0.2L-2030.3,171.2L-2030.3,171.2z"/>
			<path class="st5" d="M-2030.3,171.2l-0.5,0.5l-0.6,0.5l-0.5,0.6l-0.5,0.5l-0.6,0.5l-0.5,0.6l-0.6,0.5l-0.5,0.5l-0.5,0.6l-0.6,0.5
				l-0.5,0.5l-0.5,0.6l-0.6,0.5l-0.5,0.6l-0.5,0.5l-0.6,0.5l-0.5,0.6l-0.5,0.5l-0.6,0.5l-0.5,0.6l-0.5,0.5l-0.6,0.5l-0.5,0.6
				l-0.5,0.5l-0.6,0.5l-0.5,0.6l-0.5,0.5l-0.6,0.5l-0.5,0.6l-0.6,0.5l-0.5,0.5l-0.5,0.6l-0.6,0.5l-0.5,0.5l-0.5,0.6l-0.6,0.5
				l-0.5,0.6l-0.5,0.5l-0.6,0.5l-0.6,0.6c0.8,0,0.6,0.2,0.6-0.6l0.6-0.5l0.5-0.5l0.5-0.6l0.6-0.5l0.5-0.6l0.5-0.5l0.6-0.5l0.5-0.6
				l0.5-0.5l0.6-0.5l0.5-0.6l0.6-0.5l0.5-0.5l0.5-0.6l0.6-0.5l0.5-0.5l0.5-0.6l0.6-0.5l0.5-0.5l0.5-0.6l0.6-0.5l0.5-0.5l0.5-0.6
				l0.6-0.5l0.5-0.5l0.5-0.6l0.6-0.5l0.5-0.6l0.5-0.5l0.6-0.5l0.5-0.6l0.5-0.5l0.6-0.5l0.5-0.6l0.6-0.5l0.5-0.5l0.5-0.6l0.6-0.5
				L-2030.3,171.2l0.6-0.5h0.2h-0.2C-2030.5,170.6-2030.3,170.4-2030.3,171.2z"/>
			<polygon class="st6" points="-2011,190.5 -2011.5,191 -2012.1,191.5 -2012.6,192.1 -2013.1,192.6 -2013.7,193.1 -2014.2,193.7 
				-2014.7,194.2 -2015.3,194.8 -2015.8,195.3 -2016.4,195.8 -2016.9,196.4 -2017.5,196.9 -2018.1,197.4 -2018.6,198 -2019.1,198.5 
				-2019.7,199 -2020.2,199.6 -2020.7,200.1 -2021.3,200.6 -2021.8,201.2 -2022.3,201.7 -2022.9,202.2 -2023.4,202.8 -2023.9,203.4 
				-2024.5,203.9 -2025,204.5 -2025.5,205 -2026.1,205.5 -2026.6,206.1 -2027.1,206.6 -2027.7,207.1 -2028.2,207.7 -2028.7,208.2 
				-2029.3,208.8 -2029.9,209.3 -2030.5,209.8 -2031,210.4 -2031.5,210.9 -2032.1,211.4 -2032.6,212 -2032.1,211.4 -2031.5,210.9 
				-2031,210.4 -2030.5,209.8 -2029.9,209.3 -2029.3,208.8 -2028.7,208.2 -2028.2,207.7 -2027.7,207.1 -2027.1,206.6 -2026.6,206.1 
				-2026.1,205.5 -2025.5,205 -2025,204.5 -2024.5,203.9 -2023.9,203.4 -2023.4,202.8 -2022.9,202.2 -2022.3,201.7 -2021.8,201.2 
				-2021.3,200.6 -2020.7,200.1 -2020.2,199.6 -2019.7,199 -2019.1,198.5 -2018.6,198 -2018.1,197.4 -2017.5,196.9 -2016.9,196.4 
				-2016.4,195.8 -2015.8,195.3 -2015.3,194.8 -2014.7,194.2 -2014.2,193.7 -2013.7,193.1 -2013.1,192.6 -2012.6,192.1 
				-2012.1,191.5 -2011.5,191 -2011,190.5 -2010.1,189.7 -2010.5,189.4 			"/>
			<polygon class="st5" points="-2051.5,247.6 -2050.9,248.2 -2050.4,248.7 -2049.9,249.3 -2049.3,249.8 -2048.8,250.3 
				-2048.3,250.9 -2047.7,251.4 -2047.2,251.9 -2046.6,252.6 -2046.1,253.1 -2045.6,253.7 -2045.1,254.2 -2044.6,254.8 -2044,255.3 
				-2043.5,255.8 -2043,256.4 -2042.4,256.9 -2041.8,257.4 -2041.3,258 -2040.7,258.5 -2040.2,259 -2039.7,259.6 -2039.1,260.1 
				-2038.6,260.6 -2038.1,261.2 -2037.5,261.7 -2037,262.2 -2036.5,262.8 -2035.9,263.3 -2035.4,263.9 -2034.8,264.4 -2034.3,265 
				-2033.8,265.6 -2033.2,266.1 -2032.7,266.6 -2032.2,267.2 -2031.6,267.7 -2031.1,268.2 -2030.6,268.8 -2030,269.3 -2029.3,269.7 
				-2030,269.3 -2030.6,268.8 -2031.1,268.2 -2031.6,267.7 -2032.2,267.2 -2032.7,266.6 -2033.2,266.1 -2033.8,265.6 -2034.3,265 
				-2034.8,264.4 -2035.4,263.9 -2035.9,263.3 -2036.5,262.8 -2037,262.2 -2037.5,261.7 -2038.1,261.2 -2038.6,260.6 -2039.1,260.1 
				-2039.7,259.6 -2040.2,259 -2040.7,258.5 -2041.3,258 -2041.8,257.4 -2042.4,256.9 -2043,256.4 -2043.5,255.8 -2044,255.3 
				-2044.6,254.8 -2045.1,254.2 -2045.6,253.7 -2046.1,253.1 -2046.6,252.6 -2047.2,251.9 -2047.7,251.4 -2048.3,250.9 
				-2048.8,250.3 -2049.3,249.8 -2049.9,249.3 -2050.4,248.7 -2050.9,248.2 -2051.5,247.6 -2051.9,247 			"/>
			<path class="st4" d="M-1674.7,185c3.1-3.3,13.4-11.6,14-15.8c-6.9-1.1-9.5-1.2-13,2.7l-22.5,23.8c-5.2-1.7-11.9-10.4-17.5-15.9
				c-10.5-10.2-8.5-12.2-21.4-10.7c1,6.1,25.5,24.7,28.9,32.2c-2.5,3.3-5.4,5.6-8.3,8.7c-3,3.1-5.2,5.6-8.4,8.8
				c-3.8,3.7-14.5,13.4-15.5,18.2l11.5-0.4c1.5-2.6,25.6-27.5,28.9-29.9c3.7,1.7,28.3,27.6,33.5,32.9l24.7,24.8
				c4.8,4.6,11.7,1.8,11.8,1.7c0.1-0.3,0.4-0.2,0.7-0.3c1.5-2.1-57.9-57.4-62.2-64.4L-1674.7,185L-1674.7,185z"/>
			<path class="st4" d="M-1566.2,216.3l-7.5,0.1c-4,5.8,0.3,10.8-13.1,11.5c-7.7,0.5-16.5,0.2-24.3,0.1
				c-23.3-0.1-24.4-2.3-24.3-25.7c0.1-21,1.8-25,23.3-25.1c7.7,0,16.8-0.4,24.3,0.2c9.7,0.6,11.3,3.4,13.3,11.4l8.2-0.1
				c0.7-24.6-24.8-20.5-45.8-20.4c-26.6,0-32.1,7.5-32,34c0,27.2,2.5,34.7,30.9,34.7C-1590.5,236.9-1565.8,242.2-1566.2,216.3
				L-1566.2,216.3z"/>
			<path class="st4" d="M-1393.3,235.9h53.9c1.4,0,0.9,0,3.5-0.8c15.5-4.8,17-18.2,16.6-33.9c-0.2-7.7-0.2-16-3.4-21.9
				c-2.6-4.6-9.2-9.3-16.1-9c-2.3,0.4-23-0.7-28-0.7c-7.4,0-20.5,0.9-27,0.2c0.8,10.7,0.2,22.3,0.2,33.4
				C-1393.6,213.8-1393,225.8-1393.3,235.9L-1393.3,235.9z M-1340.5,227.8c-3.7,2.4-39.2,1-45.3,0.3c-1.6-4.9-1-42.7-0.6-50.2
				c7.9-1.2,42.4-2.9,47.6,0.6c2.1,0.1,0,0,3.5,1.4c0.3,0.1,1,0.5,1.3,0.7c1.2,0.7,1.1,0.9,1.6,1.4c1.6-0.5,1.3-0.8,0.9,1
				c1.7-0.3,1.1-0.5,0.6,1.3c1.5,0.7,1.1-1,0.9,2.5c1.8,0.4,1.4,2.6,1.6,4.7c0.1,7.6,0.8,16.3,0.1,23.8
				C-1329,223.8-1333,225.1-1340.5,227.8L-1340.5,227.8z"/>
			<path class="st4" d="M-1806.8,236.6h56.6l0.1-8.3c-2.4,0.1-47.2,1.4-49.4-1.1l-1.2-3.7c-0.1-1.5,0.1-4.4,0.1-6.2
				c0-3.7-0.3-7.1,0.3-10.7c5.7-1.5,38.8-0.7,46.9-0.5c2.4-3.8,0.9-2.6,0.9-7.7l-47.8-0.8c-0.6-0.9-0.5,0-1.2-2.5
				c-0.3-0.9-0.3-2-0.4-3c0-1.3,0.1-3.6,0.1-5c-0.1-12.1,0.3-8.5,1.9-9.4l49.2-1.2v-6.4l-57.5-0.7
				C-1808.4,181.9-1810.5,229.3-1806.8,236.6L-1806.8,236.6z"/>
			<path class="st4" d="M-1468.7,236.7l57.3,0.1l0.6-7.5c-7.9-2.8-39-0.3-50.7-1.1c-1-3-1.9-19.7,0.4-21.5c7.9-2.8,36,0.1,47.5-1
				l0.3-4.8c-1.4-1.2-1.1,1.8-1.3-2.3l-35.9,0.1c-5,0.1-10,1-11.3-1.4c-1.5-2.4-1-7.4-1-10.2c-0.3-11.3-0.7-8.2,1.4-9
				c1.9-1.4,0.9-1.1,5.7-1.1c10.3,0.1,37.1,1,43.8-1l-0.1-5.1c-5.4-2.5-55.6-1.1-57.4-0.7C-1469.8,181.4-1471.1,228.8-1468.7,236.7
				L-1468.7,236.7z"/>
			<path class="st4" d="M-1488.3,169.3l-57.6,0.3l-0.3,66.7l58.3,0.3l0.1-8.3l-47.4-0.1c-2.9-0.6-0.9,1.2-1.9-1
				c-1.9-2.1-1.9-17.4-0.1-19.8c1.1-1.2-0.8-0.3,2-1.1c1.3-0.3,1.5-0.2,2.7-0.3l41,0.1c1.2-2.3,0.6-0.1,1-3.8c0.1-1,0-2.4,0.1-3.6
				l-48-0.2c-1.9-5.5-1.9-14.9-0.3-20.4c4.4-1.9,42.6-1,50.5-1L-1488.3,169.3L-1488.3,169.3z"/>
			<path class="st7" d="M-1616.2,251.9c-0.4,0-0.8,0.1-1,0.4c-0.3,0.3-0.4,0.7-0.4,1.3v11c0,0.6,0.1,1,0.4,1.3
				c0.3,0.3,0.6,0.4,1,0.4c0.4,0,0.8-0.1,1-0.4c0.3-0.3,0.4-0.7,0.4-1.3v-11c0-0.6-0.1-1-0.4-1.3
				C-1615.4,252-1615.7,251.9-1616.2,251.9z"/>
			<path class="st7" d="M-1600.2,252.1h-9c-0.5,0-0.8,0.1-1.1,0.3c-0.3,0.2-0.4,0.5-0.4,0.9c0,0.4,0.1,0.6,0.4,0.8
				c0.2,0.2,0.6,0.3,1.1,0.3h3.1v10.2c0,0.6,0.1,1,0.4,1.3c0.3,0.3,0.6,0.4,1,0.4c0.4,0,0.7-0.1,1-0.4c0.3-0.3,0.4-0.7,0.4-1.3
				v-10.2h3.1c0.5,0,0.8-0.1,1.1-0.3c0.2-0.2,0.4-0.5,0.4-0.8c0-0.3-0.1-0.6-0.4-0.8C-1599.4,252.2-1599.7,252.1-1600.2,252.1
				L-1600.2,252.1z"/>
			<path class="st7" d="M-1580.6,258.9c-0.5-0.3-1-0.6-1.6-0.8c-0.6-0.2-1.3-0.4-2.1-0.6c-0.6-0.2-1.1-0.3-1.4-0.4
				c-0.3-0.1-0.5-0.2-0.8-0.3c-0.3-0.1-0.5-0.3-0.6-0.5c-0.1-0.2-0.2-0.4-0.2-0.7c0-0.4,0.2-0.8,0.7-1.2c0.5-0.3,1-0.5,1.8-0.5
				c0.8,0,1.4,0.1,1.7,0.4c0.4,0.3,0.7,0.7,0.9,1.2c0.2,0.4,0.4,0.6,0.6,0.8c0.2,0.2,0.4,0.2,0.7,0.2c0.4,0,0.7-0.1,0.9-0.4
				c0.2-0.3,0.4-0.6,0.4-0.9c0-0.4-0.1-0.8-0.3-1.1c-0.2-0.4-0.5-0.8-0.9-1.1c-0.4-0.4-0.9-0.6-1.6-0.9c-0.6-0.2-1.4-0.3-2.2-0.3
				c-1.1,0-2,0.2-2.8,0.5c-0.8,0.3-1.4,0.8-1.8,1.4c-0.4,0.6-0.6,1.3-0.6,2c0,0.8,0.2,1.5,0.6,2c0.4,0.5,0.9,1,1.6,1.3
				c0.7,0.3,1.5,0.6,2.5,0.8c0.8,0.2,1.4,0.3,1.8,0.5c0.4,0.2,0.8,0.4,1.1,0.7c0.3,0.3,0.4,0.7,0.4,1.1c0,0.6-0.3,1.1-0.8,1.5
				c-0.5,0.4-1.2,0.6-2.1,0.6c-0.6,0-1.1-0.1-1.5-0.3c-0.4-0.2-0.7-0.4-0.9-0.7c-0.2-0.3-0.4-0.7-0.6-1.1c-0.2-0.4-0.3-0.7-0.5-0.8
				c-0.2-0.2-0.5-0.3-0.8-0.3c-0.4,0-0.7,0.1-0.9,0.4c-0.2,0.2-0.4,0.5-0.4,0.9c0,0.6,0.2,1.2,0.6,1.8c0.4,0.6,0.9,1.1,1.5,1.5
				c0.9,0.5,2,0.8,3.4,0.8c1.2,0,2.1-0.2,3-0.6c0.8-0.4,1.5-0.9,1.9-1.6c0.4-0.7,0.7-1.4,0.7-2.3c0-0.7-0.1-1.3-0.4-1.8
				C-1579.8,259.6-1580.1,259.2-1580.6,258.9L-1580.6,258.9z"/>
			<path class="st7" d="M-1563.6,263.8h-6.6v-4h5.9c0.4,0,0.8-0.1,1-0.3c0.2-0.2,0.3-0.5,0.3-0.8s-0.1-0.6-0.3-0.8
				c-0.2-0.2-0.5-0.3-1-0.3h-5.9v-3.4h6.4c0.4,0,0.8-0.1,1-0.3c0.2-0.2,0.3-0.5,0.3-0.8c0-0.3-0.1-0.6-0.3-0.8
				c-0.2-0.2-0.6-0.3-1-0.3h-7.5c-0.4,0-0.7,0-1,0.2c-0.3,0.1-0.4,0.3-0.6,0.6c-0.1,0.3-0.2,0.6-0.2,1v10.5c0,0.6,0.1,1.1,0.4,1.3
				c0.3,0.3,0.7,0.4,1.3,0.4h7.7c0.5,0,0.8-0.1,1-0.3c0.2-0.2,0.3-0.5,0.3-0.8c0-0.3-0.1-0.6-0.3-0.8
				C-1562.8,263.9-1563.1,263.8-1563.6,263.8z"/>
			<path class="st7" d="M-1549.2,257.9c-0.5,0.1-1,0.2-1.7,0.2h-2.5v-3.8h2.6c1,0,1.6,0.1,1.9,0.2c0.3,0.2,0.6,0.4,0.8,0.7
				c0.2,0.3,0.3,0.6,0.3,1c0,0.5-0.1,0.9-0.4,1.2C-1548.4,257.6-1548.7,257.8-1549.2,257.9z M-1545.8,262.6
				c-0.4-0.6-0.8-1.1-1.2-1.7c-0.5-0.5-0.9-0.9-1.4-1.2c1.2-0.3,2.1-0.7,2.7-1.3c0.6-0.6,0.9-1.5,0.9-2.5c0-0.5-0.1-1-0.3-1.5
				c-0.2-0.4-0.4-0.8-0.8-1.2c-0.3-0.3-0.7-0.6-1.2-0.8c-0.4-0.2-0.8-0.3-1.2-0.3c-0.4-0.1-1-0.1-1.6-0.1h-4.6
				c-0.6,0-1.1,0.1-1.3,0.4c-0.3,0.3-0.4,0.7-0.4,1.3v10.8c0,0.6,0.1,1,0.4,1.3c0.3,0.3,0.6,0.4,1.1,0.4c0.4,0,0.8-0.1,1-0.4
				c0.3-0.3,0.4-0.7,0.4-1.3v-4.5h1c0.5,0,0.9,0.1,1.2,0.2c0.3,0.1,0.7,0.4,1,0.7c0.3,0.4,0.7,0.9,1.1,1.6l1.1,1.9
				c0.3,0.5,0.5,0.8,0.6,1c0.2,0.2,0.3,0.4,0.6,0.6c0.2,0.1,0.5,0.2,0.8,0.2c0.3,0,0.5,0,0.7-0.1c0.2-0.1,0.4-0.2,0.5-0.4
				c0.1-0.2,0.2-0.4,0.2-0.5c0-0.2-0.1-0.5-0.3-1C-1545.1,263.7-1545.4,263.2-1545.8,262.6L-1545.8,262.6z"/>
			<path class="st7" d="M-1528.9,252c-0.2-0.1-0.4-0.2-0.7-0.2c-0.3,0-0.6,0.1-0.8,0.2c-0.2,0.1-0.3,0.3-0.4,0.5
				c-0.1,0.2-0.2,0.5-0.4,1l-3.2,9.5l-3.2-9.4c-0.2-0.7-0.4-1.1-0.6-1.4c-0.2-0.3-0.5-0.4-1-0.4c-0.4,0-0.7,0.1-1,0.4
				c-0.3,0.3-0.4,0.6-0.4,0.9c0,0.1,0,0.3,0.1,0.5c0,0.2,0.1,0.4,0.1,0.5c0.1,0.2,0.1,0.3,0.2,0.5l3.3,9.1c0.1,0.3,0.2,0.7,0.4,1
				c0.1,0.3,0.3,0.6,0.4,0.8c0.2,0.2,0.4,0.4,0.6,0.6c0.3,0.2,0.6,0.2,1,0.2c0.4,0,0.7-0.1,1-0.2c0.3-0.1,0.5-0.4,0.6-0.6
				c0.2-0.2,0.3-0.5,0.4-0.8c0.1-0.3,0.2-0.6,0.4-1l3.4-9.1c0.1-0.2,0.1-0.3,0.2-0.5c0-0.2,0.1-0.3,0.1-0.5c0-0.2,0.1-0.3,0.1-0.5
				c0-0.2-0.1-0.4-0.2-0.6C-1528.5,252.3-1528.7,252.2-1528.9,252L-1528.9,252z"/>
			<path class="st7" d="M-1521.3,251.9c-0.4,0-0.8,0.1-1,0.4c-0.3,0.3-0.4,0.7-0.4,1.3v11c0,0.6,0.1,1,0.4,1.3
				c0.3,0.3,0.6,0.4,1,0.4c0.4,0,0.8-0.1,1-0.4c0.3-0.3,0.4-0.7,0.4-1.3v-11c0-0.6-0.1-1-0.4-1.3
				C-1520.5,252-1520.8,251.9-1521.3,251.9z"/>
			<path class="st7" d="M-1503.7,260.4c-0.4,0-0.7,0.1-0.9,0.3c-0.2,0.2-0.3,0.5-0.5,0.9c-0.3,0.8-0.7,1.4-1.3,1.8
				c-0.6,0.4-1.3,0.6-2.1,0.6c-0.8,0-1.4-0.2-2-0.5c-0.6-0.4-1-0.9-1.3-1.6c-0.3-0.7-0.5-1.6-0.5-2.7c0-1.6,0.3-2.9,1-3.8
				c0.7-0.9,1.6-1.3,2.8-1.3c0.7,0,1.3,0.2,1.8,0.5c0.5,0.3,0.9,0.9,1.3,1.6c0.2,0.4,0.4,0.7,0.6,0.9c0.2,0.2,0.5,0.3,0.8,0.3
				c0.3,0,0.6-0.1,0.8-0.4c0.2-0.3,0.3-0.5,0.3-0.9c0-0.6-0.2-1.2-0.7-1.9c-0.5-0.7-1.1-1.2-2-1.7c-0.9-0.5-1.9-0.7-3-0.7
				c-0.9,0-1.8,0.2-2.6,0.5c-0.8,0.3-1.5,0.8-2.1,1.4c-0.6,0.6-1.1,1.4-1.4,2.3c-0.3,0.9-0.5,1.9-0.5,3c0,0.7,0.1,1.3,0.2,2
				c0.1,0.6,0.3,1.2,0.6,1.7c0.3,0.5,0.6,1,0.9,1.5c0.4,0.5,0.9,0.9,1.4,1.2c0.5,0.3,1,0.5,1.6,0.7c0.6,0.1,1.3,0.2,2,0.2
				c1,0,1.8-0.1,2.6-0.5c0.7-0.3,1.3-0.7,1.8-1.2c0.5-0.5,0.8-1,1-1.5c0.2-0.5,0.3-1,0.3-1.4c0-0.4-0.1-0.6-0.4-0.9
				C-1503.1,260.6-1503.4,260.4-1503.7,260.4L-1503.7,260.4z"/>
			<path class="st7" d="M-1488.2,263.8h-6.6v-4h5.9c0.4,0,0.8-0.1,1-0.3c0.2-0.2,0.3-0.5,0.3-0.8s-0.1-0.6-0.3-0.8
				c-0.2-0.2-0.5-0.3-1-0.3h-5.9v-3.4h6.4c0.4,0,0.8-0.1,1-0.3c0.2-0.2,0.3-0.5,0.3-0.8c0-0.3-0.1-0.6-0.3-0.8
				c-0.2-0.2-0.6-0.3-1-0.3h-7.5c-0.4,0-0.7,0-1,0.2c-0.3,0.1-0.4,0.3-0.6,0.6c-0.1,0.3-0.2,0.6-0.2,1v10.5c0,0.6,0.1,1.1,0.4,1.3
				c0.3,0.3,0.7,0.4,1.3,0.4h7.7c0.4,0,0.8-0.1,1-0.3s0.3-0.5,0.3-0.8c0-0.3-0.1-0.6-0.3-0.8
				C-1487.4,263.9-1487.8,263.8-1488.2,263.8L-1488.2,263.8z"/>
			<path class="st7" d="M-1471.7,258.9c-0.5-0.3-1-0.6-1.6-0.8c-0.6-0.2-1.4-0.4-2.1-0.6c-0.6-0.2-1.1-0.3-1.3-0.4
				c-0.3-0.1-0.6-0.2-0.8-0.3c-0.3-0.1-0.5-0.3-0.6-0.5c-0.2-0.2-0.2-0.4-0.2-0.7c0-0.4,0.2-0.8,0.7-1.2c0.4-0.3,1-0.5,1.8-0.5
				c0.8,0,1.4,0.1,1.7,0.4c0.4,0.3,0.7,0.7,0.9,1.2c0.2,0.4,0.4,0.6,0.6,0.8c0.2,0.2,0.4,0.2,0.7,0.2c0.3,0,0.6-0.1,0.9-0.4
				c0.2-0.3,0.4-0.6,0.4-0.9c0-0.4-0.1-0.8-0.3-1.1c-0.2-0.4-0.5-0.8-0.9-1.1c-0.4-0.4-0.9-0.6-1.6-0.9c-0.6-0.2-1.4-0.3-2.2-0.3
				c-1.1,0-2,0.2-2.8,0.5c-0.8,0.3-1.4,0.8-1.8,1.4c-0.4,0.6-0.6,1.3-0.6,2c0,0.8,0.2,1.5,0.6,2c0.4,0.5,0.9,1,1.6,1.3
				c0.7,0.3,1.5,0.6,2.5,0.8c0.8,0.2,1.3,0.3,1.8,0.5c0.4,0.2,0.8,0.4,1.1,0.7c0.3,0.3,0.4,0.7,0.4,1.1c0,0.6-0.3,1.1-0.8,1.5
				c-0.5,0.4-1.2,0.6-2.1,0.6c-0.6,0-1.1-0.1-1.5-0.3c-0.4-0.2-0.7-0.4-0.9-0.7c-0.2-0.3-0.4-0.7-0.6-1.1c-0.1-0.4-0.3-0.7-0.5-0.8
				c-0.2-0.2-0.5-0.3-0.8-0.3c-0.4,0-0.7,0.1-0.9,0.4c-0.2,0.2-0.4,0.5-0.4,0.9c0,0.6,0.2,1.2,0.6,1.8c0.4,0.6,0.9,1.1,1.5,1.5
				c0.9,0.5,2,0.8,3.4,0.8c1.1,0,2.1-0.2,3-0.6c0.8-0.4,1.5-0.9,1.9-1.6c0.4-0.7,0.7-1.4,0.7-2.3c0-0.7-0.1-1.3-0.4-1.8
				C-1470.9,259.6-1471.3,259.2-1471.7,258.9L-1471.7,258.9z"/>
			<path class="st7" d="M-1452.1,263.8c-0.3,0.2-0.6,0.3-0.9,0.4c-0.3,0.1-0.6,0.1-0.9,0.1c-0.3,0-0.7-0.1-0.9-0.2
				c-0.3-0.1-0.6-0.3-0.8-0.5c-0.2-0.2-0.4-0.5-0.5-0.7c-0.1-0.3-0.2-0.6-0.2-0.8c0-0.5,0.2-1,0.5-1.3c0.3-0.4,0.8-0.7,1.5-1.1
				c0.6,0.8,1.2,1.4,1.6,1.9c0.5,0.5,1,1,1.5,1.6C-1451.6,263.4-1451.8,263.6-1452.1,263.8L-1452.1,263.8z M-1454.2,254
				c0.3-0.3,0.7-0.4,1.1-0.4c0.4,0,0.8,0.1,1.1,0.4c0.3,0.3,0.4,0.6,0.4,1c0,0.4-0.1,0.7-0.4,1c-0.3,0.3-0.8,0.6-1.4,1
				c-0.3-0.3-0.5-0.6-0.6-0.8c-0.2-0.2-0.3-0.4-0.4-0.6c-0.1-0.2-0.2-0.4-0.2-0.6C-1454.7,254.6-1454.5,254.3-1454.2,254
				L-1454.2,254z M-1446.9,263.7c-0.5-0.4-0.9-0.7-1.1-0.9c0.4-0.6,0.7-1.2,0.9-1.7c0.2-0.5,0.3-0.9,0.3-1.2c0-0.3-0.1-0.6-0.3-0.8
				c-0.2-0.2-0.5-0.3-0.8-0.3c-0.3,0-0.6,0.1-0.7,0.3c-0.2,0.2-0.4,0.6-0.6,1.1c-0.2,0.5-0.3,0.8-0.4,1c-0.2-0.2-0.4-0.5-0.7-0.7
				c-0.3-0.3-0.5-0.6-0.8-0.9c-0.3-0.3-0.6-0.7-0.9-1.1c0.9-0.5,1.6-1.1,2.1-1.6c0.5-0.5,0.7-1.1,0.7-1.9c0-0.5-0.1-1-0.4-1.5
				c-0.3-0.5-0.7-0.9-1.3-1.2c-0.6-0.3-1.3-0.4-2.1-0.4c-0.8,0-1.5,0.1-2.1,0.4c-0.6,0.3-1.1,0.7-1.4,1.2c-0.3,0.5-0.5,1-0.5,1.6
				c0,0.5,0.1,1,0.4,1.5c0.2,0.5,0.6,1,1.1,1.6c-0.5,0.3-1,0.6-1.4,0.8s-0.7,0.6-1,0.9c-0.3,0.3-0.5,0.7-0.7,1.1
				c-0.1,0.4-0.2,0.8-0.2,1.3c0,0.5,0.1,1,0.3,1.5c0.2,0.5,0.5,0.9,0.9,1.3c0.4,0.4,0.9,0.7,1.6,0.9c0.6,0.2,1.3,0.3,2.1,0.3
				c0.6,0,1.2-0.1,1.7-0.2c0.5-0.1,1-0.3,1.4-0.6c0.4-0.3,0.9-0.6,1.3-1c0.9,0.7,1.5,1.2,1.8,1.4c0.3,0.2,0.6,0.3,0.9,0.3
				c0.3,0,0.6-0.1,0.8-0.3c0.2-0.2,0.4-0.5,0.4-0.8c0-0.2-0.1-0.5-0.2-0.6C-1446.1,264.4-1446.4,264.1-1446.9,263.7L-1446.9,263.7z"
				/>
			<path class="st7" d="M-1427.2,252.1h-9c-0.5,0-0.8,0.1-1.1,0.3c-0.3,0.2-0.4,0.5-0.4,0.9c0,0.4,0.1,0.6,0.4,0.8
				c0.2,0.2,0.6,0.3,1.1,0.3h3.1v10.2c0,0.6,0.1,1,0.4,1.3c0.3,0.3,0.6,0.4,1,0.4c0.4,0,0.7-0.1,1-0.4c0.3-0.3,0.4-0.7,0.4-1.3
				v-10.2h3.1c0.5,0,0.8-0.1,1.1-0.3c0.2-0.2,0.4-0.5,0.4-0.8c0-0.3-0.1-0.6-0.4-0.8C-1426.3,252.2-1426.7,252.1-1427.2,252.1
				L-1427.2,252.1z"/>
			<path class="st7" d="M-1415.2,257.9c-0.5,0.1-1,0.2-1.7,0.2h-2.5v-3.8h2.6c1,0,1.6,0.1,1.9,0.2c0.3,0.2,0.6,0.4,0.8,0.7
				c0.2,0.3,0.3,0.6,0.3,1c0,0.5-0.1,0.9-0.4,1.2C-1414.4,257.6-1414.8,257.8-1415.2,257.9L-1415.2,257.9z M-1411.8,262.6
				c-0.4-0.6-0.8-1.1-1.2-1.7c-0.5-0.5-0.9-0.9-1.4-1.2c1.2-0.3,2.1-0.7,2.7-1.3c0.6-0.6,0.9-1.5,0.9-2.5c0-0.5-0.1-1-0.3-1.5
				c-0.2-0.4-0.4-0.8-0.8-1.2c-0.3-0.3-0.7-0.6-1.2-0.8c-0.4-0.2-0.8-0.3-1.2-0.3c-0.4-0.1-1-0.1-1.6-0.1h-4.6
				c-0.6,0-1.1,0.1-1.3,0.4c-0.3,0.3-0.4,0.7-0.4,1.3v10.8c0,0.6,0.1,1,0.4,1.3c0.3,0.3,0.6,0.4,1.1,0.4c0.4,0,0.8-0.1,1-0.4
				c0.3-0.3,0.4-0.7,0.4-1.3v-4.5h1c0.5,0,0.9,0.1,1.2,0.2c0.3,0.1,0.7,0.4,1,0.7c0.3,0.4,0.7,0.9,1.1,1.6l1.1,1.9
				c0.3,0.5,0.5,0.8,0.6,1c0.2,0.2,0.3,0.4,0.6,0.6c0.2,0.1,0.5,0.2,0.8,0.2c0.3,0,0.5,0,0.7-0.1c0.2-0.1,0.4-0.2,0.5-0.4
				c0.1-0.2,0.2-0.4,0.2-0.5c0-0.2-0.1-0.5-0.3-1C-1411.2,263.7-1411.5,263.2-1411.8,262.6L-1411.8,262.6z"/>
			<path class="st7" d="M-1402.2,260.6l2.1-5.8l2.1,5.8H-1402.2L-1402.2,260.6z M-1397.7,254.5c-0.2-0.5-0.3-0.8-0.4-1.1
				c-0.1-0.3-0.2-0.5-0.4-0.8c-0.2-0.2-0.4-0.4-0.6-0.6c-0.3-0.2-0.6-0.2-1-0.2c-0.4,0-0.7,0.1-1,0.2c-0.3,0.1-0.5,0.3-0.6,0.6
				c-0.2,0.2-0.3,0.5-0.5,0.9c-0.1,0.4-0.3,0.7-0.4,0.9l-3.6,9.1c-0.1,0.4-0.2,0.6-0.3,0.8c-0.1,0.2-0.1,0.4-0.1,0.6
				c0,0.3,0.1,0.6,0.4,0.9c0.3,0.3,0.6,0.4,0.9,0.4c0.4,0,0.7-0.1,0.9-0.4c0.2-0.2,0.4-0.7,0.7-1.4l0.7-1.8h5.7l0.7,1.8
				c0.1,0.2,0.2,0.5,0.3,0.8c0.1,0.3,0.2,0.5,0.3,0.6c0.1,0.1,0.2,0.2,0.4,0.3c0.1,0.1,0.3,0.1,0.6,0.1c0.4,0,0.7-0.1,1-0.4
				c0.3-0.3,0.4-0.6,0.4-0.9c0-0.3-0.2-0.8-0.4-1.5L-1397.7,254.5L-1397.7,254.5z"/>
			<path class="st7" d="M-1387.3,251.9c-0.4,0-0.8,0.1-1,0.4c-0.3,0.3-0.4,0.7-0.4,1.3v11c0,0.6,0.1,1,0.4,1.3
				c0.3,0.3,0.6,0.4,1,0.4c0.4,0,0.8-0.1,1-0.4c0.3-0.3,0.4-0.7,0.4-1.3v-11c0-0.6-0.1-1-0.4-1.3
				C-1386.5,252-1386.9,251.9-1387.3,251.9z"/>
			<path class="st7" d="M-1367.2,251.9c-0.4,0-0.7,0.1-0.9,0.4c-0.2,0.3-0.3,0.7-0.3,1.2v8.3l-5.4-8.2c-0.1-0.2-0.3-0.5-0.4-0.7
				c-0.2-0.2-0.3-0.4-0.4-0.5c-0.1-0.1-0.3-0.3-0.5-0.3c-0.2-0.1-0.4-0.1-0.7-0.1c-0.3,0-0.6,0.1-0.9,0.3c-0.3,0.2-0.5,0.4-0.6,0.7
				c-0.1,0.3-0.1,0.6-0.1,1.1v10.8c0,0.5,0.1,0.9,0.4,1.2c0.2,0.3,0.6,0.4,1,0.4c0.4,0,0.7-0.1,1-0.4c0.2-0.3,0.4-0.7,0.4-1.2v-8.2
				l5.3,8.1c0.2,0.2,0.3,0.4,0.5,0.7c0.1,0.2,0.3,0.4,0.5,0.6c0.2,0.2,0.4,0.3,0.6,0.4c0.2,0.1,0.4,0.1,0.7,0.1c1,0,1.5-0.6,1.5-1.8
				v-11c0-0.5-0.1-0.9-0.4-1.2C-1366.5,252-1366.8,251.9-1367.2,251.9L-1367.2,251.9z"/>
			<path class="st7" d="M-1359.4,251.9c-0.4,0-0.8,0.1-1,0.4c-0.3,0.3-0.4,0.7-0.4,1.3v11c0,0.6,0.1,1,0.4,1.3
				c0.3,0.3,0.6,0.4,1,0.4c0.4,0,0.8-0.1,1-0.4c0.3-0.3,0.4-0.7,0.4-1.3v-11c0-0.6-0.1-1-0.4-1.3
				C-1358.6,252-1359,251.9-1359.4,251.9z"/>
			<path class="st7" d="M-1342.1,251.9c-0.4,0-0.7,0.1-0.9,0.4c-0.2,0.3-0.3,0.7-0.3,1.2v8.3l-5.4-8.2c-0.1-0.2-0.3-0.5-0.4-0.7
				c-0.1-0.2-0.3-0.4-0.4-0.5c-0.1-0.1-0.3-0.3-0.5-0.3c-0.2-0.1-0.4-0.1-0.7-0.1c-0.3,0-0.6,0.1-0.9,0.3c-0.3,0.2-0.5,0.4-0.6,0.7
				c-0.1,0.3-0.1,0.6-0.1,1.1v10.8c0,0.5,0.1,0.9,0.4,1.2c0.3,0.3,0.6,0.4,1,0.4c0.4,0,0.7-0.1,1-0.4c0.2-0.3,0.4-0.7,0.4-1.2v-8.2
				l5.3,8.1c0.2,0.2,0.3,0.4,0.5,0.7c0.1,0.2,0.3,0.4,0.5,0.6c0.2,0.2,0.4,0.3,0.6,0.4c0.2,0.1,0.4,0.1,0.7,0.1c1,0,1.5-0.6,1.5-1.8
				v-11c0-0.5-0.1-0.9-0.4-1.2C-1341.4,252-1341.7,251.9-1342.1,251.9L-1342.1,251.9z"/>
			<path class="st7" d="M-1320.4,259.3c-0.2-0.2-0.4-0.4-0.7-0.5c-0.3-0.1-0.6-0.1-1-0.1h-3.2c-0.4,0-0.7,0.1-0.9,0.3
				c-0.2,0.2-0.3,0.5-0.3,0.8c0,0.4,0.1,0.6,0.4,0.8c0.3,0.2,0.7,0.2,1.2,0.2h2.2v2.3c-0.6,0.3-1.2,0.6-1.8,0.7
				c-0.6,0.2-1.2,0.3-1.8,0.3c-1.3,0-2.4-0.4-3.1-1.3c-0.8-0.9-1.1-2.1-1.1-3.8c0-0.8,0.1-1.4,0.3-2.1c0.2-0.6,0.5-1.1,0.8-1.6
				c0.4-0.4,0.8-0.8,1.3-1c0.5-0.2,1.1-0.3,1.8-0.3c0.6,0,1.2,0.1,1.6,0.3c0.4,0.2,0.7,0.4,1,0.7c0.2,0.3,0.5,0.7,0.9,1.2
				c0.1,0.2,0.3,0.3,0.5,0.4c0.2,0.1,0.4,0.1,0.6,0.1c0.4,0,0.7-0.1,0.9-0.4c0.3-0.3,0.4-0.6,0.4-0.9c0-0.3-0.1-0.7-0.3-1.1
				c-0.2-0.4-0.6-0.8-1-1.2c-0.5-0.4-1-0.7-1.8-1c-0.7-0.3-1.6-0.4-2.5-0.4c-1.1,0-2.2,0.2-3.1,0.5c-0.9,0.3-1.7,0.8-2.3,1.5
				c-0.6,0.6-1.1,1.4-1.4,2.3c-0.3,0.9-0.5,1.9-0.5,3c0,1.1,0.2,2.1,0.5,3c0.3,0.9,0.8,1.7,1.4,2.3c0.6,0.6,1.4,1.1,2.3,1.4
				c0.9,0.3,1.9,0.5,2.9,0.5c0.9,0,1.8-0.1,2.6-0.3c0.8-0.2,1.6-0.5,2.4-1c0.3-0.2,0.5-0.3,0.7-0.5c0.2-0.2,0.3-0.4,0.4-0.6
				c0.1-0.2,0.1-0.5,0.1-0.8v-2.7C-1320.2,259.9-1320.3,259.6-1320.4,259.3L-1320.4,259.3z"/>
		</g>
		<g>
			<path class="st8" d="M-1012.8,375.9c-4.3-1.2-11.6-2.4-16.5-3.7c-11-2.4-8.5,0-25,12.2c-1.2,1.2-3.7,2.4-5.5,4.3
				c-9.2,6.1-6.1,20.8,23.8,3.7C-1029.8,388.8-1018.2,381.4-1012.8,375.9L-1012.8,375.9z M-1065.9,399.1c-0.6-5.5,1.8-7.3,9.8-14
				l18.9-16.5c3.1-1.8,23.8,2.4,26.9,6.7c-2.4,1.2-3.1,2.4-6.1,4.3l-19.5,12.2C-1042.7,396.7-1057.3,405.2-1065.9,399.1
				L-1065.9,399.1z M-721.5,397.3c8.5-7.9,6.7-6.7-19.5-25.6c-3.1-2.4-3.7-2.4-7.9-1.2c-3.7,0.6-15.3,2.4-17.7,4.3
				c0,3.1,0.6,1.8,3.1,3.7c13.4,9.2,9.8,6.1,23.2,13.4c3.7,2.4,6.7,3.1,8.5,3.7c1.8,1.2,0.6,0,1.2,1.2
				c-14.7-3.1-33.6-16.5-42.7-23.8c3.1-3.7,14-4.3,18.9-6.1c7.9-2.4,6.1-1.2,16.5,6.7c2.4,1.8,20.8,14.7,22,16.5
				C-714.2,394.3-717.9,396.1-721.5,397.3L-721.5,397.3z M-736.2,388.2l4.9,0.6l0.6,2.4c-0.6,0-1.8-0.6-2.4-0.6
				C-737.4,389.4-734.9,390-736.2,388.2L-736.2,388.2z M-1015.8,369.2c-3.7,0-2.4-0.6-4.9-1.2c-2.4-1.2-3.1-0.6-6.1-1.2
				c1.8-2.4,2.4-2.4,4.9-4.3s3.1-3.1,5.5-4.3C-1015.8,361.3-1015.8,365.6-1015.8,369.2L-1015.8,369.2z M-869.9,270.3
				c0.6-2.4,1.8-5.5,3.1-6.7l20.8,22.6c4.3,4.3,6.7,6.7,11,11l11,9.8h-0.6c0,0-1.2,1.2-3.7,0.6c-3.7,0-2.4-3.7-7.3,1.8
				c-1.2-1.8-4.3-2.4-3.7-6.1c2.4,1.8,5.5,0,3.7-3.7c-3.1-0.6-4.3,1.2-6.1,2.4c-1.2,5.5,3.7,9.2,7.3,11c-0.6,1.8-0.6,2.4,0,4.3
				c1.8,0.6,4.3,1.2,5.5-0.6s0-0.6,0.6-3.1v-0.6c0,0,0,0,0-0.6v-0.6c3.1,2.4-0.6,0.6,1.2,7.9c4.9,1.2,6.1-1.8,2.4-4.9
				c4.9,1.2,6.7,4.3,6.7,10.4v-0.6V324l-1.2-2.4c-0.6-0.6,0-1.2-1.8-1.2s-3.1,1.8-1.8,3.1c0.6,1.8,3.1,3.1,4.9,4.3c0,0,0,0,0.6,0.6
				c0.6,0.6,1.2,1.8,2.4,1.8c6.1-1.8,4.3-8.5,0-5.5c0-3.7,0-6.1-2.4-8.5c-3.1-3.1-4.3-1.8-3.7-6.1c4.9,3.1,19.5,18.3,25.6,22
				l-1.8,3.7c-1.8-5.5-10.4-10.4-15.3-5.5c-1.8,1.8-2.4,7.9,0.6,8.5c1.8,0.6,3.1-0.6,2.4-2.4c-0.6-3.1-1.8-1.2-2.4-4.3
				c5.5-1.8,12.2,0.6,11.6,6.1c-2.4-0.6-0.6-1.8-4.3-1.8c-3.7,4.3,1.2,6.1,5.5,3.7c3.1-1.8,0-0.6,3.7-1.8c2.4-0.6,2.4-1.2,3.7-2.4
				l36,29.3c-4.3,0.6-7.9,1.2-11.6,2.4c0.6-3.7,3.7-12.8-3.7-10.4c-1.8,6.1,1.2,2.4,2.4,5.5c-4.3,0.6-6.1-1.8-7.9-3.1h0.6l3.7-1.2
				c0.6-6.1-7.3-7.9-7.3-1.2c0,3.7,4.3,6.7,7.9,7.9c-0.6,2.4-1.2,1.8,0,4.3c-2.4,0-2.4-0.6-4.3-1.8c-1.2-1.2-2.4-1.8-3.7-3.1
				c-2.4-1.8-4.3-3.7-7.3-5.5c-4.3-3.1-10.4-7.3-13.4-11c4.3,0.6,3.1-1.2,6.7,0c3.7,1.2,4.9,1.8,8.5,1.2c3.7,3.7,6.7,4.3,5.5-3.7
				c-1.8-1.2-6.7-6.1-9.2-1.2c-1.2,1.8,0,0-0.6,1.8v1.2c-3.7-0.6-6.1-1.2-6.1-5.5c0.6,0.6,2.4,1.8,3.7,0.6c3.7-3.7-6.1-7.9-6.1,1.2
				c-3.1-1.2-3.1-0.6-4.9,1.8l-15.3-11.6c-1.8-1.2-3.1-2.4-4.9-3.7c-3.1-3.1-6.7-5.5-9.2-7.9c-8.5-9.2-17.1-15.9-26.9-25.6
				l-17.1-17.7l4.3-6.1c5.5,0.6,4.3,1.2,6.7,4.3c-3.1,2.4,3.7-1.8-1.2,0.6c-1.8,0.6-2.4,1.2-1.8,4.3c4.3,1.2,1.8-0.6,6.7,0
				c0,0-0.6,0,1.8,0.6c1.8,0,1.2,0,3.1-0.6v-3.7c-6.1-2.4-1.8,3.1-6.7-3.7C-865.6,272.1-866.8,272.1-869.9,270.3L-869.9,270.3z
				 M-855.2,288.6c1.8-2.4,3.1-1.2,2.4-5.5h-4.3l-0.6,5.5c-1.8-1.2-1.8-1.2-4.3-0.6c-0.6,2.4-0.6,4.3,0.6,6.1c4.3,0.6,3.1,0,5.5-1.8
				c3.1,3.1,5.5,3.7,10.4,3.1c3.7-0.6,0.6,0,0,1.8c-0.6,3.1,1.2,3.1,4.3,2.4c0-1.8,0.6-3.7-0.6-6.1l-1.8-3.1
				c-3.1-3.7-7.3-1.2-4.3,3.1C-850.3,292.9-853.4,291.1-855.2,288.6L-855.2,288.6z M-1006.6,356.4c1.8,0,1.2,0,2.4,1.2
				c-1.2,7.9-12.2,9.8-9.2,4.9c1.8-3.1,3.1-2.4,3.7-1.8C-1006.6,360.7-1005.4,359.5-1006.6,356.4L-1006.6,356.4z M-999.3,349.1
				c1.8-1.2-1.2-0.6,2.4,1.2c1.8,0.6,3.7,0.6,6.1,0.6c4.9-0.6,3.7-3.1,8.5-0.6l-12.8,9.8c-4.3,3.7-8.5,6.1-12.8,9.8
				c-1.2-4.9,1.2-2.4,4.3-6.1c1.8-1.8,3.1-4.9,1.8-7.9c0,0,0.6-0.6,0.6,0l3.1-1.8C-999.3,351.5-999.3,349.7-999.3,349.1
				L-999.3,349.1z M-1003.6,354c-4.3,0-6.1,1.2-6.7,4.9l-0.6-0.6c0,0-0.6,0-0.6-0.6l-2.4-1.8l17.1-13.4c2.4-2.4,6.7-6.7,9.8-8.5
				l-1.2,4.9v0.6c-0.6,1.2-1.8,1.2-1.2,3.7c1.2,2.4,3.1,0,2.4,3.7c-0.6,1.8-2.4,1.8-4.9,1.8c0.6-1.8,0.6-2.4,0-3.7
				c-2.4-0.6-1.8-0.6-4.3,0l-1.8,0.6C-1001.2,346.6-1004.8,350.3-1003.6,354L-1003.6,354z M-982.2,339.3c2.4-7.9,9.8-11,12.2-6.7
				c1.2,3.7,0,0,0,3.7s0,0.6,1.2,3.1c-3.7,1.8-7.3,7.3-11,9.2c0.6-1.8,3.1-4.9-0.6-5.5c-3.7,0-1.8,3.1-2.4,4.9
				c-1.2-1.2-1.8-6.1-1.8-7.3c2.4,0,2.4,3.7,6.1,0.6c2.4-1.8,2.4-3.7,0.6-5.5C-982.8,336.3-980.4,337.5-982.2,339.3L-982.2,339.3z
				 M-982.8,333.8c-1.2-0.6-0.6-0.6-2.4-1.2c1.2-1.8,0-0.6,1.2-1.8l10.4-9.2c3.7-3.1,8.5-8.5,12.8-11c0,6.7-7.3,4.3-6.7,13.4
				c-1.2,1.2-3.1,1.2-2.4,3.7c0,0.6,2.4,4.9,5.5,1.8c4.9-4.3,3.7-1.2,6.7-3.7c0-1.8,0-1.8-0.6-3.1c-6.1-1.2,0,3.7-6.7,0.6
				c0.6-4.3,3.7-8.5,7.9-7.9c-1.2,1.8-1.8,3.1,0.6,4.3c1.8,1.2,3.1-1.2,3.7-1.8c1.8,1.8,2.4,1.2,4.9,1.8l-17.7,17.1
				c-1.8-3.7-1.2-7.3-7.3-7.9C-978.6,327.7-980.4,331.4-982.8,333.8L-982.8,333.8z M-957.8,305.7c4.3-2.4,11.6-10.4,14.7-14.7
				c2.4,0.6,3.1,0,4.3,1.8c-1.2,3.1-1.2,0.6-2.4,3.1c-1.2,2.4-0.6,6.1,3.1,4.9c1.8-0.6,0.6-1.2,3.1-2.4c0,0,1.8,0,2.4-0.6
				c4.9-1.2,3.1-3.7,7.9-3.1c-1.8,3.1-7.9,7.3-10.4,10.4l-10.4,11c-0.6-1.2-1.2-1.8-1.2-3.1c6.7-2.4,12.2-13.4,3.1-13.4
				c-3.7,1.2-4.3,1.2-3.7,4.9c4.3,1.2,3.1-0.6,5.5-1.8c1.2,4.9-5.5,11.6-9.8,9.2c1.2-4.3,6.1-1.8,3.7-6.1c-3.1-1.8-3.7,0.6-4.9,2.4
				c-2.4,4.3,0,3.1-1.2,6.7c-1.2-1.8-1.2-1.8-3.7-3.1l-1.2-0.6c1.2-0.6,1.8,0,4.3-1.2c0-2.4,0.6-1.2-0.6-3.1
				c-0.6-0.6-0.6-0.6-1.2-1.2H-957.8z M-936.4,292.9l4.3,1.2l-4.9,1.8L-936.4,292.9z M-921.8,266.7c9.8-3.1,15.9-5.5,24.4-9.2v32.4
				c-17.1,3.7-4.9,3.1-25.6,3.1L-921.8,266.7z M-928.5,255.1c1.2,7.9,0,6.7,4.3,11.6c0,8.5-0.6,17.7-0.6,26.3
				c-4.9,0-13.4-1.8-17.1-4.3c-1.8-11,0-22,1.2-32.4L-928.5,255.1z M-965.7,279.5c0-6.7,1.2-15.9,3.7-22l20.1-0.6
				c-1.2,12.2-1.2,18.9-1.2,31.7C-953.5,286.2-961.5,280.1-965.7,279.5L-965.7,279.5z M-923.6,263.6c-1.8-2.4-3.1-4.9-2.4-9.2
				l3.1-0.6L-923.6,263.6z M-921.2,264.2c-0.6-13.4,2.4-11.6,7.3-12.8c4.3-1.2,11,2.4,15.3,4.3
				C-901.6,257.5-916.3,263.6-921.2,264.2L-921.2,264.2z M-894.9,256.3c9.2-3.7,19.5-9.2,28.1-14c0,11-2.4,21.4-7.3,30.5
				c-3.1,6.1-4.3,5.5-9.2,9.8c-3.1,2.4-6.7,6.1-11.6,6.7V256.3z M-910.8,238c6.1-1.8,4.3-2.4,11-1.8c2.4,0,11.6-0.6,12.2-0.6
				c3.7,0.6,4.3,3.7,10.4,2.4c4.3-1.2,5.5-2.4,10.4-2.4c0.6,4.9-0.6,4.9-8.5,9.2c-3.7,1.8-7.3,3.7-11.6,6.1
				c-15.3,7.3-3.7,3.1-24.4-1.8L-910.8,238z M-916.3,238h3.1v4.9L-916.3,238z M-788.1,234.3h3.1h3.7h2.4l0.6,4.9h-56.2
				c0,0,0-0.6,0.6-0.6c2.4-4.3,0-1.8,0.6-4.9v-0.6l0.6-1.2c0.6,0.6,0.6-0.6,0.6,2.4h3.1v-2.4c0.6,0.6,0.6-0.6,0.6,2.4h3.7h1.8v-2.4
				c0,0.6,0.6-0.6,0.6,2.4h3.7h3.1h3.1v-2.4c0,0.6,0.6-0.6,0.6,2.4h3.7h1.8v-2.4c0.6,0.6,0.6-0.6,0.6,2.4h3.7h1.2h3.1v-2.4
				c0.6,0.6,0.6-0.6,0.6,2.4h3.7h3.1C-790.5,234.3-788.1,234.3-788.1,234.3z M-1014,239.8c0.6-4.3,0.6,0,1.2-3.7c0-1.8,0,0.6,0-1.2
				v-1.8c0-1.8-1.2-0.6,0-1.2h55v6.7C-964.5,241.6-1003.6,239.8-1014,239.8L-1014,239.8z M-946.2,226.4c4.9,3.1,3.1,1.2,6.1,2.4
				c-2.4,1.8-7.3,2.4-7.9-3.1L-946.2,226.4L-946.2,226.4L-946.2,226.4z M-811.3,218.4c0-2.4,0.6-0.6-0.6-2.4l-1.2-1.8
				c3.7,0,0.6,0.6,4.3,2.4l4.3-1.8c1.2,0.6,1.8,1.2,3.7,1.8l3.1-1.8c0,4.3-0.6-0.6-1.8,3.7c3.7,4.9,3.7-1.8,3.7,3.7
				c-1.8-0.6-4.9-1.8-4.9,1.2s2.4,0.6,2.4,4.3c-2.4-0.6-0.6-1.8-2.4-2.4c-3.7-0.6-3.1-0.6-4.9,1.2c-1.8-1.2-1.2-1.2-4.9-1.8
				c-1.8,3.1,0,2.4-2.4,1.8c1.8-1.2,1.8-1.8,2.4-5.5h-4.3C-813.1,217.8-813.7,220.2-811.3,218.4L-811.3,218.4z M-802.7,222.1
				c0-3.7,0-4.9-3.7-5.5c-3.1,2.4-3.1,6.1,0.6,7.9C-802.7,223.3-804.6,224.5-802.7,222.1L-802.7,222.1z M-849.1,223.3h-13.4
				c0.6-3.1,0-2.4,4.3-2.4c1.2,0.6,1.2,0.6,1.8,1.2c1.2-1.2,0.6-0.6,1.8-1.2c0.6,0.6,1.2,0.6,1.2,1.2c1.2-1.2-0.6-1.8,1.8-1.2
				C-849.7,221.5-849.7,221.5-849.1,223.3L-849.1,223.3z M-993.8,217.8c-0.6-3.1-0.6-1.2-2.4-3.7c5.5,0.6,0.6,4.3,8.5,1.2l3.7,1.8
				c1.2-1.2,1.2-1.2,3.7-1.8c-1.2,4.3-1.2,0-1.8,4.3c0.6,3.1,3.1-0.6,3.7,3.1c-1.2,0-4.3-1.8-4.3,1.2c0,2.4,0.6,1.8,1.2,2.4
				c1.2,1.2,1.8,0,0.6,1.8v-0.6l-0.6-0.6c-1.2-2.4,0.6-1.2-2.4-1.8c-1.8-0.6-3.1,0.6-4.3,1.2c-6.7-3.7-3.7,0-6.7,1.2
				c0.6-2.4,1.8-0.6,1.8-5.5c-1.8-0.6-1.8,0-3.7-1.2L-993.8,217.8z M-988.3,217.2c-1.8,1.2-3.1,2.4-2.4,4.9c0.6,2.4,1.8,3.1,3.7,2.4
				c0,0,2.4-1.2,1.8-4.3C-985.9,217.8-987.1,217.8-988.3,217.2L-988.3,217.2z M-886.4,232.5c-5.5-9.8,3.1-22.6,13.4-19.5
				c-4.3,1.8-6.7,1.2-9.8,4.3c-2.4,2.4-3.7,6.7-1.8,11.6C-885.8,232.5-885.8,227.6-886.4,232.5L-886.4,232.5z M-847.3,216
				c-1.2-3.1-2.4-2.4-2.4-3.7c0,0,0-1.2,3.1-0.6c3.1,0.6,1.2,2.4,0.6,3.1C-846.1,214.1-847.3,216-847.3,216L-847.3,216z
				 M-978.6,217.2c0-3.1-0.6-3.7-1.8-5.5h22.6v1.8l-7.9,0.6c0,16.5-1.8,14,8.5,14v2.4h-22.6c3.7-4.3,0.6-3.1,4.9-5.5
				C-970.6,222.1-972.5,217.2-978.6,217.2L-978.6,217.2z M-1014,211.7c21.4,0,14.7-1.2,15.3,4.3c-6.7,1.2-7.9,7.9,0.6,8.5
				c-2.4,4.3,1.8,5.5,4.3,4.3c1.2-0.6,0.6,0,1.2-1.2l0.6-0.6c4.3,3.7,2.4,0,6.7,0l1.2,3.1h-29.9V211.7z M-796,212.3
				c-6.7-1.2,0.6,1.2-7.9,0c-4.9-0.6-1.8,3.1-6.1-1.2h31.1v18.3h-17.7c4.3-9.2,4.3-2.4,6.1-7.3c1.8-4.3-1.2-6.1-4.9-6.1
				C-794.8,214.8-795.4,213.5-796,212.3L-796,212.3z M-828.4,214.1c-4.3,0-6.1,1.2-6.7-2.4h21.4c-1.2,1.2-1.8,2.4-1.2,4.3
				c-4.9,0.6-5.5,2.4-4.9,7.3l4.3,1.2v0.6v0.6c0,0,1.2,6.7,6.7,1.8l0.6-0.6c3.1,3.1,2.4,0.6,6.1,0l1.2,3.1c-6.1,0-12.2,0-18.3,0
				c-6.7,0-15.3,1.2-15.9-1.8h6.7V214.1z M-913.8,235.5c6.1-3.1,11.6-2.4,9.2-12.8c-2.4-9.2-7.9-6.1-12.2-11c3.1,0.6,9.2,1.8,11,3.7
				C-901,220.9-899.8,237.3-913.8,235.5L-913.8,235.5z M-910.8,206.2c14.7,1.2,29.9,1.2,44-0.6c0,1.8-0.6,4.3-1.8,4.9
				c-1.8,1.2-2.4,0-4.9,0c-4.3-0.6-31.1,1.2-37.2-0.6V206.2z M-926.7,202.5c2.4,0.6,2.4,0,1.2,2.4
				C-927.9,203.8-926.7,205.6-926.7,202.5L-926.7,202.5z M-1011.5,208.6c-0.6-4.3-1.8-4.3-1.8-4.3s0,0-0.6-0.6l56.2,0.6h-2.4v4.3
				c3.7,0.6,1.2,0,2.4,0.6h-56.2C-1012.1,208.6-1015.8,208.6-1011.5,208.6L-1011.5,208.6z M-833.2,208.6c-0.6-3.7-1.2-0.6-1.2-3.7
				c0-1.8-0.6-0.6,0-1.8h55.6c0.6,3.7,1.2,3.1-2.4,3.7v1.8H-833.2z M-888.8,194c3.7,0,7.3,0,11-0.6l10.4-0.6v10.4
				c-26.9,1.8-18.9,1.8-44,0.6l-0.6-10.4L-888.8,194z M-940.7,176.9c1.8,1.8,1.2,1.2,3.1,3.7c1.2,1.8,1.8,2.4,2.4,4.9l-3.1,1.2
				c-1.8-1.8-1.2-1.8-1.8-3.7l1.8,1.8c1.2,0.6,0,0.6,1.8,0c0-1.8-1.8-4.3-3.1-5.5c-2.4,1.2-1.2,1.2,0,4.3l-2.4-4.3L-940.7,176.9z
				 M-846.7,176.3c1.2-1.2,1.8-2.4,2.4-3.1c1.8,0.6,2.4,1.2,3.1,1.8l-3.7,6.1c-1.2,1.2-0.6,0.6-1.2,1.2l-3.1-2.4L-846.7,176.3z
				 M-843,174.5c-1.2,0.6-0.6,0-2.4,1.8c-1.2,1.8-1.8,2.4-1.2,3.7c1.8,1.2,1.2,0.6,3.1-1.8C-841.8,175.1-843,175.7-843,174.5
				L-843,174.5z M-959.6,175.1c3.1-0.6,7.9-4.3,11-6.1c3.7-2.4,7.3-4.9,11.6-6.7c0.6,3.1,3.7,6.7,5.5,9.8l9.8,15.9
				c-3.1-1.8-3.7-4.9-6.1-8.5l-3.7-6.1c0,0,0,0,0-0.6V172l-0.6-1.2c0,0,0,0,0-0.6l-3.1-2.4c-1.2-1.2,0,0-1.2-1.2
				c-1.2-1.8-1.2-1.2-1.8-3.1l-4.9,3.1c-3.7,2.4-12.2,6.7-14,9.2c2.4,5.5,14,20.1,15.3,25c-1.8-0.6-1.2-0.6-2.4-1.2
				C-947.4,196.4-959,176.9-959.6,175.1L-959.6,175.1z M-962.7,161l4.3,2.4c-1.8,1.2-1.8,1.2-4.3,2.4V161z M-965.1,159.8l-0.6,5.5
				l-2.4-4.3L-965.1,159.8z M-910.8,164.1c-0.6-0.6-0.6,0.6-0.6-1.8v-2.4l2.4,0.6C-910.8,162.2-909.6,161.6-910.8,164.1
				L-910.8,164.1z M-825.9,159.8c5.5-3.7,3.1-1.2,4.3-1.2v3.7C-822.3,161.6-824.7,160.4-825.9,159.8L-825.9,159.8z M-867.4,162.9
				c-2.4-0.6-0.6,0-1.8-1.8l-1.8-1.8l3.7-0.6V162.9z M-956,156.8c3.7,1.2,3.7,2.4,3.7,2.4s0,0.6,0.6,0.6c-1.8,0.6-1.8,0.6-4.3,1.8
				V156.8z M-960.2,156.1c0.6,0,1.8-0.6,2.4-1.2v5.5c-0.6,0-1.8-0.6-2.4-0.6l-1.8-1.8c0.6-0.6,0.6-0.6,1.2-1.2
				C-960.9,156.8-960.9,156.1-960.2,156.1L-960.2,156.1z M-819.2,156.1l3.1,1.8c-1.2,1.8-1.8,3.1-3.1,4.3V156.1z M-911.4,154.3
				c0-1.2,0.6-1.8,0.6-2.4c4.3,10.4,9.8,3.1,11,0.6c2.4,4.9,3.7,3.1,5.5,6.1l-16.5-1.2L-911.4,154.3z M-832.6,155.5
				c1.8-1.2,1.8-1.8,4.3-2.4v4.9L-832.6,155.5z M-879,154.9c6.7,4.3,8.5-3.1,9.2-4.3c1.8,1.2,2.4,1.2,2.4,4.9
				c-3.7,2.4-13.4,3.1-18.3,2.4c2.4-2.4,3.1-1.8,4.3-4.3L-879,154.9z M-825.9,151.3l4.3,3.1c-1.2,1.8-1.8,1.2-4.3,2.4V151.3z
				 M-948.6,152.5c1.8,0.6,2.4,1.2,4.3,2.4l-3.7,1.8L-948.6,152.5z M-954.1,152.5c2.4-1.8,2.4-1.2,3.7-1.2v4.9
				c-1.8-0.6-3.1-1.8-4.9-2.4C-954.7,153.1-954.7,153.7-954.1,152.5L-954.1,152.5z M-835.7,148.8v4.9l-3.7-2.4L-835.7,148.8z
				 M-968.8,149.4c0.6-1.8,0.6-1.2,0.6-1.8l4.3,1.8c0.6,0.6,0.6,0.6,1.2,0.6l-7.9,4.3L-968.8,149.4z M-833.2,147l4.3,3.1l-4.3,2.4
				V147z M-822.3,147c6.7-4.3,6.1-3.1,7.3,4.9L-822.3,147z M-972.5,154.3l-3.7-9.2l6.1,1.8L-972.5,154.3z M-967,137.2
				c2.4,0,5.5,1.2,7.9,2.4l-1.2,9.2l-7.9-3.1L-967,137.2z M-956.6,140.3c3.7,0.6,4.3,1.2,6.1,3.1l-6.7,4.3L-956.6,140.3z
				 M-808.2,141.5c-0.6,1.8-0.6,2.4-1.8,4.3c-0.6,0.6-0.6,1.8-1.2,2.4l-1.2,1.8c0-0.6-0.6,0-0.6-1.8c0-0.6-0.6-1.2-0.6-1.8
				c0-1.2-0.6-2.4-0.6-3.7L-808.2,141.5z M-905.3,145.8c3.1-2.4,3.7-4.9,6.1-7.9l1.8,3.1c-2.4,3.1-1.8,3.7-3.1,6.7
				C-903.5,147.6-903.5,147.6-905.3,145.8L-905.3,145.8z M-875.4,145.2c-1.2,1.2-1.8,1.2-3.7,2.4l-1.8-3.7c-0.6-1.8-1.2-1.8-2.4-3.1
				l1.2-3.7l0.6,0.6L-875.4,145.2z M-833.9,139.7c1.8-1.2,3.1-2.4,6.1-3.1l0.6,7.3L-833.9,139.7z M-808.2,131.1v7.9l-6.1,1.8
				l-1.2-8.5L-808.2,131.1z M-976.1,134.2l6.1,1.8v0.6v0.6c0.6,3.1,0-1.8,0,1.2l-1.2,6.1l-6.1-1.8L-976.1,134.2z M-817.4,133.6
				l1.2,7.9l-7.9,3.1l-1.2-8.5L-817.4,133.6z M-966.4,126.8c3.7,1.2,2.4,1.2,4.9,3.7c2.4,2.4,3.1,1.8,2.4,6.1
				c-2.4-0.6-6.1-1.2-7.9-3.1L-966.4,126.8z M-978.6,140.3l-3.1-7.3l3.7,0.6L-978.6,140.3z M-885.1,129.3c2.4,0.6,1.8,2.4,1.8,4.3
				c-1.8-1.2,0,0-1.8-0.6c-1.2-0.6,0.6,0-1.2,0L-885.1,129.3z M-898,133.6c0-2.4,0-3.1,1.8-4.3c0.6,1.2,0.6,1.2,0.6,3.7L-898,133.6z
				 M-975.5,124.4l6.7,1.8v6.7c-2.4,0-4.9-0.6-6.7-1.8V124.4z M-825.3,133.6c-0.6-3.7,1.2-4.3,2.4-6.1c1.8-2.4,1.2-2.4,4.9-3.7v7.9
				L-825.3,133.6z M-802.1,129.3l-3.7,7.3v-6.7L-802.1,129.3z M-808.8,121.3v7.3l-6.7,1.2v-7.3L-808.8,121.3z M-800.9,118.9v7.3
				c-0.6,0-1.8,1.2-2.4,1.2c-4.9,0.6-1.8,0-3.1-0.6v-6.7L-800.9,118.9z M-983.4,121.9l5.5,1.8v7.3l-5.5-1.8V121.9z M-974.9,115.8
				c1.2,0.6,5.5,5.5,6.1,7.9l-6.7-1.8L-974.9,115.8z M-982.8,113.4l5.5,1.2l-0.6,6.1c-2.4-0.6-4.3-0.6-5.5-2.4v-1.2L-982.8,113.4z
				 M-815.5,120.1c0-2.4,1.2-3.1,2.4-4.9c1.2-1.2,0.6-0.6,1.8-1.8s0-0.6,1.8-1.8v6.7L-815.5,120.1z M-990.2,111.6l4.9,1.2v5.5
				l-4.9-0.6V111.6z M-800.9,110.3v5.5l-5.5,1.8v-6.1L-800.9,110.3z M-794.2,108.5v6.1l-4.9,0.6v-5.5L-794.2,108.5z M-982.8,106.1
				c2.4,0.6,4.3,4.3,5.5,6.1l-5.5-1.8V106.1z M-989.6,104.2l4.9,1.2l-0.6,5.5l-4.9-1.8L-989.6,104.2z M-806.4,108.5
				c0.6-1.8,1.2-1.8,2.4-3.7c1.2-1.8,0.6-1.2,3.1-2.4v4.9L-806.4,108.5z M-995,102.4l3.1,0.6v5.5l-3.7-0.6L-995,102.4z
				 M-799.1,101.8l2.4-0.6c3.7,0,0.6,0,2.4,0.6v4.3l-4.9,1.2L-799.1,101.8z M-791.7,100l3.1-0.6v5.5l-3.1,0.6V100z M-884.5,101.2
				c0,1.8,0,0.6-0.6,1.8c-0.6,0-1.8,0.6-1.2-2.4c0-1.8-0.6,0,1.2-1.2C-885.1,98.7-884.5,98.1-884.5,101.2L-884.5,101.2z
				 M-989.6,98.1c3.1,0.6,3.7,1.8,4.9,4.9l-4.9-1.2V98.1z M-995,96.3l3.7,0.6v3.7l-3.1-1.2L-995,96.3z M-997.5,97.5
				c0,2.4-0.6,1.8-1.2,1.8s-2.4,0-0.6-4.3C-997.5,96.3-997.5,93.9-997.5,97.5L-997.5,97.5z M-799.1,99.4c0.6-2.4,1.8-3.7,4.9-4.3
				v3.7L-799.1,99.4z M-788.7,93.3v3.7l-3.1,0.6c0-0.6,0-1.2,0-1.8c0-1.8,0.6-1.2,0.6-1.8L-788.7,93.3z M-786.8,93.3
				c0.6-2.4,0-0.6,1.8-1.2c0.6,1.8,1.8,3.1-0.6,4.3C-785.6,95.7-787.5,96.3-786.8,93.3L-786.8,93.3z M-910.8,88.4
				c1.2,1.2,0.6-1.8,1.2,2.4v1.8c-0.6,2.4,0,1.2-3.7,1.8L-910.8,88.4z M-995,90.8c3.7,0.6,3.1,0.6,3.1,3.7
				C-995.7,93.9-995,95.1-995,90.8L-995,90.8z M-870.5,90.8c0.6,1.8,0.6,1.2,0.6,2.4l-3.1-0.6c-0.6-2.4-0.6-2.4,0-4.3L-870.5,90.8z
				 M-996.9,93.3c-2.4-0.6-3.7-2.4,0-3.1V93.3z M-792.3,91.4c0-3.1,0-3.1,3.1-3.7C-789.3,91.4-788.7,90.8-792.3,91.4L-792.3,91.4z
				 M-785.6,86.5c0,0,1.8-1.2,0.6,2.4c-0.6,1.2-1.2,0.6-1.8,0.6C-786.8,85.9-787.5,87.8-785.6,86.5L-785.6,86.5z M-883.9,82.3
				c-1.8-1.8-1.8-2.4-3.7-3.7l4.9-0.6L-883.9,82.3z M-901.6,77.4l5.5,0.6c-0.6,0.6-1.2,1.2-1.8,2.4l-1.8,1.8L-901.6,77.4z
				 M-1016.4,70.7c1.8-1.8,2.4-1.2,3.7-3.7c1.8,3.1,4.3,6.1,6.1,9.8c-1.2,1.8-2.4,1.8-3.7,2.4L-1016.4,70.7z M-771.6,63.3
				c2.4,3.1,2.4,1.8,4.3,3.7c-1.8,3.1-3.7,6.1-6.1,8.5c-3.1-0.6-3.1-0.6-4.3-2.4L-771.6,63.3z M-1021.3,58.5
				c1.2,0.6,1.8,0.6,3.1,1.2c1.8,1.2,0.6,0.6,1.2,1.2l-4.3,1.8V58.5z M-766.7,57.2c1.2-1.8,1.8-1.8,4.3-2.4l-0.6,4.9L-766.7,57.2z
				 M-864.4,179.3c0-6.1,0-12.2,0-18.3c0-18.9-3.1-7.3-13.4-23.2c-4.9-7.3-6.1-30.5-1.2-39.1c2.4-4.3,6.1-2.4,10.4-1.8
				c1.8-3.7,1.2-5.5-1.2-9.2c-1.8-3.1-4.3-4.9-6.1-7.9c-3.7-4.3-4.9-6.7-9.8-7.9h-0.6c-2.4-1.2-3.1-3.1-6.1-3.1
				c-1.8,0-1.8,1.2-3.1,2.4c-2.4,1.8-1.8,0.6-4.3,1.8c-4.3,1.8-6.7,6.1-9.2,9.2c-3.7,4.3-6.1,7.9-6.1,14.7
				c12.2,0,15.9,6.1,15.9,17.1l-1.2,20.1c-1.8,5.5-5.5,10.4-9.8,14c-3.1,3.1-3.7,2.4-3.7,7.9v35.4c-2.4-1.8-9.8-14-12.2-17.7
				c-4.9-7.3-18.9-29.9-24.4-36l-28.1-32.4c-8.5-10.4-25-33.6-31.7-45.2c-2.4-4.9-4.3-6.1-10.4-6.1c-3.1,0-5.5,3.7-5.5,6.1
				c0,4.3-0.6,5.5,2.4,8.5c6.7,7.3,14,20.8,19.5,29.3c9.8,16.5,18.9,32.4,26.3,50.1c3.1,7.9,7.3,15.9,12.2,22.6l22.6,34.2
				c-3.7,0-6.1-0.6-9.2,1.8l-2.4,2.4v-8.5h-61.7v40.9h61.7v-12.2c3.7,1.8,5.5,4.9,11,6.1c11,1.8,4.9-14.7,23.2,0.6
				c2.4,2.4,5.5,9.2,7.3,12.2l-21.4,3.7c-7.3,1.2-15.9,1.8-23.2,1.8c-5.5,0-12.8-1.2-17.7,0c-4.3,1.2-9.8,6.7-9.8,11
				c0,3.7,3.1,6.7,6.1,8.5c3.7,3.1,4.9,3.7,9.2,6.1c4.9,2.4,15.9,8.5,21.4,8.5c-6.1,8.5-39.7,38.5-47,45.2l-12.2,10.4
				c-5.5,4.3-10.4,8.5-15.9,12.8c-1.2,1.2-2.4,1.8-3.7,3.1c-1.8,1.2-2.4,1.8-3.7,3.1c-4.3,3.1-3.1-1.2-8.5,4.3l-23.2,19.5
				c-7.3,6.7-7.3,17.7,2.4,17.7c12.2,0,20.1-4.9,31.1-11.6c4.9-3.1,11.6-6.7,16.5-11c2.4-1.8,2.4-2.4,5.5-4.3s1.8-2.4,4.9-4.3
				c17.7-12.2,34.8-26.9,50.7-41.5l32.4-33c5.5-5.5,7.9-1.8,15.3-3.7c16.5-3.7,15.9-5.5,25.6-11.6c2.4,3.7,12.2,12.8,16.5,17.1
				c3.1,3.1,4.9,5.5,7.9,8.5c1.8,1.8,2.4,1.8,4.3,3.7c24.4,23.8,47.6,42.1,74.5,61.7c11,7.9,36,26.3,50.7,26.3
				c6.1,0,12.2-3.1,12.2-7.9c0-6.1-5.5-9.2-9.8-11.6c-4.3-3.1-7.9-6.1-12.2-8.5c-4.3-3.1-7.9-6.7-12.2-9.2c-2.4-1.2-1.2,0-3.7-1.2
				c-4.3-1.2-28.1-22-33-26.3c-1.8-1.8-3.7-3.1-5.5-4.9c-1.2-1.2-1.8-1.8-3.1-2.4c-8.5-7.3-17.7-14.7-25-22.6l-22-21.4
				c-3.7-3.7-24.4-23.2-25.6-26.9c-0.6-2.4,1.2-15.3,1.2-18.9s1.8-5.5,3.1-6.7l0.6-0.6c5.5,3.7,9.2,7.3,15.9,2.4
				c1.8-1.2,3.1-4.3,5.5-4.9v14h61.1v-41.5h-59.8c-2.4,0-2.4,1.8-1.8,4.9c0.6,2.4,0.6,3.1,0.6,6.7c-3.1-1.8-1.8-3.1-6.1-5.5
				c3.1-6.1,7.3-11.6,11.6-17.1l11.6-17.1c7.9-12.2,13.4-24.4,20.1-37.9c9.2-18.9,19.5-36.6,31.1-54.3l11.6-18.3
				c0-3.7,0.6-7.3-1.8-9.8c-4.3-3.1-10.4-1.8-12.8,3.1c-4.9,9.2-11,17.7-17.1,25.6l-24.4,32.4c-20.8,26.3-21.4,23.8-40.3,51.9
				C-858.3,170.8-860.7,175.7-864.4,179.3L-864.4,179.3z"/>
			<path class="st8" d="M-959.6,274.6c1.2,0,1.2,0,1.8-0.6c4.9-2.4,1.8-10.4-1.2-10.4c-2.4,0.6-3.7,2.4-4.3,4.9
				c0,3.1-0.6,1.2,0.6,3.1L-959.6,274.6z"/>
			<path class="st8" d="M-935.2,275.8c1.2,1.2,0,1.2,1.8,1.8c1.8-1.2,1.2-1.2,3.7-2.4c0-3.7,1.2-5.5-2.4-8.5
				c-4.9,0.6-4.3,3.1-4.9,7.3c0,0,0.6,0.6,1.2,0.6C-935.2,275.8-935.8,275.2-935.2,275.8L-935.2,275.8z"/>
			<path class="st8" d="M-949.3,275.8c4.3-1.2,4.9-5.5,3.1-7.9l-1.2-1.8l-0.6-1.2c-2.4,0-3.1,1.2-4.9,1.8c0,1.2-1.2,4.3,0,5.5
				c0,0,0,0,0.6,0.6c0,0,0,0,0.6,0.6l0.6,1.2C-949.3,275.8-950.5,275.2-949.3,275.8L-949.3,275.8z"/>
			<path class="st8" d="M-982.2,208.6c2.4,0,1.8,0,3.1-1.2v-0.6c0,0,0,0,0-0.6v1.8h1.8v-4.3c-1.2,0-1.2,0-2.4,0.6l-0.6,1.2v0.6v-1.8
				h-1.8V208.6z"/>
			<path class="st8" d="M-998.1,208.6c2.4,0,1.8,0,3.1-1.2v-0.6c0,0,0,0,0-0.6v1.8h1.8v-4.3c-1.2,0-1.2,0-2.4,0.6l-0.6,1.8v0.6V205
				h-1.8V208.6z"/>
			<polygon class="st8" points="-962.7,208.6 -960.9,208.6 -960.9,204.4 -963.3,204.4 			"/>
			<polygon class="st8" points="-1001.2,208.6 -998.7,208.6 -998.7,204.4 -1001.8,204.4 			"/>
			<polygon class="st8" points="-976.1,208.6 -973.1,208.6 -974.3,204.4 -976.1,204.4 			"/>
			<path class="st9" d="M-736.2,388.2c1.2,1.8-1.2,0.6,2.4,2.4c0.6,0.6,1.8,0.6,2.4,0.6l-0.6-2.4L-736.2,388.2z"/>
			<rect x="-972.5" y="204.4" class="st8" width="1.8" height="4.3"/>
			<rect x="-1004.8" y="204.4" class="st8" width="1.8" height="4.3"/>
			<rect x="-988.3" y="204.4" class="st8" width="1.8" height="4.3"/>
			<rect x="-966.4" y="204.4" class="st8" width="1.8" height="4.3"/>
			<rect x="-1010.9" y="204.4" class="st8" width="1.8" height="4.3"/>
			<polygon class="st8" points="-1007.3,208.6 -1005.4,208.6 -1006,204.4 -1007.9,204.4 			"/>
			<polygon class="st8" points="-991.4,208.6 -989.6,208.6 -990.2,204.4 -992,204.4 			"/>
			<polygon class="st8" points="-968.8,208.6 -967,208.6 -967.6,204.4 -970,204.4 			"/>
			<polygon class="st8" points="-985.3,208.6 -982.8,208.6 -984.1,204.4 -985.9,204.4 			"/>
			<rect x="-823.5" y="235.5" class="st8" width="3.1" height="1.8"/>
			<rect x="-807" y="235.5" class="st8" width="3.1" height="1.8"/>
			<rect x="-785" y="235.5" class="st8" width="3.1" height="1.8"/>
			<rect x="-988.9" y="232.5" class="st8" width="2.4" height="2.4"/>
			<rect x="-995.7" y="232.5" class="st8" width="2.4" height="2.4"/>
			<rect x="-973.1" y="232.5" class="st8" width="2.4" height="2.4"/>
			<rect x="-1011.5" y="232.5" class="st8" width="2.4" height="2.4"/>
			<path class="st9" d="M-996.9,93.3v-3.1C-1001.2,90.8-999.9,92.6-996.9,93.3L-996.9,93.3z"/>
			<rect x="-819.8" y="206.8" class="st8" width="2.4" height="1.8"/>
			<rect x="-822.9" y="203.8" class="st8" width="2.4" height="1.8"/>
			<rect x="-787.5" y="206.8" class="st8" width="2.4" height="1.8"/>
			<rect x="-803.3" y="206.8" class="st8" width="2.4" height="1.8"/>
			<rect x="-785" y="203.8" class="st8" width="2.4" height="1.8"/>
			<rect x="-807" y="203.8" class="st8" width="2.4" height="1.8"/>
			<rect x="-960.2" y="232.5" class="st8" width="2.4" height="2.4"/>
			<rect x="-781.4" y="235.5" class="st8" width="2.4" height="1.8"/>
			<rect x="-995.7" y="236.1" class="st8" width="2.4" height="1.8"/>
			<rect x="-1001.8" y="236.1" class="st8" width="2.4" height="1.8"/>
			<rect x="-979.2" y="236.1" class="st8" width="2.4" height="1.8"/>
			<rect x="-963.3" y="236.1" class="st8" width="2.4" height="1.8"/>
			<rect x="-788.1" y="235.5" class="st8" width="1.8" height="1.8"/>
			<rect x="-825.9" y="235.5" class="st8" width="1.8" height="1.8"/>
			<rect x="-829.6" y="235.5" class="st8" width="1.8" height="1.8"/>
			<rect x="-791.1" y="235.5" class="st8" width="1.8" height="1.8"/>
			<rect x="-797.2" y="235.5" class="st8" width="1.8" height="1.8"/>
			<rect x="-832" y="235.5" class="st8" width="1.8" height="1.8"/>
			<rect x="-810" y="235.5" class="st8" width="1.8" height="1.8"/>
			<rect x="-816.2" y="235.5" class="st8" width="1.8" height="1.8"/>
			<rect x="-800.3" y="235.5" class="st8" width="1.8" height="1.8"/>
			<rect x="-803.9" y="235.5" class="st8" width="1.8" height="1.8"/>
			<rect x="-813.7" y="235.5" class="st8" width="1.8" height="1.8"/>
			<rect x="-819.8" y="235.5" class="st8" width="1.8" height="1.8"/>
			<rect x="-794.2" y="235.5" class="st8" width="1.8" height="1.8"/>
			<rect x="-781.4" y="203.8" class="st8" width="1.8" height="1.8"/>
			<rect x="-1007.9" y="232.5" class="st8" width="1.8" height="2.4"/>
			<rect x="-998.1" y="232.5" class="st8" width="1.8" height="2.4"/>
			<rect x="-992" y="232.5" class="st8" width="1.8" height="2.4"/>
			<rect x="-985.9" y="232.5" class="st8" width="1.8" height="2.4"/>
			<rect x="-982.2" y="232.5" class="st8" width="1.8" height="2.4"/>
			<rect x="-976.1" y="232.5" class="st8" width="1.8" height="2.4"/>
			<rect x="-963.3" y="232.5" class="st8" width="1.8" height="2.4"/>
			<rect x="-1004.2" y="232.5" class="st8" width="1.8" height="2.4"/>
			<rect x="-979.2" y="232.5" class="st8" width="1.8" height="2.4"/>
			<rect x="-966.4" y="232.5" class="st8" width="1.8" height="2.4"/>
			<rect x="-969.4" y="232.5" class="st8" width="1.8" height="2.4"/>
			<rect x="-1001.8" y="232.5" class="st8" width="1.8" height="2.4"/>
			<rect x="-960.2" y="236.1" class="st8" width="2.4" height="1.8"/>
			<rect x="-828.4" y="206.8" class="st8" width="1.8" height="1.8"/>
			<rect x="-810" y="203.8" class="st8" width="1.8" height="1.8"/>
			<rect x="-790.5" y="206.8" class="st8" width="1.8" height="1.8"/>
			<rect x="-825.9" y="203.8" class="st8" width="1.8" height="1.8"/>
			<rect x="-812.5" y="206.8" class="st8" width="1.8" height="1.8"/>
			<rect x="-822.3" y="206.8" class="st8" width="1.8" height="1.8"/>
			<rect x="-806.4" y="206.8" class="st8" width="1.8" height="1.8"/>
			<rect x="-800.3" y="206.8" class="st8" width="1.8" height="1.8"/>
			<rect x="-784.4" y="206.8" class="st8" width="1.8" height="1.8"/>
			<rect x="-791.1" y="203.8" class="st8" width="1.8" height="1.8"/>
			<rect x="-794.2" y="203.8" class="st8" width="1.8" height="1.8"/>
			<rect x="-797.2" y="203.8" class="st8" width="1.8" height="1.8"/>
			<rect x="-816.2" y="203.8" class="st8" width="1.8" height="1.8"/>
			<rect x="-813.1" y="203.8" class="st8" width="1.8" height="1.8"/>
			<rect x="-829.6" y="203.8" class="st8" width="1.8" height="1.8"/>
			<rect x="-832" y="203.8" class="st8" width="1.8" height="1.8"/>
			<rect x="-825.9" y="206.8" class="st8" width="1.8" height="1.8"/>
			<rect x="-800.3" y="203.8" class="st8" width="1.8" height="1.8"/>
			<rect x="-819.8" y="203.8" class="st8" width="1.8" height="1.8"/>
			<rect x="-803.3" y="203.8" class="st8" width="1.8" height="1.8"/>
			<rect x="-796.6" y="206.8" class="st8" width="1.8" height="1.8"/>
			<rect x="-794.2" y="206.8" class="st8" width="1.8" height="1.8"/>
			<rect x="-816.2" y="206.8" class="st8" width="1.8" height="1.8"/>
			<rect x="-787.5" y="203.8" class="st8" width="1.8" height="1.8"/>
			<rect x="-832" y="206.8" class="st8" width="1.8" height="1.8"/>
			<rect x="-810" y="206.8" class="st8" width="1.8" height="1.8"/>
			<rect x="-972.5" y="236.1" class="st8" width="1.8" height="1.8"/>
			<rect x="-976.1" y="236.1" class="st8" width="1.8" height="1.8"/>
			<rect x="-982.2" y="236.1" class="st8" width="1.8" height="1.8"/>
			<rect x="-985.9" y="236.1" class="st8" width="1.8" height="1.8"/>
			<rect x="-1004.2" y="236.1" class="st8" width="1.8" height="1.8"/>
			<rect x="-988.3" y="236.1" class="st8" width="1.8" height="1.8"/>
			<rect x="-1010.9" y="236.1" class="st8" width="1.8" height="1.8"/>
			<rect x="-992" y="236.1" class="st8" width="1.8" height="1.8"/>
			<rect x="-969.4" y="236.1" class="st8" width="1.8" height="1.8"/>
			<rect x="-966.4" y="236.1" class="st8" width="1.8" height="1.8"/>
			<rect x="-1007.9" y="236.1" class="st8" width="1.8" height="1.8"/>
			<rect x="-998.1" y="236.1" class="st8" width="1.8" height="1.8"/>
			<path class="st10" d="M-332,210.5c0.6-3.7,25.6-37.2,37.2-16.5C-297.2,203.8-322.8,209.9-332,210.5L-332,210.5z M-429.1,195.2
				c1.8-5.5,17.1-15.3,25.6-16.5c1.8,10.4,4.9,14.7-4.3,17.7C-413.2,198.9-424.2,198.9-429.1,195.2L-429.1,195.2z M-274.6,113.4
				c-6.7,4.3-3.1,18.3-1.8,27.5c1.2,9.8,1.2,20.8,2.4,30.5c1.8,28.7,10.4,39.1-22.6,39.7c1.8-11.6,16.5-23.8,0.6-33
				c-14.7-9.2-18.9,11-27.5,14c0-11.6,0-21.4-0.6-33c-2.4-30.5,1.2-12.8,2.4-28.7c-9.8-4.9-5.5-6.1-7.3-15.3c0,0,0-0.6-0.6-1.2
				c0-0.6,0-0.6-0.6-1.2c-2.4,3.1-4.3,9.2-4.9,13.4c-1.8,7.9,0.6,7.9,1.8,14c2.4,11,7.9,54.3,2.4,61.7c-1.8,2.4-6.1,7.9-8.5,8.5
				c-7.9,2.4-6.7-3.7-8.5-7.3c-4.3,1.8-3.7,4.3-9.8,6.7c-13.4,5.5-26.9,3.7-33-10.4c-7.9-18.9-7.3-46.4-12.8-51.3
				c-4.9,6.1-1.8,14-1.2,21.4c-12.2,6.7-33,18.3-31.7,36.6c4.9,3.1,14,4.9,22.6,3.1c9.2-1.8,6.7-8.5,14.7-11.6
				c2.4,11.6,6.7,22,15.9,25.6c15.9,5.5,29.3-5.5,32.4-6.7c3.7,7.9,7.3,7.9,18.9,6.7c9.2-0.6,14,0,23.2,0
				c40.9,0.6,26.9-1.8,39.1-11.6c7.9,11.6,4.3,11.6,22.6,11.6h49.5c8.5-0.6,6.7-3.7,13.4-2.4c15.9,2.4,15.3,3.7,24.4-6.1
				c6.7,3.1,4.9,4.3,15.3,3.7c4.3-8.5,9.2-31.1,0.6-36c-3.7,12.2,6.7,31.1-11.6,22c0-4.9,1.2-5.5,0.6-9.8c-0.6-3.1,0-1.2-1.2-3.1
				c-4.9,3.7-2.4,9.8-7.9,15.3c-3.1,3.1-11,5.5-15.9,1.8c-3.1-3.1,0-3.7-0.6-7.9c-0.6-4.3,1.2,0-1.2-3.1
				c-4.3,6.1-3.1,12.2-13.4,12.8h-50.7c-10.4,0-15.3,1.8-18.3-7.3C-270.3,187.9-267.9,121.9-274.6,113.4L-274.6,113.4z"/>
			<path class="st10" d="M-618.9,202.5c1.8-4.3,2.4-4.9,6.7-6.1c1.8,3.1,5.5,11,6.1,14.7C-612.8,209.9-617.1,206.8-618.9,202.5
				L-618.9,202.5z M-608.6,184.2c-6.1,1.2-8.5,5.5-11.6,10.4c-3.7,4.9-3.7,11-7.9,13.4c-14,7.9-20.8-4.9-21.4-17.1
				c-0.6-11.6-3.1-73.3-6.1-78.2c-7.9,3.7-1.8,25.6-1.8,33.6c0.6,12.2,1.2,25.6,2.4,37.2c1.2,12.2-0.6,25.6,6.1,33.6
				c11,14,26.3-1.8,26.3-2.4c8.5,6.7,7.9,9.2,24.4,9.2c6.1-6.7,3.1-4.3,15.3-3.1c6.7,0.6,14,0.6,20.8,0.6
				c32.4,0.6,56.2,3.7,80.6-7.9c11.6-5.5,20.1-9.2,22-23.2c-7.9,2.4-13.4,9.2-22,12.2s-29.3-12.2-4.3-24.4c10.4-5.5,12.2,0.6,18.9,0
				c-3.7-11-19.5-18.9-28.7-4.9c-4.3,6.7-10.4,19.5-8.5,28.7c1.2,4.9,3.7,4.3,1.2,6.1c-3.1,3.1-56.8,1.8-65.3,1.8
				C-603.1,210.5-593.3,208-608.6,184.2L-608.6,184.2z"/>
			<path class="st10" d="M-523.7,260.5c-1.8,1.2-1.8-1.2-3.1,4.9l3.1,40.9c0.6,6.7,9.2,39.1-18.3,27.5c-2.4-7.9,1.2-7.3-0.6-12.2
				c-7.3,2.4-0.6,7.3-10.4,11c-11.6,4.3-44.6,4.3-57.4,3.7c-34.2-1.8-20.1-36-30.5-51.3c-4.9,6.7,0,9.8-1.8,15.9
				c-6.1,6.1-19.5,7.9-19.5,18.3c6.1-0.6,1.2-0.6,10.4-6.1c3.7-2.4,6.1-3.7,11-4.3l1.8,9.8c-6.7,5.5-16.5,7.9-23.2,2.4
				c-2.4-1.8,0-1.2-1.8-1.2c-2.4,3.7-2.4,4.3-2.4,10.4c25.6,6.7,20.8-3.1,28.7-7.3c7.3,15.3,1.2,22.6,37.9,23.2
				c9.8,0,20.1,0,29.9-0.6c15.3-1.2,13.4-3.1,23.2-7.3l3.1,3.7c3.7,3.7,4.9,5.5,11.6,4.3c8.5-1.2,8.5-6.1,12.8-9.2
				c3.7,7.9,4.9,9.8,15.3,11c7.9,1.2,16.5-0.6,23.2-2.4c7.3-1.8,12.2-4.3,18.9-7.3c10.4-4.3,9.8-2.4,21.4-3.7
				c1.2-2.4,3.1-6.1,3.1-9.8c-17.7-1.2-19.5-1.2-32.4-9.2c-6.7-4.3-9.2-3.7-13.4,1.8c-2.4,3.1-6.7,7.9-7.3,12.2
				c6.1-1.8,4.3-9.2,12.8-6.7c3.1,0.6,11,5.5,12.8,7.3c-3.1,3.1-48.8,20.8-52.5-2.4C-519.4,315.5-520.6,265.4-523.7,260.5
				L-523.7,260.5z"/>
			<path class="st10" d="M-719.7,204.4c-9.8-13.4,4.3-26.3-0.6-33c-4.9,10.4-11,28.1-4.9,40.9c5.5,11.6,21.4,15.3,36,8.5
				c34.2-15.3,18.9-65.9,11-69.6c-6.7,12.8,0,15.3,3.7,31.1c3.7,16.5-2.4,20.8-14,26.3C-700.1,213.5-713.6,212.9-719.7,204.4
				L-719.7,204.4z"/>
			<path class="st10" d="M-363.7,345.4c14.7-3.7,8.5-36,7.9-48.2c-1.8-26.9,0.6-15.9,2.4-26.3c-3.7-3.1-3.7-1.2-4.9-5.5l-1.2-7.3
				c0-0.6,0-0.6-0.6-1.2c-3.1,4.3-4.9,11-3.7,17.1c1.8,7.3,2.4,10.4,3.1,18.3c1.2,11,3.1,29.3,2.4,39.7c-11,8.5-17.1,2.4-20.1-9.2
				c-3.1-13.4,0-28.7-5.5-32.4c-6.7,20.1,12.2,35.4-12.8,44c-8.5,3.1-11-0.6-14-0.6c-3.7,9.8,1.2,13.4,12.8,10.4
				c6.7-1.8,14.7-11.6,14.7-11.6c0-0.6,0.6-0.6,0.6-0.6c1.2,1.8,0,0,1.2,2.4l4.3,7.3C-372.9,345.4-369.2,346.6-363.7,345.4
				L-363.7,345.4z"/>
			<path class="st10" d="M-219,319.8c-7.3,4.9-10.4-3.7-4.3-7.9C-221.5,313.7-219,315.5-219,319.8L-219,319.8z M-244.1,308.2
				c0,0-6.1,0-4.3,7.9c1.2,4.9,11.6,8.5,1.2,23.2c-3.1,4.3-6.7,8.5-11.6,11c-5.5,3.1-11,1.8-14,2.4c-4.3,1.2-1.8-0.6-4.3,2.4
				c28.7,7.9,19.5-1.8,28.7,0.6c11,3.7,20.8,6.7,27.5-3.1c12.8-18.3,12.2-45.2-0.6-51.3c-3.7,3.1-8.5,13.4-7.9,21.4
				c1.8,15.9,14,3.7,14,3.7c0.6,9.8-4.9,15.9-9.8,20.8c-6.7,6.1-11.6,6.7-23.2,6.1C-247.7,345.4-230.6,329.5-244.1,308.2
				L-244.1,308.2z"/>
			<path class="st10" d="M-183.6,171.4c-1.8-12.8,3.1-10.4,14.7-12.2c9.2-1.8,14.7-0.6,15.9-9.2c-13.4-0.6-61.7,9.2-79.4,12.8
				c-8.5,1.8-18.3,1.8-17.1,11.6l62.9-12.2c-0.6,7.3-1.8,9.8,0.6,15.9c7.3,3.1,10.4-1.2,10.4-9.2
				C-183,169.6-177.5,170.2-183.6,171.4L-183.6,171.4z"/>
			<path class="st10" d="M-560.3,151.3c17.1-7.3,27.5,0.6,29.9-12.2c-19.5,0.6-56.2,8.5-77.5,12.8c-11,2.4-17.1,1.2-18.9,11.6
				l62.9-11c-1.2,9.8-3.1,11.6,3.1,17.1c5.5-1.2,7.3-4.9,7.9-11c-5.5,1.2-2.4,2.4-7.3,2.4L-560.3,151.3z"/>
			<path class="st10" d="M-625.7,298.4c5.5-1.2,29.3-19.5,35.4-23.2c11-6.7,31.1-16.5,31.7-23.8c-7.3,0.6-48.8,29.9-60.4,37.9
				C-623.2,292.3-624.4,292.3-625.7,298.4L-625.7,298.4z"/>
			<path class="st10" d="M-299.6,357.6c9.8-1.8,19.5-21.4,19.5-32.4c0-6.7-1.2-15.3-7.9-17.1c-8.5,14,12.8,11.6,0,31.1
				c-9.2,14-11.6,11.6-31.1,13.4C-316.7,357.6-302.7,358.2-299.6,357.6L-299.6,357.6z"/>
			<path class="st10" d="M-429.7,266.7c-3.7,10.4-1.2,26.3,0,38.5c1.2,12.8,1.2,26.3,2.4,39.7c7.9-2.4,3.1-28.7,2.4-37.9
				c-0.6-6.7-1.2-14-1.2-20.8C-426.6,280.7-426,270.3-429.7,266.7L-429.7,266.7z"/>
			<path class="st10" d="M-525.5,178.1c9.2-1.2,26.3-18.3,26.9-27.5c0.6-9.2-7.9-11.6-13.4-6.1c-1.8,1.8-4.3,5.5-3.7,9.8
				c0.6,3.7,6.1,6.1,6.1,6.1l0.6,0.6C-513.3,170.8-524.3,171.4-525.5,178.1L-525.5,178.1z"/>
			<path class="st10" d="M-344.8,267.3c-1.8,0.6-3.1-2.4-3.1,9.2l4.3,64.7c1.2,7.3-1.2-4.9,0.6,1.8l1.2,1.8
				c2.4-3.1,1.8-3.7,1.8-10.4C-339.9,321.6-342.4,272.1-344.8,267.3L-344.8,267.3z"/>
			<path class="st10" d="M-274,260.5c-4.3,4.3-2.4,11-1.8,18.9l4.9,58c7.3-3.7,1.8-31.1,1.8-39.1l-3.7-37.2
				C-273.4,261.2-274,261.2-274,260.5L-274,260.5z"/>
			<path class="st10" d="M-317.3,299.6v4.9c4.9,0.6,15.9,9.2,11,14l-5.5,3.1l-0.6-0.6c-1.2,2.4,1.8,1.2-2.4,2.4
				c-6.7-1.8-3.1,0-4.9-3.1c0,0,0-0.6-0.6-0.6l-1.8-4.3c-4.3,15.9,1.8,15.3,9.2,15.9l0.6-0.6c0,0.6,5.5-2.4,8.5-11.6
				c0-0.6,0-0.6,0-1.2s0-1.8,0.6-2.4c0.6-3.1,0-6.7,0.6-9.8l-3.1-4.3c-1.8,0-1.8,0.6-1.2-1.2c-2.4,0.6-1.8,0.6-1.2-1.2
				c-2.4,0.6-1.8,1.2-1.2-1.2c-2.4,0.6-1.8,1.2-1.8-1.2c-3.7-1.8-0.6-0.6-4.9-1.8C-315.5,298.4-314.9,298.4-317.3,299.6
				L-317.3,299.6z"/>
			<path class="st10" d="M-397.3,136c3.7-2.4,5.5-5.5,6.7-9.8c-2.4-2.4-4.3-5.5-7.9-7.3l-6.1,7.3c-4.3-3.1-2.4-3.7-7.9-5.5
				l-6.1,10.4l7.3,6.7c3.7-2.4,3.1-3.7,6.1-7.3C-399.8,132.3-401.6,133.6-397.3,136L-397.3,136z"/>
			<path class="st10" d="M-640.9,149.4c6.7-1.2,17.7-5.5,24.4-7.9c14-4.3,19.5-3.7,19.5-11c-5.5,0-18.9,4.3-24.4,6.1
				C-636,142.1-640.3,141.5-640.9,149.4L-640.9,149.4z"/>
			<path class="st10" d="M-384.5,147.6c6.1-0.6,17.1-5.5,23.8-7.3c15.3-4.3,20.1-3.7,20.1-11.6c-6.1,0.6-18.9,4.9-25,6.7
				C-374.1,138.4-383.3,138.4-384.5,147.6L-384.5,147.6z"/>
			<path class="st10" d="M-443.1,279.5c6.7,0.6,2.4-6.7-1.2-8.5c-4.9,3.7-5.5,7.3-6.1,15.9c-3.7-3.1-2.4-2.4-4.3-6.7
				c-4.3-10.4-10.4-4.3-9.2,1.2c1.2,3.7,3.1,2.4,6.1,3.7c1.2,4.3,2.4,4.9,3.1,9.2c1.2,5.5-1.2,5.5,3.7,6.7l4.3-20.8L-443.1,279.5z"
				/>
			<path class="st10" d="M-617.1,279.5c3.7-1.8,4.9-13.4,6.7-22.6l6.1,1.8c0-6.1,0-6.7-3.7-9.2c-4.9,3.7-4.9,8.5-6.7,14.7
				c-6.7-6.7-1.8-10.4-11-11l-0.6,7.9c3.1,1.8,4.3,1.2,6.7,3.1c0.6,3.1,1.2,5.5,2.4,8.5C-617.7,275.2-617.7,277-617.1,279.5
				L-617.1,279.5z"/>
			<path class="st10" d="M-709.9,105.5c0.6,2.4,1.2,1.8-1.2,1.2c0.6,2.4,1.2,2.4-0.6,1.8c0.6,2.4,1.2,1.8-1.2,1.2l-2.4,1.8
				c0.6,2.4,1.2,1.8-0.6,1.8c0.6,2.4,1.8,2.4-0.6,1.8c0.6,1.8,1.2,1.8-1.2,1.2l0.6,1.8c1.2-0.6,0,0,1.8-1.2c0.6,0,1.8-1.2,1.8-1.8
				c3.1-1.8,2.4-1.2,6.7-1.8l5.5,0.6v3.7c0,0-0.6,0.6-0.6,1.2c0.6,2.4,0.6,1.8-1.8,0.6c0.6,1.8,0.6,1.2-1.8,0.6l-1.8,0.6
				c0,1.8,0.6,1.2-1.2,1.2l-3.1,4.9c0,0-0.6,0.6-0.6,1.2c2.4-0.6,3.7-1.2,7.3-2.4l1.8-0.6c0-1.8-0.6-1.8,1.2-1.2l1.8-1.8
				c-0.6-2.4-1.2-1.8,1.2-1.2c-0.6-2.4-1.2-1.8,1.2-1.2c-0.6-1.8-0.6-1.2,1.2-1.2l1.8-10.4l-2.4-1.2l-12.2-2.4
				C-708.7,106.1-708.1,106.1-709.9,105.5L-709.9,105.5z"/>
			<path class="st10" d="M-260.5,154.3c-2.4-1.2-2.4-1.8-1.8,0.6c-2.4-0.6-1.8-1.2-1.2,1.2c-0.6,0.6-0.6,0-1.2,2.4
				c-0.6,1.8,0,0.6,0,2.4c5.5,0,2.4-0.6,3.7-1.2c4.9,0.6,1.8,0.6,3.1-0.6c5.5,0.6,1.8,0.6,3.1-1.2c-5.5,0-2.4,0-3.1,1.2l-3.1,0.6
				h-2.4l0.6-3.7c2.4,0.6,1.8,0.6,1.2-1.2C-259.9,155.5-259.9,156.8-260.5,154.3c6.1,0,18.3-4.9,22.6-7.3l3.7-1.2l4.9-1.2
				c6.1,1.2,1.8,0.6,3.7-1.8c-6.1,0-3.1-0.6-3.7,1.8c-0.6,0-5.5-1.2-4.9,1.2c-1.2,0-4.3-1.2-3.7,1.2c-6.7,0-12.2,3.1-18.9,4.3
				c1.8-5.5,2.4-14-0.6-20.8c-1.8-3.7-1.8-3.1-3.7-4.3c-6.7,4.3-2.4,5.5,0,11.6c1.2,4.3,1.2,5.5,1.2,9.8
				C-259.3,153.1-258.1,149.4-260.5,154.3L-260.5,154.3z"/>
			<path class="st10" d="M-228.8,143.9l-4.9,1.2l-3.7,1.2c-4.3,2.4-17.1,7.3-22.6,7.3c0.6,2.4,0.6,1.8-1.8,0.6
				c0.6,2.4,1.2,1.8-1.2,1.2l-0.6,3.7h2.4l3.1-0.6c0.6-1.2-2.4-1.2,3.1-1.2c6.7-1.8,12.8-4.3,18.3-6.1c12.8-3.7,14-2.4,16.5-7.9
				c-1.8-1.2-1.8-1.8-5.5-1.2C-227,144.5-222.7,145.2-228.8,143.9L-228.8,143.9z"/>
			<path class="st10" d="M-311.8,321l5.5-3.1c4.9-4.3-6.1-13.4-11-14V299c1.8-1.2,1.2-1.2,1.8-4.9c4.3,1.2,1.2,0,4.9,1.8
				c-0.6,2.4-0.6,1.8,1.8,1.2c-0.6,1.8-0.6,1.2,1.2,1.2c-0.6,2.4-0.6,1.8,1.2,1.2c-0.6,1.8-0.6,1.2,1.2,1.2l3.1,4.3
				c0,3.1,0,6.7-0.6,9.8c0,0.6,0,1.8-0.6,2.4c0,0.6,0,0.6,0,1.2c-2.4,9.8-7.9,12.2-8.5,11.6l-0.6,0.6c-7.3-0.6-12.8,0-9.2-15.9
				l1.8,4.3c0,0,0,0.6,0.6,0.6c1.8,3.1-1.8,1.2,4.9,3.1C-310,321.6-313.1,323.4-311.8,321c-6.1,0-7.3,0.6-6.7-4.3
				c0-4.3,1.8-7.9,2.4-11c6.1,2.4,8.5,4.9,9.8,10.4c-1.8,1.8,0,0-2.4,2.4l-0.6,0.6L-311.8,321z M-317.3,299.6l-4.9,12.8
				c-6.1,20.1,4.3,22.6,9.8,18.3c4.9-0.6,7.3-4.3,9.8-9.2c1.2-3.1,3.1-8.5,1.8-12.8c-0.6-4.3-0.6-2.4-1.8-3.7l-3.1-4.3
				c0.6-2.4,0.6-1.8-1.2-1.2c0.6-2.4,0.6-1.8-1.2-1.2c0.6-2.4,0.6-1.8-1.2-1.2c0.6-2.4,0.6-1.8-1.8-1.2c-0.6-1.2,1.2-1.2-2.4-2.4
				c-4.9-1.8-1.8,0-2.4,0.6c-0.6,0.6-0.6,0.6-1.2,2.4v1.2C-317.3,298.4-317.3,299-317.3,299.6L-317.3,299.6z"/>
			<path class="st10" d="M-305.1,285c4.3-5.5,6.7-8.5-1.8-12.8c-4.3,3.1-1.2,2.4-4.9,5.5c-4.3-1.8-1.8-1.8-6.7-3.7
				c-2.4,3.1-3.7,3.7-4.3,9.2c3.1,1.8,2.4,1.8,6.1,3.7l4.9-5.5C-306.9,283.1-310.6,283.1-305.1,285L-305.1,285z"/>
			<path class="st10" d="M-600,374.1c5.5-1.8,1.2-1.8,6.1-4.9c3.1,2.4,1.8,1.8,4.9,3.7c5.5-4.3,5.5-6.1,1.8-12.2
				c-6.7,0.6-3.7-0.6-7.3,4.9c-4.9-3.1,0-2.4-7.9-3.7c-1.2,3.7-2.4,3.7-3.1,8.5L-600,374.1z"/>
			<path class="st10" d="M-645.2,277.6c2.4-1.8,4.3-4.3,4.9-7.9c-2.4-3.1-2.4-3.7-6.7-4.9l-3.1,5.5c-6.1-1.8-2.4-0.6-7.3-4.3
				l-5.5,7.3c1.8,2.4,3.7,4.9,7.3,6.1l2.4-5.5C-645.8,275.2-649.5,274.6-645.2,277.6L-645.2,277.6z"/>
			<path class="st10" d="M-562.8,283.1c-1.8-7.9-3.1-6.7-5.5-7.9c-1.8,6.1,2.4,11,2.4,19.5c0,9.8-3.7,12.2-4.9,19.5
				c1.8-1.2,2.4-0.6,4.3-4.3C-563.4,303.3-560.9,291.1-562.8,283.1L-562.8,283.1z"/>
			<path class="st10" d="M-718.5,151.3c1.8-4.3,5.5-8.5,6.7-12.2c-3.7,0.6-3.1,0.6-5.5,4.3c-5.5,7.9-10.4,25,0,22
				c3.7-1.2,4.3-6.1,3.7-9.8l-4.9-3.1C-717.9,151.3-717.9,151.3-718.5,151.3L-718.5,151.3z"/>
			<path class="st10" d="M-698.9,124.4c-3.1,2.4-5.5,6.1-6.7,11c3.1,2.4,3.7,4.3,7.9,6.1C-691,135.4-687.9,128.7-698.9,124.4
				L-698.9,124.4z"/>
			<path class="st10" d="M-583.5,302.7c3.7-3.7,4.3-7.3,2.4-12.8c-6.1,0.6-1.2,3.7-3.7,9.2l-0.6-0.6l-1.8-2.4
				c-1.2-1.8,0-0.6-1.8-1.8l-1.8,7.9c-3.1-1.2-0.6,0-2.4-2.4c-1.8-2.4,0.6-1.2-1.8-2.4c-1.8,3.7-1.8,7.3,0,11
				C-592.1,307.6-585.4,304.5-583.5,302.7L-583.5,302.7z"/>
			<path class="st10" d="M-358.2,167.1c3.7-1.8,6.1-5.5,7.3-9.8l-7.3-7.3c-3.7,1.8-6.7,6.7-7.3,11L-358.2,167.1z"/>
			<path class="st10" d="M-370.4,308.8c-1.2-10.4,2.4-15.3,1.8-22c-6.1,3.1-9.2,22.6-3.7,29.3c5.5-1.2,6.1-4.3,6.7-10.4
				L-370.4,308.8z"/>
			<path class="st10" d="M-482.2,363.1c4.3-0.6,9.2-5.5,13.4-7.9c5.5-3.7,9.8-4.3,10.4-11c-4.3,0.6-9.8,5.5-13.4,7.9
				C-477.3,355.2-481.6,356.4-482.2,363.1L-482.2,363.1z"/>
			<path class="st10" d="M-637.9,126.2c1.8,4.9,0.6,9.2,1.8,12.8c4.3-4.3,4.3-20.8-2.4-23.8C-643.4,120.1-639.7,120.7-637.9,126.2
				L-637.9,126.2z"/>
			<path class="st10" d="M-302.1,145.2c-1.2-11-4.9-8.5-6.1-9.2c-1.8,6.7,0.6,4.9,2.4,11c1.2,4.9,0,8.5,1.8,12.2l1.8-6.1
				C-301.5,150.6-301.5,147-302.1,145.2L-302.1,145.2z"/>
			<path class="st10" d="M-258.7,298.4c3.7-3.1,4.3-3.7,4.3-9.2c-4.3-2.4-1.2-1.8-6.1-3.7c-1.8,3.1-3.1,4.3-4.3,8.5L-258.7,298.4z"
				/>
			<path class="st10" d="M-389.4,281.9c3.7-0.6,7.3-4.3,10.4-6.1c4.3-2.4,6.7-2.4,7.3-7.9C-373.5,267.9-389.4,274-389.4,281.9
				L-389.4,281.9z"/>
			<path class="st10" d="M-485.8,302.7c7.9-4.9,5.5-11-1.2-12.8c-2.4,3.1-3.7,4.3-4.3,9.2L-485.8,302.7z"/>
			<path class="st10" d="M-231.9,298.4c0.6,0,17.7-7.3,18.3-14.7c-4.3,0.6-7.9,3.7-11,5.5C-228.8,291.7-231.2,292.9-231.9,298.4
				L-231.9,298.4z"/>
			<path class="st10" d="M-395.5,279.5c-2.4-3.7-0.6-1.2-4.3-3.1c-2.4,4.3,0,4.9,1.8,9.2c1.2,4.3,0,6.7,3.1,10.4
				C-394.3,292.9-393,283.1-395.5,279.5L-395.5,279.5z"/>
		</g>
		<g>
			<g>
				<path class="st11" d="M91,128.8c2.8,6.1,10.3,13.1,15.9,18.2c5.6,5.1,10.8,12.2,15.4,18.2c14.5-7,33.2-29.9,73.9-21
					c54.3,11.7,81.9,69.7,52.9,118.3c-13.1,21-36,36.5-61.3,38.4l2.8,0.9c10.3,2.3-10.3-0.9,3.3,0.5l17.3-0.9
					c67.8-13.1,88.9-73.9,100.6-78.1c0-38.8-13.6-67.8-41.2-95c-31.3-30.9-74.4-39.8-117.4-33.7C133.1,97.4,99,115.2,91,128.8
					L91,128.8z"/>
			</g>
			<g>
				<path class="st10" d="M100.4,324.3V223.7c0-36.5,18.2-48.2,22-58.9c-15.4-19.2-16.4-18.2-26.7-42.1
					C57.8,147,48.9,220.5,48.9,258.3c0,29.9-9.4,87,19.6,93.5h12.2c0.5,0,1.4,0,1.9-0.5c5.1-0.9,8.9-4.7,12.6-8.4
					C100.4,337.4,100.4,335,100.4,324.3L100.4,324.3z"/>
			</g>
			<g>
				<path class="st12" d="M100.4,324.3c22.5,25.3,79,31.8,107.1,24.3c12.6-3.3,22.9-6.5,34.1-11.7c8.4-4.2,19.2-12.2,26.7-19.2
					c8.4-8,14.5-15,22-23.9c11.2-15,22.5-44.4,22.5-70.2c-13.1,5.1-60.8,78.6-124.4,77.6c-19.2-0.5-40.2-1.4-61.3-20.6
					c-5.6-5.1-14.5-16.8-17.8-24.3c-4.2-9.4-8.4-19.6-8.4-32.3v100.1H100.4z"/>
			</g>
			<g>
				<path class="st10" d="M800.6,161.5c0-10.3,15.4-10.3,15.4,0C815.5,171.3,800.6,171.3,800.6,161.5L800.6,161.5z M663.1,161.5
					c0-10.3,15.4-10.3,15.4,0C678.5,171.3,663.1,171.3,663.1,161.5L663.1,161.5z M739.3,144.2c16.8-24.8,28.1-22.5,19.2-36
					c-9.8,2.8-40.7,40.2-42.1,45.8c8.9,0,14-1.9,17.8,3.7c8.9,14-15.9,11.7-21.5,11.7c0-22,2.3-23.4-7.5-28.5
					c-8,7.5-5.6,10.8-5.6,28.5c-15.4-0.5-6.5-3.7-10.8-15.9c-5.1-14-37-18.2-37,10.3c0,25.3,30.9,15.9,30.9,15.9
					c9.8-0.5-0.5,4.2,20.1,0.5c9.4-1.9,11.7,2.8,22,2.8c7,0,10.8-3.7,15.4-3.7c5.6,0,5.1,3.7,13.1,3.7c9.4,0,7-1.9,14-2.8
					c8.4-0.9,6.5,2.8,12.6,2.8c9.4,0,7-1.9,14-2.8c7.5-0.9,9.4,2.8,14.5,2.8c10.3,0,6.1-7,17.3-2.3c14.5,5.6,8.4,0,17.3-0.9
					c6.1-0.5,7,3.3,9.4,3.3c25.3,0,19.2-28.1,19.2-60.8c0-4.2-1.4-4.2-3.7-7.5c-14.5,3.7-9.4,18.7-9.4,55.2
					c-17.8-0.5-3.3-12.6-7.5-45.8c-0.9-7.5-2.8-8-9.4-9.4c-2.3,3.3-3.7,3.3-3.7,7.5V169c-20.6-0.5,0-15.4-19.2-24.8
					c-5.1-2.3-23.9-1.9-25.7-0.9c-7,3.3-4.7,9.8-4.7,25.7h-11.2c0-36.5,5.1-51.5-9.4-55.2c-6.1,8.9-3.7,12.6-3.7,28.5
					c0,18.2,4.2,26.7-9.8,26.7c-7.5,0-4.7-6.1-6.1-12.6C744.9,148.9,743,149.8,739.3,144.2L739.3,144.2z"/>
			</g>
			<g>
				<path class="st10" d="M1214.5,155.4l17.3,13.6h-17.3V155.4z M1164.9,161.5c0-10.3,15.4-10.3,15.4,0
					C1179.9,171.3,1164.9,171.3,1164.9,161.5L1164.9,161.5z M1292.6,153.6c8,0,13.1,15.4,0,15.4
					C1283.3,169,1283.3,153.6,1292.6,153.6L1292.6,153.6z M1233.2,154l17.8-0.5c-2.8,4.2-5.6,4.7-9.4,7.5L1233.2,154z M1384.3,169
					c-13.6-0.9-3.7-5.1-10.3-16.4c-7.5-13.1-22.5-10.3-39.3-10.3c-15,0-24.3,24.8-11.2,24.8c10.8,0-0.5-13.6,17.3-13.6
					s24.8-2.3,24.8,15.4c-78.1,0-39.3,0.9-56.6-19.6c-7-8.4-11.7-6.5-25.3-6.5c-0.5,0-0.9,0-1.4,0c-7,0-8.4-2.3-8,15
					c0,15.9-4.7,11.2-21,11.2c3.3-4.7,8.4-6.5,13.1-12.2c16.8-20.1-22.5-15-43.5-15c-8.9,0,0.9,2.8-7.5,2.8
					c-4.2,0-13.6-11.2-13.6,8.4c0,10.3,2.3,10.8-3.7,15.4c-10.8-2.8-2.8-6.5-7.5-17.3c-12.2-25.7-58,5.1-28.1,26.2
					c2.8,1.9,6.1,3.3,9.8,3.7c8,0.9,8.4-3.3,10.8-3.3c8.4,0,2.8,1.4,10.8,2.8c6.1,0.9,3.7,0,11.2-1.4c8.9-1.4,11.2,2.8,25.7,2.8
					c8.4,0,3.7-1.9,10.3-2.8c9.4-1.4,2.8,2.8,10.8,2.8c11.2,0,15.9,0.9,24.8-2.3c9.4-3.7-0.5-4.2,9.4-0.9
					c17.8,6.1,11.2-0.5,21.5-0.5c7.5,0-0.5,4.2,26.7,3.7c4.2,0,10.3-0.5,13.6-0.5c1.9,0,7.5,0.9,13.1,0.5c8.4-0.5,6.5-1.9,13.6-1.9
					c0,0,26.7,5.6,26.7-17.3c0-15.9,4.2-51.9-8.4-48.2c-6.5,1.9-5.1,8-4.7,15.9C1386.2,142.3,1388,160.6,1384.3,169L1384.3,169z"/>
			</g>
			<g>
				<path class="st10" d="M1084.5,169c1.9-2.3,14.5-13.6,17.3-15.4C1101.8,171.8,1102.7,169,1084.5,169L1084.5,169z M1018.1,161.5
					c0-10.3,15.4-10.3,15.4,0C1033,171.3,1018.1,171.3,1018.1,161.5L1018.1,161.5z M1065.8,153.6h17.3c-4.2,6.1-3.3,1.4-7.5,7.5
					C1070.9,158.7,1068.6,157.8,1065.8,153.6L1065.8,153.6z M979.7,125c0,21.5-5.6,57.1,19.2,57.1c6.5,0,11.7-3.7,14-4.2
					c3.7-0.5-0.5-0.9,6.1,1.4c15,5.6,12.6-1.9,20.1-1.4c8,0-1.9,4.2,23.4,4.2c7.5,0,6.5-2.8,11.7-3.3c1.9,0,25.7,9.4,36.5-3.7
					c6.1-7,2.3-29.9,3.3-46.3c0.5-8.4,2.3-12.6-8-15.4c-6.1,9.4-3.7,15.4-3.7,32.3c-10.3-7-24.3-3.7-47.7-3.7
					c-5.6,0-14,7.5-0.9,18.2l10.3,8.9h-17.3c-1.9-7.5-0.9-14.5-5.1-19.6c-7-8.4-14.5-6.5-25.3-6.5c-0.5,0-0.9,0-1.4,0
					c-7,0-7-0.9-8,5.1c-3.3,15.4,8.9,21-13.6,21v-47.7c0-4.2-1.4-4.2-3.7-7.5C982.5,115.2,979.7,116.6,979.7,125L979.7,125z"/>
			</g>
			<g>
				<path class="st10" d="M584.9,169h-9.4c-7.5,0-10.3-10.8-2.8-14C582.1,150.3,584.5,160.6,584.9,169L584.9,169z M514.3,153.6
					c32.3,0,16.8,15.4,11.2,15.4c-27.6,0-8-7-18.7-21.5c-5.6-7.5-12.6-8.4-17.8-1.4c5.1,18.7,9.4-8.4,9.4,28.5
					c0,9.8-6.1,14.5-15.4,15.4c-1.4-5.6-0.9-3.3-3.7-7.5c-8.4,2.3-4.7,5.1-10.3,4.2c-2.8-0.5-0.5-6.5-12.6,1.9
					c1.9,7,1.9,4.2,5.6,9.4c7-1.9,4.2-1.9,9.8-5.6c1.4,1.9,0.5,1.4,2.8,3.3l8,3.7c4.7,2.3-3.3,2.8,4.7,2.8c12.2,0,20.6-10.3,22.9-21
					c15,7,22-4.7,30.4-1.9c4.7,1.4,4.2,3.7,11.2,3.7c41.6,0,59.4,5.6,59.4-22.9c0-14.5,0-29.5,0-44c-25.7-6.1-1.4,43.5-15.4,53.3
					c0-41.2-40.2-28.1-40.2-9.4c0,5.1,0.9,5.1,1.9,9.4h-11.2c0-16.4-1.9-13.6-9.4-24.8c13.6-20.6,31.3-24.8,19.2-36
					C548.5,110.1,515.3,149.4,514.3,153.6L514.3,153.6z"/>
			</g>
			<g>
				<path class="st10" d="M353.9,113.8v215.6c0,8,13.1,8,13.1,0V113.8C367.4,105.4,353.9,105.4,353.9,113.8L353.9,113.8z"/>
			</g>
			<g>
				<path class="st10" d="M903.5,161.5c0-10.3,15.4-10.3,15.4,0C918.4,171.3,903.5,171.3,903.5,161.5L903.5,161.5z M976,155.4
					c0-6.5-1.4-7.5-1.9-13.1h-9.4c-3.3,13.1-1.9,11.2-1.9,26.7h-9.4c0-15.4,0.9-13.6-1.9-26.7h-9.4c-2.8,13.1-1.9,11.2-1.9,26.7
					c-15.4-0.5-5.6-2.3-10.3-14.5c-8.9-23.4-45.8-10.3-37.4,12.6c7.5,21,25.7,13.1,29.5,12.6c8.9-1.4,7,3.3,16.8,1.4
					C958.2,177,976,191.5,976,155.4L976,155.4z"/>
			</g>
			<g>
				<path class="st10" d="M41,102.1c0,25.7,31.3,32.7,45.4,16.8s2.8-39.8-22.5-39.8C53.1,79.2,41,91.8,41,102.1L41,102.1z"/>
			</g>
			<g>
				<path class="st10" d="M433.9,153.6c4.7,0,7.5,3.3,7.5,7.5s-3.3,7.5-7.5,7.5C423.1,169,425.4,153.6,433.9,153.6L433.9,153.6z
					 M415.2,161.5c0,8.9,4.2,14.5,10.8,17.8c13.6,6.5,12.2-0.9,21.5-0.9c8.4,0-0.5,4.7,21,1.9c7.5-0.9,5.1,0.9,10.3-3.3
					c7.5-6.1,5.1-13.6,5.1-29.5c0-4.2-1.4-5.6-5.6-5.6c-14,0,2.8,26.7-11.2,26.7h-11.2C454.9,131.1,415.2,137.2,415.2,161.5
					L415.2,161.5z"/>
			</g>
			<g>
				<path class="st10" d="M1117.2,125c0,26.7-4.2,48.2,5.6,57.1c5.1-2.8,7.5-3.3,7.5-11.2v-49.6
					C1130.3,113.3,1117.2,110.1,1117.2,125L1117.2,125z"/>
			</g>
			<g>
				<path class="st10" d="M615.3,125v45.8c0,8.4,2.3,8.4,7.5,11.2c9.8-9.4,5.6-30.9,5.6-57.1c0-8.4-2.8-9.8-9.4-11.2
					C617.2,117.5,615.3,119.4,615.3,125L615.3,125z"/>
			</g>
			<g>
				<path class="st10" d="M1403.5,180.7c7,1.4,10.3,0,11.2-5.1v-54.3c0-5.1-2.8-5.6-5.6-7.5c-8.9,6.1-5.6,8.9-5.6,30.4
					C1403.5,156.4,1403.5,168.5,1403.5,180.7L1403.5,180.7z"/>
			</g>
			<g>
				<path class="st10" d="M897.9,125c0,12.6,12.2,5.1,12.2,5.1c0.9,0,14.5,6.5,14.5-2.8c0-12.6-12.2-5.1-12.2-4.7
					C911,122.2,897.9,115.7,897.9,125L897.9,125z"/>
			</g>
			<g>
				<path class="st10" d="M1158.9,126.9c0,1.9,4.2,5.6,5.6,5.6c7,0,0.9-1.9,6.5-2.8c0.9,0,14.5,6.5,14.5-2.8
					c0-12.6-11.2-4.7-14.5-5.1c-5.1-0.9,0.5-2.3-10.3-2.8C1159.8,124.6,1158.9,123.2,1158.9,126.9L1158.9,126.9z"/>
			</g>
			<g>
				<path class="st10" d="M420.8,123.2c4.2,16.8,10.3,7,15.4,3.7c1.4,6.1,0.5,5.6,7.5,5.6c1.9-2.3,9.4-13.6-1.9-13.6
					c-8.4,0,0,1.9-6.1,2.3C432,122.2,429.2,115.2,420.8,123.2L420.8,123.2z"/>
			</g>
			<g>
				<path class="st10" d="M932,188.2c1.9,7,1.9,4.2,5.6,9.4c6.5-1.9,4.2-0.9,7.5-5.6c5.6,3.7,2.3,3.7,9.4,5.6
					c3.7-5.6,3.7-2.8,5.6-9.4c-12.6-8.4-9.4-1.9-14-1.4c-3.7,0.5,0.9,0.9-3.3-0.5c-5.6-1.9,5.1-1.9-4.2-1.9
					C936.7,184.4,933.4,186.8,932,188.2L932,188.2z"/>
			</g>
			<g>
				<path class="st10" d="M657.4,125c0,4.7,8,14.5,11.2,1.9c8,5.1,3.7,5.6,11.2,5.6c8.4-11.7-1.4-13.6-1.9-13.6
					c-7,0-0.9,1.9-6.5,2.8C670.5,122.2,657.4,115.7,657.4,125L657.4,125z"/>
			</g>
			<g>
				<path class="st10" d="M691.6,188.2c1.9,7,1.9,4.2,5.6,9.4c6.5-1.9,4.2-0.9,7.5-5.6c5.6,3.7,2.8,3.7,9.4,5.6
					c1.9-2.3,9.4-13.6-1.9-13.6c-9.4,0,2.3,5.1-9.4,1.9c-5.6-1.9,5.1-1.9-4.2-1.9C696.3,184.4,693,186.8,691.6,188.2L691.6,188.2z"
					/>
			</g>
			<g>
				<path class="st10" d="M1193.5,188.2l5.6,9.4c6.5-1.9,4.2-0.9,7.5-5.6c5.6,3.7,2.3,3.7,9.4,5.6c1.9-2.3,9.4-13.6-1.9-13.6
					c-8.4,0,0,1.9-6.1,2.3c-3.7,0.5,0.9,0.9-3.3-0.5c-5.6-1.9,5.1-1.9-4.2-1.9C1198.1,184.4,1194.9,186.8,1193.5,188.2L1193.5,188.2
					z"/>
			</g>
			<g>
				<path class="st10" d="M1340.3,190c0,4.2,0.5,2.3,1.9,7.5h9.4c0.9-4.2,3.7-13.6-3.7-13.6C1344.1,184.4,1340.3,187.7,1340.3,190
					L1340.3,190z"/>
			</g>
			<g>
				<path class="st10" d="M569.5,125c0,10.8,13.6,8,13.6,1.9C583.1,116.1,569.5,119,569.5,125L569.5,125z"/>
			</g>
			<g>
				<path class="st10" d="M962.4,131.1c5.6,1.4,11.2,5.6,11.2-5.6C974.1,119,962.4,111.9,962.4,131.1L962.4,131.1z"/>
			</g>
			<g>
				<path class="st13" d="M418.9,266.8h30.4v8.9h-9.8v39.3h-10.8v-39.3h-9.8V266.8z"/>
			</g>
			<g>
				<path class="st13" d="M447.9,266.8h9.8v16.4c1.9-2.8,4.7-4.7,8.9-4.7c2.3,0,4.2,0.5,5.6,1.9c1.4,0.9,2.3,2.8,2.8,4.2
					c0.5,1.9,0.5,4.2,0.5,7.5v22.9h-9.8V292c0-2.3,0-3.7-0.5-4.7c-0.5-0.9-1.4-0.9-2.8-0.9s-2.3,0.5-3.3,0.9s-1.4,2.3-1.4,5.1v22.9
					h-9.8V266.8z"/>
			</g>
			<g>
				<path class="st13" d="M505.9,299h-18.7v1.9c0,3.3,0.5,5.1,1.4,6.5c0.9,0.9,1.9,1.4,3.3,1.4c3.3,0,4.7-1.9,5.1-6.1l8.9,0.5
					c-1.4,8.4-6.5,12.6-14,12.6c-4.7,0-8.4-1.9-11.2-5.1c-2.3-3.3-3.7-7.5-3.7-13.1c0-6.1,1.4-10.8,4.2-14.5
					c2.8-3.3,6.1-5.1,10.8-5.1c4.2,0,7.5,1.4,10.3,4.2C504.5,285.9,505.9,291.5,505.9,299z M496.5,293.4c0-0.5,0-0.9,0-0.9
					c0-4.7-1.4-7-4.7-7s-4.7,2.8-4.7,8H496.5z"/>
			</g>
			<g>
				<path class="st13" d="M555,291.1c0,16.8-6.1,25.3-17.8,25.3c-5.6,0-10.3-2.3-13.1-6.5c-2.8-4.2-4.7-10.3-4.7-18.7
					c0-16.8,6.1-24.8,17.8-24.8c5.6,0,10.3,1.9,13.1,6.1C553.6,276.6,555,282.7,555,291.1z M543.8,291.1c0-6.5-0.5-10.8-1.4-13.1
					c-0.9-2.3-2.8-3.3-4.7-3.3c-2.3,0-3.7,0.9-4.7,3.3c-0.9,2.3-1.4,6.5-1.4,13.1s0.5,10.8,1.4,13.1c0.9,2.3,2.8,3.3,4.7,3.3
					c2.3,0,3.7-0.9,4.7-3.3C543.3,302.3,543.8,297.6,543.8,291.1z"/>
			</g>
			<g>
				<path class="st13" d="M557.3,279.4h9.4v4.7c1.9-3.7,4.7-5.6,8.9-5.6c4.2,0,7,1.9,8,5.6c1.4-3.7,4.7-5.6,8.9-5.6
					c2.3,0,4.2,0.5,5.6,1.4c1.4,0.9,2.3,1.9,2.8,3.3s0.9,4.2,0.9,8.4v23.4H592v-22.5c0-2.8,0-4.2-0.5-5.1s-1.4-1.4-2.3-1.4
					c-1.4,0-2.8,0.5-3.3,1.4c-0.5,0.9-0.9,3.3-0.9,6.5v21h-9.8V292c0-2.3,0-4.2-0.5-5.1c-0.5-0.9-1.4-0.9-2.3-0.9
					c-1.4,0-2.8,0.5-3.3,1.9c-0.5,0.9-0.9,3.3-0.9,6.1v21h-9.8v-35.5H557.3z"/>
			</g>
			<g>
				<path class="st13" d="M612.1,291.1l-9.4-0.9c0.5-3.7,1.9-6.5,4.7-8.4s6.1-2.8,9.8-2.8c3.3,0,6.1,0.5,8,1.9s3.3,2.8,3.7,4.7
					s0.9,4.2,0.9,8v14.5c0,4.7,0,7,0.5,8H621c-0.5-0.9-0.5-2.8-0.5-5.6c-2.3,4.2-5.6,6.1-9.8,6.1c-2.8,0-5.1-0.9-7-2.3
					c-1.9-1.9-2.8-4.2-2.8-7.5c0-4.2,1.4-7,4.2-9.4c2.8-2.3,7.5-3.3,14.5-3.7V292c0-2.3-0.5-4.2-0.9-5.1c-0.5-0.9-1.4-1.4-2.8-1.4
					C613.9,285.5,612.5,287.3,612.1,291.1z M620,298.1c-2.8,0.5-5.1,0.9-6.1,1.9c-1.4,0.9-1.9,2.3-1.9,4.7c0,2.8,0.9,4.7,3.3,4.7
					c1.4,0,2.3-0.5,3.3-1.9c0.9-1.4,1.4-3.7,1.4-7.5V298.1z"/>
			</g>
			<g>
				<path class="st13" d="M633.1,279.4h9.4v4.7c1.9-3.7,4.7-5.6,8.9-5.6c2.3,0,4.2,0.5,5.6,1.4c1.4,0.9,2.3,2.3,2.8,4.2
					c0.5,1.4,0.5,4.2,0.5,7.5v23.4h-9.8v-23.4c0-2.3-0.5-3.7-0.9-4.7c-0.5-0.9-1.4-0.9-2.3-0.9c-1.9,0-2.8,0.5-3.7,1.9
					c-0.5,0.9-0.9,3.3-0.9,6.1v21h-9.8v-35.5H633.1z"/>
			</g>
			<g>
				<path class="st13" d="M673.3,276.6h-10.3v-9.8h10.3V276.6z M663.5,279.4h9.8v36h-9.8V279.4z"/>
			</g>
			<g>
				<path class="st13" d="M719.7,277.5l-8.9,3.3c-1.4-4.2-3.7-6.1-7-6.1c-1.4,0-2.8,0.5-3.7,1.4c-0.9,0.9-1.4,1.9-1.4,3.3
					s0.5,2.3,1.4,3.3c0.9,0.9,3.3,1.9,6.5,3.3c3.3,0.9,5.6,2.3,7.5,3.3c1.9,0.9,3.3,2.8,4.2,4.7c0.9,1.9,1.9,4.2,1.9,7
					c0,4.7-1.4,8.4-4.7,11.2c-3.3,2.8-7.5,4.2-12.6,4.2c-8.9,0-14.5-4.2-16.8-13.1l9.4-2.8c0.9,4.7,3.7,7.5,8,7.5
					c1.9,0,3.3-0.5,4.7-1.4c0.9-0.9,1.9-2.3,1.9-3.7s-0.5-2.3-1.4-3.3c-0.9-0.9-2.8-1.9-5.6-2.8c-3.7-1.4-6.5-2.3-8.4-3.7
					c-1.9-0.9-3.3-2.8-4.7-4.7c-1.4-1.9-1.9-4.2-1.9-7c0-4.2,1.4-8,4.2-10.8c2.8-2.8,6.5-4.2,11.2-4.2
					C712.6,266.3,717.8,270,719.7,277.5z"/>
			</g>
			<g>
				<path class="st13" d="M748.7,297.6c0,12.6-4.7,18.7-14.5,18.7s-14.5-6.1-14.5-18.7s4.7-18.7,14.5-18.7S748.7,285,748.7,297.6z
					 M738.4,297.6c0-4.7-0.5-7.5-0.9-9.4c-0.5-1.4-1.9-2.3-3.3-2.3c-1.4,0-2.8,0.9-3.3,2.3s-0.9,4.7-0.9,9.4c0,4.2,0.5,7.5,0.9,9.4
					c0.5,1.9,1.9,2.3,3.3,2.3c1.4,0,2.8-0.9,3.3-2.3C737.9,305.1,738.4,301.8,738.4,297.6z"/>
			</g>
			<g>
				<path class="st13" d="M776.7,292.5l-9.4,0.5c0-2.3-0.5-3.7-0.9-5.1c-0.5-0.9-1.4-1.9-2.8-1.9c-3.3,0-5.1,3.7-5.1,10.8
					c0,4.2,0.5,7,1.4,8.4c0.9,1.4,1.9,2.3,3.7,2.3c2.3,0,3.7-2.3,4.2-6.5l9.4,0.5c-0.9,9.4-5.6,14-14,14c-4.7,0-8-1.4-10.8-4.7
					s-3.7-8-3.7-14s1.4-10.8,3.7-14c2.3-3.3,6.1-4.7,10.8-4.7C771.6,278.9,776.2,283.6,776.7,292.5z"/>
			</g>
			<g>
				<path class="st13" d="M788.9,276.6h-10.3v-9.8h10.3V276.6z M778.6,279.4h9.8v36h-9.8V279.4z"/>
			</g>
			<g>
				<path class="st13" d="M818.3,299h-18.7v1.9c0,3.3,0.5,5.1,1.4,6.5c0.9,0.9,1.9,1.4,3.3,1.4c3.3,0,4.7-1.9,5.1-6.1l8.9,0.5
					c-1.4,8.4-6.5,12.6-14,12.6c-4.7,0-8.4-1.9-11.2-5.1c-2.3-3.3-3.7-7.5-3.7-13.1c0-6.1,1.4-10.8,4.2-14.5
					c2.8-3.3,6.1-5.1,10.8-5.1c4.2,0,7.5,1.4,10.3,4.2C817.4,285.9,818.3,291.5,818.3,299z M809,293.4c0-0.5,0-0.9,0-0.9
					c0-4.7-1.4-7-4.7-7c-3.3,0-4.7,2.8-4.7,8H809z"/>
			</g>
			<g>
				<path class="st13" d="M821.2,268.6l9.8-0.5v11.2h6.5v8H831v13.1c0,2.3,0,4.2,0,4.7c0,0.9,0.5,1.4,0.9,1.9s1.4,0.9,3.3,0.9
					c0.9,0,1.9,0,2.8,0v7.5c-2.3,0.5-4.2,0.9-6.1,0.9c-2.8,0-5.1-0.5-7-1.9c-1.4-0.9-2.8-2.8-3.3-4.2c-0.5-1.9-0.5-4.7-0.5-8.4
					v-14.5h-4.2v-8h4.2V268.6z"/>
			</g>
			<g>
				<path class="st13" d="M831.9,279.4h9.8l4.7,22l4.7-22h8.4l-10.8,36.5c-0.9,3.3-1.9,6.1-2.8,7.5s-1.9,2.3-3.3,3.3
					c-1.4,0.9-3.3,1.4-5.6,1.4c-1.4,0-2.8,0-4.2-0.5v-8c0.9,0,1.9,0,2.8,0c1.9,0,3.3-0.5,4.2-0.9c0.9-0.5,1.4-1.9,1.9-4.2
					L831.9,279.4z"/>
			</g>
			<g>
				<path class="st13" d="M884.3,279.4h6.5v8h-6.5v28.1h-9.8v-28.1h-4.2v-8h4.2c0-3.7,0.5-6.1,0.9-8c0.5-1.9,1.9-3.3,3.3-4.7
					c1.9-1.4,4.2-1.9,7-1.9c1.9,0,3.3,0,5.1,0.5v8c-0.9,0-1.4,0-2.3,0c-1.9,0-3.3,0.5-3.7,1.4C884.3,275.2,884.3,276.6,884.3,279.4z
					"/>
			</g>
			<g>
				<path class="st13" d="M917,297.6c0,12.6-4.7,18.7-14.5,18.7s-14.5-6.1-14.5-18.7s4.7-18.7,14.5-18.7S917,285,917,297.6z
					 M906.7,297.6c0-4.7-0.5-7.5-0.9-9.4c-0.5-1.4-1.9-2.3-3.3-2.3c-1.4,0-2.8,0.9-3.3,2.3s-0.9,4.7-0.9,9.4c0,4.2,0.5,7.5,0.9,9.4
					c0.5,1.9,1.9,2.3,3.3,2.3c1.4,0,2.8-0.9,3.3-2.3C906.7,305.1,906.7,301.8,906.7,297.6z"/>
			</g>
			<g>
				<path class="st13" d="M918.4,279.4h8.9v8.9c1.4-6.1,4.2-9.4,8.4-9.4c0.5,0,0.9,0,1.9,0v9.8c-0.9,0-1.4,0-1.9,0
					c-4.7,0-7.5,3.7-7.5,11.2v15.4h-9.8L918.4,279.4L918.4,279.4z"/>
			</g>
			<g>
				<path class="st13" d="M949.8,266.8h10.8v48.6h-10.8V266.8z"/>
			</g>
			<g>
				<path class="st13" d="M963.8,279.4h9.4v4.7c1.9-3.7,4.7-5.6,8.9-5.6c2.3,0,4.2,0.5,5.6,1.4c1.4,0.9,2.3,2.3,2.8,4.2
					c0.5,1.4,0.5,4.2,0.5,7.5v23.4h-9.8v-23.4c0-2.3-0.5-3.7-0.9-4.7c-0.5-0.5-1.4-0.9-2.3-0.9c-1.9,0-2.8,0.5-3.7,1.9
					c-0.5,0.9-0.9,3.3-0.9,6.1v21h-9.8v-35.5H963.8z"/>
			</g>
			<g>
				<path class="st13" d="M995.6,268.6l9.8-0.5v11.2h6.5v8h-6.5v13.1c0,2.3,0,4.2,0,4.7c0,0.9,0.5,1.4,0.9,1.9s1.4,0.9,3.3,0.9
					c0.9,0,1.9,0,2.8,0v7.5c-2.3,0.5-4.2,0.9-6.1,0.9c-2.8,0-5.1-0.5-7-1.9c-1.4-0.9-2.8-2.8-3.3-4.2c-0.5-1.9-0.5-4.7-0.5-8.4
					v-14.5h-4.2v-8h4.2V268.6z"/>
			</g>
			<g>
				<path class="st13" d="M1040,299h-18.7v1.9c0,3.3,0.5,5.1,1.4,6.5c0.9,0.9,1.9,1.4,3.3,1.4c3.3,0,4.7-1.9,5.1-6.1l8.9,0.5
					c-1.4,8.4-6.5,12.6-14,12.6c-4.7,0-8.4-1.9-11.2-5.1c-2.3-3.3-3.7-7.5-3.7-13.1c0-6.1,1.4-10.8,4.2-14.5
					c2.8-3.3,6.1-5.1,10.8-5.1c4.2,0,7.5,1.4,10.3,4.2C1038.6,285.9,1040,291.5,1040,299z M1030.7,293.4c0-0.5,0-0.9,0-0.9
					c0-4.7-1.4-7-4.7-7c-3.3,0-4.7,2.8-4.7,8H1030.7z"/>
			</g>
			<g>
				<path class="st13" d="M1041.5,266.8h9.8v48.6h-9.8V266.8z"/>
			</g>
			<g>
				<path class="st13" d="M1053.6,266.8h9.8v48.6h-9.8V266.8z"/>
			</g>
			<g>
				<path class="st13" d="M1093.4,299h-18.7v1.9c0,3.3,0.5,5.1,1.4,6.5c0.9,0.9,1.9,1.4,3.3,1.4c3.3,0,4.7-1.9,5.1-6.1l8.9,0.5
					c-1.4,8.4-6.5,12.6-14,12.6c-4.7,0-8.4-1.9-11.2-5.1c-2.3-3.3-3.7-7.5-3.7-13.1c0-6.1,1.4-10.8,4.2-14.5
					c2.8-3.3,6.1-5.1,10.8-5.1c4.2,0,7.5,1.4,10.3,4.2C1092,285.9,1093.4,291.5,1093.4,299z M1084,293.4c0-0.5,0-0.9,0-0.9
					c0-4.7-1.4-7-4.7-7s-4.7,2.8-4.7,8H1084z"/>
			</g>
			<g>
				<path class="st13" d="M1121.4,292.5l-9.4,0.5c0-2.3-0.5-3.7-0.9-5.1c-0.5-0.9-1.4-1.9-2.8-1.9c-3.3,0-5.1,3.7-5.1,10.8
					c0,4.2,0.5,7,1.4,8.4c0.9,1.4,1.9,2.3,3.7,2.3c2.3,0,3.7-2.3,4.2-6.5l9.4,0.5c-0.9,9.4-5.6,14-14,14c-4.7,0-8-1.4-10.8-4.7
					c-2.8-3.3-3.7-8-3.7-14s1.4-10.8,3.7-14c2.3-3.3,6.1-4.7,10.8-4.7C1115.8,278.9,1120.5,283.6,1121.4,292.5z"/>
			</g>
			<g>
				<path class="st13" d="M1123.3,268.6l9.8-0.5v11.2h6.5v8h-6.5v13.1c0,2.3,0,4.2,0,4.7c0,0.9,0.5,1.4,0.9,1.9
					c0.5,0.5,1.4,0.9,3.3,0.9c0.9,0,1.9,0,2.8,0v7.5c-2.3,0.5-4.2,0.9-6.1,0.9c-2.8,0-5.1-0.5-7-1.9c-1.4-0.9-2.8-2.8-3.3-4.2
					c-0.5-1.9-0.5-4.7-0.5-8.4v-14.5h-4.2v-8h4.2V268.6z"/>
			</g>
			<g>
				<path class="st13" d="M1139.7,279.4h9.8v22.9c0,2.3,0,3.7,0.5,4.7c0.5,0.9,1.4,1.4,2.8,1.4s2.3-0.5,2.8-0.9
					c0.5-0.5,0.9-1.4,1.4-2.8c0-0.9,0-3.3,0-7v-18.2h9.8v36h-9.4v-4.7c-1.4,2.3-2.8,4.2-4.2,4.7c-1.4,0.5-3.3,0.9-5.1,0.9
					c-2.8,0-4.7-0.5-6.1-1.4c-1.4-0.9-2.3-2.3-2.8-4.2c-0.5-1.4-0.5-4.2-0.5-7.5v-23.9H1139.7z"/>
			</g>
			<g>
				<path class="st13" d="M1179.9,291.1l-9.4-0.9c0.5-3.7,1.9-6.5,4.7-8.4c2.8-1.9,6.1-2.8,9.8-2.8c3.3,0,6.1,0.5,8,1.9
					c1.9,1.4,3.3,2.8,3.7,4.7s0.9,4.2,0.9,8v14.5c0,4.7,0,7,0.5,8h-9.4c-0.5-0.9-0.5-2.8-0.5-5.6c-2.3,4.2-5.6,6.1-9.8,6.1
					c-2.8,0-5.1-0.9-7-2.3c-1.9-1.9-2.8-4.2-2.8-7.5c0-4.2,1.4-7,4.2-9.4c2.8-2.3,7.5-3.3,14.5-3.7V292c0-2.3-0.5-4.2-0.9-5.1
					s-1.4-1.4-2.8-1.4C1181.8,285.5,1180.4,287.3,1179.9,291.1z M1187.9,298.1c-2.8,0.5-5.1,0.9-6.1,1.9c-1.4,0.9-1.9,2.3-1.9,4.7
					c0,2.8,0.9,4.7,3.3,4.7c1.4,0,2.3-0.5,3.3-1.9c0.9-1.4,1.4-3.7,1.4-7.5V298.1z"/>
			</g>
			<g>
				<path class="st13" d="M1200.5,266.8h9.8v48.6h-9.8V266.8z"/>
			</g>
			<g>
				<path class="st13" d="M1227.6,266.8h14c4.2,0,7.5,0.5,9.8,0.9c2.3,0.9,4.2,2.3,6.1,4.7c1.4,2.3,2.3,5.6,2.3,9.4
					s-0.5,6.5-1.9,8.9c-1.4,2.3-3.3,4.2-5.1,5.1c-2.3,0.9-5.6,1.4-10.3,1.4h-4.7v17.8h-10.8v-48.2H1227.6z M1237.9,274.7v14.5h3.3
					c2.8,0,4.7-0.5,5.6-1.9s1.4-3.3,1.4-5.1c0-1.9-0.5-3.3-0.9-4.2c-0.5-0.9-1.4-1.9-2.3-2.3c-0.9-0.5-1.9-0.5-3.7-0.5h-3.3V274.7z"
					/>
			</g>
			<g>
				<path class="st13" d="M1258.5,279.4h8.9v8.9c1.4-6.1,4.2-9.4,8.4-9.4c0.5,0,0.9,0,1.9,0v9.8c-0.9,0-1.4,0-1.9,0
					c-4.7,0-7.5,3.7-7.5,11.2v15.4h-9.8L1258.5,279.4L1258.5,279.4z"/>
			</g>
			<g>
				<path class="st13" d="M1304.3,297.6c0,12.6-4.7,18.7-14.5,18.7c-9.8,0-14.5-6.1-14.5-18.7s4.7-18.7,14.5-18.7
					C1299.6,278.9,1304.3,285,1304.3,297.6z M1294,297.6c0-4.7-0.5-7.5-0.9-9.4c-0.5-1.4-1.9-2.3-3.3-2.3s-2.8,0.9-3.3,2.3
					s-0.9,4.7-0.9,9.4c0,4.2,0.5,7.5,0.9,9.4s1.9,2.3,3.3,2.3c1.4,0,2.8-0.9,3.3-2.3C1293.6,305.1,1294,301.8,1294,297.6z"/>
			</g>
			<g>
				<path class="st13" d="M1305.7,279.4h9.4v5.1c1.9-3.7,4.7-5.6,8-5.6s6.1,1.4,8.4,4.2c2.3,2.8,3.3,7.5,3.3,13.6
					c0,6.1-0.9,11.2-3.3,14c-2.3,3.3-5.1,4.7-8.9,4.7c-2.8,0-5.1-0.9-7-3.3v15h-9.8V279.4z M1315.5,300.9c0,3.3,0.5,5.6,0.9,6.5
					c0.5,0.9,1.9,1.4,3.3,1.4c1.4,0,2.8-0.5,3.3-1.9c0.9-1.4,0.9-4.7,0.9-9.8c0-4.2-0.5-7.5-0.9-8.9s-1.9-2.3-3.3-2.3
					c-1.4,0-2.3,0.5-3.3,1.4c-0.9,0.9-1.4,3.3-1.4,7v6.5H1315.5z"/>
			</g>
			<g>
				<path class="st13" d="M1363.3,299h-18.7v1.9c0,3.3,0.5,5.1,1.4,6.5c0.9,0.9,1.9,1.4,3.3,1.4c3.3,0,4.7-1.9,5.1-6.1l8.9,0.5
					c-1.4,8.4-6.5,12.6-14,12.6c-4.7,0-8.4-1.9-11.2-5.1c-2.3-3.3-3.7-7.5-3.7-13.1c0-6.1,1.4-10.8,4.2-14.5
					c2.8-3.3,6.1-5.1,10.8-5.1c4.2,0,7.5,1.4,10.3,4.2C1362.3,285.9,1363.3,291.5,1363.3,299z M1353.9,293.4c0-0.5,0-0.9,0-0.9
					c0-4.7-1.4-7-4.7-7s-4.7,2.8-4.7,8H1353.9z"/>
			</g>
			<g>
				<path class="st13" d="M1364.7,279.4h8.9v8.9c1.4-6.1,4.2-9.4,8.4-9.4c0.5,0,0.9,0,1.9,0v9.8c-0.9,0-1.4,0-1.9,0
					c-4.7,0-7.5,3.7-7.5,11.2v15.4h-9.8L1364.7,279.4L1364.7,279.4z"/>
			</g>
			<g>
				<path class="st13" d="M1385.7,268.6l9.8-0.5v11.2h6.5v8h-6.5v13.1c0,2.3,0,4.2,0,4.7c0,0.9,0.5,1.4,0.9,1.9s1.4,0.9,3.3,0.9
					c0.9,0,1.9,0,2.8,0v7.5c-2.3,0.5-4.2,0.9-6.1,0.9c-2.8,0-5.1-0.5-7-1.9c-1.4-0.9-2.8-2.8-3.3-4.2c-0.5-1.9-0.5-4.7-0.5-8.4
					v-14.5h-4.2v-8h4.2L1385.7,268.6L1385.7,268.6z"/>
			</g>
			<g>
				<path class="st13" d="M1397.9,279.4h9.8l4.7,22l4.7-22h8.4l-10.8,36.5c-0.9,3.3-1.9,6.1-2.8,7.5s-1.9,2.3-3.3,3.3
					c-1.4,0.9-3.3,1.4-5.6,1.4c-1.4,0-2.8,0-4.2-0.5v-8c0.9,0,1.9,0,2.8,0c1.9,0,3.3-0.5,4.2-0.9s1.4-1.9,1.9-4.2L1397.9,279.4z"/>
			</g>
		</g>
	</g>
</g>
</svg>
