<?xml version="1.0" encoding="utf-8"?>
<!-- Generator: Adobe Illustrator 25.0.1, SVG Export Plug-In . SVG Version: 6.00 Build 0)  -->
<svg version="1.1" id="Layer_1" xmlns="http://www.w3.org/2000/svg" xmlns:xlink="http://www.w3.org/1999/xlink" x="0px" y="0px"
	 viewBox="0 0 1055.5 436.7" style="enable-background:new 0 0 1055.5 436.7;" xml:space="preserve">
<style type="text/css">
	.st0{fill-rule:evenodd;clip-rule:evenodd;fill:#4A4A4D;}
	.st1{fill-rule:evenodd;clip-rule:evenodd;fill:#FEFEFE;}
	.st2{fill:#81BE00;}
	.st3{fill:#1F9CDC;}
	.st4{fill-rule:evenodd;clip-rule:evenodd;fill:#FFFFFF;}
	.st5{fill-rule:evenodd;clip-rule:evenodd;fill:#B7D96F;}
	.st6{fill-rule:evenodd;clip-rule:evenodd;fill:#D2E7A5;}
	.st7{fill:#FFFFFF;}
	.st8{fill-rule:evenodd;clip-rule:evenodd;fill:#E2131A;}
	.st9{fill-rule:evenodd;clip-rule:evenodd;fill:#FCDBCE;}
	.st10{fill-rule:evenodd;clip-rule:evenodd;fill:#DB151A;}
	.st11{fill-rule:evenodd;clip-rule:evenodd;fill:#EBEBEB;}
	.st12{fill-rule:evenodd;clip-rule:evenodd;fill:#008000;}
	.st13{fill:#DB151A;}
</style>
<g id="Layer_x0020_1">
	<g id="_2531301594304">
		<path class="st0" d="M-1699.5,278.3c-42.9-60.8-23.7-13.9-31.3,35.3l-24.3-1.2c0-0.6-0.6-1.2-0.6-1.7c0-0.6-0.6-1.2-0.6-1.7
			l-0.6-19.1c0-26.1-4.1-152.3,1.7-166.8v-0.6c5.2-1.2,13.9-2.3,20.3-0.6c6.4,2.3,0-1.7,4.6,2.3c7,23.2,0,68.4,1.7,95
			c0,3.5,0.6,5.2,1.7,8.7c16.2-1.2,14.5-8.1,23.7-19.1c4.6-5.2,19.1-20.9,24.3-23.7c6.4-3.5,24.9-5.2,30.1,0
			c5.2,5.8-4.6,13.9-8.1,18c-9.3,9.3-18.5,18.5-27.2,27.8c-1.2,1.2-2.3,2.3-3.5,3.5c-1.7,1.7-2.3,2.9-3.5,5.2
			c-0.6,4.1,3.5,9.3,5.8,11.6c8.7,13.3,38.2,47.5,37.7,60.8v1.2c-30.7,0.6-26.1,2.3-44.6-24.3
			C-1694.9,285.3-1697.2,281.2-1699.5,278.3L-1699.5,278.3L-1699.5,278.3z M-1609.1,319.4c1.2-26.6,0.6-53.9,0.6-80.5
			c0-44.6,0-89.2-1.2-133.2c-1-35.9-20.9-41.1-52.1-39.4c-74.7,0-149.4-0.6-224.2,0c-5.2,0-5.8,1.2-10.4,3.5
			c-12.2,7-11.6,9.3-18.5,21.4c-1.7,2.9-0.6,12.2-0.6,15.6c-0.6,75.3-0.6,150,0,224.7c0,35,28.1,35.3,55,35.3
			c74.1,0,148.3,1.2,222.4,0c12.8,0,25.1-12.3,27.8-24.9C-1609.7,335.1-1609.7,326.4-1609.1,319.4L-1609.1,319.4z"/>
		<path class="st0" d="M-1298.7,275.4v-64.3c36.5-19.1,49.2-6.4,49.2,34.2C-1250,285.3-1265.1,293.9-1298.7,275.4L-1298.7,275.4z
			 M-1273.2,179.8c-9.3,1.2-19.1,7-23.2,3.5c-7-8.7-0.6-49.8-3.5-64.3c-9.8-2.3-21.4-2.9-30.7,0.6c-7.5,2.9-2.9,81.7-2.9,95
			l0.6,90.9c1.7,7.5,9.8,8.1,20.9,7c9.3-1.2,8.1-3.5,13.3-10.4c16.2,1.7,30.1,19.1,56.8,8.7C-1210.6,298-1189.8,168.8-1273.2,179.8
			L-1273.2,179.8L-1273.2,179.8z"/>
		<path class="st0" d="M-1396,277.1c0,4.1,0.6,2.3-4.6,2.3c-8.7,7-19.7,7-29.5,4.1c-2.9-13.3-3.5-29,11-29c2.3-2.3,0.6-1.7,5.2-2.9
			h23.7l0.6,17.4c0,12.7,0,2.9-2.3,6.4C-1393.1,278.9-1389.6,278.9-1396,277.1L-1396,277.1L-1396,277.1z M-1390.2,229.6
			c-28.4,1.7-81.1-12.2-76.5,46.3c4.6,64.9,75.3,26.6,77.6,26.1c6.4,6.4,4.1,9.3,13.3,10.4c28.4,4.6,21.4-5.8,21.4-56.2
			c0-52.7,11-86.3-75.9-76.5c-13.9,1.7-36.5,3.5-30.1,21.4C-1452.2,227.3-1385.6,178.7-1390.2,229.6L-1390.2,229.6L-1390.2,229.6z"
			/>
		<path class="st0" d="M-1564,314.2h74.1c16.8,0,13.3-5.2,12.7-23.2c-0.6-21.4-5.8-16.8-52.1-16.8c-21.4,0-18.5-1.7-18.5-22.6
			c0-16.8,1.7-122.2-1.7-132.6c-5.8-1.7-22.6-2.3-30.1-1.7c-13.3,1.2-9.8,9.3-9.3,23.2v130.9C-1588.9,300.3-1595.2,314.2-1564,314.2
			L-1564,314.2L-1564,314.2z"/>
		<path class="st1" d="M-1889.5,66.3h-26.1C-1915.6,105-1921.7,85.1-1889.5,66.3z"/>
		<path class="st1" d="M-1915.6,367.5h24.3c-18.5-14.5-7.5,1.7-22.6-22l-2.3-2.9v24.9L-1915.6,367.5L-1915.6,367.5z"/>
		<path class="st0" d="M-1400.6,279.5c5.2,0,4.9,4.1,5.5,0.6c6.4,1.7,2.1-1.2,3.8-4.6c2.3-3.5,4.6,9.8,5.2-2.9l0.6-23.7l-29,1.2
			c-4.6,1.2-1.7,2.3-4.1,4.6l27.2-1.2C-1391.3,265.8-1387.3,276.1-1400.6,279.5L-1400.6,279.5z"/>
		<g id="Layer_x0020_1_1_">
			<polygon class="st2" points="-1070.6,366.7 -766.5,366.7 -766.5,71.9 -1070.6,71.9 			"/>
			<polygon class="st3" points="-755.4,366.7 -97,366.7 -97,71.9 -755.4,71.9 			"/>
			<path class="st4" d="M-988.1,171.7l0.5,0.5l0.5,0.5l0.6,0.6l0.5,0.5l0.5,0.5l0.6,0.6l0.5,0.5l0.5,0.5l0.6,0.6l0.5,0.5l0.5,0.5
				l0.6,0.6l0.5,0.5l0.5,0.5l0.6,0.6l0.5,0.5l0.5,0.5l0.6,0.6l0.5,0.5l0.5,0.6l0.6,0.5l0.5,0.5l0.5,0.6l0.6,0.5l0.5,0.5l0.6,0.6
				l0.5,0.5l0.5,0.5l0.6,0.6l0.5,0.5l0.5,0.5l0.6,0.6l0.5,0.5l0.5,0.5l0.6,0.6l0.5,0.5l0.5,0.5l0.6,0.6l0.5,0.5l0.5,0.5l0.6,0.6
				l0.5,0.5l0.5,0.6l0.6,0.5l0.5,0.5l0.5,0.6l0.6,0.5l0.5,0.5l0.5,0.6l0.6,0.5l0.5,0.5l0.6,0.6l0.5,0.5l0.5,0.5l0.6,0.6l0.5,0.5
				l0.5,0.5l0.6,0.6l0.5,0.5l0.5,0.5l0.6,0.6l0.5,0.5l0.5,0.5l0.6,0.6l0.5,0.5l0.5,0.5l0.6,0.6l0.5,0.5l0.5,0.6l0.6,0.5l0.5,0.5
				l0.5,0.6l0.6,0.5l0.5,0.5l0.6,0.6l0.5,0.5l0.5,0.5l0.6,0.6l0.5,0.5l0.5,0.5l0.6,0.6l0.5,0.5l0.5,0.5l0.6,0.6l0.5,0.5l0.5,0.5
				l0.6,0.6l0.5,0.5c0.7,0,0.5-0.1,0.5,0.6l0.1,0.3c0.2,0.9,0.4,0.8-0.4,0.8l-0.5,0.5l-0.6,0.5l-0.5,0.6l-0.5,0.5l-0.6,0.5l-0.5,0.6
				l-0.5,0.5l-0.6,0.5l-0.5,0.6l-0.5,0.5l-0.6,0.5l-0.5,0.6l-0.6,0.5l-0.5,0.5l-0.5,0.6l-0.6,0.5l-0.5,0.5l-0.5,0.6l-0.6,0.5
				l-0.5,0.6l-0.5,0.5l-0.6,0.5l-0.5,0.6l-0.5,0.5l-0.6,0.5l-0.5,0.6l-0.5,0.5l-0.6,0.5l-0.5,0.6l-0.5,0.5l-0.6,0.5l-0.5,0.6
				l-0.5,0.5l-0.6,0.5l-0.5,0.6l-0.5,0.5l-0.6,0.5l-0.5,0.6l-0.6,0.5l-0.5,0.5l-0.5,0.6l-0.6,0.5l-0.5,0.5l-0.5,0.6l-0.6,0.5
				l-0.5,0.6l-0.5,0.5l-0.6,0.5l-0.5,0.6l-0.5,0.5l-0.6,0.5l-0.5,0.6l-0.5,0.5l-0.6,0.5l-0.5,0.6l-0.5,0.5l-0.6,0.5l-0.5,0.6
				l-0.5,0.5l-0.6,0.5l-0.5,0.6l-0.6,0.5l-0.5,0.5l-0.5,0.6l-0.6,0.5l-0.5,0.5l-0.5,0.6l-0.6,0.5l-0.5,0.5l-0.5,0.6l-0.6,0.5
				l-0.5,0.6l-0.5,0.5l-0.6,0.5l-0.5,0.6l-0.5,0.5l-0.6,0.5l-0.5,0.6l-0.5,0.5l-0.6,0.5l-0.5,0.6l-0.5,0.5l-0.6,0.5l-0.5,0.6
				l-0.5,0.5l-0.6,0.5l-0.5,0.6l-0.6,0.5l-0.5,0.5l-0.4,0.7l0.2,0.1l37.7,0.1l49.7-49.6l-49.3-49.6H-980c-1.8,0-7.6-0.8-8.7,0.7
				L-988.1,171.7L-988.1,171.7z"/>
			<polygon class="st4" points="-912.6,247 -912.2,247.6 -911.6,248.2 -911.1,248.7 -910.6,249.3 -910,249.8 -909.5,250.3 
				-909,250.9 -908.4,251.4 -907.8,251.9 -907.2,252.6 -906.7,253.1 -906.2,253.7 -905.7,254.2 -905.2,254.8 -904.6,255.3 
				-904.1,255.8 -903.6,256.4 -903,256.9 -902.5,257.4 -902,258 -901.4,258.5 -900.9,259 -900.4,259.6 -899.8,260.1 -899.3,260.6 
				-898.8,261.2 -898.2,261.7 -897.7,262.2 -897.2,262.8 -896.6,263.3 -896.1,263.9 -895.5,264.4 -894.9,265 -894.4,265.6 
				-893.8,266.1 -893.3,266.6 -892.8,267.2 -892.2,267.7 -891.7,268.2 -891.2,268.8 -890.6,269.3 -890,269.7 -851.6,269.7 
				-893.2,227.7 			"/>
			<path class="st4" d="M-890.9,171.2l-0.5,0.5l-0.6,0.5l-0.5,0.6l-0.5,0.5l-0.6,0.5l-0.5,0.6l-0.6,0.5l-0.5,0.5l-0.5,0.6l-0.6,0.5
				l-0.5,0.5l-0.5,0.6l-0.6,0.5l-0.5,0.6l-0.5,0.5l-0.6,0.5l-0.5,0.6l-0.5,0.5l-0.6,0.5l-0.5,0.6l-0.5,0.5l-0.6,0.5l-0.5,0.6
				l-0.5,0.5l-0.6,0.5l-0.5,0.6l-0.5,0.5l-0.6,0.5l-0.5,0.6l-0.6,0.5l-0.5,0.5l-0.5,0.6l-0.6,0.5l-0.5,0.5l-0.5,0.6l-0.6,0.5
				l-0.5,0.6l-0.5,0.5l-0.6,0.5c0,0.8,0.2,0.6-0.6,0.6c0.8,1.6,17.6,18.4,19.4,19.2l0.5-0.6l0.6-0.5l0.5-0.5l0.5-0.6l0.6-0.5
				l0.5-0.5l0.6-0.6l0.5-0.5l0.5-0.6l0.6-0.5l0.5-0.5l0.5-0.6l0.6-0.5l0.5-0.5l0.5-0.6l0.6-0.5l0.5-0.5l0.5-0.6l0.6-0.5l0.5-0.5
				l0.5-0.6l0.6-0.5l0.5-0.5l0.5-0.6l0.6-0.5l0.5-0.5l0.5-0.6l0.6-0.5l0.5-0.5l0.5-0.6l0.6-0.5l0.5-0.5l0.6-0.6l0.5-0.5l0.5-0.6
				l0.6-0.5l0.5-0.5l0.5-0.6l0.6-0.5l0.5-0.5l0.5-1l-18.9-18.7h-0.2L-890.9,171.2L-890.9,171.2z"/>
			<path class="st5" d="M-890.9,171.2l-0.5,0.5l-0.6,0.5l-0.5,0.6l-0.5,0.5l-0.6,0.5l-0.5,0.6l-0.6,0.5l-0.5,0.5l-0.5,0.6l-0.6,0.5
				l-0.5,0.5l-0.5,0.6l-0.6,0.5l-0.5,0.6l-0.5,0.5l-0.6,0.5l-0.5,0.6l-0.5,0.5l-0.6,0.5l-0.5,0.6l-0.5,0.5l-0.6,0.5l-0.5,0.6
				l-0.5,0.5l-0.6,0.5l-0.5,0.6l-0.5,0.5l-0.6,0.5l-0.5,0.6l-0.6,0.5l-0.5,0.5l-0.5,0.6l-0.6,0.5l-0.5,0.5l-0.5,0.6l-0.6,0.5
				l-0.5,0.6l-0.5,0.5l-0.6,0.5l-0.6,0.6c0.8,0,0.6,0.2,0.6-0.6l0.6-0.5l0.5-0.5l0.5-0.6l0.6-0.5l0.5-0.6l0.5-0.5l0.6-0.5l0.5-0.6
				l0.5-0.5l0.6-0.5l0.5-0.6l0.6-0.5l0.5-0.5l0.5-0.6l0.6-0.5l0.5-0.5l0.5-0.6l0.6-0.5l0.5-0.5l0.5-0.6l0.6-0.5l0.5-0.5l0.5-0.6
				l0.6-0.5l0.5-0.5l0.5-0.6l0.6-0.5l0.5-0.6l0.5-0.5l0.6-0.5l0.5-0.6l0.5-0.5l0.6-0.5l0.5-0.6l0.6-0.5l0.5-0.5l0.5-0.6l0.6-0.5
				L-890.9,171.2l0.6-0.5h0.2h-0.2C-891.1,170.6-890.9,170.4-890.9,171.2z"/>
			<polygon class="st6" points="-871.7,190.5 -872.2,191 -872.8,191.5 -873.3,192.1 -873.8,192.6 -874.4,193.1 -874.9,193.7 
				-875.4,194.2 -876,194.8 -876.5,195.3 -877.1,195.8 -877.6,196.4 -878.1,196.9 -878.7,197.4 -879.2,198 -879.7,198.5 -880.3,199 
				-880.8,199.6 -881.3,200.1 -881.9,200.6 -882.4,201.2 -883,201.7 -883.6,202.2 -884.1,202.8 -884.6,203.4 -885.2,203.9 
				-885.7,204.5 -886.2,205 -886.8,205.5 -887.3,206.1 -887.8,206.6 -888.4,207.1 -888.9,207.7 -889.4,208.2 -890,208.8 
				-890.5,209.3 -891.1,209.8 -891.6,210.4 -892.1,210.9 -892.7,211.4 -893.2,212 -892.7,211.4 -892.1,210.9 -891.6,210.4 
				-891.1,209.8 -890.5,209.3 -890,208.8 -889.4,208.2 -888.9,207.7 -888.4,207.1 -887.8,206.6 -887.3,206.1 -886.8,205.5 
				-886.2,205 -885.7,204.5 -885.2,203.9 -884.6,203.4 -884.1,202.8 -883.6,202.2 -883,201.7 -882.4,201.2 -881.9,200.6 
				-881.3,200.1 -880.8,199.6 -880.3,199 -879.7,198.5 -879.2,198 -878.7,197.4 -878.1,196.9 -877.6,196.4 -877.1,195.8 
				-876.5,195.3 -876,194.8 -875.4,194.2 -874.9,193.7 -874.4,193.1 -873.8,192.6 -873.3,192.1 -872.8,191.5 -872.2,191 
				-871.7,190.5 -870.8,189.7 -871.2,189.4 			"/>
			<polygon class="st5" points="-912.2,247.6 -911.6,248.2 -911.1,248.7 -910.6,249.3 -910,249.8 -909.5,250.3 -909,250.9 
				-908.4,251.4 -907.8,251.9 -907.2,252.6 -906.7,253.1 -906.2,253.7 -905.7,254.2 -905.2,254.8 -904.6,255.3 -904.1,255.8 
				-903.6,256.4 -903,256.9 -902.5,257.4 -902,258 -901.4,258.5 -900.9,259 -900.4,259.6 -899.8,260.1 -899.3,260.6 -898.8,261.2 
				-898.2,261.7 -897.7,262.2 -897.2,262.8 -896.6,263.3 -896.1,263.9 -895.5,264.4 -894.9,265 -894.4,265.6 -893.8,266.1 
				-893.3,266.6 -892.8,267.2 -892.2,267.7 -891.7,268.2 -891.2,268.8 -890.6,269.3 -890,269.7 -890.6,269.3 -891.2,268.8 
				-891.7,268.2 -892.2,267.7 -892.8,267.2 -893.3,266.6 -893.8,266.1 -894.4,265.6 -894.9,265 -895.5,264.4 -896.1,263.9 
				-896.6,263.3 -897.2,262.8 -897.7,262.2 -898.2,261.7 -898.8,261.2 -899.3,260.6 -899.8,260.1 -900.4,259.6 -900.9,259 
				-901.4,258.5 -902,258 -902.5,257.4 -903,256.9 -903.6,256.4 -904.1,255.8 -904.6,255.3 -905.2,254.8 -905.7,254.2 -906.2,253.7 
				-906.7,253.1 -907.2,252.6 -907.8,251.9 -908.4,251.4 -909,250.9 -909.5,250.3 -910,249.8 -910.6,249.3 -911.1,248.7 
				-911.6,248.2 -912.2,247.6 -912.6,247 			"/>
			<path class="st4" d="M-535.4,185c3.1-3.3,13.4-11.6,14-15.8c-6.9-1.1-9.5-1.2-13,2.7l-22.5,23.8c-5.2-1.7-11.9-10.4-17.5-15.9
				c-10.5-10.2-8.5-12.2-21.4-10.7c1,6.1,25.5,24.7,28.9,32.2c-2.5,3.3-5.4,5.6-8.3,8.7c-3,3.1-5.2,5.6-8.4,8.8
				c-3.8,3.7-14.5,13.4-15.5,18.2l11.5-0.4c1.5-2.6,25.6-27.5,28.9-29.9c3.7,1.7,28.3,27.6,33.5,32.9l24.7,24.8
				c4.8,4.6,11.7,1.8,11.8,1.7c0.1-0.3,0.4-0.2,0.7-0.3c1.5-2.1-57.9-57.4-62.2-64.4L-535.4,185L-535.4,185z"/>
			<path class="st4" d="M-426.9,216.3l-7.5,0.1c-4,5.8,0.3,10.8-13.1,11.5c-7.7,0.5-16.5,0.2-24.3,0.1c-23.3-0.1-24.4-2.3-24.3-25.7
				c0.1-21,1.8-25,23.3-25.1c7.7,0,16.8-0.4,24.3,0.2c9.7,0.6,11.3,3.4,13.3,11.4l8.2-0.1c0.7-24.6-24.8-20.5-45.8-20.4
				c-26.6,0-32.1,7.5-32,34c0,27.2,2.5,34.7,30.9,34.7C-451.2,236.9-426.5,242.2-426.9,216.3L-426.9,216.3z"/>
			<path class="st4" d="M-254,235.9h53.9c1.4,0,0.9,0,3.5-0.8c15.5-4.8,17-18.2,16.6-33.9c-0.2-7.7-0.2-16-3.4-21.9
				c-2.6-4.6-9.2-9.3-16.1-9c-2.3,0.4-23-0.7-28-0.7c-7.4,0-20.5,0.9-27,0.2c0.8,10.7,0.2,22.3,0.2,33.4
				C-254.3,213.8-253.7,225.8-254,235.9L-254,235.9z M-201.1,227.8c-3.7,2.4-39.2,1-45.3,0.3c-1.6-4.9-1-42.7-0.6-50.2
				c7.9-1.2,42.4-2.9,47.6,0.6c2.1,0.1,0,0,3.5,1.4c0.3,0.1,1,0.5,1.3,0.7c1.2,0.7,1.1,0.9,1.6,1.4c1.6-0.5,1.3-0.8,0.9,1
				c1.7-0.3,1.1-0.5,0.6,1.3c1.5,0.7,1.1-1,0.9,2.5c1.8,0.4,1.4,2.6,1.6,4.7c0.1,7.6,0.8,16.3,0.1,23.8
				C-189.7,223.8-193.6,225.1-201.1,227.8L-201.1,227.8z"/>
			<path class="st4" d="M-667.4,236.6h56.6l0.1-8.3c-2.4,0.1-47.2,1.4-49.4-1.1l-1.2-3.7c-0.1-1.5,0.1-4.4,0.1-6.2
				c0-3.7-0.3-7.1,0.3-10.7c5.7-1.5,38.8-0.7,46.9-0.5c2.4-3.8,0.9-2.6,0.9-7.7l-47.8-0.8c-0.6-0.9-0.5,0-1.2-2.5
				c-0.3-0.9-0.3-2-0.4-3c0-1.3,0.1-3.6,0.1-5c-0.1-12.1,0.3-8.5,1.9-9.4l49.2-1.2v-6.4l-57.5-0.7
				C-669,181.9-671.2,229.3-667.4,236.6L-667.4,236.6z"/>
			<path class="st4" d="M-329.4,236.7l57.3,0.1l0.6-7.5c-7.9-2.8-39-0.3-50.7-1.1c-1-3-1.9-19.7,0.4-21.5c7.9-2.8,36,0.1,47.5-1
				l0.3-4.8c-1.4-1.2-1.1,1.8-1.3-2.3l-35.9,0.1c-5,0.1-10,1-11.3-1.4c-1.5-2.4-1-7.4-1-10.2c-0.3-11.3-0.7-8.2,1.4-9
				c1.9-1.4,0.9-1.1,5.7-1.1c10.3,0.1,37.1,1,43.8-1l-0.1-5.1c-5.4-2.5-55.6-1.1-57.4-0.7C-330.5,181.4-331.7,228.8-329.4,236.7
				L-329.4,236.7z"/>
			<path class="st4" d="M-349,169.3l-57.6,0.3l-0.3,66.7l58.3,0.3l0.1-8.3l-47.4-0.1c-2.9-0.6-0.9,1.2-1.9-1
				c-1.9-2.1-1.9-17.4-0.1-19.8c1.1-1.2-0.8-0.3,2-1.1c1.3-0.3,1.5-0.2,2.7-0.3l41,0.1c1.2-2.3,0.6-0.1,1-3.8c0.1-1,0-2.4,0.1-3.6
				l-48-0.2c-1.9-5.5-1.9-14.9-0.3-20.4c4.4-1.9,42.6-1,50.5-1L-349,169.3L-349,169.3z"/>
			<path class="st7" d="M-476.8,251.9c-0.4,0-0.8,0.1-1,0.4c-0.3,0.3-0.4,0.7-0.4,1.3v11c0,0.6,0.1,1,0.4,1.3c0.3,0.3,0.6,0.4,1,0.4
				c0.4,0,0.8-0.1,1-0.4c0.3-0.3,0.4-0.7,0.4-1.3v-11c0-0.6-0.1-1-0.4-1.3C-476.1,252-476.4,251.9-476.8,251.9z"/>
			<path class="st7" d="M-460.9,252.1h-9c-0.5,0-0.8,0.1-1.1,0.3c-0.3,0.2-0.4,0.5-0.4,0.9c0,0.4,0.1,0.6,0.4,0.8
				c0.2,0.2,0.6,0.3,1.1,0.3h3.1v10.2c0,0.6,0.1,1,0.4,1.3c0.3,0.3,0.6,0.4,1,0.4c0.4,0,0.7-0.1,1-0.4c0.3-0.3,0.4-0.7,0.4-1.3
				v-10.2h3.1c0.5,0,0.8-0.1,1.1-0.3c0.2-0.2,0.4-0.5,0.4-0.8c0-0.3-0.1-0.6-0.4-0.8C-460,252.2-460.4,252.1-460.9,252.1
				L-460.9,252.1z"/>
			<path class="st7" d="M-441.2,258.9c-0.5-0.3-1-0.6-1.6-0.8c-0.6-0.2-1.3-0.4-2.1-0.6c-0.6-0.2-1.1-0.3-1.4-0.4
				c-0.3-0.1-0.5-0.2-0.8-0.3c-0.3-0.1-0.5-0.3-0.6-0.5c-0.1-0.2-0.2-0.4-0.2-0.7c0-0.4,0.2-0.8,0.7-1.2c0.5-0.3,1-0.5,1.8-0.5
				c0.8,0,1.4,0.1,1.7,0.4c0.4,0.3,0.7,0.7,0.9,1.2c0.2,0.4,0.4,0.6,0.6,0.8c0.2,0.2,0.4,0.2,0.7,0.2c0.4,0,0.7-0.1,0.9-0.4
				c0.2-0.3,0.4-0.6,0.4-0.9c0-0.4-0.1-0.8-0.3-1.1c-0.2-0.4-0.5-0.8-0.9-1.1c-0.4-0.4-0.9-0.6-1.6-0.9c-0.6-0.2-1.4-0.3-2.2-0.3
				c-1.1,0-2,0.2-2.8,0.5c-0.8,0.3-1.4,0.8-1.8,1.4c-0.4,0.6-0.6,1.3-0.6,2c0,0.8,0.2,1.5,0.6,2c0.4,0.5,0.9,1,1.6,1.3
				c0.7,0.3,1.5,0.6,2.5,0.8c0.8,0.2,1.4,0.3,1.8,0.5c0.4,0.2,0.8,0.4,1.1,0.7c0.3,0.3,0.4,0.7,0.4,1.1c0,0.6-0.3,1.1-0.8,1.5
				c-0.5,0.4-1.2,0.6-2.1,0.6c-0.6,0-1.1-0.1-1.5-0.3c-0.4-0.2-0.7-0.4-0.9-0.7c-0.2-0.3-0.4-0.7-0.6-1.1c-0.2-0.4-0.3-0.7-0.5-0.8
				c-0.2-0.2-0.5-0.3-0.8-0.3c-0.4,0-0.7,0.1-0.9,0.4c-0.2,0.2-0.4,0.5-0.4,0.9c0,0.6,0.2,1.2,0.6,1.8c0.4,0.6,0.9,1.1,1.5,1.5
				c0.9,0.5,2,0.8,3.4,0.8c1.2,0,2.1-0.2,3-0.6c0.8-0.4,1.5-0.9,1.9-1.6c0.4-0.7,0.7-1.4,0.7-2.3c0-0.7-0.1-1.3-0.4-1.8
				C-440.4,259.6-440.8,259.2-441.2,258.9L-441.2,258.9z"/>
			<path class="st7" d="M-424.2,263.8h-6.6v-4h5.9c0.4,0,0.8-0.1,1-0.3c0.2-0.2,0.3-0.5,0.3-0.8s-0.1-0.6-0.3-0.8
				c-0.2-0.2-0.5-0.3-1-0.3h-5.9v-3.4h6.4c0.4,0,0.8-0.1,1-0.3c0.2-0.2,0.3-0.5,0.3-0.8c0-0.3-0.1-0.6-0.3-0.8
				c-0.2-0.2-0.6-0.3-1-0.3h-7.5c-0.4,0-0.7,0-1,0.2c-0.3,0.1-0.4,0.3-0.6,0.6c-0.1,0.3-0.2,0.6-0.2,1v10.5c0,0.6,0.1,1.1,0.4,1.3
				c0.3,0.3,0.7,0.4,1.3,0.4h7.7c0.5,0,0.8-0.1,1-0.3c0.2-0.2,0.3-0.5,0.3-0.8c0-0.3-0.1-0.6-0.3-0.8
				C-423.5,263.9-423.8,263.8-424.2,263.8z"/>
			<path class="st7" d="M-409.9,257.9c-0.5,0.1-1,0.2-1.7,0.2h-2.5v-3.8h2.6c1,0,1.6,0.1,1.9,0.2c0.3,0.2,0.6,0.4,0.8,0.7
				c0.2,0.3,0.3,0.6,0.3,1c0,0.5-0.1,0.9-0.4,1.2C-409,257.6-409.4,257.8-409.9,257.9z M-406.4,262.6c-0.4-0.6-0.8-1.1-1.2-1.7
				c-0.5-0.5-0.9-0.9-1.4-1.2c1.2-0.3,2.1-0.7,2.7-1.3c0.6-0.6,0.9-1.5,0.9-2.5c0-0.5-0.1-1-0.3-1.5c-0.2-0.4-0.4-0.8-0.8-1.2
				c-0.3-0.3-0.7-0.6-1.2-0.8c-0.4-0.2-0.8-0.3-1.2-0.3c-0.4-0.1-1-0.1-1.6-0.1h-4.6c-0.6,0-1.1,0.1-1.3,0.4
				c-0.3,0.3-0.4,0.7-0.4,1.3v10.8c0,0.6,0.1,1,0.4,1.3c0.3,0.3,0.6,0.4,1.1,0.4c0.4,0,0.8-0.1,1-0.4c0.3-0.3,0.4-0.7,0.4-1.3v-4.5
				h1c0.5,0,0.9,0.1,1.2,0.2c0.3,0.1,0.7,0.4,1,0.7c0.3,0.4,0.7,0.9,1.1,1.6l1.1,1.9c0.3,0.5,0.5,0.8,0.6,1c0.2,0.2,0.3,0.4,0.6,0.6
				c0.2,0.1,0.5,0.2,0.8,0.2c0.3,0,0.5,0,0.7-0.1c0.2-0.1,0.4-0.2,0.5-0.4c0.1-0.2,0.2-0.4,0.2-0.5c0-0.2-0.1-0.5-0.3-1
				C-405.8,263.7-406.1,263.2-406.4,262.6L-406.4,262.6z"/>
			<path class="st7" d="M-389.5,252c-0.2-0.1-0.4-0.2-0.7-0.2c-0.3,0-0.6,0.1-0.8,0.2c-0.2,0.1-0.3,0.3-0.4,0.5
				c-0.1,0.2-0.2,0.5-0.4,1l-3.2,9.5l-3.2-9.4c-0.2-0.7-0.4-1.1-0.6-1.4c-0.2-0.3-0.5-0.4-1-0.4c-0.4,0-0.7,0.1-1,0.4
				c-0.3,0.3-0.4,0.6-0.4,0.9c0,0.1,0,0.3,0.1,0.5c0,0.2,0.1,0.4,0.1,0.5c0.1,0.2,0.1,0.3,0.2,0.5l3.3,9.1c0.1,0.3,0.2,0.7,0.4,1
				c0.1,0.3,0.3,0.6,0.4,0.8c0.2,0.2,0.4,0.4,0.6,0.6c0.3,0.2,0.6,0.2,1,0.2c0.4,0,0.7-0.1,1-0.2c0.3-0.1,0.5-0.4,0.6-0.6
				c0.2-0.2,0.3-0.5,0.4-0.8c0.1-0.3,0.2-0.6,0.4-1l3.4-9.1c0.1-0.2,0.1-0.3,0.2-0.5c0-0.2,0.1-0.3,0.1-0.5c0-0.2,0.1-0.3,0.1-0.5
				c0-0.2-0.1-0.4-0.2-0.6C-389.1,252.3-389.3,252.2-389.5,252L-389.5,252z"/>
			<path class="st7" d="M-381.9,251.9c-0.4,0-0.8,0.1-1,0.4c-0.3,0.3-0.4,0.7-0.4,1.3v11c0,0.6,0.1,1,0.4,1.3c0.3,0.3,0.6,0.4,1,0.4
				c0.4,0,0.8-0.1,1-0.4c0.3-0.3,0.4-0.7,0.4-1.3v-11c0-0.6-0.1-1-0.4-1.3C-381.1,252-381.5,251.9-381.9,251.9z"/>
			<path class="st7" d="M-364.4,260.4c-0.4,0-0.7,0.1-0.9,0.3c-0.2,0.2-0.3,0.5-0.5,0.9c-0.3,0.8-0.7,1.4-1.3,1.8
				c-0.6,0.4-1.3,0.6-2.1,0.6c-0.8,0-1.4-0.2-2-0.5c-0.6-0.4-1-0.9-1.3-1.6c-0.3-0.7-0.5-1.6-0.5-2.7c0-1.6,0.3-2.9,1-3.8
				c0.7-0.9,1.6-1.3,2.8-1.3c0.7,0,1.3,0.2,1.8,0.5c0.5,0.3,0.9,0.9,1.3,1.6c0.2,0.4,0.4,0.7,0.6,0.9c0.2,0.2,0.5,0.3,0.8,0.3
				c0.3,0,0.6-0.1,0.8-0.4c0.2-0.3,0.3-0.5,0.3-0.9c0-0.6-0.2-1.2-0.7-1.9c-0.5-0.7-1.1-1.2-2-1.7c-0.9-0.5-1.9-0.7-3-0.7
				c-0.9,0-1.8,0.2-2.6,0.5c-0.8,0.3-1.5,0.8-2.1,1.4c-0.6,0.6-1.1,1.4-1.4,2.3c-0.3,0.9-0.5,1.9-0.5,3c0,0.7,0.1,1.3,0.2,2
				c0.1,0.6,0.3,1.2,0.6,1.7c0.3,0.5,0.6,1,0.9,1.5c0.4,0.5,0.9,0.9,1.4,1.2c0.5,0.3,1,0.5,1.6,0.7c0.6,0.1,1.3,0.2,2,0.2
				c1,0,1.8-0.1,2.6-0.5c0.7-0.3,1.3-0.7,1.8-1.2c0.5-0.5,0.8-1,1-1.5c0.2-0.5,0.3-1,0.3-1.4c0-0.4-0.1-0.6-0.4-0.9
				C-363.7,260.6-364,260.4-364.4,260.4L-364.4,260.4z"/>
			<path class="st7" d="M-348.9,263.8h-6.6v-4h5.9c0.4,0,0.8-0.1,1-0.3c0.2-0.2,0.3-0.5,0.3-0.8s-0.1-0.6-0.3-0.8
				c-0.2-0.2-0.5-0.3-1-0.3h-5.9v-3.4h6.4c0.4,0,0.8-0.1,1-0.3c0.2-0.2,0.3-0.5,0.3-0.8c0-0.3-0.1-0.6-0.3-0.8
				c-0.2-0.2-0.6-0.3-1-0.3h-7.5c-0.4,0-0.7,0-1,0.2c-0.3,0.1-0.4,0.3-0.6,0.6c-0.1,0.3-0.2,0.6-0.2,1v10.5c0,0.6,0.1,1.1,0.4,1.3
				c0.3,0.3,0.7,0.4,1.3,0.4h7.7c0.4,0,0.8-0.1,1-0.3s0.3-0.5,0.3-0.8c0-0.3-0.1-0.6-0.3-0.8C-348.1,263.9-348.4,263.8-348.9,263.8
				L-348.9,263.8z"/>
			<path class="st7" d="M-332.4,258.9c-0.5-0.3-1-0.6-1.6-0.8c-0.6-0.2-1.4-0.4-2.1-0.6c-0.6-0.2-1.1-0.3-1.3-0.4
				c-0.3-0.1-0.6-0.2-0.8-0.3c-0.3-0.1-0.5-0.3-0.6-0.5c-0.2-0.2-0.2-0.4-0.2-0.7c0-0.4,0.2-0.8,0.7-1.2c0.4-0.3,1-0.5,1.8-0.5
				c0.8,0,1.4,0.1,1.7,0.4c0.4,0.3,0.7,0.7,0.9,1.2c0.2,0.4,0.4,0.6,0.6,0.8c0.2,0.2,0.4,0.2,0.7,0.2c0.3,0,0.6-0.1,0.9-0.4
				c0.2-0.3,0.4-0.6,0.4-0.9c0-0.4-0.1-0.8-0.3-1.1c-0.2-0.4-0.5-0.8-0.9-1.1c-0.4-0.4-0.9-0.6-1.6-0.9c-0.6-0.2-1.4-0.3-2.2-0.3
				c-1.1,0-2,0.2-2.8,0.5c-0.8,0.3-1.4,0.8-1.8,1.4c-0.4,0.6-0.6,1.3-0.6,2c0,0.8,0.2,1.5,0.6,2c0.4,0.5,0.9,1,1.6,1.3
				c0.7,0.3,1.5,0.6,2.5,0.8c0.8,0.2,1.3,0.3,1.8,0.5c0.4,0.2,0.8,0.4,1.1,0.7c0.3,0.3,0.4,0.7,0.4,1.1c0,0.6-0.3,1.1-0.8,1.5
				c-0.5,0.4-1.2,0.6-2.1,0.6c-0.6,0-1.1-0.1-1.5-0.3c-0.4-0.2-0.7-0.4-0.9-0.7c-0.2-0.3-0.4-0.7-0.6-1.1c-0.1-0.4-0.3-0.7-0.5-0.8
				c-0.2-0.2-0.5-0.3-0.8-0.3c-0.4,0-0.7,0.1-0.9,0.4c-0.2,0.2-0.4,0.5-0.4,0.9c0,0.6,0.2,1.2,0.6,1.8c0.4,0.6,0.9,1.1,1.5,1.5
				c0.9,0.5,2,0.8,3.4,0.8c1.1,0,2.1-0.2,3-0.6c0.8-0.4,1.5-0.9,1.9-1.6c0.4-0.7,0.7-1.4,0.7-2.3c0-0.7-0.1-1.3-0.4-1.8
				C-331.6,259.6-331.9,259.2-332.4,258.9L-332.4,258.9z"/>
			<path class="st7" d="M-312.8,263.8c-0.3,0.2-0.6,0.3-0.9,0.4c-0.3,0.1-0.6,0.1-0.9,0.1s-0.7-0.1-0.9-0.2
				c-0.3-0.1-0.6-0.3-0.8-0.5c-0.2-0.2-0.4-0.5-0.5-0.7c-0.1-0.3-0.2-0.6-0.2-0.8c0-0.5,0.2-1,0.5-1.3c0.3-0.4,0.8-0.7,1.5-1.1
				c0.6,0.8,1.2,1.4,1.6,1.9c0.5,0.5,1,1,1.5,1.6C-312.2,263.4-312.5,263.6-312.8,263.8L-312.8,263.8z M-314.9,254
				c0.3-0.3,0.7-0.4,1.1-0.4c0.4,0,0.8,0.1,1.1,0.4c0.3,0.3,0.4,0.6,0.4,1c0,0.4-0.1,0.7-0.4,1c-0.3,0.3-0.8,0.6-1.4,1
				c-0.3-0.3-0.5-0.6-0.6-0.8c-0.2-0.2-0.3-0.4-0.4-0.6c-0.1-0.2-0.2-0.4-0.2-0.6C-315.3,254.6-315.2,254.3-314.9,254L-314.9,254z
				 M-307.6,263.7c-0.5-0.4-0.9-0.7-1.1-0.9c0.4-0.6,0.7-1.2,0.9-1.7c0.2-0.5,0.3-0.9,0.3-1.2c0-0.3-0.1-0.6-0.3-0.8
				c-0.2-0.2-0.5-0.3-0.8-0.3c-0.3,0-0.6,0.1-0.7,0.3c-0.2,0.2-0.4,0.6-0.6,1.1c-0.2,0.5-0.3,0.8-0.4,1c-0.2-0.2-0.4-0.5-0.7-0.7
				c-0.3-0.3-0.5-0.6-0.8-0.9c-0.3-0.3-0.6-0.7-0.9-1.1c0.9-0.5,1.6-1.1,2.1-1.6c0.5-0.5,0.7-1.1,0.7-1.9c0-0.5-0.1-1-0.4-1.5
				c-0.3-0.5-0.7-0.9-1.3-1.2c-0.6-0.3-1.3-0.4-2.1-0.4c-0.8,0-1.5,0.1-2.1,0.4c-0.6,0.3-1.1,0.7-1.4,1.2c-0.3,0.5-0.5,1-0.5,1.6
				c0,0.5,0.1,1,0.4,1.5c0.2,0.5,0.6,1,1.1,1.6c-0.5,0.3-1,0.6-1.4,0.8s-0.7,0.6-1,0.9c-0.3,0.3-0.5,0.7-0.7,1.1
				c-0.1,0.4-0.2,0.8-0.2,1.3c0,0.5,0.1,1,0.3,1.5c0.2,0.5,0.5,0.9,0.9,1.3c0.4,0.4,0.9,0.7,1.6,0.9c0.6,0.2,1.3,0.3,2.1,0.3
				c0.6,0,1.2-0.1,1.7-0.2c0.5-0.1,1-0.3,1.4-0.6c0.4-0.3,0.9-0.6,1.3-1c0.9,0.7,1.5,1.2,1.8,1.4c0.3,0.2,0.6,0.3,0.9,0.3
				c0.3,0,0.6-0.1,0.8-0.3c0.2-0.2,0.4-0.5,0.4-0.8c0-0.2-0.1-0.5-0.2-0.6C-306.7,264.4-307.1,264.1-307.6,263.7L-307.6,263.7z"/>
			<path class="st7" d="M-287.8,252.1h-9c-0.5,0-0.8,0.1-1.1,0.3c-0.3,0.2-0.4,0.5-0.4,0.9c0,0.4,0.1,0.6,0.4,0.8
				c0.2,0.2,0.6,0.3,1.1,0.3h3.1v10.2c0,0.6,0.1,1,0.4,1.3c0.3,0.3,0.6,0.4,1,0.4c0.4,0,0.7-0.1,1-0.4c0.3-0.3,0.4-0.7,0.4-1.3
				v-10.2h3.1c0.5,0,0.8-0.1,1.1-0.3c0.2-0.2,0.4-0.5,0.4-0.8c0-0.3-0.1-0.6-0.4-0.8C-287,252.2-287.3,252.1-287.8,252.1
				L-287.8,252.1z"/>
			<path class="st7" d="M-275.9,257.9c-0.5,0.1-1,0.2-1.7,0.2h-2.5v-3.8h2.6c1,0,1.6,0.1,1.9,0.2c0.3,0.2,0.6,0.4,0.8,0.7
				c0.2,0.3,0.3,0.6,0.3,1c0,0.5-0.1,0.9-0.4,1.2C-275.1,257.6-275.4,257.8-275.9,257.9L-275.9,257.9z M-272.5,262.6
				c-0.4-0.6-0.8-1.1-1.2-1.7c-0.5-0.5-0.9-0.9-1.4-1.2c1.2-0.3,2.1-0.7,2.7-1.3c0.6-0.6,0.9-1.5,0.9-2.5c0-0.5-0.1-1-0.3-1.5
				c-0.2-0.4-0.4-0.8-0.8-1.2c-0.3-0.3-0.7-0.6-1.2-0.8c-0.4-0.2-0.8-0.3-1.2-0.3c-0.4-0.1-1-0.1-1.6-0.1h-4.6
				c-0.6,0-1.1,0.1-1.3,0.4c-0.3,0.3-0.4,0.7-0.4,1.3v10.8c0,0.6,0.1,1,0.4,1.3c0.3,0.3,0.6,0.4,1.1,0.4c0.4,0,0.8-0.1,1-0.4
				c0.3-0.3,0.4-0.7,0.4-1.3v-4.5h1c0.5,0,0.9,0.1,1.2,0.2c0.3,0.1,0.7,0.4,1,0.7c0.3,0.4,0.7,0.9,1.1,1.6l1.1,1.9
				c0.3,0.5,0.5,0.8,0.6,1c0.2,0.2,0.3,0.4,0.6,0.6c0.2,0.1,0.5,0.2,0.8,0.2c0.3,0,0.5,0,0.7-0.1c0.2-0.1,0.4-0.2,0.5-0.4
				c0.1-0.2,0.2-0.4,0.2-0.5c0-0.2-0.1-0.5-0.3-1C-271.9,263.7-272.1,263.2-272.5,262.6L-272.5,262.6z"/>
			<path class="st7" d="M-262.9,260.6l2.1-5.8l2.1,5.8H-262.9L-262.9,260.6z M-258.3,254.5c-0.2-0.5-0.3-0.8-0.4-1.1
				c-0.1-0.3-0.2-0.5-0.4-0.8c-0.2-0.2-0.4-0.4-0.6-0.6c-0.3-0.2-0.6-0.2-1-0.2c-0.4,0-0.7,0.1-1,0.2c-0.3,0.1-0.5,0.3-0.6,0.6
				c-0.2,0.2-0.3,0.5-0.5,0.9c-0.1,0.4-0.3,0.7-0.4,0.9l-3.6,9.1c-0.1,0.4-0.2,0.6-0.3,0.8c-0.1,0.2-0.1,0.4-0.1,0.6
				c0,0.3,0.1,0.6,0.4,0.9c0.3,0.3,0.6,0.4,0.9,0.4c0.4,0,0.7-0.1,0.9-0.4c0.2-0.2,0.4-0.7,0.7-1.4l0.7-1.8h5.7l0.7,1.8
				c0.1,0.2,0.2,0.5,0.3,0.8c0.1,0.3,0.2,0.5,0.3,0.6c0.1,0.1,0.2,0.2,0.4,0.3c0.1,0.1,0.3,0.1,0.6,0.1c0.4,0,0.7-0.1,1-0.4
				c0.3-0.3,0.4-0.6,0.4-0.9c0-0.3-0.1-0.8-0.4-1.5L-258.3,254.5L-258.3,254.5z"/>
			<path class="st7" d="M-247.9,251.9c-0.4,0-0.8,0.1-1,0.4c-0.3,0.3-0.4,0.7-0.4,1.3v11c0,0.6,0.1,1,0.4,1.3c0.3,0.3,0.6,0.4,1,0.4
				c0.4,0,0.8-0.1,1-0.4c0.3-0.3,0.4-0.7,0.4-1.3v-11c0-0.6-0.1-1-0.4-1.3C-247.2,252-247.5,251.9-247.9,251.9z"/>
			<path class="st7" d="M-227.9,251.9c-0.4,0-0.7,0.1-0.9,0.4c-0.2,0.3-0.3,0.7-0.3,1.2v8.3l-5.4-8.2c-0.1-0.2-0.3-0.5-0.4-0.7
				c-0.2-0.2-0.3-0.4-0.4-0.5c-0.1-0.1-0.3-0.3-0.5-0.3c-0.2-0.1-0.4-0.1-0.7-0.1c-0.3,0-0.6,0.1-0.9,0.3c-0.3,0.2-0.5,0.4-0.6,0.7
				c-0.1,0.3-0.1,0.6-0.1,1.1v10.8c0,0.5,0.1,0.9,0.4,1.2c0.2,0.3,0.6,0.4,1,0.4c0.4,0,0.7-0.1,1-0.4c0.2-0.3,0.4-0.7,0.4-1.2v-8.2
				l5.3,8.1c0.2,0.2,0.3,0.4,0.5,0.7c0.1,0.2,0.3,0.4,0.5,0.6c0.2,0.2,0.4,0.3,0.6,0.4c0.2,0.1,0.4,0.1,0.7,0.1c1,0,1.5-0.6,1.5-1.8
				v-11c0-0.5-0.1-0.9-0.4-1.2C-227.1,252-227.5,251.9-227.9,251.9L-227.9,251.9z"/>
			<path class="st7" d="M-220.1,251.9c-0.4,0-0.8,0.1-1,0.4c-0.3,0.3-0.4,0.7-0.4,1.3v11c0,0.6,0.1,1,0.4,1.3c0.3,0.3,0.6,0.4,1,0.4
				c0.4,0,0.8-0.1,1-0.4c0.3-0.3,0.4-0.7,0.4-1.3v-11c0-0.6-0.1-1-0.4-1.3C-219.3,252-219.6,251.9-220.1,251.9z"/>
			<path class="st7" d="M-202.8,251.9c-0.4,0-0.7,0.1-0.9,0.4c-0.2,0.3-0.3,0.7-0.3,1.2v8.3l-5.4-8.2c-0.1-0.2-0.3-0.5-0.4-0.7
				c-0.1-0.2-0.3-0.4-0.4-0.5c-0.1-0.1-0.3-0.3-0.5-0.3c-0.2-0.1-0.4-0.1-0.7-0.1c-0.3,0-0.6,0.1-0.9,0.3c-0.3,0.2-0.5,0.4-0.6,0.7
				c-0.1,0.3-0.1,0.6-0.1,1.1v10.8c0,0.5,0.1,0.9,0.4,1.2c0.3,0.3,0.6,0.4,1,0.4c0.4,0,0.7-0.1,1-0.4c0.2-0.3,0.4-0.7,0.4-1.2v-8.2
				l5.3,8.1c0.2,0.2,0.3,0.4,0.5,0.7c0.1,0.2,0.3,0.4,0.5,0.6c0.2,0.2,0.4,0.3,0.6,0.4c0.2,0.1,0.4,0.1,0.7,0.1c1,0,1.5-0.6,1.5-1.8
				v-11c0-0.5-0.1-0.9-0.4-1.2C-202,252-202.3,251.9-202.8,251.9L-202.8,251.9z"/>
			<path class="st7" d="M-181.1,259.3c-0.2-0.2-0.4-0.4-0.7-0.5c-0.3-0.1-0.6-0.1-1-0.1h-3.2c-0.4,0-0.7,0.1-0.9,0.3
				c-0.2,0.2-0.3,0.5-0.3,0.8c0,0.4,0.1,0.6,0.4,0.8c0.3,0.2,0.7,0.2,1.2,0.2h2.2v2.3c-0.6,0.3-1.2,0.6-1.8,0.7
				c-0.6,0.2-1.2,0.3-1.8,0.3c-1.3,0-2.4-0.4-3.1-1.3c-0.8-0.9-1.1-2.1-1.1-3.8c0-0.8,0.1-1.4,0.3-2.1c0.2-0.6,0.5-1.1,0.8-1.6
				c0.4-0.4,0.8-0.8,1.3-1c0.5-0.2,1.1-0.3,1.8-0.3c0.6,0,1.2,0.1,1.6,0.3c0.4,0.2,0.7,0.4,1,0.7c0.2,0.3,0.5,0.7,0.9,1.2
				c0.1,0.2,0.3,0.3,0.5,0.4c0.2,0.1,0.4,0.1,0.6,0.1c0.4,0,0.7-0.1,0.9-0.4c0.3-0.3,0.4-0.6,0.4-0.9c0-0.3-0.1-0.7-0.3-1.1
				c-0.2-0.4-0.6-0.8-1-1.2c-0.5-0.4-1-0.7-1.8-1c-0.7-0.3-1.6-0.4-2.5-0.4c-1.1,0-2.2,0.2-3.1,0.5c-0.9,0.3-1.7,0.8-2.3,1.5
				c-0.6,0.6-1.1,1.4-1.4,2.3c-0.3,0.9-0.5,1.9-0.5,3c0,1.1,0.2,2.1,0.5,3c0.3,0.9,0.8,1.7,1.4,2.3c0.6,0.6,1.4,1.1,2.3,1.4
				c0.9,0.3,1.9,0.5,2.9,0.5c0.9,0,1.8-0.1,2.6-0.3c0.8-0.2,1.6-0.5,2.4-1c0.3-0.2,0.5-0.3,0.7-0.5c0.2-0.2,0.3-0.4,0.4-0.6
				c0.1-0.2,0.1-0.5,0.1-0.8v-2.7C-180.8,259.9-180.9,259.6-181.1,259.3L-181.1,259.3z"/>
		</g>
		<g>
			<path class="st8" d="M126.6,375.9c-4.3-1.2-11.6-2.4-16.5-3.7c-11-2.4-8.5,0-25,12.2c-1.2,1.2-3.7,2.4-5.5,4.3
				c-9.2,6.1-6.1,20.8,23.8,3.7C109.5,388.8,121.1,381.4,126.6,375.9L126.6,375.9z M73.5,399.1c-0.6-5.5,1.8-7.3,9.8-14l18.9-16.5
				c3.1-1.8,23.8,2.4,26.9,6.7c-2.4,1.2-3.1,2.4-6.1,4.3l-19.5,12.2C96.7,396.7,82,405.2,73.5,399.1L73.5,399.1z M417.8,397.3
				c8.5-7.9,6.7-6.7-19.5-25.6c-3.1-2.4-3.7-2.4-7.9-1.2c-3.7,0.6-15.3,2.4-17.7,4.3c0,3.1,0.6,1.8,3.1,3.7
				c13.4,9.2,9.8,6.1,23.2,13.4c3.7,2.4,6.7,3.1,8.5,3.7c1.8,1.2,0.6,0,1.2,1.2c-14.7-3.1-33.6-16.5-42.7-23.8
				c3.1-3.7,14-4.3,18.9-6.1c7.9-2.4,6.1-1.2,16.5,6.7c2.4,1.8,20.8,14.7,22,16.5C425.2,394.3,421.5,396.1,417.8,397.3L417.8,397.3z
				 M403.2,388.2l4.9,0.6l0.6,2.4c-0.6,0-1.8-0.6-2.4-0.6C401.9,389.4,404.4,390,403.2,388.2L403.2,388.2z M123.5,369.2
				c-3.7,0-2.4-0.6-4.9-1.2c-2.4-1.2-3.1-0.6-6.1-1.2c1.8-2.4,2.4-2.4,4.9-4.3s3.1-3.1,5.5-4.3C123.5,361.3,123.5,365.6,123.5,369.2
				L123.5,369.2z M269.5,270.3c0.6-2.4,1.8-5.5,3.1-6.7l20.8,22.6c4.3,4.3,6.7,6.7,11,11l11,9.8h-0.6c0,0-1.2,1.2-3.7,0.6
				c-3.7,0-2.4-3.7-7.3,1.8c-1.2-1.8-4.3-2.4-3.7-6.1c2.4,1.8,5.5,0,3.7-3.7c-3.1-0.6-4.3,1.2-6.1,2.4c-1.2,5.5,3.7,9.2,7.3,11
				c-0.6,1.8-0.6,2.4,0,4.3c1.8,0.6,4.3,1.2,5.5-0.6c1.2-1.8,0-0.6,0.6-3.1v-0.6c0,0,0,0,0-0.6v-0.6c3.1,2.4-0.6,0.6,1.2,7.9
				c4.9,1.2,6.1-1.8,2.4-4.9c4.9,1.2,6.7,4.3,6.7,10.4v-0.6V324l-1.2-2.4c-0.6-0.6,0-1.2-1.8-1.2s-3.1,1.8-1.8,3.1
				c0.6,1.8,3.1,3.1,4.9,4.3c0,0,0,0,0.6,0.6c0.6,0.6,1.2,1.8,2.4,1.8c6.1-1.8,4.3-8.5,0-5.5c0-3.7,0-6.1-2.4-8.5
				c-3.1-3.1-4.3-1.8-3.7-6.1c4.9,3.1,19.5,18.3,25.6,22l-1.8,3.7c-1.8-5.5-10.4-10.4-15.3-5.5c-1.8,1.8-2.4,7.9,0.6,8.5
				c1.8,0.6,3.1-0.6,2.4-2.4c-0.6-3.1-1.8-1.2-2.4-4.3c5.5-1.8,12.2,0.6,11.6,6.1c-2.4-0.6-0.6-1.8-4.3-1.8
				c-3.7,4.3,1.2,6.1,5.5,3.7c3.1-1.8,0-0.6,3.7-1.8c2.4-0.6,2.4-1.2,3.7-2.4l36,29.3c-4.3,0.6-7.9,1.2-11.6,2.4
				c0.6-3.7,3.7-12.8-3.7-10.4c-1.8,6.1,1.2,2.4,2.4,5.5c-4.3,0.6-6.1-1.8-7.9-3.1h0.6l3.7-1.2c0.6-6.1-7.3-7.9-7.3-1.2
				c0,3.7,4.3,6.7,7.9,7.9c-0.6,2.4-1.2,1.8,0,4.3c-2.4,0-2.4-0.6-4.3-1.8c-1.2-1.2-2.4-1.8-3.7-3.1c-2.4-1.8-4.3-3.7-7.3-5.5
				c-4.3-3.1-10.4-7.3-13.4-11c4.3,0.6,3.1-1.2,6.7,0c3.7,1.2,4.9,1.8,8.5,1.2c3.7,3.7,6.7,4.3,5.5-3.7c-1.8-1.2-6.7-6.1-9.2-1.2
				c-1.2,1.8,0,0-0.6,1.8v1.2c-3.7-0.6-6.1-1.2-6.1-5.5c0.6,0.6,2.4,1.8,3.7,0.6c3.7-3.7-6.1-7.9-6.1,1.2c-3.1-1.2-3.1-0.6-4.9,1.8
				l-15.3-11.6c-1.8-1.2-3.1-2.4-4.9-3.7c-3.1-3.1-6.7-5.5-9.2-7.9c-8.5-9.2-17.1-15.9-26.9-25.6l-17.1-17.7l4.3-6.1
				c5.5,0.6,4.3,1.2,6.7,4.3c-3.1,2.4,3.7-1.8-1.2,0.6c-1.8,0.6-2.4,1.2-1.8,4.3c4.3,1.2,1.8-0.6,6.7,0c0,0-0.6,0,1.8,0.6
				c1.8,0,1.2,0,3.1-0.6v-3.7c-6.1-2.4-1.8,3.1-6.7-3.7C273.7,272.1,272.5,272.1,269.5,270.3L269.5,270.3z M284.1,288.6
				c1.8-2.4,3.1-1.2,2.4-5.5h-4.3l-0.6,5.5c-1.8-1.2-1.8-1.2-4.3-0.6c-0.6,2.4-0.6,4.3,0.6,6.1c4.3,0.6,3.1,0,5.5-1.8
				c3.1,3.1,5.5,3.7,10.4,3.1c3.7-0.6,0.6,0,0,1.8c-0.6,3.1,1.2,3.1,4.3,2.4c0-1.8,0.6-3.7-0.6-6.1l-1.8-3.1
				c-3.1-3.7-7.3-1.2-4.3,3.1C289,292.9,285.9,291.1,284.1,288.6L284.1,288.6z M132.7,356.4c1.8,0,1.2,0,2.4,1.2
				c-1.2,7.9-12.2,9.8-9.2,4.9c1.8-3.1,3.1-2.4,3.7-1.8C132.7,360.7,133.9,359.5,132.7,356.4L132.7,356.4z M140,349.1
				c1.8-1.2-1.2-0.6,2.4,1.2c1.8,0.6,3.7,0.6,6.1,0.6c4.9-0.6,3.7-3.1,8.5-0.6l-12.8,9.8c-4.3,3.7-8.5,6.1-12.8,9.8
				c-1.2-4.9,1.2-2.4,4.3-6.1c1.8-1.8,3.1-4.9,1.8-7.9c0,0,0.6-0.6,0.6,0l3.1-1.8C140,351.5,140,349.7,140,349.1L140,349.1z
				 M135.7,354c-4.3,0-6.1,1.2-6.7,4.9l-0.6-0.6c0,0-0.6,0-0.6-0.6l-2.4-1.8l17.1-13.4c2.4-2.4,6.7-6.7,9.8-8.5l-1.2,4.9v0.6
				c-0.6,1.2-1.8,1.2-1.2,3.7c1.2,2.4,3.1,0,2.4,3.7c-0.6,1.8-2.4,1.8-4.9,1.8c0.6-1.8,0.6-2.4,0-3.7c-2.4-0.6-1.8-0.6-4.3,0
				l-1.8,0.6C138.2,346.6,134.5,350.3,135.7,354L135.7,354z M157.1,339.3c2.4-7.9,9.8-11,12.2-6.7c1.2,3.7,0,0,0,3.7s0,0.6,1.2,3.1
				c-3.7,1.8-7.3,7.3-11,9.2c0.6-1.8,3.1-4.9-0.6-5.5c-3.7,0-1.8,3.1-2.4,4.9c-1.2-1.2-1.8-6.1-1.8-7.3c2.4,0,2.4,3.7,6.1,0.6
				c2.4-1.8,2.4-3.7,0.6-5.5C156.5,336.3,158.9,337.5,157.1,339.3L157.1,339.3z M156.5,333.8c-1.2-0.6-0.6-0.6-2.4-1.2
				c1.2-1.8,0-0.6,1.2-1.8l10.4-9.2c3.7-3.1,8.5-8.5,12.8-11c0,6.7-7.3,4.3-6.7,13.4c-1.2,1.2-3.1,1.2-2.4,3.7
				c0,0.6,2.4,4.9,5.5,1.8c4.9-4.3,3.7-1.2,6.7-3.7c0-1.8,0-1.8-0.6-3.1c-6.1-1.2,0,3.7-6.7,0.6c0.6-4.3,3.7-8.5,7.9-7.9
				c-1.2,1.8-1.8,3.1,0.6,4.3c1.8,1.2,3.1-1.2,3.7-1.8c1.8,1.8,2.4,1.2,4.9,1.8l-17.7,17.1c-1.8-3.7-1.2-7.3-7.3-7.9
				C160.8,327.7,158.9,331.4,156.5,333.8L156.5,333.8z M181.5,305.7c4.3-2.4,11.6-10.4,14.7-14.7c2.4,0.6,3.1,0,4.3,1.8
				c-1.2,3.1-1.2,0.6-2.4,3.1c-1.2,2.4-0.6,6.1,3.1,4.9c1.8-0.6,0.6-1.2,3.1-2.4c0,0,1.8,0,2.4-0.6c4.9-1.2,3.1-3.7,7.9-3.1
				c-1.8,3.1-7.9,7.3-10.4,10.4l-10.4,11c-0.6-1.2-1.2-1.8-1.2-3.1c6.7-2.4,12.2-13.4,3.1-13.4c-3.7,1.2-4.3,1.2-3.7,4.9
				c4.3,1.2,3.1-0.6,5.5-1.8c1.2,4.9-5.5,11.6-9.8,9.2c1.2-4.3,6.1-1.8,3.7-6.1c-3.1-1.8-3.7,0.6-4.9,2.4c-2.4,4.3,0,3.1-1.2,6.7
				c-1.2-1.8-1.2-1.8-3.7-3.1l-1.2-0.6c1.2-0.6,1.8,0,4.3-1.2c0-2.4,0.6-1.2-0.6-3.1c-0.6-0.6-0.6-0.6-1.2-1.2H181.5z M202.9,292.9
				l4.3,1.2l-4.9,1.8L202.9,292.9z M217.6,266.7c9.8-3.1,15.9-5.5,24.4-9.2v32.4c-17.1,3.7-4.9,3.1-25.6,3.1L217.6,266.7z
				 M210.8,255.1c1.2,7.9,0,6.7,4.3,11.6c0,8.5-0.6,17.7-0.6,26.3c-4.9,0-13.4-1.8-17.1-4.3c-1.8-11,0-22,1.2-32.4L210.8,255.1z
				 M173.6,279.5c0-6.7,1.2-15.9,3.7-22l20.1-0.6c-1.2,12.2-1.2,18.9-1.2,31.7C185.8,286.2,177.9,280.1,173.6,279.5L173.6,279.5z
				 M215.7,263.6c-1.8-2.4-3.1-4.9-2.4-9.2l3.1-0.6L215.7,263.6z M218.2,264.2c-0.6-13.4,2.4-11.6,7.3-12.8c4.3-1.2,11,2.4,15.3,4.3
				C237.7,257.5,223.1,263.6,218.2,264.2L218.2,264.2z M244.4,256.3c9.2-3.7,19.5-9.2,28.1-14c0,11-2.4,21.4-7.3,30.5
				c-3.1,6.1-4.3,5.5-9.2,9.8c-3.1,2.4-6.7,6.1-11.6,6.7V256.3z M228.6,238c6.1-1.8,4.3-2.4,11-1.8c2.4,0,11.6-0.6,12.2-0.6
				c3.7,0.6,4.3,3.7,10.4,2.4c4.3-1.2,5.5-2.4,10.4-2.4c0.6,4.9-0.6,4.9-8.5,9.2c-3.7,1.8-7.3,3.7-11.6,6.1
				c-15.3,7.3-3.7,3.1-24.4-1.8L228.6,238z M223.1,238h3.1v4.9L223.1,238z M351.3,234.3h3.1h3.7h2.4l0.6,4.9h-56.2
				c0,0,0-0.6,0.6-0.6c2.4-4.3,0-1.8,0.6-4.9v-0.6l0.6-1.2c0.6,0.6,0.6-0.6,0.6,2.4h3.1v-2.4c0.6,0.6,0.6-0.6,0.6,2.4h3.7h1.8v-2.4
				c0,0.6,0.6-0.6,0.6,2.4h3.7h3.1h3.1v-2.4c0,0.6,0.6-0.6,0.6,2.4h3.7h1.8v-2.4c0.6,0.6,0.6-0.6,0.6,2.4h3.7h1.2h3.1v-2.4
				c0.6,0.6,0.6-0.6,0.6,2.4h3.7h3.1C348.8,234.3,351.3,234.3,351.3,234.3z M125.4,239.8c0.6-4.3,0.6,0,1.2-3.7c0-1.8,0,0.6,0-1.2
				v-1.8c0-1.8-1.2-0.6,0-1.2h55v6.7C174.8,241.6,135.7,239.8,125.4,239.8L125.4,239.8z M193.1,226.4c4.9,3.1,3.1,1.2,6.1,2.4
				c-2.4,1.8-7.3,2.4-7.9-3.1L193.1,226.4L193.1,226.4L193.1,226.4z M328.1,218.4c0-2.4,0.6-0.6-0.6-2.4l-1.2-1.8
				c3.7,0,0.6,0.6,4.3,2.4l4.3-1.8c1.2,0.6,1.8,1.2,3.7,1.8l3.1-1.8c0,4.3-0.6-0.6-1.8,3.7c3.7,4.9,3.7-1.8,3.7,3.7
				c-1.8-0.6-4.9-1.8-4.9,1.2s2.4,0.6,2.4,4.3c-2.4-0.6-0.6-1.8-2.4-2.4c-3.7-0.6-3.1-0.6-4.9,1.2c-1.8-1.2-1.2-1.2-4.9-1.8
				c-1.8,3.1,0,2.4-2.4,1.8c1.8-1.2,1.8-1.8,2.4-5.5h-4.3C326.2,217.8,325.6,220.2,328.1,218.4L328.1,218.4z M336.6,222.1
				c0-3.7,0-4.9-3.7-5.5c-3.1,2.4-3.1,6.1,0.6,7.9C336.6,223.3,334.8,224.5,336.6,222.1L336.6,222.1z M290.2,223.3h-13.4
				c0.6-3.1,0-2.4,4.3-2.4c1.2,0.6,1.2,0.6,1.8,1.2c1.2-1.2,0.6-0.6,1.8-1.2c0.6,0.6,1.2,0.6,1.2,1.2c1.2-1.2-0.6-1.8,1.8-1.2
				C289.6,221.5,289.6,221.5,290.2,223.3L290.2,223.3z M145.5,217.8c-0.6-3.1-0.6-1.2-2.4-3.7c5.5,0.6,0.6,4.3,8.5,1.2l3.7,1.8
				c1.2-1.2,1.2-1.2,3.7-1.8c-1.2,4.3-1.2,0-1.8,4.3c0.6,3.1,3.1-0.6,3.7,3.1c-1.2,0-4.3-1.8-4.3,1.2c0,2.4,0.6,1.8,1.2,2.4
				c1.2,1.2,1.8,0,0.6,1.8v-0.6l-0.6-0.6c-1.2-2.4,0.6-1.2-2.4-1.8c-1.8-0.6-3.1,0.6-4.3,1.2c-6.7-3.7-3.7,0-6.7,1.2
				c0.6-2.4,1.8-0.6,1.8-5.5c-1.8-0.6-1.8,0-3.7-1.2L145.5,217.8z M151,217.2c-1.8,1.2-3.1,2.4-2.4,4.9c0.6,2.4,1.8,3.1,3.7,2.4
				c0,0,2.4-1.2,1.8-4.3C153.5,217.8,152.2,217.8,151,217.2L151,217.2z M253,232.5c-5.5-9.8,3.1-22.6,13.4-19.5
				c-4.3,1.8-6.7,1.2-9.8,4.3c-2.4,2.4-3.7,6.7-1.8,11.6C253.6,232.5,253.6,227.6,253,232.5L253,232.5z M292,216
				c-1.2-3.1-2.4-2.4-2.4-3.7c0,0,0-1.2,3.1-0.6c3.1,0.6,1.2,2.4,0.6,3.1C293.3,214.1,292,216,292,216L292,216z M160.8,217.2
				c0-3.1-0.6-3.7-1.8-5.5h22.6v1.8l-7.9,0.6c0,16.5-1.8,14,8.5,14v2.4h-22.6c3.7-4.3,0.6-3.1,4.9-5.5
				C168.7,222.1,166.9,217.2,160.8,217.2L160.8,217.2z M125.4,211.7c21.4,0,14.7-1.2,15.3,4.3c-6.7,1.2-7.9,7.9,0.6,8.5
				c-2.4,4.3,1.8,5.5,4.3,4.3c1.2-0.6,0.6,0,1.2-1.2l0.6-0.6c4.3,3.7,2.4,0,6.7,0l1.2,3.1h-29.9L125.4,211.7z M343.3,212.3
				c-6.7-1.2,0.6,1.2-7.9,0c-4.9-0.6-1.8,3.1-6.1-1.2h31.1v18.3h-17.7c4.3-9.2,4.3-2.4,6.1-7.3c1.8-4.3-1.2-6.1-4.9-6.1
				C344.6,214.8,343.9,213.5,343.3,212.3L343.3,212.3z M311,214.1c-4.3,0-6.1,1.2-6.7-2.4h21.4c-1.2,1.2-1.8,2.4-1.2,4.3
				c-4.9,0.6-5.5,2.4-4.9,7.3l4.3,1.2v0.6v0.6c0,0,1.2,6.7,6.7,1.8l0.6-0.6c3.1,3.1,2.4,0.6,6.1,0l1.2,3.1c-6.1,0-12.2,0-18.3,0
				c-6.7,0-15.3,1.2-15.9-1.8h6.7V214.1z M225.5,235.5c6.1-3.1,11.6-2.4,9.2-12.8c-2.4-9.2-7.9-6.1-12.2-11c3.1,0.6,9.2,1.8,11,3.7
				C238.3,220.9,239.5,237.3,225.5,235.5L225.5,235.5z M228.6,206.2c14.7,1.2,29.9,1.2,44-0.6c0,1.8-0.6,4.3-1.8,4.9
				c-1.8,1.2-2.4,0-4.9,0c-4.3-0.6-31.1,1.2-37.2-0.6V206.2z M212.7,202.5c2.4,0.6,2.4,0,1.2,2.4
				C211.5,203.8,212.7,205.6,212.7,202.5L212.7,202.5z M127.8,208.6c-0.6-4.3-1.8-4.3-1.8-4.3s0,0-0.6-0.6l56.2,0.6h-2.4v4.3
				c3.7,0.6,1.2,0,2.4,0.6h-56.2C127.2,208.6,123.5,208.6,127.8,208.6L127.8,208.6z M306.1,208.6c-0.6-3.7-1.2-0.6-1.2-3.7
				c0-1.8-0.6-0.6,0-1.8h55.6c0.6,3.7,1.2,3.1-2.4,3.7v1.8H306.1z M250.5,194c3.7,0,7.3,0,11-0.6l10.4-0.6v10.4
				c-26.9,1.8-18.9,1.8-44,0.6l-0.6-10.4L250.5,194z M198.6,176.9c1.8,1.8,1.2,1.2,3.1,3.7c1.2,1.8,1.8,2.4,2.4,4.9l-3.1,1.2
				c-1.8-1.8-1.2-1.8-1.8-3.7l1.8,1.8c1.2,0.6,0,0.6,1.8,0c0-1.8-1.8-4.3-3.1-5.5c-2.4,1.2-1.2,1.2,0,4.3l-2.4-4.3L198.6,176.9z
				 M292.7,176.3c1.2-1.2,1.8-2.4,2.4-3.1c1.8,0.6,2.4,1.2,3.1,1.8l-3.7,6.1c-1.2,1.2-0.6,0.6-1.2,1.2l-3.1-2.4L292.7,176.3z
				 M296.3,174.5c-1.2,0.6-0.6,0-2.4,1.8c-1.2,1.8-1.8,2.4-1.2,3.7c1.8,1.2,1.2,0.6,3.1-1.8C297.5,175.1,296.3,175.7,296.3,174.5
				L296.3,174.5z M179.7,175.1c3.1-0.6,7.9-4.3,11-6.1c3.7-2.4,7.3-4.9,11.6-6.7c0.6,3.1,3.7,6.7,5.5,9.8l9.8,15.9
				c-3.1-1.8-3.7-4.9-6.1-8.5l-3.7-6.1c0,0,0,0,0-0.6V172l-0.6-1.2c0,0,0,0,0-0.6l-3.1-2.4c-1.2-1.2,0,0-1.2-1.2
				c-1.2-1.8-1.2-1.2-1.8-3.1l-4.9,3.1c-3.7,2.4-12.2,6.7-14,9.2c2.4,5.5,14,20.1,15.3,25c-1.8-0.6-1.2-0.6-2.4-1.2
				C191.9,196.4,180.3,176.9,179.7,175.1L179.7,175.1z M176.7,161l4.3,2.4c-1.8,1.2-1.8,1.2-4.3,2.4V161z M174.2,159.8l-0.6,5.5
				l-2.4-4.3L174.2,159.8z M228.6,164.1c-0.6-0.6-0.6,0.6-0.6-1.8v-2.4l2.4,0.6C228.6,162.2,229.8,161.6,228.6,164.1L228.6,164.1z
				 M313.4,159.8c5.5-3.7,3.1-1.2,4.3-1.2v3.7C317.1,161.6,314.6,160.4,313.4,159.8L313.4,159.8z M271.9,162.9
				c-2.4-0.6-0.6,0-1.8-1.8l-1.8-1.8l3.7-0.6V162.9z M183.4,156.8c3.7,1.2,3.7,2.4,3.7,2.4s0,0.6,0.6,0.6c-1.8,0.6-1.8,0.6-4.3,1.8
				V156.8z M179.1,156.1c0.6,0,1.8-0.6,2.4-1.2v5.5c-0.6,0-1.8-0.6-2.4-0.6l-1.8-1.8c0.6-0.6,0.6-0.6,1.2-1.2
				C178.5,156.8,178.5,156.1,179.1,156.1L179.1,156.1z M320.1,156.1l3.1,1.8c-1.2,1.8-1.8,3.1-3.1,4.3V156.1z M227.9,154.3
				c0-1.2,0.6-1.8,0.6-2.4c4.3,10.4,9.8,3.1,11,0.6c2.4,4.9,3.7,3.1,5.5,6.1l-16.5-1.2L227.9,154.3z M306.7,155.5
				c1.8-1.2,1.8-1.8,4.3-2.4v4.9L306.7,155.5z M260.3,154.9c6.7,4.3,8.5-3.1,9.2-4.3c1.8,1.2,2.4,1.2,2.4,4.9
				c-3.7,2.4-13.4,3.1-18.3,2.4c2.4-2.4,3.1-1.8,4.3-4.3L260.3,154.9z M313.4,151.3l4.3,3.1c-1.2,1.8-1.8,1.2-4.3,2.4V151.3z
				 M190.7,152.5c1.8,0.6,2.4,1.2,4.3,2.4l-3.7,1.8L190.7,152.5z M185.2,152.5c2.4-1.8,2.4-1.2,3.7-1.2v4.9
				c-1.8-0.6-3.1-1.8-4.9-2.4C184.6,153.1,184.6,153.7,185.2,152.5L185.2,152.5z M303.6,148.8v4.9l-3.7-2.4L303.6,148.8z
				 M170.5,149.4c0.6-1.8,0.6-1.2,0.6-1.8l4.3,1.8c0.6,0.6,0.6,0.6,1.2,0.6l-7.9,4.3L170.5,149.4z M306.1,147l4.3,3.1l-4.3,2.4V147z
				 M317.1,147c6.7-4.3,6.1-3.1,7.3,4.9L317.1,147z M166.9,154.3l-3.7-9.2l6.1,1.8L166.9,154.3z M172.4,137.2c2.4,0,5.5,1.2,7.9,2.4
				l-1.2,9.2l-7.9-3.1L172.4,137.2z M182.8,140.3c3.7,0.6,4.3,1.2,6.1,3.1l-6.7,4.3L182.8,140.3z M331.1,141.5
				c-0.6,1.8-0.6,2.4-1.8,4.3c-0.6,0.6-0.6,1.8-1.2,2.4l-1.2,1.8c0-0.6-0.6,0-0.6-1.8c0-0.6-0.6-1.2-0.6-1.8c0-1.2-0.6-2.4-0.6-3.7
				L331.1,141.5z M234,145.8c3.1-2.4,3.7-4.9,6.1-7.9l1.8,3.1c-2.4,3.1-1.8,3.7-3.1,6.7C235.9,147.6,235.9,147.6,234,145.8
				L234,145.8z M264,145.2c-1.2,1.2-1.8,1.2-3.7,2.4l-1.8-3.7c-0.6-1.8-1.2-1.8-2.4-3.1l1.2-3.7l0.6,0.6L264,145.2z M305.5,139.7
				c1.8-1.2,3.1-2.4,6.1-3.1l0.6,7.3L305.5,139.7z M331.1,131.1v7.9l-6.1,1.8l-1.2-8.5L331.1,131.1z M163.2,134.2l6.1,1.8v0.6v0.6
				c0.6,3.1,0-1.8,0,1.2l-1.2,6.1l-6.1-1.8L163.2,134.2z M322,133.6l1.2,7.9l-7.9,3.1L314,136L322,133.6z M173,126.8
				c3.7,1.2,2.4,1.2,4.9,3.7c2.4,2.4,3.1,1.8,2.4,6.1c-2.4-0.6-6.1-1.2-7.9-3.1L173,126.8z M160.8,140.3l-3.1-7.3l3.7,0.6
				L160.8,140.3z M254.2,129.3c2.4,0.6,1.8,2.4,1.8,4.3c-1.8-1.2,0,0-1.8-0.6c-1.2-0.6,0.6,0-1.2,0L254.2,129.3z M241.4,133.6
				c0-2.4,0-3.1,1.8-4.3c0.6,1.2,0.6,1.2,0.6,3.7L241.4,133.6z M163.8,124.4l6.7,1.8v6.7c-2.4,0-4.9-0.6-6.7-1.8V124.4z M314,133.6
				c-0.6-3.7,1.2-4.3,2.4-6.1c1.8-2.4,1.2-2.4,4.9-3.7v7.9L314,133.6z M337.2,129.3l-3.7,7.3v-6.7L337.2,129.3z M330.5,121.3v7.3
				l-6.7,1.2v-7.3L330.5,121.3z M338.5,118.9v7.3c-0.6,0-1.8,1.2-2.4,1.2c-4.9,0.6-1.8,0-3.1-0.6v-6.7L338.5,118.9z M155.9,121.9
				l5.5,1.8v7.3l-5.5-1.8V121.9z M164.4,115.8c1.2,0.6,5.5,5.5,6.1,7.9l-6.7-1.8L164.4,115.8z M156.5,113.4l5.5,1.2l-0.6,6.1
				c-2.4-0.6-4.3-0.6-5.5-2.4v-1.2L156.5,113.4z M323.8,120.1c0-2.4,1.2-3.1,2.4-4.9c1.2-1.2,0.6-0.6,1.8-1.8c1.2-1.2,0-0.6,1.8-1.8
				v6.7L323.8,120.1z M149.2,111.6l4.9,1.2v5.5l-4.9-0.6V111.6z M338.5,110.3v5.5l-5.5,1.8v-6.1L338.5,110.3z M345.2,108.5v6.1
				l-4.9,0.6v-5.5L345.2,108.5z M156.5,106.1c2.4,0.6,4.3,4.3,5.5,6.1l-5.5-1.8V106.1z M149.8,104.2l4.9,1.2l-0.6,5.5l-4.9-1.8
				L149.8,104.2z M333,108.5c0.6-1.8,1.2-1.8,2.4-3.7c1.2-1.8,0.6-1.2,3.1-2.4v4.9L333,108.5z M144.3,102.4l3.1,0.6v5.5l-3.7-0.6
				L144.3,102.4z M340.3,101.8l2.4-0.6c3.7,0,0.6,0,2.4,0.6v4.3l-4.9,1.2V101.8z M347.6,100l3.1-0.6v5.5l-3.1,0.6V100z M254.8,101.2
				c0,1.8,0,0.6-0.6,1.8c-0.6,0-1.8,0.6-1.2-2.4c0-1.8-0.6,0,1.2-1.2C254.2,98.7,254.8,98.1,254.8,101.2L254.8,101.2z M149.8,98.1
				c3.1,0.6,3.7,1.8,4.9,4.9l-4.9-1.2V98.1z M144.3,96.3l3.7,0.6v3.7l-3.1-1.2L144.3,96.3z M141.9,97.5c0,2.4-0.6,1.8-1.2,1.8
				c-0.6,0-2.4,0-0.6-4.3C141.9,96.3,141.9,93.9,141.9,97.5L141.9,97.5z M340.3,99.4c0.6-2.4,1.8-3.7,4.9-4.3v3.7L340.3,99.4z
				 M350.7,93.3v3.7l-3.1,0.6c0-0.6,0-1.2,0-1.8c0-1.8,0.6-1.2,0.6-1.8L350.7,93.3z M352.5,93.3c0.6-2.4,0-0.6,1.8-1.2
				c0.6,1.8,1.8,3.1-0.6,4.3C353.7,95.7,351.9,96.3,352.5,93.3L352.5,93.3z M228.6,88.4c1.2,1.2,0.6-1.8,1.2,2.4v1.8
				c-0.6,2.4,0,1.2-3.7,1.8L228.6,88.4z M144.3,90.8c3.7,0.6,3.1,0.6,3.1,3.7C143.7,93.9,144.3,95.1,144.3,90.8L144.3,90.8z
				 M268.8,90.8c0.6,1.8,0.6,1.2,0.6,2.4l-3.1-0.6c-0.6-2.4-0.6-2.4,0-4.3L268.8,90.8z M142.5,93.3c-2.4-0.6-3.7-2.4,0-3.1V93.3z
				 M347,91.4c0-3.1,0-3.1,3.1-3.7C350.1,91.4,350.7,90.8,347,91.4L347,91.4z M353.7,86.5c0,0,1.8-1.2,0.6,2.4
				c-0.6,1.2-1.2,0.6-1.8,0.6C352.5,85.9,351.9,87.8,353.7,86.5L353.7,86.5z M255.4,82.3c-1.8-1.8-1.8-2.4-3.7-3.7l4.9-0.6
				L255.4,82.3z M237.7,77.4l5.5,0.6c-0.6,0.6-1.2,1.2-1.8,2.4l-1.8,1.8L237.7,77.4z M122.9,70.7c1.8-1.8,2.4-1.2,3.7-3.7
				c1.8,3.1,4.3,6.1,6.1,9.8c-1.2,1.8-2.4,1.8-3.7,2.4L122.9,70.7z M367.8,63.3c2.4,3.1,2.4,1.8,4.3,3.7c-1.8,3.1-3.7,6.1-6.1,8.5
				c-3.1-0.6-3.1-0.6-4.3-2.4L367.8,63.3z M118,58.5c1.2,0.6,1.8,0.6,3.1,1.2c1.8,1.2,0.6,0.6,1.2,1.2l-4.3,1.8V58.5z M372.6,57.2
				c1.2-1.8,1.8-1.8,4.3-2.4l-0.6,4.9L372.6,57.2z M275,179.3c0-6.1,0-12.2,0-18.3c0-18.9-3.1-7.3-13.4-23.2
				c-4.9-7.3-6.1-30.5-1.2-39.1c2.4-4.3,6.1-2.4,10.4-1.8c1.8-3.7,1.2-5.5-1.2-9.2c-1.8-3.1-4.3-4.9-6.1-7.9
				c-3.7-4.3-4.9-6.7-9.8-7.9H253c-2.4-1.2-3.1-3.1-6.1-3.1c-1.8,0-1.8,1.2-3.1,2.4c-2.4,1.8-1.8,0.6-4.3,1.8
				c-4.3,1.8-6.7,6.1-9.2,9.2c-3.7,4.3-6.1,7.9-6.1,14.7c12.2,0,15.9,6.1,15.9,17.1l-1.2,20.1c-1.8,5.5-5.5,10.4-9.8,14
				c-3.1,3.1-3.7,2.4-3.7,7.9v35.4c-2.4-1.8-9.8-14-12.2-17.7c-4.9-7.3-18.9-29.9-24.4-36l-28.1-32.4c-8.5-10.4-25-33.6-31.7-45.2
				c-2.4-4.9-4.3-6.1-10.4-6.1c-3.1,0-5.5,3.7-5.5,6.1c0,4.3-0.6,5.5,2.4,8.5c6.7,7.3,14,20.8,19.5,29.3
				c9.8,16.5,18.9,32.4,26.3,50.1c3.1,7.9,7.3,15.9,12.2,22.6l22.6,34.2c-3.7,0-6.1-0.6-9.2,1.8l-2.4,2.4v-8.5h-61.7v40.9h61.7
				v-12.2c3.7,1.8,5.5,4.9,11,6.1c11,1.8,4.9-14.7,23.2,0.6c2.4,2.4,5.5,9.2,7.3,12.2l-21.4,3.7c-7.3,1.2-15.9,1.8-23.2,1.8
				c-5.5,0-12.8-1.2-17.7,0c-4.3,1.2-9.8,6.7-9.8,11c0,3.7,3.1,6.7,6.1,8.5c3.7,3.1,4.9,3.7,9.2,6.1c4.9,2.4,15.9,8.5,21.4,8.5
				c-6.1,8.5-39.7,38.5-47,45.2l-12.2,10.4c-5.5,4.3-10.4,8.5-15.9,12.8c-1.2,1.2-2.4,1.8-3.7,3.1c-1.8,1.2-2.4,1.8-3.7,3.1
				c-4.3,3.1-3.1-1.2-8.5,4.3l-23.2,19.5C69.2,393,69.2,404,79,404c12.2,0,20.1-4.9,31.1-11.6c4.9-3.1,11.6-6.7,16.5-11
				c2.4-1.8,2.4-2.4,5.5-4.3c3.1-1.8,1.8-2.4,4.9-4.3c17.7-12.2,34.8-26.9,50.7-41.5l32.4-33c5.5-5.5,7.9-1.8,15.3-3.7
				c16.5-3.7,15.9-5.5,25.6-11.6c2.4,3.7,12.2,12.8,16.5,17.1c3.1,3.1,4.9,5.5,7.9,8.5c1.8,1.8,2.4,1.8,4.3,3.7
				c24.4,23.8,47.6,42.1,74.5,61.7c11,7.9,36,26.3,50.7,26.3c6.1,0,12.2-3.1,12.2-7.9c0-6.1-5.5-9.2-9.8-11.6
				c-4.3-3.1-7.9-6.1-12.2-8.5c-4.3-3.1-7.9-6.7-12.2-9.2c-2.4-1.2-1.2,0-3.7-1.2c-4.3-1.2-28.1-22-33-26.3
				c-1.8-1.8-3.7-3.1-5.5-4.9c-1.2-1.2-1.8-1.8-3.1-2.4c-8.5-7.3-17.7-14.7-25-22.6l-22-21.4c-3.7-3.7-24.4-23.2-25.6-26.9
				c-0.6-2.4,1.2-15.3,1.2-18.9s1.8-5.5,3.1-6.7l0.6-0.6c5.5,3.7,9.2,7.3,15.9,2.4c1.8-1.2,3.1-4.3,5.5-4.9v14h61.1v-41.5h-59.8
				c-2.4,0-2.4,1.8-1.8,4.9c0.6,2.4,0.6,3.1,0.6,6.7c-3.1-1.8-1.8-3.1-6.1-5.5c3.1-6.1,7.3-11.6,11.6-17.1l11.6-17.1
				c7.9-12.2,13.4-24.4,20.1-37.9c9.2-18.9,19.5-36.6,31.1-54.3l11.6-18.3c0-3.7,0.6-7.3-1.8-9.8c-4.3-3.1-10.4-1.8-12.8,3.1
				c-4.9,9.2-11,17.7-17.1,25.6L325,114c-20.8,26.3-21.4,23.8-40.3,51.9C281.1,170.8,278.6,175.7,275,179.3L275,179.3z"/>
			<path class="st8" d="M179.7,274.6c1.2,0,1.2,0,1.8-0.6c4.9-2.4,1.8-10.4-1.2-10.4c-2.4,0.6-3.7,2.4-4.3,4.9
				c0,3.1-0.6,1.2,0.6,3.1L179.7,274.6z"/>
			<path class="st8" d="M204.1,275.8c1.2,1.2,0,1.2,1.8,1.8c1.8-1.2,1.2-1.2,3.7-2.4c0-3.7,1.2-5.5-2.4-8.5
				c-4.9,0.6-4.3,3.1-4.9,7.3c0,0,0.6,0.6,1.2,0.6C204.1,275.8,203.5,275.2,204.1,275.8L204.1,275.8z"/>
			<path class="st8" d="M190.1,275.8c4.3-1.2,4.9-5.5,3.1-7.9l-1.2-1.8l-0.6-1.2c-2.4,0-3.1,1.2-4.9,1.8c0,1.2-1.2,4.3,0,5.5
				c0,0,0,0,0.6,0.6c0,0,0,0,0.6,0.6l0.6,1.2C190.1,275.8,188.9,275.2,190.1,275.8L190.1,275.8z"/>
			<path class="st8" d="M157.1,208.6c2.4,0,1.8,0,3.1-1.2v-0.6c0,0,0,0,0-0.6v1.8h1.8v-4.3c-1.2,0-1.2,0-2.4,0.6l-0.6,1.2v0.6v-1.8
				h-1.8V208.6z"/>
			<path class="st8" d="M141.2,208.6c2.4,0,1.8,0,3.1-1.2v-0.6c0,0,0,0,0-0.6v1.8h1.8v-4.3c-1.2,0-1.2,0-2.4,0.6l-0.6,1.8v0.6V205
				h-1.8V208.6z"/>
			<polygon class="st8" points="176.7,208.6 178.5,208.6 178.5,204.4 176,204.4 			"/>
			<polygon class="st8" points="138.2,208.6 140.6,208.6 140.6,204.4 137.6,204.4 			"/>
			<polygon class="st8" points="163.2,208.6 166.3,208.6 165.1,204.4 163.2,204.4 			"/>
			<path class="st9" d="M403.2,388.2c1.2,1.8-1.2,0.6,2.4,2.4c0.6,0.6,1.8,0.6,2.4,0.6l-0.6-2.4L403.2,388.2z"/>
			<rect x="166.9" y="204.4" class="st8" width="1.8" height="4.3"/>
			<rect x="134.5" y="204.4" class="st8" width="1.8" height="4.3"/>
			<rect x="151" y="204.4" class="st8" width="1.8" height="4.3"/>
			<rect x="173" y="204.4" class="st8" width="1.8" height="4.3"/>
			<rect x="128.4" y="204.4" class="st8" width="1.8" height="4.3"/>
			<polygon class="st8" points="132.1,208.6 133.9,208.6 133.3,204.4 131.5,204.4 			"/>
			<polygon class="st8" points="148,208.6 149.8,208.6 149.2,204.4 147.3,204.4 			"/>
			<polygon class="st8" points="170.5,208.6 172.4,208.6 171.8,204.4 169.3,204.4 			"/>
			<polygon class="st8" points="154.1,208.6 156.5,208.6 155.3,204.4 153.5,204.4 			"/>
			<rect x="315.9" y="235.5" class="st8" width="3.1" height="1.8"/>
			<rect x="332.3" y="235.5" class="st8" width="3.1" height="1.8"/>
			<rect x="354.3" y="235.5" class="st8" width="3.1" height="1.8"/>
			<rect x="150.4" y="232.5" class="st8" width="2.4" height="2.4"/>
			<rect x="143.7" y="232.5" class="st8" width="2.4" height="2.4"/>
			<rect x="166.3" y="232.5" class="st8" width="2.4" height="2.4"/>
			<rect x="127.8" y="232.5" class="st8" width="2.4" height="2.4"/>
			<path class="st9" d="M142.5,93.3v-3.1C138.2,90.8,139.4,92.6,142.5,93.3L142.5,93.3z"/>
			<rect x="319.5" y="206.8" class="st8" width="2.4" height="1.8"/>
			<rect x="316.5" y="203.8" class="st8" width="2.4" height="1.8"/>
			<rect x="351.9" y="206.8" class="st8" width="2.4" height="1.8"/>
			<rect x="336" y="206.8" class="st8" width="2.4" height="1.8"/>
			<rect x="354.3" y="203.8" class="st8" width="2.4" height="1.8"/>
			<rect x="332.3" y="203.8" class="st8" width="2.4" height="1.8"/>
			<rect x="179.1" y="232.5" class="st8" width="2.4" height="2.4"/>
			<rect x="358" y="235.5" class="st8" width="2.4" height="1.8"/>
			<rect x="143.7" y="236.1" class="st8" width="2.4" height="1.8"/>
			<rect x="137.6" y="236.1" class="st8" width="2.4" height="1.8"/>
			<rect x="160.2" y="236.1" class="st8" width="2.4" height="1.8"/>
			<rect x="176" y="236.1" class="st8" width="2.4" height="1.8"/>
			<rect x="351.3" y="235.5" class="st8" width="1.8" height="1.8"/>
			<rect x="313.4" y="235.5" class="st8" width="1.8" height="1.8"/>
			<rect x="309.8" y="235.5" class="st8" width="1.8" height="1.8"/>
			<rect x="348.2" y="235.5" class="st8" width="1.8" height="1.8"/>
			<rect x="342.1" y="235.5" class="st8" width="1.8" height="1.8"/>
			<rect x="307.3" y="235.5" class="st8" width="1.8" height="1.8"/>
			<rect x="329.3" y="235.5" class="st8" width="1.8" height="1.8"/>
			<rect x="323.2" y="235.5" class="st8" width="1.8" height="1.8"/>
			<rect x="339.1" y="235.5" class="st8" width="1.8" height="1.8"/>
			<rect x="335.4" y="235.5" class="st8" width="1.8" height="1.8"/>
			<rect x="325.6" y="235.5" class="st8" width="1.8" height="1.8"/>
			<rect x="319.5" y="235.5" class="st8" width="1.8" height="1.8"/>
			<rect x="345.2" y="235.5" class="st8" width="1.8" height="1.8"/>
			<rect x="358" y="203.8" class="st8" width="1.8" height="1.8"/>
			<rect x="131.5" y="232.5" class="st8" width="1.8" height="2.4"/>
			<rect x="141.2" y="232.5" class="st8" width="1.8" height="2.4"/>
			<rect x="147.3" y="232.5" class="st8" width="1.8" height="2.4"/>
			<rect x="153.5" y="232.5" class="st8" width="1.8" height="2.4"/>
			<rect x="157.1" y="232.5" class="st8" width="1.8" height="2.4"/>
			<rect x="163.2" y="232.5" class="st8" width="1.8" height="2.4"/>
			<rect x="176" y="232.5" class="st8" width="1.8" height="2.4"/>
			<rect x="135.1" y="232.5" class="st8" width="1.8" height="2.4"/>
			<rect x="160.2" y="232.5" class="st8" width="1.8" height="2.4"/>
			<rect x="173" y="232.5" class="st8" width="1.8" height="2.4"/>
			<rect x="169.9" y="232.5" class="st8" width="1.8" height="2.4"/>
			<rect x="137.6" y="232.5" class="st8" width="1.8" height="2.4"/>
			<rect x="179.1" y="236.1" class="st8" width="2.4" height="1.8"/>
			<rect x="311" y="206.8" class="st8" width="1.8" height="1.8"/>
			<rect x="329.3" y="203.8" class="st8" width="1.8" height="1.8"/>
			<rect x="348.8" y="206.8" class="st8" width="1.8" height="1.8"/>
			<rect x="313.4" y="203.8" class="st8" width="1.8" height="1.8"/>
			<rect x="326.9" y="206.8" class="st8" width="1.8" height="1.8"/>
			<rect x="317.1" y="206.8" class="st8" width="1.8" height="1.8"/>
			<rect x="333" y="206.8" class="st8" width="1.8" height="1.8"/>
			<rect x="339.1" y="206.8" class="st8" width="1.8" height="1.8"/>
			<rect x="354.9" y="206.8" class="st8" width="1.8" height="1.8"/>
			<rect x="348.2" y="203.8" class="st8" width="1.8" height="1.8"/>
			<rect x="345.2" y="203.8" class="st8" width="1.8" height="1.8"/>
			<rect x="342.1" y="203.8" class="st8" width="1.8" height="1.8"/>
			<rect x="323.2" y="203.8" class="st8" width="1.8" height="1.8"/>
			<rect x="326.2" y="203.8" class="st8" width="1.8" height="1.8"/>
			<rect x="309.8" y="203.8" class="st8" width="1.8" height="1.8"/>
			<rect x="307.3" y="203.8" class="st8" width="1.8" height="1.8"/>
			<rect x="313.4" y="206.8" class="st8" width="1.8" height="1.8"/>
			<rect x="339.1" y="203.8" class="st8" width="1.8" height="1.8"/>
			<rect x="319.5" y="203.8" class="st8" width="1.8" height="1.8"/>
			<rect x="336" y="203.8" class="st8" width="1.8" height="1.8"/>
			<rect x="342.7" y="206.8" class="st8" width="1.8" height="1.8"/>
			<rect x="345.2" y="206.8" class="st8" width="1.8" height="1.8"/>
			<rect x="323.2" y="206.8" class="st8" width="1.8" height="1.8"/>
			<rect x="351.9" y="203.8" class="st8" width="1.8" height="1.8"/>
			<rect x="307.3" y="206.8" class="st8" width="1.8" height="1.8"/>
			<rect x="329.3" y="206.8" class="st8" width="1.8" height="1.8"/>
			<rect x="166.9" y="236.1" class="st8" width="1.8" height="1.8"/>
			<rect x="163.2" y="236.1" class="st8" width="1.8" height="1.8"/>
			<rect x="157.1" y="236.1" class="st8" width="1.8" height="1.8"/>
			<rect x="153.5" y="236.1" class="st8" width="1.8" height="1.8"/>
			<rect x="135.1" y="236.1" class="st8" width="1.8" height="1.8"/>
			<rect x="151" y="236.1" class="st8" width="1.8" height="1.8"/>
			<rect x="128.4" y="236.1" class="st8" width="1.8" height="1.8"/>
			<rect x="147.3" y="236.1" class="st8" width="1.8" height="1.8"/>
			<rect x="169.9" y="236.1" class="st8" width="1.8" height="1.8"/>
			<rect x="173" y="236.1" class="st8" width="1.8" height="1.8"/>
			<rect x="131.5" y="236.1" class="st8" width="1.8" height="1.8"/>
			<rect x="141.2" y="236.1" class="st8" width="1.8" height="1.8"/>
			<path class="st10" d="M807.4,210.5c0.6-3.7,25.6-37.2,37.2-16.5C842.2,203.8,816.5,209.9,807.4,210.5L807.4,210.5z M710.3,195.2
				c1.8-5.5,17.1-15.3,25.6-16.5c1.8,10.4,4.9,14.7-4.3,17.7C726.2,198.9,715.2,198.9,710.3,195.2L710.3,195.2z M864.8,113.4
				c-6.7,4.3-3.1,18.3-1.8,27.5c1.2,9.8,1.2,20.8,2.4,30.5c1.8,28.7,10.4,39.1-22.6,39.7c1.8-11.6,16.5-23.8,0.6-33
				c-14.7-9.2-18.9,11-27.5,14c0-11.6,0-21.4-0.6-33c-2.4-30.5,1.2-12.8,2.4-28.7c-9.8-4.9-5.5-6.1-7.3-15.3c0,0,0-0.6-0.6-1.2
				c0-0.6,0-0.6-0.6-1.2c-2.4,3.1-4.3,9.2-4.9,13.4c-1.8,7.9,0.6,7.9,1.8,14c2.4,11,7.9,54.3,2.4,61.7c-1.8,2.4-6.1,7.9-8.5,8.5
				c-7.9,2.4-6.7-3.7-8.5-7.3c-4.3,1.8-3.7,4.3-9.8,6.7c-13.4,5.5-26.9,3.7-33-10.4c-7.9-18.9-7.3-46.4-12.8-51.3
				c-4.9,6.1-1.8,14-1.2,21.4c-12.2,6.7-33,18.3-31.7,36.6c4.9,3.1,14,4.9,22.6,3.1c9.2-1.8,6.7-8.5,14.7-11.6
				c2.4,11.6,6.7,22,15.9,25.6c15.9,5.5,29.3-5.5,32.4-6.7c3.7,7.9,7.3,7.9,18.9,6.7c9.2-0.6,14,0,23.2,0
				c40.9,0.6,26.9-1.8,39.1-11.6c7.9,11.6,4.3,11.6,22.6,11.6h49.5c8.5-0.6,6.7-3.7,13.4-2.4c15.9,2.4,15.3,3.7,24.4-6.1
				c6.7,3.1,4.9,4.3,15.3,3.7c4.3-8.5,9.2-31.1,0.6-36c-3.7,12.2,6.7,31.1-11.6,22c0-4.9,1.2-5.5,0.6-9.8c-0.6-3.1,0-1.2-1.2-3.1
				c-4.9,3.7-2.4,9.8-7.9,15.3c-3.1,3.1-11,5.5-15.9,1.8c-3.1-3.1,0-3.7-0.6-7.9c-0.6-4.3,1.2,0-1.2-3.1
				c-4.3,6.1-3.1,12.2-13.4,12.8h-50.7c-10.4,0-15.3,1.8-18.3-7.3C869,187.9,871.5,121.9,864.8,113.4L864.8,113.4z"/>
			<path class="st10" d="M520.4,202.5c1.8-4.3,2.4-4.9,6.7-6.1c1.8,3.1,5.5,11,6.1,14.7C526.5,209.9,522.2,206.8,520.4,202.5
				L520.4,202.5z M530.8,184.2c-6.1,1.2-8.5,5.5-11.6,10.4c-3.7,4.9-3.7,11-7.9,13.4c-14,7.9-20.8-4.9-21.4-17.1
				c-0.6-11.6-3.1-73.3-6.1-78.2c-7.9,3.7-1.8,25.6-1.8,33.6c0.6,12.2,1.2,25.6,2.4,37.2c1.2,12.2-0.6,25.6,6.1,33.6
				c11,14,26.3-1.8,26.3-2.4c8.5,6.7,7.9,9.2,24.4,9.2c6.1-6.7,3.1-4.3,15.3-3.1c6.7,0.6,14,0.6,20.8,0.6
				c32.4,0.6,56.2,3.7,80.6-7.9c11.6-5.5,20.1-9.2,22-23.2c-7.9,2.4-13.4,9.2-22,12.2s-29.3-12.2-4.3-24.4c10.4-5.5,12.2,0.6,18.9,0
				c-3.7-11-19.5-18.9-28.7-4.9c-4.3,6.7-10.4,19.5-8.5,28.7c1.2,4.9,3.7,4.3,1.2,6.1c-3.1,3.1-56.8,1.8-65.3,1.8
				C536.3,210.5,546,208,530.8,184.2L530.8,184.2z"/>
			<path class="st10" d="M615.6,260.5c-1.8,1.2-1.8-1.2-3.1,4.9l3.1,40.9c0.6,6.7,9.2,39.1-18.3,27.5c-2.4-7.9,1.2-7.3-0.6-12.2
				c-7.3,2.4-0.6,7.3-10.4,11c-11.6,4.3-44.6,4.3-57.4,3.7c-34.2-1.8-20.1-36-30.5-51.3c-4.9,6.7,0,9.8-1.8,15.9
				c-6.1,6.1-19.5,7.9-19.5,18.3c6.1-0.6,1.2-0.6,10.4-6.1c3.7-2.4,6.1-3.7,11-4.3l1.8,9.8c-6.7,5.5-16.5,7.9-23.2,2.4
				c-2.4-1.8,0-1.2-1.8-1.2c-2.4,3.7-2.4,4.3-2.4,10.4c25.6,6.7,20.8-3.1,28.7-7.3c7.3,15.3,1.2,22.6,37.9,23.2
				c9.8,0,20.1,0,29.9-0.6c15.3-1.2,13.4-3.1,23.2-7.3l3.1,3.7c3.7,3.7,4.9,5.5,11.6,4.3c8.5-1.2,8.5-6.1,12.8-9.2
				c3.7,7.9,4.9,9.8,15.3,11c7.9,1.2,16.5-0.6,23.2-2.4c7.3-1.8,12.2-4.3,18.9-7.3c10.4-4.3,9.8-2.4,21.4-3.7
				c1.2-2.4,3.1-6.1,3.1-9.8c-17.7-1.2-19.5-1.2-32.4-9.2c-6.7-4.3-9.2-3.7-13.4,1.8c-2.4,3.1-6.7,7.9-7.3,12.2
				c6.1-1.8,4.3-9.2,12.8-6.7c3.1,0.6,11,5.5,12.8,7.3c-3.1,3.1-48.8,20.8-52.5-2.4C619.9,315.5,618.7,265.4,615.6,260.5
				L615.6,260.5z"/>
			<path class="st10" d="M419.7,204.4c-9.8-13.4,4.3-26.3-0.6-33c-4.9,10.4-11,28.1-4.9,40.9c5.5,11.6,21.4,15.3,36,8.5
				c34.2-15.3,18.9-65.9,11-69.6c-6.7,12.8,0,15.3,3.7,31.1c3.7,16.5-2.4,20.8-14,26.3C439.2,213.5,425.8,212.9,419.7,204.4
				L419.7,204.4z"/>
			<path class="st10" d="M775.6,345.4c14.7-3.7,8.5-36,7.9-48.2c-1.8-26.9,0.6-15.9,2.4-26.3c-3.7-3.1-3.7-1.2-4.9-5.5l-1.2-7.3
				c0-0.6,0-0.6-0.6-1.2c-3.1,4.3-4.9,11-3.7,17.1c1.8,7.3,2.4,10.4,3.1,18.3c1.2,11,3.1,29.3,2.4,39.7c-11,8.5-17.1,2.4-20.1-9.2
				c-3.1-13.4,0-28.7-5.5-32.4c-6.7,20.1,12.2,35.4-12.8,44c-8.5,3.1-11-0.6-14-0.6c-3.7,9.8,1.2,13.4,12.8,10.4
				c6.7-1.8,14.7-11.6,14.7-11.6c0-0.6,0.6-0.6,0.6-0.6c1.2,1.8,0,0,1.2,2.4l4.3,7.3C766.5,345.4,770.1,346.6,775.6,345.4
				L775.6,345.4z"/>
			<path class="st10" d="M920.3,319.8c-7.3,4.9-10.4-3.7-4.3-7.9C917.9,313.7,920.3,315.5,920.3,319.8L920.3,319.8z M895.3,308.2
				c0,0-6.1,0-4.3,7.9c1.2,4.9,11.6,8.5,1.2,23.2c-3.1,4.3-6.7,8.5-11.6,11c-5.5,3.1-11,1.8-14,2.4c-4.3,1.2-1.8-0.6-4.3,2.4
				c28.7,7.9,19.5-1.8,28.7,0.6c11,3.7,20.8,6.7,27.5-3.1c12.8-18.3,12.2-45.2-0.6-51.3c-3.7,3.1-8.5,13.4-7.9,21.4
				c1.8,15.9,14,3.7,14,3.7c0.6,9.8-4.9,15.9-9.8,20.8c-6.7,6.1-11.6,6.7-23.2,6.1C891.6,345.4,908.7,329.5,895.3,308.2L895.3,308.2
				z"/>
			<path class="st10" d="M955.7,171.4c-1.8-12.8,3.1-10.4,14.7-12.2c9.2-1.8,14.7-0.6,15.9-9.2c-13.4-0.6-61.7,9.2-79.4,12.8
				c-8.5,1.8-18.3,1.8-17.1,11.6l62.9-12.2c-0.6,7.3-1.8,9.8,0.6,15.9c7.3,3.1,10.4-1.2,10.4-9.2
				C956.3,169.6,961.8,170.2,955.7,171.4L955.7,171.4z"/>
			<path class="st10" d="M579,151.3c17.1-7.3,27.5,0.6,29.9-12.2c-19.5,0.6-56.2,8.5-77.5,12.8c-11,2.4-17.1,1.2-18.9,11.6l62.9-11
				c-1.2,9.8-3.1,11.6,3.1,17.1c5.5-1.2,7.3-4.9,7.9-11c-5.5,1.2-2.4,2.4-7.3,2.4L579,151.3z"/>
			<path class="st10" d="M513.7,298.4c5.5-1.2,29.3-19.5,35.4-23.2c11-6.7,31.1-16.5,31.7-23.8c-7.3,0.6-48.8,29.9-60.4,37.9
				C516.1,292.3,514.9,292.3,513.7,298.4L513.7,298.4z"/>
			<path class="st10" d="M839.7,357.6c9.8-1.8,19.5-21.4,19.5-32.4c0-6.7-1.2-15.3-7.9-17.1c-8.5,14,12.8,11.6,0,31.1
				c-9.2,14-11.6,11.6-31.1,13.4C822.6,357.6,836.7,358.2,839.7,357.6L839.7,357.6z"/>
			<path class="st10" d="M709.7,266.7c-3.7,10.4-1.2,26.3,0,38.5c1.2,12.8,1.2,26.3,2.4,39.7c7.9-2.4,3.1-28.7,2.4-37.9
				c-0.6-6.7-1.2-14-1.2-20.8C712.7,280.7,713.3,270.3,709.7,266.7L709.7,266.7z"/>
			<path class="st10" d="M613.8,178.1c9.2-1.2,26.3-18.3,26.9-27.5s-7.9-11.6-13.4-6.1c-1.8,1.8-4.3,5.5-3.7,9.8
				c0.6,3.7,6.1,6.1,6.1,6.1l0.6,0.6C626,170.8,615,171.4,613.8,178.1L613.8,178.1z"/>
			<path class="st10" d="M794.5,267.3c-1.8,0.6-3.1-2.4-3.1,9.2l4.3,64.7c1.2,7.3-1.2-4.9,0.6,1.8l1.2,1.8c2.4-3.1,1.8-3.7,1.8-10.4
				C799.4,321.6,797,272.1,794.5,267.3L794.5,267.3z"/>
			<path class="st10" d="M865.4,260.5c-4.3,4.3-2.4,11-1.8,18.9l4.9,58c7.3-3.7,1.8-31.1,1.8-39.1l-3.7-37.2
				C866,261.2,865.4,261.2,865.4,260.5L865.4,260.5z"/>
			<path class="st10" d="M822,299.6v4.9c4.9,0.6,15.9,9.2,11,14l-5.5,3.1l-0.6-0.6c-1.2,2.4,1.8,1.2-2.4,2.4c-6.7-1.8-3.1,0-4.9-3.1
				c0,0,0-0.6-0.6-0.6l-1.8-4.3c-4.3,15.9,1.8,15.3,9.2,15.9l0.6-0.6c0,0.6,5.5-2.4,8.5-11.6c0-0.6,0-0.6,0-1.2s0-1.8,0.6-2.4
				c0.6-3.1,0-6.7,0.6-9.8l-3.1-4.3c-1.8,0-1.8,0.6-1.2-1.2c-2.4,0.6-1.8,0.6-1.2-1.2c-2.4,0.6-1.8,1.2-1.2-1.2
				c-2.4,0.6-1.8,1.2-1.8-1.2c-3.7-1.8-0.6-0.6-4.9-1.8C823.8,298.4,824.5,298.4,822,299.6L822,299.6z"/>
			<path class="st10" d="M742,136c3.7-2.4,5.5-5.5,6.7-9.8c-2.4-2.4-4.3-5.5-7.9-7.3l-6.1,7.3c-4.3-3.1-2.4-3.7-7.9-5.5l-6.1,10.4
				l7.3,6.7c3.7-2.4,3.1-3.7,6.1-7.3C739.6,132.3,737.8,133.6,742,136L742,136z"/>
			<path class="st10" d="M498.4,149.4c6.7-1.2,17.7-5.5,24.4-7.9c14-4.3,19.5-3.7,19.5-11c-5.5,0-18.9,4.3-24.4,6.1
				C503.3,142.1,499,141.5,498.4,149.4L498.4,149.4z"/>
			<path class="st10" d="M754.9,147.6c6.1-0.6,17.1-5.5,23.8-7.3c15.3-4.3,20.1-3.7,20.1-11.6c-6.1,0.6-18.9,4.9-25,6.7
				C765.2,138.4,756.1,138.4,754.9,147.6L754.9,147.6z"/>
			<path class="st10" d="M696.2,279.5c6.7,0.6,2.4-6.7-1.2-8.5c-4.9,3.7-5.5,7.3-6.1,15.9c-3.7-3.1-2.4-2.4-4.3-6.7
				c-4.3-10.4-10.4-4.3-9.2,1.2c1.2,3.7,3.1,2.4,6.1,3.7c1.2,4.3,2.4,4.9,3.1,9.2c1.2,5.5-1.2,5.5,3.7,6.7l4.3-20.8L696.2,279.5z"/>
			<path class="st10" d="M522.2,279.5c3.7-1.8,4.9-13.4,6.7-22.6l6.1,1.8c0-6.1,0-6.7-3.7-9.2c-4.9,3.7-4.9,8.5-6.7,14.7
				c-6.7-6.7-1.8-10.4-11-11l-0.6,7.9c3.1,1.8,4.3,1.2,6.7,3.1c0.6,3.1,1.2,5.5,2.4,8.5C521.6,275.2,521.6,277,522.2,279.5
				L522.2,279.5z"/>
			<path class="st10" d="M429.4,105.5c0.6,2.4,1.2,1.8-1.2,1.2c0.6,2.4,1.2,2.4-0.6,1.8c0.6,2.4,1.2,1.8-1.2,1.2l-2.4,1.8
				c0.6,2.4,1.2,1.8-0.6,1.8c0.6,2.4,1.8,2.4-0.6,1.8c0.6,1.8,1.2,1.8-1.2,1.2l0.6,1.8c1.2-0.6,0,0,1.8-1.2c0.6,0,1.8-1.2,1.8-1.8
				c3.1-1.8,2.4-1.2,6.7-1.8l5.5,0.6v3.7c0,0-0.6,0.6-0.6,1.2c0.6,2.4,0.6,1.8-1.8,0.6c0.6,1.8,0.6,1.2-1.8,0.6l-1.8,0.6
				c0,1.8,0.6,1.2-1.2,1.2l-3.1,4.9c0,0-0.6,0.6-0.6,1.2c2.4-0.6,3.7-1.2,7.3-2.4l1.8-0.6c0-1.8-0.6-1.8,1.2-1.2l1.8-1.8
				c-0.6-2.4-1.2-1.8,1.2-1.2c-0.6-2.4-1.2-1.8,1.2-1.2c-0.6-1.8-0.6-1.2,1.2-1.2l1.8-10.4l-2.4-1.2l-12.2-2.4
				C430.6,106.1,431.3,106.1,429.4,105.5L429.4,105.5z"/>
			<path class="st10" d="M878.8,154.3c-2.4-1.2-2.4-1.8-1.8,0.6c-2.4-0.6-1.8-1.2-1.2,1.2c-0.6,0.6-0.6,0-1.2,2.4
				c-0.6,1.8,0,0.6,0,2.4c5.5,0,2.4-0.6,3.7-1.2c4.9,0.6,1.8,0.6,3.1-0.6c5.5,0.6,1.8,0.6,3.1-1.2c-5.5,0-2.4,0-3.1,1.2l-3.1,0.6
				h-2.4l0.6-3.7c2.4,0.6,1.8,0.6,1.2-1.2C879.4,155.5,879.4,156.8,878.8,154.3c6.1,0,18.3-4.9,22.6-7.3l3.7-1.2l4.9-1.2
				c6.1,1.2,1.8,0.6,3.7-1.8c-6.1,0-3.1-0.6-3.7,1.8c-0.6,0-5.5-1.2-4.9,1.2c-1.2,0-4.3-1.2-3.7,1.2c-6.7,0-12.2,3.1-18.9,4.3
				c1.8-5.5,2.4-14-0.6-20.8c-1.8-3.7-1.8-3.1-3.7-4.3c-6.7,4.3-2.4,5.5,0,11.6c1.2,4.3,1.2,5.5,1.2,9.8
				C880,153.1,881.2,149.4,878.8,154.3L878.8,154.3z"/>
			<path class="st10" d="M910.5,143.9l-4.9,1.2l-3.7,1.2c-4.3,2.4-17.1,7.3-22.6,7.3c0.6,2.4,0.6,1.8-1.8,0.6
				c0.6,2.4,1.2,1.8-1.2,1.2l-0.6,3.7h2.4l3.1-0.6c0.6-1.2-2.4-1.2,3.1-1.2c6.7-1.8,12.8-4.3,18.3-6.1c12.8-3.7,14-2.4,16.5-7.9
				c-1.8-1.2-1.8-1.8-5.5-1.2C912.4,144.5,916.6,145.2,910.5,143.9L910.5,143.9z"/>
			<path class="st10" d="M827.5,321l5.5-3.1c4.9-4.3-6.1-13.4-11-14V299c1.8-1.2,1.2-1.2,1.8-4.9c4.3,1.2,1.2,0,4.9,1.8
				c-0.6,2.4-0.6,1.8,1.8,1.2c-0.6,1.8-0.6,1.2,1.2,1.2c-0.6,2.4-0.6,1.8,1.2,1.2c-0.6,1.8-0.6,1.2,1.2,1.2l3.1,4.3
				c0,3.1,0,6.7-0.6,9.8c0,0.6,0,1.8-0.6,2.4c0,0.6,0,0.6,0,1.2c-2.4,9.8-7.9,12.2-8.5,11.6l-0.6,0.6c-7.3-0.6-12.8,0-9.2-15.9
				l1.8,4.3c0,0,0,0.6,0.6,0.6c1.8,3.1-1.8,1.2,4.9,3.1C829.3,321.6,826.3,323.4,827.5,321c-6.1,0-7.3,0.6-6.7-4.3
				c0-4.3,1.8-7.9,2.4-11c6.1,2.4,8.5,4.9,9.8,10.4c-1.8,1.8,0,0-2.4,2.4l-0.6,0.6L827.5,321z M822,299.6l-4.9,12.8
				c-6.1,20.1,4.3,22.6,9.8,18.3c4.9-0.6,7.3-4.3,9.8-9.2c1.2-3.1,3.1-8.5,1.8-12.8c-0.6-4.3-0.6-2.4-1.8-3.7l-3.1-4.3
				c0.6-2.4,0.6-1.8-1.2-1.2c0.6-2.4,0.6-1.8-1.2-1.2c0.6-2.4,0.6-1.8-1.2-1.2c0.6-2.4,0.6-1.8-1.8-1.2c-0.6-1.2,1.2-1.2-2.4-2.4
				c-4.9-1.8-1.8,0-2.4,0.6c-0.6,0.6-0.6,0.6-1.2,2.4v1.2C822,298.4,822,299,822,299.6L822,299.6z"/>
			<path class="st10" d="M834.2,285c4.3-5.5,6.7-8.5-1.8-12.8c-4.3,3.1-1.2,2.4-4.9,5.5c-4.3-1.8-1.8-1.8-6.7-3.7
				c-2.4,3.1-3.7,3.7-4.3,9.2c3.1,1.8,2.4,1.8,6.1,3.7l4.9-5.5C832.4,283.1,828.7,283.1,834.2,285L834.2,285z"/>
			<path class="st10" d="M539.3,374.1c5.5-1.8,1.2-1.8,6.1-4.9c3.1,2.4,1.8,1.8,4.9,3.7c5.5-4.3,5.5-6.1,1.8-12.2
				c-6.7,0.6-3.7-0.6-7.3,4.9c-4.9-3.1,0-2.4-7.9-3.7c-1.2,3.7-2.4,3.7-3.1,8.5L539.3,374.1z"/>
			<path class="st10" d="M494.1,277.6c2.4-1.8,4.3-4.3,4.9-7.9c-2.4-3.1-2.4-3.7-6.7-4.9l-3.1,5.5c-6.1-1.8-2.4-0.6-7.3-4.3
				l-5.5,7.3c1.8,2.4,3.7,4.9,7.3,6.1l2.4-5.5C493.5,275.2,489.9,274.6,494.1,277.6L494.1,277.6z"/>
			<path class="st10" d="M576.6,283.1c-1.8-7.9-3.1-6.7-5.5-7.9c-1.8,6.1,2.4,11,2.4,19.5c0,9.8-3.7,12.2-4.9,19.5
				c1.8-1.2,2.4-0.6,4.3-4.3C576,303.3,578.4,291.1,576.6,283.1L576.6,283.1z"/>
			<path class="st10" d="M420.9,151.3c1.8-4.3,5.5-8.5,6.7-12.2c-3.7,0.6-3.1,0.6-5.5,4.3c-5.5,7.9-10.4,25,0,22
				c3.7-1.2,4.3-6.1,3.7-9.8l-4.9-3.1C421.5,151.3,421.5,151.3,420.9,151.3L420.9,151.3z"/>
			<path class="st10" d="M440.4,124.4c-3.1,2.4-5.5,6.1-6.7,11c3.1,2.4,3.7,4.3,7.9,6.1C448.4,135.4,451.4,128.7,440.4,124.4
				L440.4,124.4z"/>
			<path class="st10" d="M555.8,302.7c3.7-3.7,4.3-7.3,2.4-12.8c-6.1,0.6-1.2,3.7-3.7,9.2l-0.6-0.6l-1.8-2.4c-1.2-1.8,0-0.6-1.8-1.8
				l-1.8,7.9c-3.1-1.2-0.6,0-2.4-2.4c-1.8-2.4,0.6-1.2-1.8-2.4c-1.8,3.7-1.8,7.3,0,11C547.3,307.6,554,304.5,555.8,302.7
				L555.8,302.7z"/>
			<path class="st10" d="M781.1,167.1c3.7-1.8,6.1-5.5,7.3-9.8l-7.3-7.3c-3.7,1.8-6.7,6.7-7.3,11L781.1,167.1z"/>
			<path class="st10" d="M768.9,308.8c-1.2-10.4,2.4-15.3,1.8-22c-6.1,3.1-9.2,22.6-3.7,29.3c5.5-1.2,6.1-4.3,6.7-10.4L768.9,308.8z
				"/>
			<path class="st10" d="M657.2,363.1c4.3-0.6,9.2-5.5,13.4-7.9c5.5-3.7,9.8-4.3,10.4-11c-4.3,0.6-9.8,5.5-13.4,7.9
				C662,355.2,657.8,356.4,657.2,363.1L657.2,363.1z"/>
			<path class="st10" d="M501.5,126.2c1.8,4.9,0.6,9.2,1.8,12.8c4.3-4.3,4.3-20.8-2.4-23.8C496,120.1,499.6,120.7,501.5,126.2
				L501.5,126.2z"/>
			<path class="st10" d="M837.3,145.2c-1.2-11-4.9-8.5-6.1-9.2c-1.8,6.7,0.6,4.9,2.4,11c1.2,4.9,0,8.5,1.8,12.2l1.8-6.1
				C837.9,150.6,837.9,147,837.3,145.2L837.3,145.2z"/>
			<path class="st10" d="M880.6,298.4c3.7-3.1,4.3-3.7,4.3-9.2c-4.3-2.4-1.2-1.8-6.1-3.7c-1.8,3.1-3.1,4.3-4.3,8.5L880.6,298.4z"/>
			<path class="st10" d="M750,281.9c3.7-0.6,7.3-4.3,10.4-6.1c4.3-2.4,6.7-2.4,7.3-7.9C765.8,267.9,750,274,750,281.9L750,281.9z"/>
			<path class="st10" d="M653.5,302.7c7.9-4.9,5.5-11-1.2-12.8c-2.4,3.1-3.7,4.3-4.3,9.2L653.5,302.7z"/>
			<path class="st10" d="M907.5,298.4c0.6,0,17.7-7.3,18.3-14.7c-4.3,0.6-7.9,3.7-11,5.5C910.5,291.7,908.1,292.9,907.5,298.4
				L907.5,298.4z"/>
			<path class="st10" d="M743.9,279.5c-2.4-3.7-0.6-1.2-4.3-3.1c-2.4,4.3,0,4.9,1.8,9.2c1.2,4.3,0,6.7,3.1,10.4
				C745.1,292.9,746.3,283.1,743.9,279.5L743.9,279.5z"/>
		</g>
		<g>
			<g>
				<path class="st11" d="M1230.4,128.8c2.8,6.1,10.3,13.1,15.9,18.2c5.6,5.1,10.8,12.2,15.4,18.2c14.5-7,33.2-29.9,73.9-21
					c54.3,11.7,81.9,69.7,52.9,118.3c-13.1,21-36,36.5-61.3,38.4l2.8,0.9c10.3,2.3-10.3-0.9,3.3,0.5l17.3-0.9
					c67.8-13.1,88.9-73.9,100.6-78.1c0-38.8-13.6-67.8-41.2-95c-31.3-30.9-74.4-39.8-117.4-33.7
					C1272.5,97.4,1238.3,115.2,1230.4,128.8L1230.4,128.8z"/>
			</g>
			<g>
				<path class="st10" d="M1239.7,324.3V223.7c0-36.5,18.2-48.2,22-58.9c-15.4-19.2-16.4-18.2-26.7-42.1
					c-37.9,24.3-46.8,97.8-46.8,135.6c0,29.9-9.4,87,19.6,93.5h12.2c0.5,0,1.4,0,1.9-0.5c5.1-0.9,8.9-4.7,12.6-8.4
					C1239.7,337.4,1239.7,335,1239.7,324.3L1239.7,324.3z"/>
			</g>
			<g>
				<path class="st12" d="M1239.7,324.3c22.5,25.3,79,31.8,107.1,24.3c12.6-3.3,22.9-6.5,34.1-11.7c8.4-4.2,19.2-12.2,26.7-19.2
					c8.4-8,14.5-15,22-23.9c11.2-15,22.5-44.4,22.5-70.2c-13.1,5.1-60.8,78.6-124.4,77.6c-19.2-0.5-40.2-1.4-61.3-20.6
					c-5.6-5.1-14.5-16.8-17.8-24.3c-4.2-9.4-8.4-19.6-8.4-32.3v100.1H1239.7z"/>
			</g>
			<g>
				<path class="st10" d="M1939.9,161.5c0-10.3,15.4-10.3,15.4,0C1954.9,171.3,1939.9,171.3,1939.9,161.5L1939.9,161.5z
					 M1802.4,161.5c0-10.3,15.4-10.3,15.4,0C1817.8,171.3,1802.4,171.3,1802.4,161.5L1802.4,161.5z M1878.6,144.2
					c16.8-24.8,28.1-22.5,19.2-36c-9.8,2.8-40.7,40.2-42.1,45.8c8.9,0,14-1.9,17.8,3.7c8.9,14-15.9,11.7-21.5,11.7
					c0-22,2.3-23.4-7.5-28.5c-8,7.5-5.6,10.8-5.6,28.5c-15.4-0.5-6.5-3.7-10.8-15.9c-5.1-14-37-18.2-37,10.3
					c0,25.3,30.9,15.9,30.9,15.9c9.8-0.5-0.5,4.2,20.1,0.5c9.4-1.9,11.7,2.8,22,2.8c7,0,10.8-3.7,15.4-3.7c5.6,0,5.1,3.7,13.1,3.7
					c9.4,0,7-1.9,14-2.8c8.4-0.9,6.5,2.8,12.6,2.8c9.4,0,7-1.9,14-2.8c7.5-0.9,9.4,2.8,14.5,2.8c10.3,0,6.1-7,17.3-2.3
					c14.5,5.6,8.4,0,17.3-0.9c6.1-0.5,7,3.3,9.4,3.3c25.3,0,19.2-28.1,19.2-60.8c0-4.2-1.4-4.2-3.7-7.5c-14.5,3.7-9.4,18.7-9.4,55.2
					c-17.8-0.5-3.3-12.6-7.5-45.8c-0.9-7.5-2.8-8-9.4-9.4c-2.3,3.3-3.7,3.3-3.7,7.5V169c-20.6-0.5,0-15.4-19.2-24.8
					c-5.1-2.3-23.9-1.9-25.7-0.9c-7,3.3-4.7,9.8-4.7,25.7h-11.2c0-36.5,5.1-51.5-9.4-55.2c-6.1,8.9-3.7,12.6-3.7,28.5
					c0,18.2,4.2,26.7-9.8,26.7c-7.5,0-4.7-6.1-6.1-12.6C1884.3,148.9,1882.4,149.8,1878.6,144.2L1878.6,144.2z"/>
			</g>
			<g>
				<path class="st10" d="M2353.9,155.4l17.3,13.6h-17.3V155.4z M2304.3,161.5c0-10.3,15.4-10.3,15.4,0
					C2319.2,171.3,2304.3,171.3,2304.3,161.5L2304.3,161.5z M2432,153.6c8,0,13.1,15.4,0,15.4C2422.6,169,2422.6,153.6,2432,153.6
					L2432,153.6z M2372.6,154l17.8-0.5c-2.8,4.2-5.6,4.7-9.4,7.5L2372.6,154z M2523.6,169c-13.6-0.9-3.7-5.1-10.3-16.4
					c-7.5-13.1-22.5-10.3-39.3-10.3c-15,0-24.3,24.8-11.2,24.8c10.8,0-0.5-13.6,17.3-13.6s24.8-2.3,24.8,15.4
					c-78.1,0-39.3,0.9-56.6-19.6c-7-8.4-11.7-6.5-25.3-6.5c-0.5,0-0.9,0-1.4,0c-7,0-8.4-2.3-8,15c0,15.9-4.7,11.2-21,11.2
					c3.3-4.7,8.4-6.5,13.1-12.2c16.8-20.1-22.5-15-43.5-15c-8.9,0,0.9,2.8-7.5,2.8c-4.2,0-13.6-11.2-13.6,8.4
					c0,10.3,2.3,10.8-3.7,15.4c-10.8-2.8-2.8-6.5-7.5-17.3c-12.2-25.7-58,5.1-28.1,26.2c2.8,1.9,6.1,3.3,9.8,3.7
					c8,0.9,8.4-3.3,10.8-3.3c8.4,0,2.8,1.4,10.8,2.8c6.1,0.9,3.7,0,11.2-1.4c8.9-1.4,11.2,2.8,25.7,2.8c8.4,0,3.7-1.9,10.3-2.8
					c9.4-1.4,2.8,2.8,10.8,2.8c11.2,0,15.9,0.9,24.8-2.3c9.4-3.7-0.5-4.2,9.4-0.9c17.8,6.1,11.2-0.5,21.5-0.5
					c7.5,0-0.5,4.2,26.7,3.7c4.2,0,10.3-0.5,13.6-0.5c1.9,0,7.5,0.9,13.1,0.5c8.4-0.5,6.5-1.9,13.6-1.9c0,0,26.7,5.6,26.7-17.3
					c0-15.9,4.2-51.9-8.4-48.2c-6.5,1.9-5.1,8-4.7,15.9C2525.5,142.3,2527.4,160.6,2523.6,169L2523.6,169z"/>
			</g>
			<g>
				<path class="st10" d="M2223.8,169c1.9-2.3,14.5-13.6,17.3-15.4C2241.1,171.8,2242.1,169,2223.8,169L2223.8,169z M2157.4,161.5
					c0-10.3,15.4-10.3,15.4,0C2172.4,171.3,2157.4,171.3,2157.4,161.5L2157.4,161.5z M2205.1,153.6h17.3c-4.2,6.1-3.3,1.4-7.5,7.5
					C2210.3,158.7,2207.9,157.8,2205.1,153.6L2205.1,153.6z M2119.1,125c0,21.5-5.6,57.1,19.2,57.1c6.5,0,11.7-3.7,14-4.2
					c3.7-0.5-0.5-0.9,6.1,1.4c15,5.6,12.6-1.9,20.1-1.4c8,0-1.9,4.2,23.4,4.2c7.5,0,6.5-2.8,11.7-3.3c1.9,0,25.7,9.4,36.5-3.7
					c6.1-7,2.3-29.9,3.3-46.3c0.5-8.4,2.3-12.6-8-15.4c-6.1,9.4-3.7,15.4-3.7,32.3c-10.3-7-24.3-3.7-47.7-3.7
					c-5.6,0-14,7.5-0.9,18.2l10.3,8.9h-17.3c-1.9-7.5-0.9-14.5-5.1-19.6c-7-8.4-14.5-6.5-25.3-6.5c-0.5,0-0.9,0-1.4,0
					c-7,0-7-0.9-8,5.1c-3.3,15.4,8.9,21-13.6,21v-47.7c0-4.2-1.4-4.2-3.7-7.5C2121.9,115.2,2119.1,116.6,2119.1,125L2119.1,125z"/>
			</g>
			<g>
				<path class="st10" d="M1724.3,169h-9.4c-7.5,0-10.3-10.8-2.8-14C1721.5,150.3,1723.8,160.6,1724.3,169L1724.3,169z
					 M1653.7,153.6c32.3,0,16.8,15.4,11.2,15.4c-27.6,0-8-7-18.7-21.5c-5.6-7.5-12.6-8.4-17.8-1.4c5.1,18.7,9.4-8.4,9.4,28.5
					c0,9.8-6.1,14.5-15.4,15.4c-1.4-5.6-0.9-3.3-3.7-7.5c-8.4,2.3-4.7,5.1-10.3,4.2c-2.8-0.5-0.5-6.5-12.6,1.9
					c1.9,7,1.9,4.2,5.6,9.4c7-1.9,4.2-1.9,9.8-5.6c1.4,1.9,0.5,1.4,2.8,3.3l8,3.7c4.7,2.3-3.3,2.8,4.7,2.8c12.2,0,20.6-10.3,22.9-21
					c15,7,22-4.7,30.4-1.9c4.7,1.4,4.2,3.7,11.2,3.7c41.6,0,59.4,5.6,59.4-22.9c0-14.5,0-29.5,0-44c-25.7-6.1-1.4,43.5-15.4,53.3
					c0-41.2-40.2-28.1-40.2-9.4c0,5.1,0.9,5.1,1.9,9.4h-11.2c0-16.4-1.9-13.6-9.4-24.8c13.6-20.6,31.3-24.8,19.2-36
					C1687.8,110.1,1654.6,149.4,1653.7,153.6L1653.7,153.6z"/>
			</g>
			<g>
				<path class="st10" d="M1493.2,113.8v215.6c0,8,13.1,8,13.1,0V113.8C1506.8,105.4,1493.2,105.4,1493.2,113.8L1493.2,113.8z"/>
			</g>
			<g>
				<path class="st10" d="M2042.8,161.5c0-10.3,15.4-10.3,15.4,0C2057.8,171.3,2042.8,171.3,2042.8,161.5L2042.8,161.5z
					 M2115.3,155.4c0-6.5-1.4-7.5-1.9-13.1h-9.4c-3.3,13.1-1.9,11.2-1.9,26.7h-9.4c0-15.4,0.9-13.6-1.9-26.7h-9.4
					c-2.8,13.1-1.9,11.2-1.9,26.7c-15.4-0.5-5.6-2.3-10.3-14.5c-8.9-23.4-45.8-10.3-37.4,12.6c7.5,21,25.7,13.1,29.5,12.6
					c8.9-1.4,7,3.3,16.8,1.4C2097.5,177,2115.3,191.5,2115.3,155.4L2115.3,155.4z"/>
			</g>
			<g>
				<path class="st10" d="M1180.3,102.1c0,25.7,31.3,32.7,45.4,16.8s2.8-39.8-22.5-39.8C1192.5,79.2,1180.3,91.8,1180.3,102.1
					L1180.3,102.1z"/>
			</g>
			<g>
				<path class="st10" d="M1573.2,153.6c4.7,0,7.5,3.3,7.5,7.5s-3.3,7.5-7.5,7.5C1562.4,169,1564.8,153.6,1573.2,153.6L1573.2,153.6
					z M1554.5,161.5c0,8.9,4.2,14.5,10.8,17.8c13.6,6.5,12.2-0.9,21.5-0.9c8.4,0-0.5,4.7,21,1.9c7.5-0.9,5.1,0.9,10.3-3.3
					c7.5-6.1,5.1-13.6,5.1-29.5c0-4.2-1.4-5.6-5.6-5.6c-14,0,2.8,26.7-11.2,26.7h-11.2C1594.3,131.1,1554.5,137.2,1554.5,161.5
					L1554.5,161.5z"/>
			</g>
			<g>
				<path class="st10" d="M2256.6,125c0,26.7-4.2,48.2,5.6,57.1c5.1-2.8,7.5-3.3,7.5-11.2v-49.6
					C2269.7,113.3,2256.6,110.1,2256.6,125L2256.6,125z"/>
			</g>
			<g>
				<path class="st10" d="M1754.7,125v45.8c0,8.4,2.3,8.4,7.5,11.2c9.8-9.4,5.6-30.9,5.6-57.1c0-8.4-2.8-9.8-9.4-11.2
					C1756.6,117.5,1754.7,119.4,1754.7,125L1754.7,125z"/>
			</g>
			<g>
				<path class="st10" d="M2542.8,180.7c7,1.4,10.3,0,11.2-5.1v-54.3c0-5.1-2.8-5.6-5.6-7.5c-8.9,6.1-5.6,8.9-5.6,30.4
					C2542.8,156.4,2542.8,168.5,2542.8,180.7L2542.8,180.7z"/>
			</g>
			<g>
				<path class="st10" d="M2037.2,125c0,12.6,12.2,5.1,12.2,5.1c0.9,0,14.5,6.5,14.5-2.8c0-12.6-12.2-5.1-12.2-4.7
					C2050.3,122.2,2037.2,115.7,2037.2,125L2037.2,125z"/>
			</g>
			<g>
				<path class="st10" d="M2298.2,126.9c0,1.9,4.2,5.6,5.6,5.6c7,0,0.9-1.9,6.5-2.8c0.9,0,14.5,6.5,14.5-2.8
					c0-12.6-11.2-4.7-14.5-5.1c-5.1-0.9,0.5-2.3-10.3-2.8C2299.1,124.6,2298.2,123.2,2298.2,126.9L2298.2,126.9z"/>
			</g>
			<g>
				<path class="st10" d="M1560.1,123.2c4.2,16.8,10.3,7,15.4,3.7c1.4,6.1,0.5,5.6,7.5,5.6c1.9-2.3,9.4-13.6-1.9-13.6
					c-8.4,0,0,1.9-6.1,2.3C1571.3,122.2,1568.5,115.2,1560.1,123.2L1560.1,123.2z"/>
			</g>
			<g>
				<path class="st10" d="M2071.3,188.2c1.9,7,1.9,4.2,5.6,9.4c6.5-1.9,4.2-0.9,7.5-5.6c5.6,3.7,2.3,3.7,9.4,5.6
					c3.7-5.6,3.7-2.8,5.6-9.4c-12.6-8.4-9.4-1.9-14-1.4c-3.7,0.5,0.9,0.9-3.3-0.5c-5.6-1.9,5.1-1.9-4.2-1.9
					C2076,184.4,2072.7,186.8,2071.3,188.2L2071.3,188.2z"/>
			</g>
			<g>
				<path class="st10" d="M1796.8,125c0,4.7,8,14.5,11.2,1.9c8,5.1,3.7,5.6,11.2,5.6c8.4-11.7-1.4-13.6-1.9-13.6
					c-7,0-0.9,1.9-6.5,2.8C1809.9,122.2,1796.8,115.7,1796.8,125L1796.8,125z"/>
			</g>
			<g>
				<path class="st10" d="M1830.9,188.2c1.9,7,1.9,4.2,5.6,9.4c6.5-1.9,4.2-0.9,7.5-5.6c5.6,3.7,2.8,3.7,9.4,5.6
					c1.9-2.3,9.4-13.6-1.9-13.6c-9.4,0,2.3,5.1-9.4,1.9c-5.6-1.9,5.1-1.9-4.2-1.9C1835.6,184.4,1832.3,186.8,1830.9,188.2
					L1830.9,188.2z"/>
			</g>
			<g>
				<path class="st10" d="M2332.8,188.2l5.6,9.4c6.5-1.9,4.2-0.9,7.5-5.6c5.6,3.7,2.3,3.7,9.4,5.6c1.9-2.3,9.4-13.6-1.9-13.6
					c-8.4,0,0,1.9-6.1,2.3c-3.7,0.5,0.9,0.9-3.3-0.5c-5.6-1.9,5.1-1.9-4.2-1.9C2337.5,184.4,2334.2,186.8,2332.8,188.2L2332.8,188.2
					z"/>
			</g>
			<g>
				<path class="st10" d="M2479.7,190c0,4.2,0.5,2.3,1.9,7.5h9.4c0.9-4.2,3.7-13.6-3.7-13.6C2483.4,184.4,2479.7,187.7,2479.7,190
					L2479.7,190z"/>
			</g>
			<g>
				<path class="st10" d="M1708.8,125c0,10.8,13.6,8,13.6,1.9C1722.4,116.1,1708.8,119,1708.8,125L1708.8,125z"/>
			</g>
			<g>
				<path class="st10" d="M2101.7,131.1c5.6,1.4,11.2,5.6,11.2-5.6C2113.4,119,2101.7,111.9,2101.7,131.1L2101.7,131.1z"/>
			</g>
			<g>
				<path class="st13" d="M1558.2,266.8h30.4v8.9h-9.8v39.3h-10.8v-39.3h-9.8V266.8z"/>
			</g>
			<g>
				<path class="st13" d="M1587.2,266.8h9.8v16.4c1.9-2.8,4.7-4.7,8.9-4.7c2.3,0,4.2,0.5,5.6,1.9c1.4,0.9,2.3,2.8,2.8,4.2
					c0.5,1.9,0.5,4.2,0.5,7.5v22.9h-9.8V292c0-2.3,0-3.7-0.5-4.7c-0.5-0.9-1.4-0.9-2.8-0.9s-2.3,0.5-3.3,0.9s-1.4,2.3-1.4,5.1v22.9
					h-9.8V266.8z"/>
			</g>
			<g>
				<path class="st13" d="M1645.2,299h-18.7v1.9c0,3.3,0.5,5.1,1.4,6.5c0.9,0.9,1.9,1.4,3.3,1.4c3.3,0,4.7-1.9,5.1-6.1l8.9,0.5
					c-1.4,8.4-6.5,12.6-14,12.6c-4.7,0-8.4-1.9-11.2-5.1c-2.3-3.3-3.7-7.5-3.7-13.1c0-6.1,1.4-10.8,4.2-14.5
					c2.8-3.3,6.1-5.1,10.8-5.1c4.2,0,7.5,1.4,10.3,4.2C1643.8,285.9,1645.2,291.5,1645.2,299z M1635.9,293.4c0-0.5,0-0.9,0-0.9
					c0-4.7-1.4-7-4.7-7c-3.3,0-4.7,2.8-4.7,8H1635.9z"/>
			</g>
			<g>
				<path class="st13" d="M1694.3,291.1c0,16.8-6.1,25.3-17.8,25.3c-5.6,0-10.3-2.3-13.1-6.5c-2.8-4.2-4.7-10.3-4.7-18.7
					c0-16.8,6.1-24.8,17.8-24.8c5.6,0,10.3,1.9,13.1,6.1C1692.9,276.6,1694.3,282.7,1694.3,291.1z M1683.1,291.1
					c0-6.5-0.5-10.8-1.4-13.1c-0.9-2.3-2.8-3.3-4.7-3.3c-2.3,0-3.7,0.9-4.7,3.3c-0.9,2.3-1.4,6.5-1.4,13.1s0.5,10.8,1.4,13.1
					c0.9,2.3,2.8,3.3,4.7,3.3c2.3,0,3.7-0.9,4.7-3.3C1682.7,302.3,1683.1,297.6,1683.1,291.1z"/>
			</g>
			<g>
				<path class="st13" d="M1696.7,279.4h9.4v4.7c1.9-3.7,4.7-5.6,8.9-5.6s7,1.9,8,5.6c1.4-3.7,4.7-5.6,8.9-5.6
					c2.3,0,4.2,0.5,5.6,1.4c1.4,0.9,2.3,1.9,2.8,3.3c0.5,1.4,0.9,4.2,0.9,8.4v23.4h-9.8v-22.5c0-2.8,0-4.2-0.5-5.1
					c-0.5-0.9-1.4-1.4-2.3-1.4c-1.4,0-2.8,0.5-3.3,1.4c-0.5,0.9-0.9,3.3-0.9,6.5v21h-9.8V292c0-2.3,0-4.2-0.5-5.1
					c-0.5-0.9-1.4-0.9-2.3-0.9c-1.4,0-2.8,0.5-3.3,1.9c-0.5,0.9-0.9,3.3-0.9,6.1v21h-9.8v-35.5H1696.7z"/>
			</g>
			<g>
				<path class="st13" d="M1751.4,291.1l-9.4-0.9c0.5-3.7,1.9-6.5,4.7-8.4s6.1-2.8,9.8-2.8c3.3,0,6.1,0.5,8,1.9
					c1.9,1.4,3.3,2.8,3.7,4.7s0.9,4.2,0.9,8v14.5c0,4.7,0,7,0.5,8h-9.4c-0.5-0.9-0.5-2.8-0.5-5.6c-2.3,4.2-5.6,6.1-9.8,6.1
					c-2.8,0-5.1-0.9-7-2.3c-1.9-1.9-2.8-4.2-2.8-7.5c0-4.2,1.4-7,4.2-9.4c2.8-2.3,7.5-3.3,14.5-3.7V292c0-2.3-0.5-4.2-0.9-5.1
					c-0.5-0.9-1.4-1.4-2.8-1.4C1753.3,285.5,1751.9,287.3,1751.4,291.1z M1759.4,298.1c-2.8,0.5-5.1,0.9-6.1,1.9
					c-1.4,0.9-1.9,2.3-1.9,4.7c0,2.8,0.9,4.7,3.3,4.7c1.4,0,2.3-0.5,3.3-1.9c0.9-1.4,1.4-3.7,1.4-7.5V298.1z"/>
			</g>
			<g>
				<path class="st13" d="M1772.5,279.4h9.4v4.7c1.9-3.7,4.7-5.6,8.9-5.6c2.3,0,4.2,0.5,5.6,1.4c1.4,0.9,2.3,2.3,2.8,4.2
					c0.5,1.4,0.5,4.2,0.5,7.5v23.4h-9.8v-23.4c0-2.3-0.5-3.7-0.9-4.7c-0.5-0.9-1.4-0.9-2.3-0.9c-1.9,0-2.8,0.5-3.7,1.9
					c-0.5,0.9-0.9,3.3-0.9,6.1v21h-9.8v-35.5H1772.5z"/>
			</g>
			<g>
				<path class="st13" d="M1812.7,276.6h-10.3v-9.8h10.3V276.6z M1802.9,279.4h9.8v36h-9.8V279.4z"/>
			</g>
			<g>
				<path class="st13" d="M1859,277.5l-8.9,3.3c-1.4-4.2-3.7-6.1-7-6.1c-1.4,0-2.8,0.5-3.7,1.4c-0.9,0.9-1.4,1.9-1.4,3.3
					s0.5,2.3,1.4,3.3c0.9,0.9,3.3,1.9,6.5,3.3c3.3,0.9,5.6,2.3,7.5,3.3c1.9,0.9,3.3,2.8,4.2,4.7s1.9,4.2,1.9,7
					c0,4.7-1.4,8.4-4.7,11.2c-3.3,2.8-7.5,4.2-12.6,4.2c-8.9,0-14.5-4.2-16.8-13.1l9.4-2.8c0.9,4.7,3.7,7.5,8,7.5
					c1.9,0,3.3-0.5,4.7-1.4c0.9-0.9,1.9-2.3,1.9-3.7s-0.5-2.3-1.4-3.3c-0.9-0.9-2.8-1.9-5.6-2.8c-3.7-1.4-6.5-2.3-8.4-3.7
					c-1.9-0.9-3.3-2.8-4.7-4.7c-1.4-1.9-1.9-4.2-1.9-7c0-4.2,1.4-8,4.2-10.8c2.8-2.8,6.5-4.2,11.2-4.2
					C1852,266.3,1857.1,270,1859,277.5z"/>
			</g>
			<g>
				<path class="st13" d="M1888,297.6c0,12.6-4.7,18.7-14.5,18.7c-9.8,0-14.5-6.1-14.5-18.7s4.7-18.7,14.5-18.7
					C1883.3,278.9,1888,285,1888,297.6z M1877.7,297.6c0-4.7-0.5-7.5-0.9-9.4c-0.5-1.4-1.9-2.3-3.3-2.3c-1.4,0-2.8,0.9-3.3,2.3
					c-0.5,1.4-0.9,4.7-0.9,9.4c0,4.2,0.5,7.5,0.9,9.4c0.5,1.9,1.9,2.3,3.3,2.3c1.4,0,2.8-0.9,3.3-2.3
					C1877.2,305.1,1877.7,301.8,1877.7,297.6z"/>
			</g>
			<g>
				<path class="st13" d="M1916.1,292.5l-9.4,0.5c0-2.3-0.5-3.7-0.9-5.1c-0.5-0.9-1.4-1.9-2.8-1.9c-3.3,0-5.1,3.7-5.1,10.8
					c0,4.2,0.5,7,1.4,8.4c0.9,1.4,1.9,2.3,3.7,2.3c2.3,0,3.7-2.3,4.2-6.5l9.4,0.5c-0.9,9.4-5.6,14-14,14c-4.7,0-8-1.4-10.8-4.7
					c-2.8-3.3-3.7-8-3.7-14s1.4-10.8,3.7-14c2.3-3.3,6.1-4.7,10.8-4.7C1910.9,278.9,1915.6,283.6,1916.1,292.5z"/>
			</g>
			<g>
				<path class="st13" d="M1928.2,276.6h-10.3v-9.8h10.3V276.6z M1917.9,279.4h9.8v36h-9.8V279.4z"/>
			</g>
			<g>
				<path class="st13" d="M1957.7,299H1939v1.9c0,3.3,0.5,5.1,1.4,6.5c0.9,0.9,1.9,1.4,3.3,1.4c3.3,0,4.7-1.9,5.1-6.1l8.9,0.5
					c-1.4,8.4-6.5,12.6-14,12.6c-4.7,0-8.4-1.9-11.2-5.1c-2.3-3.3-3.7-7.5-3.7-13.1c0-6.1,1.4-10.8,4.2-14.5
					c2.8-3.3,6.1-5.1,10.8-5.1c4.2,0,7.5,1.4,10.3,4.2C1956.7,285.9,1957.7,291.5,1957.7,299z M1948.3,293.4c0-0.5,0-0.9,0-0.9
					c0-4.7-1.4-7-4.7-7c-3.3,0-4.7,2.8-4.7,8H1948.3z"/>
			</g>
			<g>
				<path class="st13" d="M1960.5,268.6l9.8-0.5v11.2h6.5v8h-6.5v13.1c0,2.3,0,4.2,0,4.7c0,0.9,0.5,1.4,0.9,1.9
					c0.5,0.5,1.4,0.9,3.3,0.9c0.9,0,1.9,0,2.8,0v7.5c-2.3,0.5-4.2,0.9-6.1,0.9c-2.8,0-5.1-0.5-7-1.9c-1.4-0.9-2.8-2.8-3.3-4.2
					c-0.5-1.9-0.5-4.7-0.5-8.4v-14.5h-4.2v-8h4.2V268.6z"/>
			</g>
			<g>
				<path class="st13" d="M1971.2,279.4h9.8l4.7,22l4.7-22h8.4l-10.8,36.5c-0.9,3.3-1.9,6.1-2.8,7.5c-0.9,1.4-1.9,2.3-3.3,3.3
					s-3.3,1.4-5.6,1.4c-1.4,0-2.8,0-4.2-0.5v-8c0.9,0,1.9,0,2.8,0c1.9,0,3.3-0.5,4.2-0.9s1.4-1.9,1.9-4.2L1971.2,279.4z"/>
			</g>
			<g>
				<path class="st13" d="M2023.6,279.4h6.5v8h-6.5v28.1h-9.8v-28.1h-4.2v-8h4.2c0-3.7,0.5-6.1,0.9-8c0.5-1.9,1.9-3.3,3.3-4.7
					c1.9-1.4,4.2-1.9,7-1.9c1.9,0,3.3,0,5.1,0.5v8c-0.9,0-1.4,0-2.3,0c-1.9,0-3.3,0.5-3.7,1.4
					C2023.6,275.2,2023.6,276.6,2023.6,279.4z"/>
			</g>
			<g>
				<path class="st13" d="M2056.4,297.6c0,12.6-4.7,18.7-14.5,18.7c-9.8,0-14.5-6.1-14.5-18.7s4.7-18.7,14.5-18.7
					C2051.7,278.9,2056.4,285,2056.4,297.6z M2046.1,297.6c0-4.7-0.5-7.5-0.9-9.4c-0.5-1.4-1.9-2.3-3.3-2.3s-2.8,0.9-3.3,2.3
					s-0.9,4.7-0.9,9.4c0,4.2,0.5,7.5,0.9,9.4c0.5,1.9,1.9,2.3,3.3,2.3s2.8-0.9,3.3-2.3C2046.1,305.1,2046.1,301.8,2046.1,297.6z"/>
			</g>
			<g>
				<path class="st13" d="M2057.8,279.4h8.9v8.9c1.4-6.1,4.2-9.4,8.4-9.4c0.5,0,0.9,0,1.9,0v9.8c-0.9,0-1.4,0-1.9,0
					c-4.7,0-7.5,3.7-7.5,11.2v15.4h-9.8V279.4L2057.8,279.4z"/>
			</g>
			<g>
				<path class="st13" d="M2089.1,266.8h10.8v48.6h-10.8V266.8z"/>
			</g>
			<g>
				<path class="st13" d="M2103.1,279.4h9.4v4.7c1.9-3.7,4.7-5.6,8.9-5.6c2.3,0,4.2,0.5,5.6,1.4c1.4,0.9,2.3,2.3,2.8,4.2
					c0.5,1.4,0.5,4.2,0.5,7.5v23.4h-9.8v-23.4c0-2.3-0.5-3.7-0.9-4.7c-0.5-0.5-1.4-0.9-2.3-0.9c-1.9,0-2.8,0.5-3.7,1.9
					c-0.5,0.9-0.9,3.3-0.9,6.1v21h-9.8v-35.5H2103.1z"/>
			</g>
			<g>
				<path class="st13" d="M2135,268.6l9.8-0.5v11.2h6.5v8h-6.5v13.1c0,2.3,0,4.2,0,4.7c0,0.9,0.5,1.4,0.9,1.9
					c0.5,0.5,1.4,0.9,3.3,0.9c0.9,0,1.9,0,2.8,0v7.5c-2.3,0.5-4.2,0.9-6.1,0.9c-2.8,0-5.1-0.5-7-1.9c-1.4-0.9-2.8-2.8-3.3-4.2
					c-0.5-1.9-0.5-4.7-0.5-8.4v-14.5h-4.2v-8h4.2V268.6z"/>
			</g>
			<g>
				<path class="st13" d="M2179.4,299h-18.7v1.9c0,3.3,0.5,5.1,1.4,6.5c0.9,0.9,1.9,1.4,3.3,1.4c3.3,0,4.7-1.9,5.1-6.1l8.9,0.5
					c-1.4,8.4-6.5,12.6-14,12.6c-4.7,0-8.4-1.9-11.2-5.1c-2.3-3.3-3.7-7.5-3.7-13.1c0-6.1,1.4-10.8,4.2-14.5
					c2.8-3.3,6.1-5.1,10.8-5.1c4.2,0,7.5,1.4,10.3,4.2C2178,285.9,2179.4,291.5,2179.4,299z M2170,293.4c0-0.5,0-0.9,0-0.9
					c0-4.7-1.4-7-4.7-7s-4.7,2.8-4.7,8H2170z"/>
			</g>
			<g>
				<path class="st13" d="M2180.8,266.8h9.8v48.6h-9.8V266.8z"/>
			</g>
			<g>
				<path class="st13" d="M2193,266.8h9.8v48.6h-9.8V266.8z"/>
			</g>
			<g>
				<path class="st13" d="M2232.7,299H2214v1.9c0,3.3,0.5,5.1,1.4,6.5c0.9,0.9,1.9,1.4,3.3,1.4c3.3,0,4.7-1.9,5.1-6.1l8.9,0.5
					c-1.4,8.4-6.5,12.6-14,12.6c-4.7,0-8.4-1.9-11.2-5.1c-2.3-3.3-3.7-7.5-3.7-13.1c0-6.1,1.4-10.8,4.2-14.5
					c2.8-3.3,6.1-5.1,10.8-5.1c4.2,0,7.5,1.4,10.3,4.2C2231.3,285.9,2232.7,291.5,2232.7,299z M2223.4,293.4c0-0.5,0-0.9,0-0.9
					c0-4.7-1.4-7-4.7-7s-4.7,2.8-4.7,8H2223.4z"/>
			</g>
			<g>
				<path class="st13" d="M2260.8,292.5l-9.4,0.5c0-2.3-0.5-3.7-0.9-5.1c-0.5-0.9-1.4-1.9-2.8-1.9c-3.3,0-5.1,3.7-5.1,10.8
					c0,4.2,0.5,7,1.4,8.4s1.9,2.3,3.7,2.3c2.3,0,3.7-2.3,4.2-6.5l9.4,0.5c-0.9,9.4-5.6,14-14,14c-4.7,0-8-1.4-10.8-4.7
					c-2.8-3.3-3.7-8-3.7-14s1.4-10.8,3.7-14c2.3-3.3,6.1-4.7,10.8-4.7C2255.2,278.9,2259.8,283.6,2260.8,292.5z"/>
			</g>
			<g>
				<path class="st13" d="M2262.6,268.6l9.8-0.5v11.2h6.5v8h-6.5v13.1c0,2.3,0,4.2,0,4.7c0,0.9,0.5,1.4,0.9,1.9s1.4,0.9,3.3,0.9
					c0.9,0,1.9,0,2.8,0v7.5c-2.3,0.5-4.2,0.9-6.1,0.9c-2.8,0-5.1-0.5-7-1.9c-1.4-0.9-2.8-2.8-3.3-4.2c-0.5-1.9-0.5-4.7-0.5-8.4
					v-14.5h-4.2v-8h4.2V268.6z"/>
			</g>
			<g>
				<path class="st13" d="M2279,279.4h9.8v22.9c0,2.3,0,3.7,0.5,4.7c0.5,0.9,1.4,1.4,2.8,1.4s2.3-0.5,2.8-0.9s0.9-1.4,1.4-2.8
					c0-0.9,0-3.3,0-7v-18.2h9.8v36h-9.4v-4.7c-1.4,2.3-2.8,4.2-4.2,4.7c-1.4,0.5-3.3,0.9-5.1,0.9c-2.8,0-4.7-0.5-6.1-1.4
					c-1.4-0.9-2.3-2.3-2.8-4.2c-0.5-1.4-0.5-4.2-0.5-7.5v-23.9H2279z"/>
			</g>
			<g>
				<path class="st13" d="M2319.2,291.1l-9.4-0.9c0.5-3.7,1.9-6.5,4.7-8.4s6.1-2.8,9.8-2.8c3.3,0,6.1,0.5,8,1.9
					c1.9,1.4,3.3,2.8,3.7,4.7s0.9,4.2,0.9,8v14.5c0,4.7,0,7,0.5,8h-9.4c-0.5-0.9-0.5-2.8-0.5-5.6c-2.3,4.2-5.6,6.1-9.8,6.1
					c-2.8,0-5.1-0.9-7-2.3c-1.9-1.9-2.8-4.2-2.8-7.5c0-4.2,1.4-7,4.2-9.4c2.8-2.3,7.5-3.3,14.5-3.7V292c0-2.3-0.5-4.2-0.9-5.1
					s-1.4-1.4-2.8-1.4C2321.1,285.5,2319.7,287.3,2319.2,291.1z M2327.2,298.1c-2.8,0.5-5.1,0.9-6.1,1.9c-1.4,0.9-1.9,2.3-1.9,4.7
					c0,2.8,0.9,4.7,3.3,4.7c1.4,0,2.3-0.5,3.3-1.9s1.4-3.7,1.4-7.5V298.1z"/>
			</g>
			<g>
				<path class="st13" d="M2339.8,266.8h9.8v48.6h-9.8V266.8z"/>
			</g>
			<g>
				<path class="st13" d="M2367,266.8h14c4.2,0,7.5,0.5,9.8,0.9c2.3,0.9,4.2,2.3,6.1,4.7c1.4,2.3,2.3,5.6,2.3,9.4s-0.5,6.5-1.9,8.9
					c-1.4,2.3-3.3,4.2-5.1,5.1c-2.3,0.9-5.6,1.4-10.3,1.4h-4.7v17.8h-10.8v-48.2H2367z M2377.2,274.7v14.5h3.3
					c2.8,0,4.7-0.5,5.6-1.9s1.4-3.3,1.4-5.1c0-1.9-0.5-3.3-0.9-4.2c-0.5-0.9-1.4-1.9-2.3-2.3c-0.9-0.5-1.9-0.5-3.7-0.5h-3.3V274.7z"
					/>
			</g>
			<g>
				<path class="st13" d="M2397.8,279.4h8.9v8.9c1.4-6.1,4.2-9.4,8.4-9.4c0.5,0,0.9,0,1.9,0v9.8c-0.9,0-1.4,0-1.9,0
					c-4.7,0-7.5,3.7-7.5,11.2v15.4h-9.8V279.4L2397.8,279.4z"/>
			</g>
			<g>
				<path class="st13" d="M2443.7,297.6c0,12.6-4.7,18.7-14.5,18.7c-9.8,0-14.5-6.1-14.5-18.7s4.7-18.7,14.5-18.7
					C2439,278.9,2443.7,285,2443.7,297.6z M2433.4,297.6c0-4.7-0.5-7.5-0.9-9.4c-0.5-1.4-1.9-2.3-3.3-2.3c-1.4,0-2.8,0.9-3.3,2.3
					s-0.9,4.7-0.9,9.4c0,4.2,0.5,7.5,0.9,9.4s1.9,2.3,3.3,2.3c1.4,0,2.8-0.9,3.3-2.3C2432.9,305.1,2433.4,301.8,2433.4,297.6z"/>
			</g>
			<g>
				<path class="st13" d="M2445.1,279.4h9.4v5.1c1.9-3.7,4.7-5.6,8-5.6c3.3,0,6.1,1.4,8.4,4.2c2.3,2.8,3.3,7.5,3.3,13.6
					c0,6.1-0.9,11.2-3.3,14c-2.3,3.3-5.1,4.7-8.9,4.7c-2.8,0-5.1-0.9-7-3.3v15h-9.8V279.4z M2454.9,300.9c0,3.3,0.5,5.6,0.9,6.5
					c0.5,0.9,1.9,1.4,3.3,1.4c1.4,0,2.8-0.5,3.3-1.9c0.9-1.4,0.9-4.7,0.9-9.8c0-4.2-0.5-7.5-0.9-8.9s-1.9-2.3-3.3-2.3
					c-1.4,0-2.3,0.5-3.3,1.4c-0.9,0.9-1.4,3.3-1.4,7v6.5H2454.9z"/>
			</g>
			<g>
				<path class="st13" d="M2502.6,299h-18.7v1.9c0,3.3,0.5,5.1,1.4,6.5c0.9,0.9,1.9,1.4,3.3,1.4c3.3,0,4.7-1.9,5.1-6.1l8.9,0.5
					c-1.4,8.4-6.5,12.6-14,12.6c-4.7,0-8.4-1.9-11.2-5.1c-2.3-3.3-3.7-7.5-3.7-13.1c0-6.1,1.4-10.8,4.2-14.5
					c2.8-3.3,6.1-5.1,10.8-5.1c4.2,0,7.5,1.4,10.3,4.2C2501.7,285.9,2502.6,291.5,2502.6,299z M2493.2,293.4c0-0.5,0-0.9,0-0.9
					c0-4.7-1.4-7-4.7-7s-4.7,2.8-4.7,8H2493.2z"/>
			</g>
			<g>
				<path class="st13" d="M2504,279.4h8.9v8.9c1.4-6.1,4.2-9.4,8.4-9.4c0.5,0,0.9,0,1.9,0v9.8c-0.9,0-1.4,0-1.9,0
					c-4.7,0-7.5,3.7-7.5,11.2v15.4h-9.8L2504,279.4L2504,279.4z"/>
			</g>
			<g>
				<path class="st13" d="M2525,268.6l9.8-0.5v11.2h6.5v8h-6.5v13.1c0,2.3,0,4.2,0,4.7c0,0.9,0.5,1.4,0.9,1.9s1.4,0.9,3.3,0.9
					c0.9,0,1.9,0,2.8,0v7.5c-2.3,0.5-4.2,0.9-6.1,0.9c-2.8,0-5.1-0.5-7-1.9c-1.4-0.9-2.8-2.8-3.3-4.2c-0.5-1.9-0.5-4.7-0.5-8.4
					v-14.5h-4.2v-8h4.2V268.6L2525,268.6z"/>
			</g>
			<g>
				<path class="st13" d="M2537.2,279.4h9.8l4.7,22l4.7-22h8.4l-10.8,36.5c-0.9,3.3-1.9,6.1-2.8,7.5s-1.9,2.3-3.3,3.3
					c-1.4,0.9-3.3,1.4-5.6,1.4c-1.4,0-2.8,0-4.2-0.5v-8c0.9,0,1.9,0,2.8,0c1.9,0,3.3-0.5,4.2-0.9s1.4-1.9,1.9-4.2L2537.2,279.4z"/>
			</g>
		</g>
	</g>
</g>
</svg>
