<?xml version="1.0" encoding="utf-8"?>
<!-- Generator: Adobe Illustrator 25.2.0, SVG Export Plug-In . SVG Version: 6.00 Build 0)  -->
<svg version="1.1" id="Layer_1" xmlns="http://www.w3.org/2000/svg" xmlns:xlink="http://www.w3.org/1999/xlink" x="0px" y="0px"
	 viewBox="0 0 150 150" style="enable-background:new 0 0 150 150;" xml:space="preserve">
<style type="text/css">
	.st0{fill:#B2B2B2;}
	.st1{fill:#FFFFFF;}
</style>
<path class="st0" d="M146.9,90.9l1.8-16.7l-9.1-1c-0.1-3.5-0.4-6.9-1.1-10.2l8.7-2.8L142,44.3l-8.7,2.8c-1.5-3.1-3.2-6.1-5.1-8.9
	l6.8-6.1l-11.2-12.4l-6.8,6.1c-2.6-2.2-5.3-4.2-8.3-6l3.7-8.4L97.1,4.7L93.4,13c-3.2-1-6.6-1.7-10-2.1V1.8H66.6v9.2
	c-3.4,0.4-6.8,1.2-10,2.1l-3.7-8.4l-15.3,6.8l3.7,8.4c-2.9,1.8-5.7,3.8-8.3,6l-6.8-6.1L15,32.2l6.8,6.1c-1.9,2.8-3.7,5.8-5.1,8.9
	L8,44.4L2.8,60.3l8.7,2.8c-0.6,3.3-1,6.7-1.1,10.2l-9.1,1l1.8,16.7l9.1-1c0.8,3.4,1.9,6.6,3.2,9.7l-7.9,4.6l8.4,14.5l7.9-4.6
	c2.1,2.7,4.4,5.2,6.8,7.6l-5.4,7.4l13.6,9.8l5.4-7.4c3,1.6,6.1,3,9.4,4.2l-1.9,8.9l16.4,3.5l1.9-9c1.7,0.1,3.4,0.2,5.1,0.2
	c1.7,0,3.4-0.1,5.1-0.2l1.9,9l16.4-3.5l-1.9-8.9c3.2-1.1,6.4-2.5,9.3-4.2l5.4,7.4l13.6-9.8l-5.4-7.4c2.5-2.3,4.8-4.9,6.8-7.6
	l7.9,4.6l8.4-14.5l-7.9-4.6c1.3-3.1,2.3-6.4,3.1-9.7L146.9,90.9z"/>
<g>
	<ellipse transform="matrix(0.7071 -0.7071 0.7071 0.7071 -31.0661 75.0001)" class="st0" cx="75" cy="75" rx="47.8" ry="47.8"/>
	<path class="st1" d="M75,28.7c25.6,0,46.3,20.7,46.3,46.3s-20.7,46.3-46.3,46.3S28.7,100.6,28.7,75S49.4,28.7,75,28.7 M75,25.7
		c-27.2,0-49.3,22.1-49.3,49.3s22.1,49.3,49.3,49.3s49.3-22.1,49.3-49.3S102.2,25.7,75,25.7L75,25.7z"/>
</g>
<image style="display:none;overflow:visible;" width="222" height="189" xlink:href="D:\Imp data\Done projects\innovation\handshake animation and AE\(Footage)\r1.png"  transform="matrix(1 0 0 1 146.6374 -33.9066)">
</image>
</svg>
